<svg xmlns="http://www.w3.org/2000/svg" viewBox="0 0 5000 5000"><defs><style>.cls-1{fill:#2e3445;}.cls-2{opacity:0.3;}.cls-27,.cls-28,.cls-29,.cls-3,.cls-30,.cls-31,.cls-33,.cls-34,.cls-36,.cls-37,.cls-38,.cls-39,.cls-40,.cls-41{fill:#fff;}.cls-4{opacity:0.22;}.cls-5{opacity:0.28;}.cls-6{opacity:0.34;}.cls-7{opacity:0.35;}.cls-8{opacity:0.4;}.cls-9{opacity:0.5;}.cls-10,.cls-16{opacity:0.15;}.cls-11,.cls-13,.cls-14,.cls-15,.cls-16,.cls-17,.cls-18,.cls-21,.cls-24,.cls-25{fill:none;}.cls-11,.cls-14,.cls-15,.cls-16,.cls-17,.cls-18,.cls-21,.cls-24,.cls-25,.cls-27,.cls-28,.cls-29,.cls-30,.cls-31,.cls-33,.cls-34,.cls-36,.cls-37,.cls-40,.cls-41{stroke:#fff;stroke-miterlimit:10;}.cls-12,.cls-14{opacity:0.1;}.cls-14,.cls-15,.cls-16,.cls-17,.cls-18,.cls-21,.cls-24,.cls-25{isolation:isolate;}.cls-15,.cls-36{opacity:0.19;}.cls-17{opacity:0.14;}.cls-18{opacity:0.16;}.cls-19{opacity:0.26;}.cls-20{opacity:0.17;}.cls-21{opacity:0.11;}.cls-22,.cls-38{opacity:0.4;}.cls-23{opacity:0.32;}.cls-24{opacity:0.12;}.cls-25{opacity:0.13;}.cls-26,.cls-40{opacity:0.25;}.cls-27{opacity:0.18;}.cls-28{opacity:0.16;}.cls-29{opacity:0.1;}.cls-30{opacity:0.13;}.cls-31{opacity:0.15;}.cls-32{opacity:0.39;}.cls-33{opacity:0.14;}.cls-34{opacity:0.12;}.cls-35{opacity:0.45;}.cls-37{opacity:0.22;}.cls-39{opacity:0.36;}.cls-41{opacity:0.21;}</style></defs><g id="Layer_1" data-name="Layer 1"><circle class="cls-1" cx="2500" cy="2500" r="183"/><path d="M2500,2317.5a181.91,181.91,0,0,1,181.71,182.13c-.11,100.47-81.65,181.82-182.12,181.71a181.92,181.92,0,1,1,.41-363.84m0-1c-101.34,0-183.5,82.16-183.5,183.5s82.16,183.5,183.5,183.5,183.5-82.16,183.5-183.5S2601.34,2316.5,2500,2316.5Z"/><g class="cls-2"><circle class="cls-3" cx="1880.5" cy="2383.5" r="2"/><path class="cls-3" d="M1880.5,2382a1.5,1.5,0,1,1-1.5,1.5,1.5,1.5,0,0,1,1.5-1.5m0-1a2.5,2.5,0,1,0,2.5,2.5A2.5,2.5,0,0,0,1880.5,2381Z"/></g><g class="cls-2"><circle class="cls-3" cx="2215.5" cy="2290.5" r="2"/><path class="cls-3" d="M2215.5,2289a1.5,1.5,0,1,1-1.5,1.5,1.5,1.5,0,0,1,1.5-1.5m0-1a2.5,2.5,0,1,0,2.5,2.5A2.5,2.5,0,0,0,2215.5,2288Z"/></g><g class="cls-2"><circle class="cls-3" cx="2074.5" cy="2403" r="2"/><path class="cls-3" d="M2074.5,2401.5a1.5,1.5,0,1,1-1.5,1.5,1.5,1.5,0,0,1,1.5-1.5m0-1a2.5,2.5,0,1,0,2.5,2.5A2.5,2.5,0,0,0,2074.5,2400.5Z"/></g><g class="cls-2"><circle class="cls-3" cx="2145.5" cy="2679.5" r="2"/><path class="cls-3" d="M2145.5,2678a1.5,1.5,0,1,1-1.5,1.5,1.5,1.5,0,0,1,1.5-1.5m0-1a2.5,2.5,0,1,0,2.5,2.5A2.5,2.5,0,0,0,2145.5,2677Z"/></g><g class="cls-4"><circle class="cls-3" cx="2343" cy="2706.17" r="1"/><path class="cls-3" d="M2343,2705.67a.5.5,0,1,1-.5.5.5.5,0,0,1,.5-.5m0-1a1.5,1.5,0,1,0,1.5,1.5A1.5,1.5,0,0,0,2343,2704.67Z"/></g><g class="cls-2"><circle class="cls-3" cx="2301" cy="2818.67" r="2"/><path class="cls-3" d="M2301,2817.17a1.5,1.5,0,1,1-1.5,1.5,1.5,1.5,0,0,1,1.5-1.5m0-1a2.5,2.5,0,1,0,2.5,2.5A2.5,2.5,0,0,0,2301,2816.17Z"/></g><g class="cls-2"><circle class="cls-3" cx="2618.67" cy="2795.5" r="2"/><path class="cls-3" d="M2618.67,2794a1.5,1.5,0,1,1-1.5,1.5,1.5,1.5,0,0,1,1.5-1.5m0-1a2.5,2.5,0,1,0,2.5,2.5A2.5,2.5,0,0,0,2618.67,2793Z"/></g><g class="cls-5"><circle class="cls-3" cx="2018.33" cy="2730.67" r="1.5"/><path class="cls-3" d="M2018.33,2729.67a1,1,0,1,1-1,1,1,1,0,0,1,1-1m0-1a2,2,0,1,0,2,2A2,2,0,0,0,2018.33,2728.67Z"/></g><g class="cls-2"><circle class="cls-3" cx="1682.33" cy="2580.67" r="2"/><path class="cls-3" d="M1682.33,2579.17a1.5,1.5,0,1,1-1.5,1.5,1.5,1.5,0,0,1,1.5-1.5m0-1a2.5,2.5,0,1,0,2.5,2.5A2.5,2.5,0,0,0,1682.33,2578.17Z"/></g><g class="cls-2"><circle class="cls-3" cx="1682.33" cy="2932.67" r="2"/><path class="cls-3" d="M1682.33,2931.17a1.5,1.5,0,1,1-1.5,1.5,1.5,1.5,0,0,1,1.5-1.5m0-1a2.5,2.5,0,1,0,2.5,2.5A2.5,2.5,0,0,0,1682.33,2930.17Z"/></g><g class="cls-2"><circle class="cls-3" cx="1682.33" cy="3412.67" r="2"/><path class="cls-3" d="M1682.33,3411.17a1.5,1.5,0,1,1-1.5,1.5,1.5,1.5,0,0,1,1.5-1.5m0-1a2.5,2.5,0,1,0,2.5,2.5A2.5,2.5,0,0,0,1682.33,3410.17Z"/></g><g class="cls-2"><circle class="cls-3" cx="1625.33" cy="3172.67" r="2"/><path class="cls-3" d="M1625.33,3171.17a1.5,1.5,0,1,1-1.5,1.5,1.5,1.5,0,0,1,1.5-1.5m0-1a2.5,2.5,0,1,0,2.5,2.5A2.5,2.5,0,0,0,1625.33,3170.17Z"/></g><g class="cls-2"><circle class="cls-3" cx="1826.33" cy="2216.67" r="2"/><path class="cls-3" d="M1826.33,2215.17a1.5,1.5,0,1,1-1.5,1.5,1.5,1.5,0,0,1,1.5-1.5m0-1a2.5,2.5,0,1,0,2.5,2.5A2.5,2.5,0,0,0,1826.33,2214.17Z"/></g><g class="cls-2"><circle class="cls-3" cx="1938.33" cy="3060.67" r="2"/><path class="cls-3" d="M1938.33,3059.17a1.5,1.5,0,1,1-1.5,1.5,1.5,1.5,0,0,1,1.5-1.5m0-1a2.5,2.5,0,1,0,2.5,2.5A2.5,2.5,0,0,0,1938.33,3058.17Z"/></g><g class="cls-6"><circle class="cls-3" cx="2107.67" cy="2944.33" r="2"/><path class="cls-3" d="M2107.67,2942.83a1.5,1.5,0,1,1-1.5,1.5,1.5,1.5,0,0,1,1.5-1.5m0-1a2.5,2.5,0,1,0,2.5,2.5A2.5,2.5,0,0,0,2107.67,2941.83Z"/></g><g class="cls-2"><circle class="cls-3" cx="2288.67" cy="3296.33" r="2"/><path class="cls-3" d="M2288.67,3294.83a1.5,1.5,0,1,1-1.5,1.5,1.5,1.5,0,0,1,1.5-1.5m0-1a2.5,2.5,0,1,0,2.5,2.5A2.5,2.5,0,0,0,2288.67,3293.83Z"/></g><g class="cls-2"><circle class="cls-3" cx="2414.33" cy="3081.67" r="2"/><path class="cls-3" d="M2414.33,3080.17a1.5,1.5,0,1,1-1.5,1.5,1.5,1.5,0,0,1,1.5-1.5m0-1a2.5,2.5,0,1,0,2.5,2.5A2.5,2.5,0,0,0,2414.33,3079.17Z"/></g><g class="cls-2"><circle class="cls-3" cx="3418.33" cy="3065.5" r="2"/><path class="cls-3" d="M3418.33,3064a1.5,1.5,0,1,1-1.5,1.5,1.5,1.5,0,0,1,1.5-1.5m0-1a2.5,2.5,0,1,0,2.5,2.5A2.5,2.5,0,0,0,3418.33,3063Z"/></g><g class="cls-2"><circle class="cls-3" cx="3417" cy="3363" r="2"/><path class="cls-3" d="M3417,3361.5a1.5,1.5,0,1,1-1.5,1.5,1.5,1.5,0,0,1,1.5-1.5m0-1a2.5,2.5,0,1,0,2.5,2.5A2.5,2.5,0,0,0,3417,3360.5Z"/></g><g class="cls-2"><circle class="cls-3" cx="3517" cy="2915" r="2"/><path class="cls-3" d="M3517,2913.5a1.5,1.5,0,1,1-1.5,1.5,1.5,1.5,0,0,1,1.5-1.5m0-1a2.5,2.5,0,1,0,2.5,2.5A2.5,2.5,0,0,0,3517,2912.5Z"/></g><g class="cls-2"><circle class="cls-3" cx="3385" cy="1699" r="2"/><path class="cls-3" d="M3385,1697.5a1.5,1.5,0,1,1-1.5,1.5,1.5,1.5,0,0,1,1.5-1.5m0-1a2.5,2.5,0,1,0,2.5,2.5A2.5,2.5,0,0,0,3385,1696.5Z"/></g><g class="cls-2"><circle class="cls-3" cx="4057" cy="2608.33" r="2"/><path class="cls-3" d="M4057,2606.83a1.5,1.5,0,1,1-1.5,1.5,1.5,1.5,0,0,1,1.5-1.5m0-1a2.5,2.5,0,1,0,2.5,2.5A2.5,2.5,0,0,0,4057,2605.83Z"/></g><g class="cls-2"><circle class="cls-3" cx="4281" cy="501.67" r="2"/><path class="cls-3" d="M4281,500.17a1.5,1.5,0,1,1-1.5,1.5,1.5,1.5,0,0,1,1.5-1.5m0-1a2.5,2.5,0,1,0,2.5,2.5h0A2.5,2.5,0,0,0,4281,499.17Z"/></g><g class="cls-2"><circle class="cls-3" cx="2265" cy="456.67" r="2"/><path class="cls-3" d="M2265,455.17a1.5,1.5,0,1,1-1.5,1.5,1.5,1.5,0,0,1,1.5-1.5h0m0-1a2.5,2.5,0,1,0,2.5,2.5A2.5,2.5,0,0,0,2265,454.17Z"/></g><g class="cls-2"><circle class="cls-3" cx="2393" cy="1712.33" r="2"/><path class="cls-3" d="M2393,1710.83a1.5,1.5,0,1,1-1.5,1.5,1.5,1.5,0,0,1,1.5-1.5m0-1a2.5,2.5,0,1,0,2.5,2.5A2.5,2.5,0,0,0,2393,1709.83Z"/></g><g class="cls-2"><circle class="cls-3" cx="2681" cy="1840.33" r="2"/><path class="cls-3" d="M2681,1838.83a1.5,1.5,0,1,1-1.5,1.5h0a1.5,1.5,0,0,1,1.5-1.5m0-1a2.5,2.5,0,1,0,2.5,2.5A2.5,2.5,0,0,0,2681,1837.83Z"/></g><g class="cls-2"><circle class="cls-3" cx="2681" cy="1168.33" r="2"/><path class="cls-3" d="M2681,1166.83a1.5,1.5,0,1,1-1.5,1.5,1.5,1.5,0,0,1,1.5-1.5m0-1a2.5,2.5,0,1,0,2.5,2.5A2.5,2.5,0,0,0,2681,1165.83Z"/></g><g class="cls-2"><circle class="cls-3" cx="2873" cy="259" r="2"/><path class="cls-3" d="M2873,257.5a1.5,1.5,0,1,1-1.5,1.5,1.5,1.5,0,0,1,1.5-1.5m0-1a2.5,2.5,0,1,0,2.5,2.5A2.5,2.5,0,0,0,2873,256.5Z"/></g><g class="cls-2"><circle class="cls-3" cx="3033" cy="611" r="2"/><path class="cls-3" d="M3033,609.5a1.5,1.5,0,1,1-1.5,1.5,1.5,1.5,0,0,1,1.5-1.5m0-1a2.5,2.5,0,1,0,2.5,2.5A2.5,2.5,0,0,0,3033,608.5Z"/></g><g class="cls-2"><circle class="cls-3" cx="2809" cy="739" r="2"/><path class="cls-3" d="M2809,737.5a1.5,1.5,0,1,1-1.5,1.5,1.5,1.5,0,0,1,1.5-1.5m0-1a2.5,2.5,0,1,0,2.5,2.5A2.5,2.5,0,0,0,2809,736.5Z"/></g><g class="cls-2"><circle class="cls-3" cx="3801" cy="1027" r="2"/><path class="cls-3" d="M3801,1025.5a1.5,1.5,0,1,1-1.5,1.5,1.5,1.5,0,0,1,1.5-1.5m0-1a2.5,2.5,0,1,0,2.5,2.5A2.5,2.5,0,0,0,3801,1024.5Z"/></g><g class="cls-2"><circle class="cls-3" cx="3852" cy="1347" r="2"/><path class="cls-3" d="M3852,1345.5a1.5,1.5,0,1,1-1.5,1.5,1.5,1.5,0,0,1,1.5-1.5m0-1a2.5,2.5,0,1,0,2.5,2.5A2.5,2.5,0,0,0,3852,1344.5Z"/></g><g class="cls-2"><circle class="cls-3" cx="4089" cy="693.67" r="2"/><path class="cls-3" d="M4089,692.17a1.5,1.5,0,1,1-1.5,1.5,1.5,1.5,0,0,1,1.5-1.5m0-1a2.5,2.5,0,1,0,2.5,2.5A2.5,2.5,0,0,0,4089,691.17Z"/></g><g class="cls-2"><circle class="cls-3" cx="4089" cy="1045.67" r="2"/><path class="cls-3" d="M4089,1044.17a1.5,1.5,0,1,1-1.5,1.5,1.5,1.5,0,0,1,1.5-1.5m0-1a2.5,2.5,0,1,0,2.5,2.5A2.5,2.5,0,0,0,4089,1043.17Z"/></g><g class="cls-2"><circle class="cls-3" cx="4089" cy="1973.67" r="2"/><path class="cls-3" d="M4089,1972.17a1.5,1.5,0,1,1-1.5,1.5,1.5,1.5,0,0,1,1.5-1.5m0-1a2.5,2.5,0,1,0,2.5,2.5A2.5,2.5,0,0,0,4089,1971.17Z"/></g><g class="cls-2"><circle class="cls-3" cx="4569" cy="1032.33" r="2"/><path class="cls-3" d="M4569,1030.83a1.5,1.5,0,1,1-1.5,1.5,1.5,1.5,0,0,1,1.5-1.5m0-1a2.5,2.5,0,1,0,2.5,2.5A2.5,2.5,0,0,0,4569,1029.83Z"/></g><g class="cls-2"><circle class="cls-3" cx="4569" cy="1160.33" r="2"/><path class="cls-3" d="M4569,1158.83a1.5,1.5,0,1,1-1.5,1.5,1.5,1.5,0,0,1,1.5-1.5m0-1a2.5,2.5,0,1,0,2.5,2.5A2.5,2.5,0,0,0,4569,1157.83Z"/></g><g class="cls-2"><circle class="cls-3" cx="4569" cy="1704.33" r="2"/><path class="cls-3" d="M4569,1702.83a1.5,1.5,0,1,1-1.5,1.5,1.5,1.5,0,0,1,1.5-1.5m0-1a2.5,2.5,0,1,0,2.5,2.5A2.5,2.5,0,0,0,4569,1701.83Z"/></g><g class="cls-2"><circle class="cls-3" cx="4697" cy="2312.33" r="2"/><path class="cls-3" d="M4697,2310.83a1.5,1.5,0,1,1-1.5,1.5,1.5,1.5,0,0,1,1.5-1.5m0-1a2.5,2.5,0,1,0,2.5,2.5A2.5,2.5,0,0,0,4697,2309.83Z"/></g><g class="cls-2"><circle class="cls-3" cx="4825" cy="2856.33" r="2"/><path class="cls-3" d="M4825,2854.83a1.5,1.5,0,1,1-1.5,1.5,1.5,1.5,0,0,1,1.5-1.5m0-1a2.5,2.5,0,1,0,2.5,2.5A2.5,2.5,0,0,0,4825,2853.83Z"/></g><g class="cls-2"><circle class="cls-3" cx="4409" cy="2760.33" r="2"/><path class="cls-3" d="M4409,2758.83a1.5,1.5,0,1,1-1.5,1.5,1.5,1.5,0,0,1,1.5-1.5m0-1a2.5,2.5,0,1,0,2.5,2.5A2.5,2.5,0,0,0,4409,2757.83Z"/></g><g class="cls-2"><circle class="cls-3" cx="4505" cy="4149.67" r="2"/><path class="cls-3" d="M4505,4148.17a1.5,1.5,0,1,1-1.5,1.5,1.5,1.5,0,0,1,1.5-1.5m0-1a2.5,2.5,0,1,0,2.5,2.5A2.5,2.5,0,0,0,4505,4147.17Z"/></g><g class="cls-2"><circle class="cls-3" cx="4536" cy="3413.67" r="2"/><path class="cls-3" d="M4536,3412.17a1.5,1.5,0,1,1-1.5,1.5,1.5,1.5,0,0,1,1.5-1.5m0-1a2.5,2.5,0,1,0,2.5,2.5A2.5,2.5,0,0,0,4536,3411.17Z"/></g><g class="cls-2"><circle class="cls-3" cx="4633" cy="3509.67" r="2"/><path class="cls-3" d="M4633,3508.17a1.5,1.5,0,1,1-1.5,1.5,1.5,1.5,0,0,1,1.5-1.5m0-1a2.5,2.5,0,1,0,2.5,2.5A2.5,2.5,0,0,0,4633,3507.17Z"/></g><g class="cls-2"><circle class="cls-3" cx="4889" cy="3957.67" r="2"/><path class="cls-3" d="M4889,3956.17a1.5,1.5,0,1,1-1.5,1.5,1.5,1.5,0,0,1,1.5-1.5m0-1a2.5,2.5,0,1,0,2.5,2.5A2.5,2.5,0,0,0,4889,3955.17Z"/></g><g class="cls-2"><circle class="cls-3" cx="4921" cy="3285.67" r="2"/><path class="cls-3" d="M4921,3284.17a1.5,1.5,0,1,1-1.5,1.5,1.5,1.5,0,0,1,1.5-1.5m0-1a2.5,2.5,0,1,0,2.5,2.5A2.5,2.5,0,0,0,4921,3283.17Z"/></g><g class="cls-2"><circle class="cls-3" cx="4153" cy="3061.67" r="2"/><path class="cls-3" d="M4153,3060.17a1.5,1.5,0,1,1-1.5,1.5,1.5,1.5,0,0,1,1.5-1.5m0-1a2.5,2.5,0,1,0,2.5,2.5A2.5,2.5,0,0,0,4153,3059.17Z"/></g><g class="cls-2"><circle class="cls-3" cx="4153" cy="3797.67" r="2"/><path class="cls-3" d="M4153,3796.17a1.5,1.5,0,1,1-1.5,1.5,1.5,1.5,0,0,1,1.5-1.5m0-1a2.5,2.5,0,1,0,2.5,2.5A2.5,2.5,0,0,0,4153,3795.17Z"/></g><g class="cls-2"><circle class="cls-3" cx="4153" cy="4341.67" r="2"/><path class="cls-3" d="M4153,4340.17a1.5,1.5,0,1,1-1.5,1.5,1.5,1.5,0,0,1,1.5-1.5m0-1a2.5,2.5,0,1,0,2.5,2.5A2.5,2.5,0,0,0,4153,4339.17Z"/></g><g class="cls-2"><circle class="cls-3" cx="3545" cy="4309.67" r="2"/><path class="cls-3" d="M3545,4308.17a1.5,1.5,0,1,1-1.5,1.5,1.5,1.5,0,0,1,1.5-1.5m0-1a2.5,2.5,0,1,0,2.5,2.5A2.5,2.5,0,0,0,3545,4307.17Z"/></g><g class="cls-2"><circle class="cls-3" cx="3033" cy="3240.33" r="2"/><path class="cls-3" d="M3033,3238.83a1.5,1.5,0,1,1-1.5,1.5,1.5,1.5,0,0,1,1.5-1.5m0-1a2.5,2.5,0,1,0,2.5,2.5A2.5,2.5,0,0,0,3033,3237.83Z"/></g><g class="cls-2"><circle class="cls-3" cx="3033" cy="3816.33" r="2"/><path class="cls-3" d="M3033,3814.83a1.5,1.5,0,1,1-1.5,1.5,1.5,1.5,0,0,1,1.5-1.5m0-1a2.5,2.5,0,1,0,2.5,2.5A2.5,2.5,0,0,0,3033,3813.83Z"/></g><g class="cls-2"><circle class="cls-3" cx="3033" cy="4520.33" r="2"/><path class="cls-3" d="M3033,4518.83a1.5,1.5,0,1,1-1.5,1.5,1.5,1.5,0,0,1,1.5-1.5m0-1a2.5,2.5,0,1,0,2.5,2.5A2.5,2.5,0,0,0,3033,4517.83Z"/></g><g class="cls-2"><circle class="cls-3" cx="2457" cy="4648.33" r="2"/><path class="cls-3" d="M2457,4646.83a1.5,1.5,0,1,1-1.5,1.5,1.5,1.5,0,0,1,1.5-1.5m0-1a2.5,2.5,0,1,0,2.5,2.5A2.5,2.5,0,0,0,2457,4645.83Z"/></g><g class="cls-2"><circle class="cls-3" cx="2457" cy="4104.33" r="2"/><path class="cls-3" d="M2457,4102.83a1.5,1.5,0,1,1-1.5,1.5,1.5,1.5,0,0,1,1.5-1.5m0-1a2.5,2.5,0,1,0,2.5,2.5A2.5,2.5,0,0,0,2457,4101.83Z"/></g><g class="cls-2"><circle class="cls-3" cx="2105" cy="3848.33" r="2"/><path class="cls-3" d="M2105,3846.83a1.5,1.5,0,1,1-1.5,1.5,1.5,1.5,0,0,1,1.5-1.5m0-1a2.5,2.5,0,1,0,2.5,2.5A2.5,2.5,0,0,0,2105,3845.83Z"/></g><g class="cls-2"><circle class="cls-3" cx="2233" cy="4296.33" r="2"/><path class="cls-3" d="M2233,4294.83a1.5,1.5,0,1,1-1.5,1.5,1.5,1.5,0,0,1,1.5-1.5m0-1a2.5,2.5,0,1,0,2.5,2.5A2.5,2.5,0,0,0,2233,4293.83Z"/></g><g class="cls-2"><circle class="cls-3" cx="1465" cy="4456.33" r="2"/><path class="cls-3" d="M1465,4454.83a1.5,1.5,0,1,1-1.5,1.5,1.5,1.5,0,0,1,1.5-1.5m0-1a2.5,2.5,0,1,0,2.5,2.5A2.5,2.5,0,0,0,1465,4453.83Z"/></g><g class="cls-2"><circle class="cls-3" cx="1817" cy="4712.33" r="2"/><path class="cls-3" d="M1817,4710.83a1.5,1.5,0,1,1-1.5,1.5,1.5,1.5,0,0,1,1.5-1.5m0-1a2.5,2.5,0,1,0,2.5,2.5A2.5,2.5,0,0,0,1817,4709.83Z"/></g><g class="cls-2"><circle class="cls-3" cx="1849" cy="3880.33" r="2"/><path class="cls-3" d="M1849,3878.83a1.5,1.5,0,1,1-1.5,1.5h0a1.5,1.5,0,0,1,1.5-1.5m0-1a2.5,2.5,0,1,0,2.5,2.5A2.5,2.5,0,0,0,1849,3877.83Z"/></g><g class="cls-2"><circle class="cls-3" cx="1369" cy="3624.33" r="2"/><path class="cls-3" d="M1369,3622.83a1.5,1.5,0,1,1-1.5,1.5,1.5,1.5,0,0,1,1.5-1.5m0-1a2.5,2.5,0,1,0,2.5,2.5A2.5,2.5,0,0,0,1369,3621.83Z"/></g><g class="cls-2"><circle class="cls-3" cx="1403" cy="3976.33" r="2"/><path class="cls-3" d="M1403,3974.83a1.5,1.5,0,1,1-1.5,1.5,1.5,1.5,0,0,1,1.5-1.5m0-1a2.5,2.5,0,1,0,2.5,2.5A2.5,2.5,0,0,0,1403,3973.83Z"/></g><g class="cls-2"><circle class="cls-3" cx="1273" cy="4264.33" r="2"/><path class="cls-3" d="M1273,4262.83a1.5,1.5,0,1,1-1.5,1.5,1.5,1.5,0,0,1,1.5-1.5m0-1a2.5,2.5,0,1,0,2.5,2.5A2.5,2.5,0,0,0,1273,4261.83Z"/></g><g class="cls-2"><circle class="cls-3" cx="1177" cy="3144.33" r="2"/><path class="cls-3" d="M1177,3142.83a1.5,1.5,0,1,1-1.5,1.5,1.5,1.5,0,0,1,1.5-1.5m0-1a2.5,2.5,0,1,0,2.5,2.5A2.5,2.5,0,0,0,1177,3141.83Z"/></g><g class="cls-2"><circle class="cls-3" cx="1305" cy="2856.33" r="2"/><path class="cls-3" d="M1305,2854.83a1.5,1.5,0,1,1-1.5,1.5,1.5,1.5,0,0,1,1.5-1.5m0-1a2.5,2.5,0,1,0,2.5,2.5A2.5,2.5,0,0,0,1305,2853.83Z"/></g><g class="cls-2"><circle class="cls-3" cx="1353" cy="2248.33" r="2"/><path class="cls-3" d="M1353,2246.83a1.5,1.5,0,1,1-1.5,1.5,1.5,1.5,0,0,1,1.5-1.5m0-1a2.5,2.5,0,1,0,2.5,2.5A2.5,2.5,0,0,0,1353,2245.83Z"/></g><g class="cls-2"><circle class="cls-3" cx="1254" cy="1640.33" r="2"/><path class="cls-3" d="M1254,1638.83a1.5,1.5,0,1,1-1.5,1.5,1.5,1.5,0,0,1,1.5-1.5m0-1a2.5,2.5,0,1,0,2.5,2.5A2.5,2.5,0,0,0,1254,1637.83Z"/></g><g class="cls-2"><circle class="cls-3" cx="1593" cy="1640.33" r="2"/><path class="cls-3" d="M1593,1638.83a1.5,1.5,0,1,1-1.5,1.5,1.5,1.5,0,0,1,1.5-1.5m0-1a2.5,2.5,0,1,0,2.5,2.5A2.5,2.5,0,0,0,1593,1637.83Z"/></g><g class="cls-2"><circle class="cls-3" cx="1625" cy="1416.33" r="2"/><path class="cls-3" d="M1625,1414.83a1.5,1.5,0,1,1-1.5,1.5,1.5,1.5,0,0,1,1.5-1.5m0-1a2.5,2.5,0,1,0,2.5,2.5A2.5,2.5,0,0,0,1625,1413.83Z"/></g><g class="cls-2"><circle class="cls-3" cx="1945" cy="1832.33" r="2"/><path class="cls-3" d="M1945,1830.83a1.5,1.5,0,1,1-1.5,1.5,1.5,1.5,0,0,1,1.5-1.5m0-1a2.5,2.5,0,1,0,2.5,2.5A2.5,2.5,0,0,0,1945,1829.83Z"/></g><g class="cls-2"><circle class="cls-3" cx="2073" cy="1416.33" r="2"/><path class="cls-3" d="M2073,1414.83a1.5,1.5,0,1,1-1.5,1.5,1.5,1.5,0,0,1,1.5-1.5m0-1a2.5,2.5,0,1,0,2.5,2.5A2.5,2.5,0,0,0,2073,1413.83Z"/></g><g class="cls-2"><circle class="cls-3" cx="2233" cy="936.33" r="2"/><path class="cls-3" d="M2233,934.83a1.5,1.5,0,1,1-1.5,1.5,1.5,1.5,0,0,1,1.5-1.5m0-1a2.5,2.5,0,1,0,2.5,2.5A2.5,2.5,0,0,0,2233,933.83Z"/></g><g class="cls-2"><circle class="cls-3" cx="1433" cy="968.33" r="2"/><path class="cls-3" d="M1433,966.83a1.5,1.5,0,1,1-1.5,1.5,1.5,1.5,0,0,1,1.5-1.5m0-1a2.5,2.5,0,1,0,2.5,2.5A2.5,2.5,0,0,0,1433,965.83Z"/></g><g class="cls-2"><circle class="cls-3" cx="953" cy="712.33" r="2"/><path class="cls-3" d="M953,710.83a1.5,1.5,0,1,1-1.5,1.5,1.5,1.5,0,0,1,1.5-1.5m0-1a2.5,2.5,0,1,0,2.5,2.5A2.5,2.5,0,0,0,953,709.83Z"/></g><g class="cls-2"><circle class="cls-3" cx="1209" cy="1256.33" r="2"/><path class="cls-3" d="M1209,1254.83a1.5,1.5,0,1,1-1.5,1.5,1.5,1.5,0,0,1,1.5-1.5m0-1a2.5,2.5,0,1,0,2.5,2.5A2.5,2.5,0,0,0,1209,1253.83Z"/></g><g class="cls-2"><circle class="cls-3" cx="793" cy="1448.33" r="2"/><path class="cls-3" d="M793,1446.83a1.5,1.5,0,1,1-1.5,1.5,1.5,1.5,0,0,1,1.5-1.5m0-1a2.5,2.5,0,1,0,2.5,2.5A2.5,2.5,0,0,0,793,1445.83Z"/></g><g class="cls-2"><circle class="cls-3" cx="793" cy="1960.33" r="2"/><path class="cls-3" d="M793,1958.83a1.5,1.5,0,1,1-1.5,1.5,1.5,1.5,0,0,1,1.5-1.5m0-1a2.5,2.5,0,1,0,2.5,2.5A2.5,2.5,0,0,0,793,1957.83Z"/></g><g class="cls-2"><circle class="cls-3" cx="377" cy="2248.33" r="2"/><path class="cls-3" d="M377,2246.83a1.5,1.5,0,1,1-1.5,1.5,1.5,1.5,0,0,1,1.5-1.5m0-1a2.5,2.5,0,1,0,2.5,2.5A2.5,2.5,0,0,0,377,2245.83Z"/></g><g class="cls-2"><circle class="cls-3" cx="633" cy="2792.33" r="2"/><path class="cls-3" d="M633,2790.83a1.5,1.5,0,1,1-1.5,1.5,1.5,1.5,0,0,1,1.5-1.5m0-1a2.5,2.5,0,1,0,2.5,2.5A2.5,2.5,0,0,0,633,2789.83Z"/></g><g class="cls-2"><circle class="cls-3" cx="921" cy="2600.33" r="2"/><path class="cls-3" d="M921,2598.83a1.5,1.5,0,1,1-1.5,1.5,1.5,1.5,0,0,1,1.5-1.5m0-1a2.5,2.5,0,1,0,2.5,2.5A2.5,2.5,0,0,0,921,2597.83Z"/></g><g class="cls-2"><circle class="cls-3" cx="921" cy="3624.33" r="2"/><path class="cls-3" d="M921,3622.83a1.5,1.5,0,1,1-1.5,1.5,1.5,1.5,0,0,1,1.5-1.5m0-1a2.5,2.5,0,1,0,2.5,2.5A2.5,2.5,0,0,0,921,3621.83Z"/></g><g class="cls-2"><circle class="cls-3" cx="825" cy="4040.33" r="2"/><path class="cls-3" d="M825,4038.83a1.5,1.5,0,1,1-1.5,1.5h0a1.5,1.5,0,0,1,1.5-1.5m0-1a2.5,2.5,0,1,0,2.5,2.5A2.5,2.5,0,0,0,825,4037.83Z"/></g><g class="cls-2"><circle class="cls-3" cx="1081" cy="3912.33" r="2"/><path class="cls-3" d="M1081,3910.83a1.5,1.5,0,1,1-1.5,1.5,1.5,1.5,0,0,1,1.5-1.5h0m0-1a2.5,2.5,0,1,0,2.5,2.5A2.5,2.5,0,0,0,1081,3909.83Z"/></g><g class="cls-2"><circle class="cls-3" cx="665" cy="4456.33" r="2"/><path class="cls-3" d="M665,4454.83a1.5,1.5,0,1,1-1.5,1.5,1.5,1.5,0,0,1,1.5-1.5m0-1a2.5,2.5,0,1,0,2.5,2.5A2.5,2.5,0,0,0,665,4453.83Z"/></g><g class="cls-2"><circle class="cls-3" cx="921" cy="4520.33" r="2"/><path class="cls-3" d="M921,4518.83a1.5,1.5,0,1,1-1.5,1.5,1.5,1.5,0,0,1,1.5-1.5m0-1a2.5,2.5,0,1,0,2.5,2.5A2.5,2.5,0,0,0,921,4517.83Z"/></g><g class="cls-2"><circle class="cls-3" cx="537" cy="3432.33" r="2"/><path class="cls-3" d="M537,3430.83a1.5,1.5,0,1,1-1.5,1.5,1.5,1.5,0,0,1,1.5-1.5m0-1a2.5,2.5,0,1,0,2.5,2.5A2.5,2.5,0,0,0,537,3429.83Z"/></g><g class="cls-2"><circle class="cls-3" cx="441" cy="776.33" r="2"/><path class="cls-3" d="M441,774.83a1.5,1.5,0,1,1-1.5,1.5,1.5,1.5,0,0,1,1.5-1.5m0-1a2.5,2.5,0,1,0,2.5,2.5A2.5,2.5,0,0,0,441,773.83Z"/></g><g class="cls-2"><circle class="cls-3" cx="1497" cy="360.33" r="2"/><path class="cls-3" d="M1497,358.83a1.5,1.5,0,1,1-1.5,1.5,1.5,1.5,0,0,1,1.5-1.5m0-1a2.5,2.5,0,1,0,2.5,2.5A2.5,2.5,0,0,0,1497,357.83Z"/></g><g class="cls-2"><circle class="cls-3" cx="1785" cy="680.33" r="2"/><path class="cls-3" d="M1785,678.83a1.5,1.5,0,1,1-1.5,1.5,1.5,1.5,0,0,1,1.5-1.5m0-1a2.5,2.5,0,1,0,2.5,2.5A2.5,2.5,0,0,0,1785,677.83Z"/></g><g class="cls-7"><circle class="cls-3" cx="3326.11" cy="1113.33" r="2"/><path class="cls-3" d="M3326.11,1111.83a1.5,1.5,0,1,1-1.5,1.5,1.5,1.5,0,0,1,1.5-1.5m0-1a2.5,2.5,0,1,0,2.5,2.5A2.5,2.5,0,0,0,3326.11,1110.83Z"/></g><g class="cls-2"><circle class="cls-3" cx="3577" cy="456.33" r="2"/><path class="cls-3" d="M3577,454.83a1.5,1.5,0,1,1-1.5,1.5,1.5,1.5,0,0,1,1.5-1.5m0-1a2.5,2.5,0,1,0,2.5,2.5A2.5,2.5,0,0,0,3577,453.83Z"/></g><g class="cls-2"><circle class="cls-3" cx="4921" cy="552.33" r="2"/><path class="cls-3" d="M4921,550.83a1.5,1.5,0,1,1-1.5,1.5,1.5,1.5,0,0,1,1.5-1.5m0-1a2.5,2.5,0,1,0,2.5,2.5A2.5,2.5,0,0,0,4921,549.83Z"/></g><g class="cls-2"><circle class="cls-3" cx="4825" cy="1768.33" r="2"/><path class="cls-3" d="M4825,1766.83a1.5,1.5,0,1,1-1.5,1.5,1.5,1.5,0,0,1,1.5-1.5m0-1a2.5,2.5,0,1,0,2.5,2.5A2.5,2.5,0,0,0,4825,1765.83Z"/></g><g class="cls-2"><circle class="cls-3" cx="4889" cy="2376.33" r="2"/><path class="cls-3" d="M4889,2374.83a1.5,1.5,0,1,1-1.5,1.5,1.5,1.5,0,0,1,1.5-1.5m0-1a2.5,2.5,0,1,0,2.5,2.5A2.5,2.5,0,0,0,4889,2373.83Z"/></g><g class="cls-2"><circle class="cls-3" cx="3290.33" cy="2377" r="2"/><path class="cls-3" d="M3290.33,2375.5a1.5,1.5,0,1,1-1.5,1.5,1.5,1.5,0,0,1,1.5-1.5m0-1a2.5,2.5,0,1,0,2.5,2.5A2.5,2.5,0,0,0,3290.33,2374.5Z"/></g><g class="cls-2"><circle class="cls-3" cx="3185.33" cy="2185" r="2"/><path class="cls-3" d="M3185.33,2183.5a1.5,1.5,0,1,1-1.5,1.5,1.5,1.5,0,0,1,1.5-1.5m0-1a2.5,2.5,0,1,0,2.5,2.5A2.5,2.5,0,0,0,3185.33,2182.5Z"/></g><g class="cls-2"><circle class="cls-3" cx="3674.33" cy="2313" r="2"/><path class="cls-3" d="M3674.33,2311.5a1.5,1.5,0,1,1-1.5,1.5,1.5,1.5,0,0,1,1.5-1.5m0-1a2.5,2.5,0,1,0,2.5,2.5A2.5,2.5,0,0,0,3674.33,2310.5Z"/></g><g class="cls-2"><circle class="cls-3" cx="3802.33" cy="2121" r="2"/><path class="cls-3" d="M3802.33,2119.5a1.5,1.5,0,1,1-1.5,1.5,1.5,1.5,0,0,1,1.5-1.5m0-1a2.5,2.5,0,1,0,2.5,2.5A2.5,2.5,0,0,0,3802.33,2118.5Z"/></g><g class="cls-2"><circle class="cls-3" cx="3162.33" cy="1993" r="2"/><path class="cls-3" d="M3162.33,1991.5a1.5,1.5,0,1,1-1.5,1.5,1.5,1.5,0,0,1,1.5-1.5h0m0-1a2.5,2.5,0,1,0,2.5,2.5A2.5,2.5,0,0,0,3162.33,1990.5Z"/></g><g class="cls-2"><circle class="cls-3" cx="2906.33" cy="2313" r="2"/><path class="cls-3" d="M2906.33,2311.5a1.5,1.5,0,1,1-1.5,1.5,1.5,1.5,0,0,1,1.5-1.5m0-1a2.5,2.5,0,1,0,2.5,2.5A2.5,2.5,0,0,0,2906.33,2310.5Z"/></g><g class="cls-2"><circle class="cls-3" cx="2937" cy="2783.89" r="2"/><path class="cls-3" d="M2937,2782.39a1.5,1.5,0,1,1-1.5,1.5,1.5,1.5,0,0,1,1.5-1.5m0-1a2.5,2.5,0,1,0,2.5,2.5A2.5,2.5,0,0,0,2937,2781.39Z"/></g><g class="cls-2"><circle class="cls-3" cx="2842.33" cy="3593" r="2"/><path class="cls-3" d="M2842.33,3591.5a1.5,1.5,0,1,1-1.5,1.5,1.5,1.5,0,0,1,1.5-1.5m0-1a2.5,2.5,0,1,0,2.5,2.5A2.5,2.5,0,0,0,2842.33,3590.5Z"/></g><g class="cls-2"><circle class="cls-3" cx="3226.33" cy="2505" r="2"/><path class="cls-3" d="M3226.33,2503.5a1.5,1.5,0,1,1-1.5,1.5,1.5,1.5,0,0,1,1.5-1.5m0-1a2.5,2.5,0,1,0,2.5,2.5A2.5,2.5,0,0,0,3226.33,2502.5Z"/></g><g class="cls-8"><circle class="cls-3" cx="2534" cy="2169" r="3"/><path class="cls-3" d="M2534,2166.5a2.5,2.5,0,1,1-2.5,2.5,2.5,2.5,0,0,1,2.5-2.5m0-1a3.5,3.5,0,1,0,3.5,3.5,3.5,3.5,0,0,0-3.5-3.5Z"/></g><g class="cls-8"><circle class="cls-3" cx="3218.33" cy="4951.33" r="3"/><path class="cls-3" d="M3218.33,4948.83a2.5,2.5,0,1,1-2.5,2.5,2.5,2.5,0,0,1,2.5-2.5m0-1a3.5,3.5,0,1,0,3.5,3.5,3.5,3.5,0,0,0-3.5-3.5Z"/></g><g class="cls-8"><circle class="cls-3" cx="2194.33" cy="4334.33" r="3"/><path class="cls-3" d="M2194.33,4331.83a2.5,2.5,0,1,1-2.5,2.5,2.5,2.5,0,0,1,2.5-2.5m0-1a3.5,3.5,0,1,0,3.5,3.5,3.5,3.5,0,0,0-3.5-3.5Z"/></g><g class="cls-8"><circle class="cls-3" cx="2834.33" cy="3246.33" r="3"/><path class="cls-3" d="M2834.33,3243.83a2.5,2.5,0,1,1-2.5,2.5,2.5,2.5,0,0,1,2.5-2.5m0-1a3.5,3.5,0,1,0,3.5,3.5,3.5,3.5,0,0,0-3.5-3.5Z"/></g><g class="cls-8"><circle class="cls-3" cx="3081" cy="867" r="3"/><path class="cls-3" d="M3081,864.5a2.5,2.5,0,1,1-2.5,2.5,2.5,2.5,0,0,1,2.5-2.5m0-1a3.5,3.5,0,1,0,3.5,3.5A3.5,3.5,0,0,0,3081,863.5Z"/></g><g class="cls-8"><circle class="cls-3" cx="2990" cy="1443" r="3"/><path class="cls-3" d="M2990,1440.5a2.5,2.5,0,1,1-2.5,2.5,2.5,2.5,0,0,1,2.5-2.5m0-1a3.5,3.5,0,1,0,3.5,3.5,3.5,3.5,0,0,0-3.5-3.5Z"/></g><g class="cls-8"><circle class="cls-3" cx="4041" cy="3075" r="3"/><path class="cls-3" d="M4041,3072.5a2.5,2.5,0,1,1-2.5,2.5,2.5,2.5,0,0,1,2.5-2.5m0-1a3.5,3.5,0,1,0,3.5,3.5,3.5,3.5,0,0,0-3.5-3.5Z"/></g><g class="cls-8"><circle class="cls-3" cx="1449" cy="1635" r="3"/><path class="cls-3" d="M1449,1632.5a2.5,2.5,0,1,1-2.5,2.5,2.5,2.5,0,0,1,2.5-2.5m0-1a3.5,3.5,0,1,0,3.5,3.5,3.5,3.5,0,0,0-3.5-3.5Z"/></g><g class="cls-8"><circle class="cls-3" cx="1065" cy="3075" r="3"/><path class="cls-3" d="M1065,3072.5a2.5,2.5,0,1,1-2.5,2.5,2.5,2.5,0,0,1,2.5-2.5m0-1a3.5,3.5,0,1,0,3.5,3.5,3.5,3.5,0,0,0-3.5-3.5Z"/></g><g class="cls-8"><circle class="cls-3" cx="105" cy="4035" r="3"/><path class="cls-3" d="M105,4032.5a2.5,2.5,0,1,1-2.5,2.5,2.5,2.5,0,0,1,2.5-2.5m0-1a3.5,3.5,0,1,0,3.5,3.5h0A3.5,3.5,0,0,0,105,4031.5Z"/></g><g class="cls-8"><circle class="cls-3" cx="489" cy="3171" r="3"/><path class="cls-3" d="M489,3168.5a2.5,2.5,0,1,1-2.5,2.5,2.5,2.5,0,0,1,2.5-2.5m0-1a3.5,3.5,0,1,0,3.5,3.5,3.5,3.5,0,0,0-3.5-3.5Z"/></g><g class="cls-8"><circle class="cls-3" cx="489" cy="1827" r="3"/><path class="cls-3" d="M489,1824.5a2.5,2.5,0,1,1-2.5,2.5,2.5,2.5,0,0,1,2.5-2.5m0-1a3.5,3.5,0,1,0,3.5,3.5,3.5,3.5,0,0,0-3.5-3.5Z"/></g><g class="cls-8"><circle class="cls-3" cx="3585" cy="4021" r="3"/><path class="cls-3" d="M3585,4018.5a2.5,2.5,0,1,1-2.5,2.5,2.5,2.5,0,0,1,2.5-2.5m0-1a3.5,3.5,0,1,0,3.5,3.5,3.5,3.5,0,0,0-3.5-3.5Z"/></g><g class="cls-9"><circle class="cls-3" cx="3988" cy="3554" r="4"/><path class="cls-3" d="M3988,3550.5a3.5,3.5,0,1,1-3.5,3.5,3.5,3.5,0,0,1,3.5-3.5h0m0-1a4.5,4.5,0,1,0,4.5,4.5h0a4.49,4.49,0,0,0-4.48-4.5Z"/></g><g class="cls-9"><circle class="cls-3" cx="4136" cy="2046" r="4"/><path class="cls-3" d="M4136,2042.5a3.5,3.5,0,1,1-3.5,3.5,3.5,3.5,0,0,1,3.5-3.5h0m0-1a4.5,4.5,0,1,0,4.5,4.5h0a4.49,4.49,0,0,0-4.48-4.5Z"/></g><g class="cls-9"><circle class="cls-3" cx="3265" cy="3268" r="4"/><path class="cls-3" d="M3265,3264.5a3.5,3.5,0,1,1-3.5,3.5,3.5,3.5,0,0,1,3.5-3.5h0m0-1a4.5,4.5,0,1,0,4.5,4.5h0a4.49,4.49,0,0,0-4.48-4.5Z"/></g><g class="cls-9"><circle class="cls-3" cx="3086" cy="2307" r="4"/><path class="cls-3" d="M3086,2303.5a3.5,3.5,0,1,1-3.5,3.5,3.5,3.5,0,0,1,3.5-3.5h0m0-1a4.5,4.5,0,1,0,4.5,4.5,4.49,4.49,0,0,0-4.5-4.5Z"/></g><g class="cls-9"><circle class="cls-3" cx="2221" cy="1635" r="4"/><path class="cls-3" d="M2221,1631.5a3.5,3.5,0,1,1-3.5,3.5,3.5,3.5,0,0,1,3.5-3.5h0m0-1a4.5,4.5,0,1,0,4.5,4.5,4.49,4.49,0,0,0-4.5-4.5Z"/></g><g class="cls-9"><circle class="cls-3" cx="2797" cy="4227" r="4"/><path class="cls-3" d="M2797,4223.5a3.5,3.5,0,1,1-3.5,3.5h0a3.5,3.5,0,0,1,3.5-3.5m0-1a4.5,4.5,0,1,0,4.5,4.5h0a4.49,4.49,0,0,0-4.48-4.5Z"/></g><g class="cls-9"><circle class="cls-3" cx="1357" cy="3459" r="4"/><path class="cls-3" d="M1357,3455.5a3.5,3.5,0,1,1-3.5,3.5,3.5,3.5,0,0,1,3.5-3.5h0m0-1a4.5,4.5,0,1,0,4.5,4.5h0a4.49,4.49,0,0,0-4.48-4.5Z"/></g><g class="cls-9"><circle class="cls-3" cx="973" cy="1923" r="4"/><path class="cls-3" d="M973,1919.5a3.5,3.5,0,1,1-3.5,3.5,3.5,3.5,0,0,1,3.5-3.5h0m0-1a4.5,4.5,0,1,0,4.5,4.5,4.49,4.49,0,0,0-4.5-4.5Z"/></g><g class="cls-9"><circle class="cls-3" cx="973" cy="53" r="4"/><path class="cls-3" d="M973,49.5a3.5,3.5,0,1,1-3.5,3.5,3.5,3.5,0,0,1,3.5-3.5m0-1a4.5,4.5,0,1,0,4.5,4.5,4.49,4.49,0,0,0-4.5-4.5Z"/></g><g class="cls-9"><circle class="cls-3" cx="729" cy="1155" r="4"/><path class="cls-3" d="M729,1151.5a3.5,3.5,0,1,1-3.5,3.5,3.5,3.5,0,0,1,3.5-3.5m0-1a4.5,4.5,0,1,0,4.5,4.5,4.49,4.49,0,0,0-4.5-4.5Z"/></g><g class="cls-9"><circle class="cls-3" cx="1453" cy="1347" r="4"/><path class="cls-3" d="M1453,1343.5a3.5,3.5,0,1,1-3.5,3.5,3.5,3.5,0,0,1,3.5-3.5m0-1a4.5,4.5,0,1,0,4.5,4.5,4.49,4.49,0,0,0-4.5-4.5Z"/></g><g class="cls-9"><circle class="cls-3" cx="2029" cy="1347" r="4"/><path class="cls-3" d="M2029,1343.5a3.5,3.5,0,1,1-3.5,3.5,3.5,3.5,0,0,1,3.5-3.5m0-1a4.5,4.5,0,1,0,4.5,4.5,4.49,4.49,0,0,0-4.5-4.5Z"/></g><g class="cls-9"><circle class="cls-3" cx="2029" cy="3804" r="4"/><path class="cls-3" d="M2029,3800.5a3.5,3.5,0,1,1-3.5,3.5,3.5,3.5,0,0,1,3.5-3.5h0m0-1a4.5,4.5,0,1,0,4.5,4.5h0a4.49,4.49,0,0,0-4.48-4.5Z"/></g><g class="cls-9"><circle class="cls-3" cx="3600.22" cy="2955.7" r="4"/><path class="cls-3" d="M3600.22,2952.2a3.5,3.5,0,1,1-3.5,3.5,3.49,3.49,0,0,1,3.5-3.5h0m0-1a4.5,4.5,0,1,0,4.5,4.5,4.5,4.5,0,0,0-4.5-4.5Z"/></g><g class="cls-9"><circle class="cls-3" cx="1837" cy="2403" r="4"/><path class="cls-3" d="M1837,2399.5a3.5,3.5,0,1,1-3.5,3.5,3.5,3.5,0,0,1,3.5-3.5h0m0-1a4.5,4.5,0,1,0,4.5,4.5,4.49,4.49,0,0,0-4.5-4.5Z"/></g><g class="cls-4"><circle class="cls-3" cx="3007" cy="2707.33" r="1"/><path class="cls-3" d="M3007,2706.83a.5.5,0,1,1-.5.5.5.5,0,0,1,.5-.5m0-1a1.5,1.5,0,1,0,1.5,1.5A1.5,1.5,0,0,0,3007,2705.83Z"/></g><g class="cls-4"><circle class="cls-3" cx="2895" cy="2563.33" r="1"/><path class="cls-3" d="M2895,2562.83a.5.5,0,1,1-.5.5.5.5,0,0,1,.5-.5m0-1a1.5,1.5,0,1,0,1.5,1.5A1.5,1.5,0,0,0,2895,2561.83Z"/></g><g class="cls-4"><circle class="cls-3" cx="2828.11" cy="2715.44" r="1"/><path class="cls-3" d="M2828.11,2714.94a.5.5,0,1,1-.5.5.52.52,0,0,1,.5-.5m0-1a1.5,1.5,0,1,0,1.5,1.5A1.5,1.5,0,0,0,2828.11,2713.94Z"/></g><g class="cls-4"><circle class="cls-3" cx="2703" cy="2163.33" r="1"/><path class="cls-3" d="M2703,2162.83a.5.5,0,1,1-.5.5.5.5,0,0,1,.5-.5m0-1a1.5,1.5,0,1,0,1.5,1.5A1.5,1.5,0,0,0,2703,2161.83Z"/></g><g class="cls-4"><circle class="cls-3" cx="2683" cy="2291.33" r="1"/><path class="cls-3" d="M2683,2290.83a.5.5,0,1,1-.5.5.5.5,0,0,1,.5-.5m0-1a1.5,1.5,0,1,0,1.5,1.5A1.5,1.5,0,0,0,2683,2289.83Z"/></g><g class="cls-4"><circle class="cls-3" cx="2431" cy="2131.33" r="1"/><path class="cls-3" d="M2431,2130.83a.5.5,0,1,1-.5.5.5.5,0,0,1,.5-.5m0-1a1.5,1.5,0,1,0,1.5,1.5A1.5,1.5,0,0,0,2431,2129.83Z"/></g><g class="cls-4"><circle class="cls-3" cx="2047" cy="2131.33" r="1"/><path class="cls-3" d="M2047,2130.83a.5.5,0,1,1-.5.5.5.5,0,0,1,.5-.5m0-1a1.5,1.5,0,1,0,1.5,1.5A1.5,1.5,0,0,0,2047,2129.83Z"/></g><g class="cls-5"><circle class="cls-3" cx="2047" cy="2323.33" r="1"/><path class="cls-3" d="M2047,2322.83a.5.5,0,1,1-.5.5.5.5,0,0,1,.5-.5m0-1a1.5,1.5,0,1,0,1.5,1.5A1.5,1.5,0,0,0,2047,2321.83Z"/></g><g class="cls-4"><circle class="cls-3" cx="2255" cy="1891.33" r="1"/><path class="cls-3" d="M2255,1890.83a.5.5,0,1,1-.5.5.5.5,0,0,1,.5-.5m0-1a1.5,1.5,0,1,0,1.5,1.5A1.5,1.5,0,0,0,2255,1889.83Z"/></g><g class="cls-4"><circle class="cls-3" cx="2255" cy="2083.33" r="1"/><path class="cls-3" d="M2255,2082.83a.5.5,0,1,1-.5.5.5.5,0,0,1,.5-.5m0-1a1.5,1.5,0,1,0,1.5,1.5A1.5,1.5,0,0,0,2255,2081.83Z"/></g><g class="cls-4"><circle class="cls-3" cx="1661.38" cy="1854.71" r="1"/><path class="cls-3" d="M1661.38,1854.21a.5.5,0,1,1-.5.5.52.52,0,0,1,.5-.5m0-1a1.5,1.5,0,1,0,1.5,1.5h0A1.5,1.5,0,0,0,1661.38,1853.21Z"/></g><g class="cls-4"><circle class="cls-3" cx="1661.38" cy="3866.14" r="1"/><path class="cls-3" d="M1661.38,3865.64a.5.5,0,1,1-.5.5.52.52,0,0,1,.5-.5m0-1a1.5,1.5,0,1,0,1.5,1.5h0A1.5,1.5,0,0,0,1661.38,3864.64Z"/></g><g class="cls-4"><circle class="cls-3" cx="838.52" cy="3866.14" r="1"/><path class="cls-3" d="M838.52,3865.64a.5.5,0,1,1-.5.5.52.52,0,0,1,.5-.5m0-1a1.5,1.5,0,1,0,1.5,1.5h0A1.5,1.5,0,0,0,838.52,3864.64Z"/></g><g class="cls-4"><circle class="cls-3" cx="518.52" cy="3866.14" r="1"/><path class="cls-3" d="M518.52,3865.64a.5.5,0,1,1-.5.5.52.52,0,0,1,.5-.5m0-1a1.5,1.5,0,1,0,1.5,1.5h0A1.5,1.5,0,0,0,518.52,3864.64Z"/></g><g class="cls-4"><circle class="cls-3" cx="335.67" cy="2540.43" r="1"/><path class="cls-3" d="M335.67,2539.93a.5.5,0,0,1,.5.5.52.52,0,0,1-.5.5.5.5,0,0,1,0-1m0-1a1.5,1.5,0,1,0,1.5,1.5A1.5,1.5,0,0,0,335.67,2538.93Z"/></g><g class="cls-4"><circle class="cls-3" cx="1112.81" cy="2677.57" r="1"/><path class="cls-3" d="M1112.81,2677.07a.5.5,0,1,1-.5.5.5.5,0,0,1,.5-.5m0-1a1.5,1.5,0,1,0,1.5,1.5A1.5,1.5,0,0,0,1112.81,2676.07Z"/></g><g class="cls-4"><circle class="cls-3" cx="1112.81" cy="1854.71" r="1"/><path class="cls-3" d="M1112.81,1854.21a.5.5,0,1,1-.5.5.5.5,0,0,1,.5-.5m0-1a1.5,1.5,0,1,0,1.5,1.5h0A1.5,1.5,0,0,0,1112.81,1853.21Z"/></g><g class="cls-4"><circle class="cls-3" cx="4038.52" cy="1763.29" r="1"/><path class="cls-3" d="M4038.52,1762.79a.5.5,0,0,1,0,1,.52.52,0,0,1-.5-.5.5.5,0,0,1,.5-.5m0-1a1.5,1.5,0,1,0,1.5,1.5,1.5,1.5,0,0,0-1.5-1.5Z"/></g><g class="cls-4"><circle class="cls-3" cx="4312.81" cy="1306.14" r="1"/><path class="cls-3" d="M4312.81,1305.64a.5.5,0,1,1-.5.5.5.5,0,0,1,.5-.5m0-1a1.5,1.5,0,1,0,1.5,1.5A1.5,1.5,0,0,0,4312.81,1304.64Z"/></g><g class="cls-4"><circle class="cls-3" cx="4312.81" cy="3683.29" r="1"/><path class="cls-3" d="M4312.81,3682.79a.5.5,0,1,1-.5.5.5.5,0,0,1,.5-.5m0-1a1.5,1.5,0,1,0,1.5,1.5h0A1.5,1.5,0,0,0,4312.81,3681.79Z"/></g><g class="cls-4"><circle class="cls-3" cx="4815.67" cy="2906.14" r="1"/><path class="cls-3" d="M4815.67,2905.64a.52.52,0,0,1,.5.5.5.5,0,1,1-.5-.5m0-1a1.5,1.5,0,1,0,1.5,1.5A1.5,1.5,0,0,0,4815.67,2904.64Z"/></g><g class="cls-4"><circle class="cls-3" cx="4724.24" cy="1809" r="1"/><path class="cls-3" d="M4724.24,1808.5a.5.5,0,1,1-.5.5.5.5,0,0,1,.5-.5m0-1a1.5,1.5,0,1,0,1.5,1.5A1.5,1.5,0,0,0,4724.24,1807.5Z"/></g><g class="cls-4"><circle class="cls-3" cx="4724.24" cy="1397.57" r="1"/><path class="cls-3" d="M4724.24,1397.07a.52.52,0,0,1,.5.5.5.5,0,1,1-.5-.5m0-1a1.5,1.5,0,1,0,1.5,1.5A1.5,1.5,0,0,0,4724.24,1396.07Z"/></g><g class="cls-4"><circle class="cls-3" cx="3855.67" cy="940.43" r="1"/><path class="cls-3" d="M3855.67,939.93a.5.5,0,0,1,.5.5.52.52,0,0,1-.5.5.5.5,0,0,1,0-1m0-1a1.5,1.5,0,1,0,1.5,1.5,1.5,1.5,0,0,0-1.5-1.5Z"/></g><g class="cls-4"><circle class="cls-3" cx="2667.1" cy="1031.86" r="1"/><path class="cls-3" d="M2667.1,1031.36a.5.5,0,0,1,.5.5.52.52,0,0,1-.5.5.5.5,0,0,1,0-1m0-1a1.5,1.5,0,1,0,1.5,1.5A1.5,1.5,0,0,0,2667.1,1030.36Z"/></g><g class="cls-4"><circle class="cls-3" cx="2209.95" cy="620.43" r="1"/><path class="cls-3" d="M2210,619.93a.5.5,0,0,1,0,1,.52.52,0,0,1-.5-.5.5.5,0,0,1,.5-.5m0-1a1.5,1.5,0,1,0,1.5,1.5A1.5,1.5,0,0,0,2210,618.93Z"/></g><g class="cls-4"><circle class="cls-3" cx="2347.1" cy="1580.43" r="1"/><path class="cls-3" d="M2347.1,1579.93a.5.5,0,0,1,.5.5.52.52,0,0,1-.5.5.5.5,0,0,1,0-1m0-1a1.5,1.5,0,1,0,1.5,1.5A1.5,1.5,0,0,0,2347.1,1578.93Z"/></g><g class="cls-4"><circle class="cls-3" cx="1798.52" cy="1762.79" r="1"/><path class="cls-3" d="M1798.52,1762.29a.5.5,0,0,1,0,1,.52.52,0,0,1-.5-.5.5.5,0,0,1,.5-.5m0-1a1.5,1.5,0,1,0,1.5,1.5,1.5,1.5,0,0,0-1.5-1.5Z"/></g><g class="cls-4"><circle class="cls-3" cx="1432.81" cy="2083.29" r="1"/><path class="cls-3" d="M1432.81,2082.79a.5.5,0,1,1-.5.5.5.5,0,0,1,.5-.5m0-1a1.5,1.5,0,1,0,1.5,1.5A1.5,1.5,0,0,0,1432.81,2081.79Z"/></g><g class="cls-4"><circle class="cls-3" cx="1432.81" cy="2769" r="1"/><path class="cls-3" d="M1432.81,2768.5a.5.5,0,1,1-.5.5.5.5,0,0,1,.5-.5m0-1a1.5,1.5,0,1,0,1.5,1.5A1.5,1.5,0,0,0,1432.81,2767.5Z"/></g><g class="cls-4"><circle class="cls-3" cx="1204.24" cy="2631.86" r="1"/><path class="cls-3" d="M1204.24,2631.36a.5.5,0,0,1,.5.5.52.52,0,0,1-.5.5.5.5,0,0,1,0-1m0-1a1.5,1.5,0,1,0,1.5,1.5A1.5,1.5,0,0,0,1204.24,2630.36Z"/></g><g class="cls-4"><circle class="cls-3" cx="975.67" cy="2174.71" r="1"/><path class="cls-3" d="M975.67,2174.21a.52.52,0,0,1,.5.5.5.5,0,1,1-.5-.5m0-1a1.5,1.5,0,1,0,1.5,1.5A1.5,1.5,0,0,0,975.67,2173.21Z"/></g><g class="cls-4"><circle class="cls-3" cx="1661.38" cy="1077.57" r="1"/><path class="cls-3" d="M1661.38,1077.07a.5.5,0,1,1-.5.5.52.52,0,0,1,.5-.5m0-1a1.5,1.5,0,1,0,1.5,1.5A1.5,1.5,0,0,0,1661.38,1076.07Z"/></g><g class="cls-4"><circle class="cls-3" cx="2575.67" cy="1397.57" r="1"/><path class="cls-3" d="M2575.67,1397.07a.52.52,0,0,1,.5.5.5.5,0,1,1-.5-.5m0-1a1.5,1.5,0,1,0,1.5,1.5A1.5,1.5,0,0,0,2575.67,1396.07Z"/></g><g class="cls-4"><circle class="cls-3" cx="2987.1" cy="1717.57" r="1"/><path class="cls-3" d="M2987.1,1717.07a.52.52,0,0,1,.5.5.5.5,0,1,1-.5-.5m0-1a1.5,1.5,0,1,0,1.5,1.5A1.5,1.5,0,0,0,2987.1,1716.07Z"/></g><g class="cls-4"><circle class="cls-3" cx="3627.1" cy="2037.57" r="1"/><path class="cls-3" d="M3627.1,2037.07a.52.52,0,0,1,.5.5.5.5,0,1,1-.5-.5m0-1a1.5,1.5,0,1,0,1.5,1.5A1.5,1.5,0,0,0,3627.1,2036.07Z"/></g><g class="cls-4"><circle class="cls-3" cx="4495.67" cy="2311.86" r="1"/><path class="cls-3" d="M4495.67,2311.36a.5.5,0,0,1,.5.5.52.52,0,0,1-.5.5.5.5,0,0,1,0-1m0-1a1.5,1.5,0,1,0,1.5,1.5A1.5,1.5,0,0,0,4495.67,2310.36Z"/></g><g class="cls-4"><circle class="cls-3" cx="4678.52" cy="757.57" r="1"/><path class="cls-3" d="M4678.52,757.07a.5.5,0,1,1-.5.5.52.52,0,0,1,.5-.5m0-1a1.5,1.5,0,1,0,1.5,1.5A1.5,1.5,0,0,0,4678.52,756.07Z"/></g><g class="cls-4"><circle class="cls-3" cx="4267.1" cy="346.14" r="1"/><path class="cls-3" d="M4267.1,345.64a.52.52,0,0,1,.5.5.5.5,0,1,1-.5-.5m0-1a1.5,1.5,0,1,0,1.5,1.5A1.5,1.5,0,0,0,4267.1,344.64Z"/></g><g class="cls-4"><circle class="cls-3" cx="3809.95" cy="1763.29" r="1"/><path class="cls-3" d="M3810,1762.79a.5.5,0,0,1,0,1,.52.52,0,0,1-.5-.5.5.5,0,0,1,.5-.5m0-1a1.5,1.5,0,1,0,1.5,1.5,1.5,1.5,0,0,0-1.5-1.5Z"/></g><g class="cls-4"><circle class="cls-3" cx="3444.24" cy="3774.71" r="1"/><path class="cls-3" d="M3444.24,3774.21a.52.52,0,0,1,.5.5.5.5,0,1,1-.5-.5m0-1a1.5,1.5,0,1,0,1.5,1.5A1.5,1.5,0,0,0,3444.24,3773.21Z"/></g><g class="cls-4"><circle class="cls-3" cx="2758.52" cy="3774.71" r="1"/><path class="cls-3" d="M2758.52,3774.21a.5.5,0,1,1-.5.5.52.52,0,0,1,.5-.5m0-1a1.5,1.5,0,1,0,1.5,1.5A1.5,1.5,0,0,0,2758.52,3773.21Z"/></g><g class="cls-4"><circle class="cls-3" cx="2392.81" cy="3729" r="1"/><path class="cls-3" d="M2392.81,3728.5a.5.5,0,1,1-.5.5.5.5,0,0,1,.5-.5m0-1a1.5,1.5,0,1,0,1.5,1.5A1.5,1.5,0,0,0,2392.81,3727.5Z"/></g><g class="cls-4"><circle class="cls-3" cx="2027.1" cy="3409" r="1"/><path class="cls-3" d="M2027.1,3408.5a.5.5,0,1,1-.5.5.5.5,0,0,1,.5-.5m0-1a1.5,1.5,0,1,0,1.5,1.5A1.5,1.5,0,0,0,2027.1,3407.5Z"/></g><g class="cls-5"><circle class="cls-3" cx="2415.67" cy="3790.33" r="1.5"/><path class="cls-3" d="M2415.67,3789.33a1,1,0,1,1-1,1,1,1,0,0,1,1-1m0-1a2,2,0,1,0,2,2A2,2,0,0,0,2415.67,3788.33Z"/></g><g class="cls-5"><circle class="cls-3" cx="2671.67" cy="3406.33" r="1.5"/><path class="cls-3" d="M2671.67,3405.33a1,1,0,1,1-1,1,1,1,0,0,1,1-1m0-1a2,2,0,1,0,2,2A2,2,0,0,0,2671.67,3404.33Z"/></g><g class="cls-5"><circle class="cls-3" cx="2863.67" cy="3086.33" r="1.5"/><path class="cls-3" d="M2863.67,3085.33a1,1,0,1,1-1,1,1,1,0,0,1,1-1m0-1a2,2,0,1,0,2,2A2,2,0,0,0,2863.67,3084.33Z"/></g><g class="cls-5"><circle class="cls-3" cx="3311.67" cy="2894.33" r="1.5"/><path class="cls-3" d="M3311.67,2893.33a1,1,0,1,1-1,1,1,1,0,0,1,1-1m0-1a2,2,0,1,0,2,2A2,2,0,0,0,3311.67,2892.33Z"/></g><g class="cls-5"><circle class="cls-3" cx="2830.67" cy="2085" r="1.5"/><path class="cls-3" d="M2830.67,2084a1,1,0,1,1-1,1,1,1,0,0,1,1-1m0-1a2,2,0,1,0,2,2A2,2,0,0,0,2830.67,2083Z"/></g><g class="cls-5"><circle class="cls-3" cx="1647.67" cy="2062.33" r="1.5"/><path class="cls-3" d="M1647.67,2061.33a1,1,0,1,1-1,1,1,1,0,0,1,1-1m0-1a2,2,0,1,0,2,2A2,2,0,0,0,1647.67,2060.33Z"/></g><g class="cls-5"><circle class="cls-3" cx="1327.67" cy="1998.33" r="1.5"/><path class="cls-3" d="M1327.67,1997.33a1,1,0,1,1-1,1,1,1,0,0,1,1-1m0-1a2,2,0,1,0,2,2A2,2,0,0,0,1327.67,1996.33Z"/></g><g class="cls-5"><circle class="cls-3" cx="1455.67" cy="2574.33" r="1.5"/><path class="cls-3" d="M1455.67,2573.33a1,1,0,1,1-1,1,1,1,0,0,1,1-1m0-1a2,2,0,1,0,2,2A2,2,0,0,0,1455.67,2572.33Z"/></g><g class="cls-5"><circle class="cls-3" cx="1839.67" cy="3918.33" r="1.5"/><path class="cls-3" d="M1839.67,3917.33a1,1,0,1,1-1,1,1,1,0,0,1,1-1m0-1a2,2,0,1,0,2,2A2,2,0,0,0,1839.67,3916.33Z"/></g><g class="cls-5"><circle class="cls-3" cx="1888.67" cy="3534.33" r="1.5"/><path class="cls-3" d="M1888.67,3533.33a1,1,0,1,1-1,1,1,1,0,0,1,1-1m0-1a2,2,0,1,0,2,2A2,2,0,0,0,1888.67,3532.33Z"/></g><g class="cls-5"><circle class="cls-3" cx="3055.67" cy="4558.33" r="1.5"/><path class="cls-3" d="M3055.67,4557.33a1,1,0,1,1-1,1,1,1,0,0,1,1-1m0-1a2,2,0,1,0,2,2A2,2,0,0,0,3055.67,4556.33Z"/></g><g class="cls-5"><circle class="cls-3" cx="3183.67" cy="4238.33" r="1.5"/><path class="cls-3" d="M3183.67,4237.33a1,1,0,1,1-1,1,1,1,0,0,1,1-1m0-1a2,2,0,1,0,2,2A2,2,0,0,0,3183.67,4236.33Z"/></g><g class="cls-5"><circle class="cls-3" cx="4143.67" cy="2318.33" r="1.5"/><path class="cls-3" d="M4143.67,2317.33a1,1,0,1,1-1,1,1,1,0,0,1,1-1m0-1a2,2,0,1,0,2,2A2,2,0,0,0,4143.67,2316.33Z"/></g><g class="cls-5"><circle class="cls-3" cx="4271.67" cy="1102.33" r="1.5"/><path class="cls-3" d="M4271.67,1101.33a1,1,0,1,1-1,1,1,1,0,0,1,1-1m0-1a2,2,0,1,0,2,2A2,2,0,0,0,4271.67,1100.33Z"/></g><g class="cls-5"><circle class="cls-3" cx="3567.67" cy="1230.33" r="1.5"/><path class="cls-3" d="M3567.67,1229.33a1,1,0,1,1-1,1,1,1,0,0,1,1-1m0-1a2,2,0,1,0,2,2A2,2,0,0,0,3567.67,1228.33Z"/></g><g class="cls-5"><circle class="cls-3" cx="2735.67" cy="1486.33" r="1.5"/><path class="cls-3" d="M2735.67,1485.33a1,1,0,1,1-1,1,1,1,0,0,1,1-1m0-1a2,2,0,1,0,2,2A2,2,0,0,0,2735.67,1484.33Z"/></g><g class="cls-5"><circle class="cls-3" cx="2031.67" cy="846.33" r="1.5"/><path class="cls-3" d="M2031.67,845.33a1,1,0,1,1-1,1,1,1,0,0,1,1-1m0-1a2,2,0,1,0,2,2A2,2,0,0,0,2031.67,844.33Z"/></g><g class="cls-5"><circle class="cls-3" cx="1263.67" cy="526.33" r="1.5"/><path class="cls-3" d="M1263.67,525.33a1,1,0,1,1-1,1,1,1,0,0,1,1-1m0-1a2,2,0,1,0,2,2A2,2,0,0,0,1263.67,524.33Z"/></g><g class="cls-5"><circle class="cls-3" cx="815.67" cy="334.33" r="1.5"/><path class="cls-3" d="M815.67,333.33a1,1,0,1,1-1,1,1,1,0,0,1,1-1m0-1a2,2,0,1,0,2,2A2,2,0,0,0,815.67,332.33Z"/></g><g class="cls-5"><circle class="cls-3" cx="2031.67" cy="3918.33" r="1.5"/><path class="cls-3" d="M2031.67,3917.33a1,1,0,1,1-1,1,1,1,0,0,1,1-1m0-1a2,2,0,1,0,2,2A2,2,0,0,0,2031.67,3916.33Z"/></g><g class="cls-5"><circle class="cls-3" cx="2543.67" cy="3406.33" r="1.5"/><path class="cls-3" d="M2543.67,3405.33a1,1,0,1,1-1,1,1,1,0,0,1,1-1m0-1a2,2,0,1,0,2,2A2,2,0,0,0,2543.67,3404.33Z"/></g><g class="cls-5"><circle class="cls-3" cx="1903.67" cy="3278.33" r="1.5"/><path class="cls-3" d="M1903.67,3277.33a1,1,0,1,1-1,1,1,1,0,0,1,1-1m0-1a2,2,0,1,0,2,2A2,2,0,0,0,1903.67,3276.33Z"/></g><g class="cls-5"><circle class="cls-3" cx="2283" cy="3007" r="1.5"/><path class="cls-3" d="M2283,3006a1,1,0,1,1-1,1,1,1,0,0,1,1-1m0-1a2,2,0,1,0,2,2A2,2,0,0,0,2283,3005Z"/></g><g class="cls-9"><circle class="cls-3" cx="2037" cy="2736" r="4"/><path class="cls-3" d="M2037,2732.5a3.5,3.5,0,1,1-3.5,3.5,3.5,3.5,0,0,1,3.5-3.5h0m0-1a4.5,4.5,0,1,0,4.5,4.5h0a4.49,4.49,0,0,0-4.48-4.5Z"/></g><g class="cls-9"><circle class="cls-3" cx="3381" cy="2976" r="4"/><path class="cls-3" d="M3381,2972.5a3.5,3.5,0,1,1-3.5,3.5,3.5,3.5,0,0,1,3.5-3.5h0m0-1a4.5,4.5,0,1,0,4.5,4.5h0a4.49,4.49,0,0,0-4.48-4.5Z"/></g><g class="cls-9"><circle class="cls-3" cx="3525" cy="2736" r="4"/><path class="cls-3" d="M3525,2732.5a3.5,3.5,0,1,1-3.5,3.5,3.5,3.5,0,0,1,3.5-3.5h0m0-1a4.5,4.5,0,1,0,4.5,4.5h0a4.49,4.49,0,0,0-4.48-4.5Z"/></g><g class="cls-9"><circle class="cls-3" cx="3429" cy="2016" r="4"/><path class="cls-3" d="M3429,2012.5a3.5,3.5,0,1,1-3.5,3.5,3.5,3.5,0,0,1,3.5-3.5h0m0-1a4.5,4.5,0,1,0,4.5,4.5,4.49,4.49,0,0,0-4.5-4.5Z"/></g><g class="cls-9"><circle class="cls-3" cx="3429" cy="1344" r="4"/><path class="cls-3" d="M3429,1340.5a3.5,3.5,0,1,1-3.5,3.5,3.5,3.5,0,0,1,3.5-3.5m0-1a4.5,4.5,0,1,0,4.5,4.5,4.49,4.49,0,0,0-4.5-4.5Z"/></g><g class="cls-9"><circle class="cls-3" cx="3185.67" cy="1113.33" r="4"/><path class="cls-3" d="M3185.67,1109.83a3.5,3.5,0,1,1-3.5,3.5,3.5,3.5,0,0,1,3.5-3.5m0-1a4.5,4.5,0,1,0,4.5,4.5,4.49,4.49,0,0,0-4.5-4.5Z"/></g><g class="cls-9"><circle class="cls-3" cx="3141" cy="1632" r="4"/><path class="cls-3" d="M3141,1628.5a3.5,3.5,0,1,1-3.5,3.5,3.5,3.5,0,0,1,3.5-3.5h0m0-1a4.5,4.5,0,1,0,4.5,4.5,4.49,4.49,0,0,0-4.5-4.5Z"/></g><g class="cls-9"><circle class="cls-3" cx="2709" cy="1706" r="4"/><path class="cls-3" d="M2709,1702.5a3.5,3.5,0,1,1-3.5,3.5,3.5,3.5,0,0,1,3.5-3.5h0m0-1a4.5,4.5,0,1,0,4.5,4.5,4.49,4.49,0,0,0-4.5-4.5Z"/></g><g class="cls-9"><circle class="cls-3" cx="2565" cy="1200" r="4"/><path class="cls-3" d="M2565,1196.5a3.5,3.5,0,1,1-3.5,3.5,3.5,3.5,0,0,1,3.5-3.5m0-1a4.5,4.5,0,1,0,4.5,4.5,4.49,4.49,0,0,0-4.5-4.5Z"/></g><g id="Lines"><g class="cls-10"><line class="cls-11" x1="1841.11" y1="2401.16" x2="1878.22" y2="2384.52"/></g><g class="cls-12"><line class="cls-11" x1="2703.13" y1="2161.83" x2="2707.42" y2="2113.38"/><line class="cls-13" x1="2703.13" y1="2161.83" x2="2707.42" y2="2113.38"/></g><line class="cls-14" x1="2704.43" y1="2163.77" x2="2841.79" y2="2206.11"/><line class="cls-14" x1="2843.07" y1="2205.06" x2="2830.87" y2="2086.99"/><line class="cls-14" x1="2771.8" y1="2028.34" x2="2829.23" y2="2083.61"/><line class="cls-15" x1="1882.85" y1="2382.66" x2="2045.59" y2="2323.84"/><line class="cls-14" x1="2048.47" y1="2323.05" x2="2213.05" y2="2290.98"/><line class="cls-14" x1="2073.68" y1="2400.64" x2="2047.49" y2="2324.75"/><line class="cls-16" x1="2074.62" y1="2405.5" x2="2080.78" y2="2532.84"/><line class="cls-14" x1="2020.26" y1="2731.22" x2="2032.67" y2="2734.76"/><line class="cls-17" x1="2143.28" y1="2680.65" x2="2040.99" y2="2733.92"/><line class="cls-17" x1="2037.82" y1="2740.43" x2="2058.06" y2="2849.86"/><line class="cls-14" x1="2059.04" y1="2852.66" x2="2106.5" y2="2942.13"/><line class="cls-14" x1="2040.76" y1="2738.47" x2="2128.75" y2="2796.34"/><line class="cls-14" x1="2131.32" y1="2797.87" x2="2171.8" y2="2819.49"/><line class="cls-18" x1="2530.71" y1="2167.8" x2="2432.41" y2="2131.85"/><line class="cls-18" x1="2431.75" y1="2130.04" x2="2497.08" y2="2017.49"/><line class="cls-18" x1="2533.21" y1="2165.59" x2="2498.9" y2="2017.77"/><line class="cls-14" x1="2708.42" y1="2110.66" x2="2765.97" y2="2028.9"/></g><g class="cls-9"><circle class="cls-3" cx="2081" cy="2537.33" r="4"/><path class="cls-3" d="M2081,2533.83a3.5,3.5,0,1,1-3.5,3.5,3.5,3.5,0,0,1,3.5-3.5h0m0-1a4.5,4.5,0,1,0,4.5,4.5,4.49,4.49,0,0,0-4.5-4.5Z"/></g><g class="cls-4"><circle class="cls-3" cx="2058.33" cy="2851.33" r="1"/><path class="cls-3" d="M2058.33,2850.83a.5.5,0,1,1-.5.5.52.52,0,0,1,.5-.5m0-1a1.5,1.5,0,1,0,1.5,1.5A1.5,1.5,0,0,0,2058.33,2849.83Z"/></g><g class="cls-2"><circle class="cls-3" cx="2174" cy="2820.67" r="2"/><path class="cls-3" d="M2174,2819.17a1.5,1.5,0,1,1-1.5,1.5,1.5,1.5,0,0,1,1.5-1.5m0-1a2.5,2.5,0,1,0,2.5,2.5A2.5,2.5,0,0,0,2174,2818.17Z"/></g><g class="cls-19"><circle class="cls-3" cx="2130" cy="2797.17" r="1"/><path class="cls-3" d="M2130,2796.67a.5.5,0,1,1-.5.5.5.5,0,0,1,.5-.5m0-1a1.5,1.5,0,1,0,1.5,1.5A1.5,1.5,0,0,0,2130,2795.67Z"/></g><g class="cls-4"><circle class="cls-3" cx="1852.67" cy="2784.17" r="0.5"/><path class="cls-3" d="M1852.67,2783.17a1,1,0,1,0,1,1A1,1,0,0,0,1852.67,2783.17Z"/></g><g class="cls-10"><circle class="cls-3" cx="2008.67" cy="2564.17" r="0.5"/><path class="cls-3" d="M2008.67,2563.17a1,1,0,1,0,1,1A1,1,0,0,0,2008.67,2563.17Z"/></g><g class="cls-4"><circle class="cls-3" cx="2218.67" cy="2297.17" r="0.5"/><path class="cls-3" d="M2218.67,2296.17a1,1,0,1,0,1,1A1,1,0,0,0,2218.67,2296.17Z"/></g><g class="cls-4"><circle class="cls-3" cx="2308.67" cy="2192.17" r="0.5"/><path class="cls-3" d="M2308.67,2191.17a1,1,0,1,0,1,1A1,1,0,0,0,2308.67,2191.17Z"/></g><g class="cls-4"><circle class="cls-3" cx="2404.67" cy="2320.17" r="0.5"/><path class="cls-3" d="M2404.67,2319.17a1,1,0,1,0,1,1A1,1,0,0,0,2404.67,2319.17Z"/></g><g class="cls-4"><circle class="cls-3" cx="2836.67" cy="2440.17" r="0.5"/><path class="cls-3" d="M2836.67,2439.17a1,1,0,1,0,1,1A1,1,0,0,0,2836.67,2439.17Z"/></g><g class="cls-4"><circle class="cls-3" cx="3020.67" cy="2208.17" r="0.5"/><path class="cls-3" d="M3020.67,2207.17a1,1,0,1,0,1,1A1,1,0,0,0,3020.67,2207.17Z"/></g><g class="cls-4"><circle class="cls-3" cx="2996.67" cy="1864.17" r="0.5"/><path class="cls-3" d="M2996.67,1863.17a1,1,0,1,0,1,1A1,1,0,0,0,2996.67,1863.17Z"/></g><g class="cls-4"><circle class="cls-3" cx="2540.67" cy="1768.17" r="0.5"/><path class="cls-3" d="M2540.67,1767.17a1,1,0,1,0,1,1A1,1,0,0,0,2540.67,1767.17Z"/></g><g class="cls-4"><circle class="cls-3" cx="1988.67" cy="1536.17" r="0.5"/><path class="cls-3" d="M1988.67,1535.17a1,1,0,1,0,1,1A1,1,0,0,0,1988.67,1535.17Z"/></g><g class="cls-4"><circle class="cls-3" cx="2028.67" cy="3624.17" r="0.5"/><path class="cls-3" d="M2028.67,3623.17a1,1,0,1,0,1,1A1,1,0,0,0,2028.67,3623.17Z"/></g><g class="cls-4"><circle class="cls-3" cx="2524.67" cy="3624.17" r="0.5"/><path class="cls-3" d="M2524.67,3623.17a1,1,0,1,0,1,1A1,1,0,0,0,2524.67,3623.17Z"/></g><g class="cls-4"><circle class="cls-3" cx="3284.67" cy="3576.17" r="0.5"/><path class="cls-3" d="M3284.67,3575.17a1,1,0,1,0,1,1A1,1,0,0,0,3284.67,3575.17Z"/></g><g class="cls-4"><circle class="cls-3" cx="3060.67" cy="3440.17" r="0.5"/><path class="cls-3" d="M3060.67,3439.17a1,1,0,1,0,1,1A1,1,0,0,0,3060.67,3439.17Z"/></g><g class="cls-20"><circle class="cls-3" cx="2207.67" cy="2898.58" r="0.5"/><path class="cls-3" d="M2207.67,2897.58a1,1,0,1,0,1,1A1,1,0,0,0,2207.67,2897.58Z"/></g><g class="cls-10"><circle class="cls-3" cx="1908.11" cy="2670.22" r="0.5"/><path class="cls-3" d="M1908.11,2669.22a1,1,0,1,0,1,1A1,1,0,0,0,1908.11,2669.22Z"/></g><g class="cls-10"><circle class="cls-3" cx="2127.67" cy="2582.67" r="0.5"/><path class="cls-3" d="M2127.67,2581.67a1,1,0,1,0,1,1A1,1,0,0,0,2127.67,2581.67Z"/></g><g class="cls-10"><circle class="cls-3" cx="2207.67" cy="2470.67" r="0.5"/><path class="cls-3" d="M2207.67,2469.67a1,1,0,1,0,1,1A1,1,0,0,0,2207.67,2469.67Z"/></g><g class="cls-10"><circle class="cls-3" cx="2671.67" cy="3190.67" r="0.5"/><path class="cls-3" d="M2671.67,3189.67a1,1,0,1,0,1,1A1,1,0,0,0,2671.67,3189.67Z"/></g><g class="cls-10"><circle class="cls-3" cx="2575.67" cy="3030.67" r="0.5"/><path class="cls-3" d="M2575.67,3029.67a1,1,0,1,0,1,1A1,1,0,0,0,2575.67,3029.67Z"/></g><g class="cls-10"><circle class="cls-3" cx="2575.67" cy="3990.67" r="0.5"/><path class="cls-3" d="M2575.67,3989.67a1,1,0,1,0,1,1A1,1,0,0,0,2575.67,3989.67Z"/></g><g class="cls-10"><circle class="cls-3" cx="3343.67" cy="4086.67" r="0.5"/><path class="cls-3" d="M3343.67,4085.67a1,1,0,1,0,1,1A1,1,0,0,0,3343.67,4085.67Z"/></g><g class="cls-10"><circle class="cls-3" cx="3103.67" cy="3046.67" r="0.5"/><path class="cls-3" d="M3103.67,3045.67a1,1,0,1,0,1,1A1,1,0,0,0,3103.67,3045.67Z"/></g><g class="cls-10"><circle class="cls-3" cx="2575.67" cy="3238.67" r="0.5"/><path class="cls-3" d="M2575.67,3237.67a1,1,0,1,0,1,1A1,1,0,0,0,2575.67,3237.67Z"/></g><g class="cls-10"><circle class="cls-3" cx="2799.67" cy="2822.67" r="0.5"/><path class="cls-3" d="M2799.67,2821.67a1,1,0,1,0,1,1A1,1,0,0,0,2799.67,2821.67Z"/></g><g class="cls-2"><circle class="cls-3" cx="2498.33" cy="2015.33" r="2"/><path class="cls-3" d="M2498.33,2013.83a1.5,1.5,0,1,1-1.5,1.5h0a1.5,1.5,0,0,1,1.5-1.5m0-1a2.5,2.5,0,1,0,2.5,2.5,2.5,2.5,0,0,0-2.5-2.5Z"/></g><g class="cls-9"><circle class="cls-3" cx="2768.56" cy="2025.22" r="4"/><path class="cls-3" d="M2768.56,2021.72a3.5,3.5,0,1,1-3.5,3.5,3.5,3.5,0,0,1,3.5-3.5h0m0-1a4.5,4.5,0,1,0,4.5,4.5,4.49,4.49,0,0,0-4.5-4.5Z"/></g><g class="cls-4"><circle class="cls-3" cx="2707.56" cy="2111.89" r="1"/><path class="cls-3" d="M2707.56,2111.39a.5.5,0,0,1,.5.5.52.52,0,0,1-.5.5.5.5,0,0,1,0-1m0-1a1.5,1.5,0,1,0,1.5,1.5A1.5,1.5,0,0,0,2707.56,2110.39Z"/></g><g class="cls-4"><circle class="cls-3" cx="2416.56" cy="1875.89" r="1"/><path class="cls-3" d="M2416.56,1875.39a.5.5,0,0,1,.5.5.52.52,0,0,1-.5.5.5.5,0,0,1,0-1m0-1a1.5,1.5,0,1,0,1.5,1.5A1.5,1.5,0,0,0,2416.56,1874.39Z"/></g><g class="cls-4"><circle class="cls-3" cx="2843.22" cy="2206.56" r="1"/><path class="cls-3" d="M2843.22,2206.06a.5.5,0,0,1,0,1,.52.52,0,0,1-.5-.5.5.5,0,0,1,.5-.5m0-1a1.5,1.5,0,1,0,1.5,1.5A1.5,1.5,0,0,0,2843.22,2205.06Z"/></g><g class="cls-2"><circle class="cls-3" cx="2924.22" cy="2738.61" r="2"/><path class="cls-3" d="M2924.22,2737.11a1.5,1.5,0,1,1-1.5,1.5,1.5,1.5,0,0,1,1.5-1.5m0-1a2.5,2.5,0,1,0,2.5,2.5A2.5,2.5,0,0,0,2924.22,2736.11Z"/></g><g class="cls-2"><circle class="cls-3" cx="2909.33" cy="2622.28" r="2"/><path class="cls-3" d="M2909.33,2620.78a1.5,1.5,0,1,1-1.5,1.5,1.5,1.5,0,0,1,1.5-1.5m0-1a2.5,2.5,0,1,0,2.5,2.5A2.5,2.5,0,0,0,2909.33,2619.78Z"/></g><line class="cls-14" x1="2908.74" y1="2619.85" x2="2895.35" y2="2564.79"/><g class="cls-10"><circle class="cls-3" cx="2729.83" cy="2629.4" r="0.5"/><path class="cls-3" d="M2729.83,2628.4a1,1,0,1,0,1,1A1,1,0,0,0,2729.83,2628.4Z"/></g><g class="cls-10"><circle class="cls-3" cx="2917.89" cy="2929.78" r="0.5"/><path class="cls-3" d="M2917.89,2928.78a1,1,0,1,0,1,1A1,1,0,0,0,2917.89,2928.78Z"/></g><g class="cls-10"><circle class="cls-3" cx="3206.11" cy="2769.97" r="0.5"/><path class="cls-3" d="M3206.11,2769a1,1,0,1,0,1,1A1,1,0,0,0,3206.11,2769Z"/></g><g class="cls-10"><circle class="cls-3" cx="2269.17" cy="2528.73" r="0.5"/><path class="cls-3" d="M2269.17,2527.73a1,1,0,1,0,1,1A1,1,0,0,0,2269.17,2527.73Z"/></g><g class="cls-10"><circle class="cls-3" cx="2687.67" cy="2034.11" r="0.5"/><path class="cls-3" d="M2687.67,2033.11a1,1,0,1,0,1,1A1,1,0,0,0,2687.67,2033.11Z"/></g><line class="cls-14" x1="2923.91" y1="2736.13" x2="2909.65" y2="2624.75"/><line class="cls-18" x1="2936.32" y1="2781.48" x2="2924.9" y2="2741.02"/><line class="cls-21" x1="2926.56" y1="2737.73" x2="3005.6" y2="2707.86"/><g class="cls-22"><circle class="cls-3" cx="2907.42" cy="2737.85" r="0.5"/><path class="cls-3" d="M2907.42,2736.85a1,1,0,1,0,1,1A1,1,0,0,0,2907.42,2736.85Z"/></g><line class="cls-21" x1="2921.72" y1="2738.61" x2="2908.42" y2="2737.85"/><line class="cls-21" x1="2906.46" y1="2737.58" x2="2829.55" y2="2715.85"/><g class="cls-2"><circle class="cls-3" cx="2382.33" cy="3155.75" r="2"/><path class="cls-3" d="M2382.33,3154.25a1.5,1.5,0,1,1-1.5,1.5,1.5,1.5,0,0,1,1.5-1.5m0-1a2.5,2.5,0,1,0,2.5,2.5A2.5,2.5,0,0,0,2382.33,3153.25Z"/></g><g class="cls-5"><circle class="cls-3" cx="2373.83" cy="3055.4" r="1.5"/><path class="cls-3" d="M2373.83,3054.4a1,1,0,1,1-1,1,1,1,0,0,1,1-1m0-1a2,2,0,1,0,2,2A2,2,0,0,0,2373.83,3053.4Z"/></g><g class="cls-23"><circle class="cls-3" cx="2433.17" cy="3014" r="2"/><path class="cls-3" d="M2433.17,3012.5a1.5,1.5,0,1,1-1.5,1.5,1.5,1.5,0,0,1,1.5-1.5m0-1a2.5,2.5,0,1,0,2.5,2.5A2.5,2.5,0,0,0,2433.17,3011.5Z"/></g><line class="cls-14" x1="2375.47" y1="3054.25" x2="2431.12" y2="3015.43"/><g class="cls-4"><circle class="cls-3" cx="2422.28" cy="2993.13" r="0.5"/><path class="cls-3" d="M2422.28,2992.13a1,1,0,1,0,1,1A1,1,0,0,0,2422.28,2992.13Z"/></g><line class="cls-24" x1="2432.01" y1="3011.78" x2="2422.74" y2="2994.01"/><line class="cls-25" x1="2412.24" y1="3080.31" x2="2375.52" y2="3056.46"/><line class="cls-25" x1="2383.32" y1="3153.46" x2="2413.34" y2="3083.96"/><g class="cls-2"><circle class="cls-3" cx="2933" cy="3208.75" r="2"/><path class="cls-3" d="M2933,3207.25a1.5,1.5,0,1,1-1.5,1.5,1.5,1.5,0,0,1,1.5-1.5m0-1a2.5,2.5,0,1,0,2.5,2.5A2.5,2.5,0,0,0,2933,3206.25Z"/></g><line class="cls-25" x1="2837.79" y1="3245.06" x2="2930.69" y2="3209.68"/><line class="cls-21" x1="2935.4" y1="3209.47" x2="3030.62" y2="3239.54"/><g class="cls-4"><ellipse class="cls-3" cx="3305.53" cy="4197.17" rx="0.5" ry="0.5"/><path class="cls-3" d="M3305.53,4196.18a1,1,0,1,0,1,1A1,1,0,0,0,3305.53,4196.18Z"/></g><g class="cls-5"><circle class="cls-3" cx="2591.39" cy="3046.31" r="1.5"/><path class="cls-3" d="M2591.39,3045.31a1,1,0,1,1-1,1,1,1,0,0,1,1-1m0-1a2,2,0,1,0,2,2A2,2,0,0,0,2591.39,3044.31Z"/></g><g class="cls-26"><circle class="cls-3" cx="2573.33" cy="2753.82" r="2.25"/><path class="cls-3" d="M2573.33,2752.32a1.5,1.5,0,1,1-1.5,1.5,1.5,1.5,0,0,1,1.5-1.5m0-1.5a3,3,0,1,0,3,3A3,3,0,0,0,2573.33,2750.82Z"/></g><g class="cls-5"><circle class="cls-3" cx="2261" cy="2400.79" r="1.5"/><path class="cls-3" d="M2261,2399.79a1,1,0,1,1-1,1,1,1,0,0,1,1-1m0-1a2,2,0,1,0,2,2A2,2,0,0,0,2261,2398.79Z"/></g><g class="cls-5"><circle class="cls-3" cx="1661.42" cy="2327.53" r="1.5"/><path class="cls-3" d="M1661.42,2326.53a1,1,0,1,1-1,1,1,1,0,0,1,1-1m0-1a2,2,0,1,0,2,2A2,2,0,0,0,1661.42,2325.53Z"/></g><g class="cls-5"><circle class="cls-3" cx="3758.67" cy="3625.17" r="1.5"/><path class="cls-3" d="M3758.67,3624.17a1,1,0,1,1-1,1,1,1,0,0,1,1-1m0-1a2,2,0,1,0,2,2A2,2,0,0,0,3758.67,3623.17Z"/></g><g class="cls-5"><circle class="cls-3" cx="4396.22" cy="1483.64" r="1.5"/><path class="cls-3" d="M4396.22,1482.64a1,1,0,1,1-1,1,1,1,0,0,1,1-1m0-1a2,2,0,1,0,2,2A2,2,0,0,0,4396.22,1481.64Z"/></g><g class="cls-5"><circle class="cls-3" cx="1416" cy="655.17" r="1.5"/><path class="cls-3" d="M1416,654.17a1,1,0,1,1-1,1,1,1,0,0,1,1-1m0-1a2,2,0,1,0,2,2A2,2,0,0,0,1416,653.17Z"/></g><g class="cls-5"><circle class="cls-3" cx="707" cy="2436.79" r="1.5"/><path class="cls-3" d="M707,2435.79a1,1,0,1,1-1,1,1,1,0,0,1,1-1m0-1a2,2,0,1,0,2,2A2,2,0,0,0,707,2434.79Z"/></g><g class="cls-5"><circle class="cls-3" cx="1164.83" cy="2371.73" r="1.5"/><path class="cls-3" d="M1164.83,2370.73a1,1,0,1,1-1,1,1,1,0,0,1,1-1m0-1a2,2,0,1,0,2,2A2,2,0,0,0,1164.83,2369.73Z"/></g><g class="cls-5"><circle class="cls-3" cx="3821.33" cy="3789.94" r="1.5"/><path class="cls-3" d="M3821.33,3788.94a1,1,0,1,1-1,1,1,1,0,0,1,1-1m0-1a2,2,0,1,0,2,2A2,2,0,0,0,3821.33,3787.94Z"/></g><g class="cls-5"><circle class="cls-3" cx="4100" cy="1547.44" r="1.5"/><path class="cls-3" d="M4100,1546.44a1,1,0,1,1-1,1,1,1,0,0,1,1-1m0-1a2,2,0,1,0,2,2A2,2,0,0,0,4100,1545.44Z"/></g><g class="cls-5"><circle class="cls-3" cx="2376.67" cy="3396.92" r="1.5"/><path class="cls-3" d="M2376.67,3395.92a1,1,0,1,1-1,1,1,1,0,0,1,1-1m0-1a2,2,0,1,0,2,2A2,2,0,0,0,2376.67,3394.92Z"/></g><g class="cls-5"><circle class="cls-3" cx="2362.67" cy="3785.17" r="1.5"/><path class="cls-3" d="M2362.67,3784.17a1,1,0,1,1-1,1,1,1,0,0,1,1-1m0-1a2,2,0,1,0,2,2A2,2,0,0,0,2362.67,3783.17Z"/></g><g class="cls-5"><circle class="cls-3" cx="2761.56" cy="2403.64" r="1.5"/><path class="cls-3" d="M2761.56,2402.64a1,1,0,1,1-1,1,1,1,0,0,1,1-1m0-1a2,2,0,1,0,2,2A2,2,0,0,0,2761.56,2401.64Z"/></g><g class="cls-5"><circle class="cls-3" cx="3164.75" cy="2952.2" r="1.5"/><path class="cls-3" d="M3164.75,2951.2a1,1,0,1,1-1,1,1,1,0,0,1,1-1m0-1a2,2,0,1,0,2,2A2,2,0,0,0,3164.75,2950.2Z"/></g><g class="cls-22"><circle class="cls-3" cx="2639.67" cy="2751.82" r="1.5"/><path class="cls-3" d="M2639.67,2750.82a1,1,0,1,1-1,1,1,1,0,0,1,1-1m0-1a2,2,0,1,0,2,2A2,2,0,0,0,2639.67,2749.82Z"/></g><line class="cls-27" x1="2619.75" y1="2793.25" x2="2638.8" y2="2753.62"/><line class="cls-28" x1="2576.33" y1="2753.83" x2="2637.67" y2="2751.82"/><line class="cls-29" x1="2575.54" y1="2755.85" x2="2616.83" y2="2793.81"/><g class="cls-2"><circle class="cls-3" cx="2611.67" cy="3168.13" r="2"/><path class="cls-3" d="M2611.67,3166.62a1.5,1.5,0,1,1-1.5,1.5,1.5,1.5,0,0,1,1.5-1.5m0-1a2.5,2.5,0,1,0,2.5,2.5A2.5,2.5,0,0,0,2611.67,3165.62Z"/></g><g class="cls-2"><ellipse class="cls-3" cx="3318.2" cy="4167.4" rx="2" ry="1.98"/><path class="cls-3" d="M3318.2,4165.91a1.49,1.49,0,1,1-1.5,1.49,1.49,1.49,0,0,1,1.5-1.49m0-1a2.48,2.48,0,1,0,2.5,2.48A2.49,2.49,0,0,0,3318.2,4164.92Z"/></g><g class="cls-4"><circle class="cls-3" cx="2445.33" cy="2848.61" r="1"/><path class="cls-3" d="M2445.33,2848.11a.5.5,0,0,1,0,1,.5.5,0,0,1,0-1m0-1a1.5,1.5,0,1,0,1.5,1.5A1.5,1.5,0,0,0,2445.33,2847.11Z"/></g><g class="cls-4"><circle class="cls-3" cx="2115.67" cy="3807.5" r="1"/><path class="cls-3" d="M2115.67,3807a.5.5,0,0,1,0,1,.5.5,0,0,1,0-1m0-1a1.5,1.5,0,1,0,1.5,1.5A1.5,1.5,0,0,0,2115.67,3806Z"/></g><line class="cls-30" x1="2033.11" y1="3916.95" x2="2103.2" y2="3850.05"/><line class="cls-30" x1="2105.63" y1="3845.92" x2="2115.29" y2="3808.95"/><line class="cls-28" x1="2031.67" y1="3916.33" x2="2029" y2="3808.5"/><line class="cls-30" x1="2033.48" y1="3804.38" x2="2114.17" y2="3807.5"/><line class="cls-31" x1="2102.84" y1="3847.07" x2="2032.89" y2="3806.27"/><g class="cls-9"><circle class="cls-3" cx="2248" cy="3527.72" r="4"/><path class="cls-3" d="M2248,3524.22a3.5,3.5,0,1,1-3.5,3.5,3.5,3.5,0,0,1,3.5-3.5h0m0-1a4.5,4.5,0,1,0,4.5,4.5h0a4.5,4.5,0,0,0-4.48-4.5Z"/></g><g class="cls-9"><circle class="cls-3" cx="2048.15" cy="1900.68" r="4"/><path class="cls-3" d="M2048.15,1897.18a3.5,3.5,0,1,1-3.5,3.5,3.5,3.5,0,0,1,3.5-3.5h0m0-1a4.5,4.5,0,1,0,4.5,4.5h0a4.49,4.49,0,0,0-4.48-4.5Z"/></g><g class="cls-5"><circle class="cls-3" cx="2827.56" cy="3877.06" r="1.5"/><path class="cls-3" d="M2827.56,3876.06a1,1,0,1,1-1,1,1,1,0,0,1,1-1m0-1a2,2,0,1,0,2,2A2,2,0,0,0,2827.56,3875.06Z"/></g><g class="cls-5"><circle class="cls-3" cx="3279" cy="3636.13" r="1.5"/><path class="cls-3" d="M3279,3635.12a1,1,0,1,1-1,1,1,1,0,0,1,1-1m0-1a2,2,0,1,0,2,2A2,2,0,0,0,3279,3634.12Z"/></g><g class="cls-5"><circle class="cls-3" cx="1827.11" cy="883.44" r="1.5"/><path class="cls-3" d="M1827.11,882.44a1,1,0,1,1-1,1,1,1,0,0,1,1-1m0-1a2,2,0,1,0,2,2A2,2,0,0,0,1827.11,881.44Z"/></g><g class="cls-5"><circle class="cls-3" cx="933.89" cy="2768.71" r="1.5"/><path class="cls-3" d="M933.89,2767.71a1,1,0,1,1-1,1,1,1,0,0,1,1-1m0-1a2,2,0,1,0,2,2A2,2,0,0,0,933.89,2766.71Z"/></g><line class="cls-28" x1="3166.61" y1="2951.47" x2="3309.81" y2="2895.06"/><line class="cls-28" x1="3166.74" y1="2952.42" x2="3376.53" y2="2975.51"/><line class="cls-27" x1="3312.96" y1="2895.85" x2="3378.09" y2="2972.57"/><g class="cls-2"><circle class="cls-3" cx="3461.16" cy="2844.89" r="2"/><path class="cls-3" d="M3461.16,2843.39a1.5,1.5,0,1,1-1.5,1.5,1.5,1.5,0,0,1,1.5-1.5m0-1a2.5,2.5,0,1,0,2.5,2.5A2.5,2.5,0,0,0,3461.16,2842.39Z"/></g><line class="cls-28" x1="3417.37" y1="3063.19" x2="3382.73" y2="2980.15"/><line class="cls-31" x1="3385.11" y1="2974.16" x2="3514.72" y2="2916.02"/><line class="cls-30" x1="3313.56" y1="2893.7" x2="3458.8" y2="2845.67"/><line class="cls-30" x1="3515.41" y1="2913" x2="3462.72" y2="2846.85"/><line class="cls-28" x1="3462.42" y1="2842.74" x2="3522.73" y2="2739.88"/><line class="cls-31" x1="3519.24" y1="2916.1" x2="3596.18" y2="2953.72"/><g class="cls-2"><circle class="cls-3" cx="1659.33" cy="1716.33" r="2"/><path class="cls-3" d="M1659.33,1714.83a1.5,1.5,0,1,1-1.5,1.5,1.52,1.52,0,0,1,1.5-1.5m0-1a2.5,2.5,0,1,0,2.5,2.5A2.5,2.5,0,0,0,1659.33,1713.83Z"/></g><g class="cls-2"><circle class="cls-3" cx="3433.33" cy="3688.33" r="2"/><path class="cls-3" d="M3433.33,3686.83a1.5,1.5,0,1,1-1.5,1.5,1.52,1.52,0,0,1,1.5-1.5m0-1a2.5,2.5,0,1,0,2.5,2.5A2.5,2.5,0,0,0,3433.33,3685.83Z"/></g><g class="cls-2"><circle class="cls-3" cx="3044" cy="4074" r="2"/><path class="cls-3" d="M3044,4072.5a1.5,1.5,0,1,1-1.5,1.5,1.5,1.5,0,0,1,1.5-1.5m0-1a2.5,2.5,0,1,0,2.5,2.5A2.5,2.5,0,0,0,3044,4071.5Z"/></g><g class="cls-9"><circle class="cls-3" cx="3206.66" cy="3750" r="4"/><path class="cls-3" d="M3206.66,3746.5a3.5,3.5,0,1,1-3.5,3.5h0a3.5,3.5,0,0,1,3.5-3.5m0-1a4.5,4.5,0,1,0,4.5,4.5h0a4.49,4.49,0,0,0-4.48-4.5Z"/></g><g class="cls-9"><circle class="cls-3" cx="3110.66" cy="3430" r="2.67"/><path class="cls-3" d="M3110.66,3427.67a2.33,2.33,0,1,1-2.33,2.33h0a2.33,2.33,0,0,1,2.33-2.33m0-.67a3,3,0,1,0,3,3h0a3,3,0,0,0-3-3Z"/></g><g class="cls-2"><circle class="cls-3" cx="953.33" cy="3392.92" r="2"/><path class="cls-3" d="M953.33,3391.42a1.5,1.5,0,1,1-1.5,1.5,1.5,1.5,0,0,1,1.5-1.5m0-1a2.5,2.5,0,1,0,2.5,2.5A2.5,2.5,0,0,0,953.33,3390.42Z"/></g><g class="cls-2"><circle class="cls-3" cx="1017.78" cy="2253.06" r="2"/><path class="cls-3" d="M1017.78,2251.56a1.5,1.5,0,1,1-1.5,1.5,1.5,1.5,0,0,1,1.5-1.5m0-1a2.5,2.5,0,1,0,2.5,2.5A2.49,2.49,0,0,0,1017.78,2250.56Z"/></g><g class="cls-2"><circle class="cls-3" cx="1438.67" cy="2889.17" r="2"/><path class="cls-3" d="M1438.67,2887.67a1.5,1.5,0,1,1-1.5,1.5,1.5,1.5,0,0,1,1.5-1.5m0-1a2.5,2.5,0,1,0,2.5,2.5A2.5,2.5,0,0,0,1438.67,2886.67Z"/></g><g class="cls-2"><circle class="cls-3" cx="4455.56" cy="3179.44" r="2"/><path class="cls-3" d="M4455.56,3177.94a1.5,1.5,0,1,1-1.5,1.5,1.51,1.51,0,0,1,1.5-1.5m0-1a2.5,2.5,0,1,0,2.5,2.5A2.49,2.49,0,0,0,4455.56,3176.94Z"/></g><g class="cls-2"><circle class="cls-3" cx="3863.33" cy="2576.92" r="2"/><path class="cls-3" d="M3863.33,2575.42a1.5,1.5,0,1,1-1.5,1.5,1.5,1.5,0,0,1,1.5-1.5m0-1a2.5,2.5,0,1,0,2.5,2.5A2.5,2.5,0,0,0,3863.33,2574.42Z"/></g><g class="cls-2"><circle class="cls-3" cx="1976.67" cy="604.92" r="2"/><path class="cls-3" d="M1976.67,603.42a1.5,1.5,0,1,1-1.5,1.5,1.5,1.5,0,0,1,1.5-1.5m0-1a2.5,2.5,0,1,0,2.5,2.5A2.5,2.5,0,0,0,1976.67,602.42Z"/></g><g class="cls-2"><circle class="cls-3" cx="3712.67" cy="4157.58" r="2"/><path class="cls-3" d="M3712.67,4156.08a1.5,1.5,0,1,1-1.5,1.5,1.5,1.5,0,0,1,1.5-1.5m0-1a2.5,2.5,0,1,0,2.5,2.5A2.5,2.5,0,0,0,3712.67,4155.08Z"/></g><g class="cls-2"><circle class="cls-3" cx="3758.67" cy="4355.44" r="2"/><path class="cls-3" d="M3758.67,4353.94a1.5,1.5,0,1,1-1.5,1.5,1.5,1.5,0,0,1,1.5-1.5m0-1a2.5,2.5,0,1,0,2.5,2.5A2.5,2.5,0,0,0,3758.67,4352.94Z"/></g><g class="cls-32"><circle class="cls-3" cx="3927.42" cy="3515.53" r="2"/><path class="cls-3" d="M3927.42,3514a1.5,1.5,0,1,1-1.5,1.5,1.5,1.5,0,0,1,1.5-1.5m0-1a2.5,2.5,0,1,0,2.5,2.5A2.5,2.5,0,0,0,3927.42,3513Z"/></g><g class="cls-2"><circle class="cls-3" cx="3816" cy="3197.94" r="2"/><path class="cls-3" d="M3816,3196.44a1.5,1.5,0,1,1-1.5,1.5,1.5,1.5,0,0,1,1.5-1.5m0-1a2.5,2.5,0,1,0,2.5,2.5A2.5,2.5,0,0,0,3816,3195.44Z"/></g><g class="cls-2"><circle class="cls-3" cx="2644.67" cy="3681.17" r="2"/><path class="cls-3" d="M2644.67,3679.67a1.5,1.5,0,1,1-1.5,1.5,1.5,1.5,0,0,1,1.5-1.5m0-1a2.5,2.5,0,1,0,2.5,2.5A2.5,2.5,0,0,0,2644.67,3678.67Z"/></g><g class="cls-2"><circle class="cls-3" cx="2019.67" cy="894.79" r="2"/><path class="cls-3" d="M2019.67,893.29a1.5,1.5,0,1,1-1.5,1.5,1.5,1.5,0,0,1,1.5-1.5m0-1a2.5,2.5,0,1,0,2.5,2.5A2.5,2.5,0,0,0,2019.67,892.29Z"/></g><g class="cls-2"><circle class="cls-3" cx="3224.67" cy="2182.31" r="2"/><path class="cls-3" d="M3224.67,2180.81a1.5,1.5,0,1,1-1.5,1.5,1.5,1.5,0,0,1,1.5-1.5m0-1a2.5,2.5,0,1,0,2.5,2.5A2.49,2.49,0,0,0,3224.67,2179.81Z"/></g><g class="cls-4"><circle class="cls-3" cx="3203.48" cy="2177.33" r="0.5"/><path class="cls-3" d="M3203.48,2176.33a1,1,0,1,0,1,1A1,1,0,0,0,3203.48,2176.33Z"/></g><g class="cls-4"><circle class="cls-3" cx="3208.92" cy="2206.48" r="0.5"/><path class="cls-3" d="M3208.92,2205.48a1,1,0,0,0,0,2,1,1,0,0,0,0-2Z"/></g><line class="cls-31" x1="3209.47" y1="2205.64" x2="3223.38" y2="2184.45"/><line class="cls-33" x1="3208.18" y1="2205.8" x2="3187.18" y2="2186.68"/><line class="cls-34" x1="3208.73" y1="2205.49" x2="3203.66" y2="2178.32"/><g class="cls-4"><ellipse class="cls-3" cx="3280.42" cy="4167.4" rx="0.5" ry="0.5"/><path class="cls-3" d="M3280.42,4166.4a1,1,0,1,0,1,1A1,1,0,0,0,3280.42,4166.4Z"/></g><g class="cls-4"><ellipse class="cls-3" cx="3273.86" cy="4196.18" rx="0.5" ry="0.5"/><path class="cls-3" d="M3273.86,4195.19a1,1,0,1,0,1,1A1,1,0,0,0,3273.86,4195.19Z"/></g><g class="cls-5"><ellipse class="cls-3" cx="3248.64" cy="4221.52" rx="1.5" ry="1.49"/><path class="cls-3" d="M3248.64,4220.53a1,1,0,1,1-1,1,1,1,0,0,1,1-1m0-1a2,2,0,1,0,2,2A2,2,0,0,0,3248.64,4219.53Z"/></g><line class="cls-29" x1="3250.05" y1="4220.11" x2="3273.16" y2="4196.89"/><line class="cls-33" x1="3304.53" y1="4197.17" x2="3274.86" y2="4196.18"/><line class="cls-30" x1="3274.08" y1="4195.21" x2="3280.2" y2="4168.36"/><line class="cls-33" x1="3281.42" y1="4167.4" x2="3315.7" y2="4167.4"/><line class="cls-30" x1="3305.92" y1="4196.26" x2="3317.23" y2="4169.68"/><g class="cls-2"><circle class="cls-3" cx="2067.33" cy="1609.29" r="2"/><path class="cls-3" d="M2067.33,1607.79a1.5,1.5,0,1,1-1.5,1.5,1.5,1.5,0,0,1,1.5-1.5m0-1a2.5,2.5,0,1,0,2.5,2.5A2.5,2.5,0,0,0,2067.33,1606.79Z"/></g><g class="cls-2"><circle class="cls-3" cx="2024.44" cy="1649.22" r="2"/><path class="cls-3" d="M2024.44,1647.72a1.5,1.5,0,1,1-1.5,1.5,1.5,1.5,0,0,1,1.5-1.5m0-1a2.5,2.5,0,1,0,2.5,2.5A2.5,2.5,0,0,0,2024.44,1646.72Z"/></g><g class="cls-9"><circle class="cls-3" cx="2052.33" cy="1697" r="4"/><path class="cls-3" d="M2052.33,1693.5a3.5,3.5,0,1,1-3.5,3.5,3.5,3.5,0,0,1,3.5-3.5h0m0-1a4.5,4.5,0,1,0,4.5,4.5h0a4.49,4.49,0,0,0-4.48-4.5Z"/></g><g class="cls-9"><circle class="cls-3" cx="2145" cy="1602.79" r="4"/><path class="cls-3" d="M2145,1599.29a3.5,3.5,0,1,1-3.5,3.5,3.5,3.5,0,0,1,3.5-3.5h0m0-1a4.5,4.5,0,1,0,4.5,4.5h0a4.5,4.5,0,0,0-4.48-4.5Z"/></g><g class="cls-4"><circle class="cls-3" cx="2092.17" cy="1692.5" r="1"/><path class="cls-3" d="M2092.17,1692a.5.5,0,0,1,0,1,.51.51,0,0,1-.5-.5.5.5,0,0,1,.5-.5m0-1a1.5,1.5,0,1,0,1.5,1.5,1.5,1.5,0,0,0-1.5-1.5Z"/></g><g class="cls-4"><circle class="cls-3" cx="2212.83" cy="1597.73" r="1"/><path class="cls-3" d="M2212.83,1597.23a.5.5,0,0,1,.5.5.51.51,0,0,1-.5.5.5.5,0,0,1,0-1m0-1a1.5,1.5,0,1,0,1.5,1.5A1.5,1.5,0,0,0,2212.83,1596.23Z"/></g><line class="cls-28" x1="2216.86" y1="1633.24" x2="2149.14" y2="1604.55"/><line class="cls-30" x1="2149.5" y1="1602.46" x2="2211.35" y2="1597.95"/><line class="cls-31" x1="2069.83" y1="1609.08" x2="2140.53" y2="1603.31"/><line class="cls-33" x1="2026.27" y1="1647.52" x2="2065.51" y2="1610.99"/><line class="cls-28" x1="2050.07" y1="1693.11" x2="2025.7" y2="1651.38"/><line class="cls-30" x1="2056.8" y1="1696.49" x2="2090.68" y2="1692.67"/><line class="cls-31" x1="3054.65" y1="4556.62" x2="3034.28" y2="4522.48"/><line class="cls-30" x1="2364.65" y1="3785.36" x2="2413.69" y2="3790.14"/><line class="cls-30" x1="2414.97" y1="3788.46" x2="2393.33" y2="3730.41"/><line class="cls-30" x1="2196.83" y1="4331.88" x2="2231.22" y2="4298.08"/><g class="cls-8"><circle class="cls-3" cx="1397.39" cy="2832.13" r="3"/><path class="cls-3" d="M1397.39,2829.63a2.5,2.5,0,1,1-2.5,2.5,2.5,2.5,0,0,1,2.5-2.5m0-1a3.5,3.5,0,1,0,3.5,3.5,3.5,3.5,0,0,0-3.5-3.5Z"/></g><line class="cls-30" x1="1437.2" y1="2887.15" x2="1399.44" y2="2834.96"/><line class="cls-30" x1="1307.42" y1="2855.7" x2="1394.01" y2="2833.02"/><line class="cls-28" x1="1399.1" y1="2829.08" x2="1432.08" y2="2770.31"/><g class="cls-5"><circle class="cls-3" cx="3943" cy="3548" r="1.5"/><path class="cls-3" d="M3943,3547a1,1,0,1,1-1,1,1,1,0,0,1,1-1m0-1a2,2,0,1,0,2,2A2,2,0,0,0,3943,3546Z"/></g><g class="cls-5"><circle class="cls-3" cx="3978.17" cy="3491.73" r="1.5"/><path class="cls-3" d="M3978.17,3490.73a1,1,0,1,1-1,1,1,1,0,0,1,1-1m0-1a2,2,0,1,0,2,2A2,2,0,0,0,3978.17,3489.73Z"/></g><line class="cls-28" x1="3942.14" y1="3546.2" x2="3928.5" y2="3517.79"/><line class="cls-30" x1="3987.29" y1="3549.5" x2="3978.48" y2="3493.7"/><line class="cls-30" x1="3929.67" y1="3514.47" x2="3976.36" y2="3492.58"/><line class="cls-31" x1="3944.96" y1="3548.26" x2="3983.54" y2="3553.4"/><line class="cls-33" x1="1829.11" y1="883.86" x2="2017.17" y2="894.63"/><line class="cls-31" x1="2230.55" y1="935.87" x2="2022.09" y2="895.41"/><line class="cls-30" x1="1828.96" y1="882.68" x2="2029.7" y2="846.68"/><line class="cls-33" x1="2230.91" y1="934.96" x2="2033.5" y2="847.14"/><g class="cls-2"><circle class="cls-3" cx="2422.67" cy="1293.17" r="2"/><path class="cls-3" d="M2422.67,1291.67a1.5,1.5,0,1,1-1.5,1.5,1.5,1.5,0,0,1,1.5-1.5m0-1a2.5,2.5,0,1,0,2.5,2.5A2.5,2.5,0,0,0,2422.67,1290.67Z"/></g><g class="cls-2"><circle class="cls-3" cx="2472" cy="1463.72" r="2"/><path class="cls-3" d="M2472,1462.22a1.5,1.5,0,1,1-1.5,1.5,1.5,1.5,0,0,1,1.5-1.5m0-1a2.5,2.5,0,1,0,2.5,2.5A2.5,2.5,0,0,0,2472,1461.22Z"/></g><g class="cls-9"><circle class="cls-3" cx="1088" cy="2201.5" r="4"/><path class="cls-3" d="M1088,2198a3.5,3.5,0,1,1-3.5,3.5,3.5,3.5,0,0,1,3.5-3.5h0m0-1a4.5,4.5,0,1,0,4.5,4.5,4.49,4.49,0,0,0-4.5-4.5Z"/></g><g class="cls-35"><circle class="cls-3" cx="1101.83" cy="2273" r="1.5"/><path class="cls-3" d="M1101.83,2272a1,1,0,1,1-1,1,1,1,0,0,1,1-1m0-1a2,2,0,1,0,2,2A2,2,0,0,0,1101.83,2271Z"/></g><g class="cls-5"><circle class="cls-3" cx="1163.83" cy="2276" r="1.5"/><path class="cls-3" d="M1163.83,2275a1,1,0,1,1-1,1,1,1,0,0,1,1-1m0-1a2,2,0,1,0,2,2A2,2,0,0,0,1163.83,2274Z"/></g><line class="cls-31" x1="1019.78" y1="2251.59" x2="1084.5" y2="2204.07"/><line class="cls-27" x1="1099.89" y1="2272.54" x2="1020.21" y2="2253.63"/><line class="cls-28" x1="1103.83" y1="2273" x2="1161.83" y2="2276"/><g class="cls-5"><circle class="cls-3" cx="1079.67" cy="2240.71" r="1.5"/><path class="cls-3" d="M1079.67,2239.71a1,1,0,1,1-1,1,1,1,0,0,1,1-1m0-1a2,2,0,1,0,2,2A2,2,0,0,0,1079.67,2238.71Z"/></g><line class="cls-27" x1="1080.08" y1="2238.75" x2="1087.06" y2="2205.9"/><line class="cls-31" x1="1100.7" y1="2271.35" x2="1080.8" y2="2242.36"/><g class="cls-5"><circle class="cls-3" cx="1154.83" cy="2197.4" r="1.5"/><path class="cls-3" d="M1154.83,2196.4a1,1,0,0,1,0,2,1,1,0,0,1,0-2m0-1a2,2,0,1,0,2,2A2,2,0,0,0,1154.83,2195.4Z"/></g><line class="cls-27" x1="1092.5" y1="2201.23" x2="1152.83" y2="2197.52"/><line class="cls-36" x1="1077.71" y1="2241.1" x2="1020.23" y2="2252.57"/><g class="cls-8"><circle class="cls-3" cx="1327" cy="1370.79" r="3"/><path class="cls-3" d="M1327,1368.29a2.5,2.5,0,1,1-2.5,2.5,2.5,2.5,0,0,1,2.5-2.5m0-1a3.5,3.5,0,1,0,3.5,3.5,3.5,3.5,0,0,0-3.5-3.5Z"/></g><g class="cls-8"><circle class="cls-3" cx="1464.67" cy="1416.97" r="3"/><path class="cls-3" d="M1464.67,1414.47a2.5,2.5,0,1,1-2.5,2.5,2.5,2.5,0,0,1,2.5-2.5m0-1a3.5,3.5,0,1,0,3.5,3.5,3.5,3.5,0,0,0-3.5-3.5Z"/></g><line class="cls-37" x1="1330.41" y1="1370.15" x2="1448.6" y2="1347.95"/><line class="cls-27" x1="1330.32" y1="1371.9" x2="1461.35" y2="1415.86"/><line class="cls-36" x1="1453.75" y1="1351.44" x2="1464.17" y2="1413.51"/><g class="cls-2"><circle class="cls-3" cx="1286.06" cy="1380.24" r="2"/><path class="cls-3" d="M1286.06,1378.74a1.5,1.5,0,1,1-1.5,1.5,1.51,1.51,0,0,1,1.5-1.5m0-1a2.5,2.5,0,1,0,2.5,2.5A2.5,2.5,0,0,0,1286.06,1377.74Z"/></g><line class="cls-36" x1="1323.59" y1="1371.58" x2="1288.49" y2="1379.68"/><path class="cls-38" d="M3219.61,1145.22a3.5,3.5,0,1,0,3.5,3.5,3.5,3.5,0,0,0-3.5-3.5Z"/><path class="cls-39" d="M3371,1172.62a3.5,3.5,0,1,0,3.5,3.5,3.5,3.5,0,0,0-3.5-3.5Z"/><line class="cls-28" x1="3217.19" y1="1146.2" x2="3188.78" y2="1116.58"/><line class="cls-40" x1="3323.74" y1="1114.12" x2="3222.93" y2="1147.62"/><line class="cls-41" x1="3368.97" y1="1173.28" x2="3327.61" y2="1115.33"/><line class="cls-36" x1="4133.55" y1="2042.23" x2="4090.36" y2="1975.77"/><g class="cls-2"><circle class="cls-3" cx="1013.67" cy="3480.79" r="2"/><path class="cls-3" d="M1013.67,3479.29a1.5,1.5,0,1,1-1.5,1.5,1.5,1.5,0,0,1,1.5-1.5m0-1a2.5,2.5,0,1,0,2.5,2.5A2.5,2.5,0,0,0,1013.67,3478.29Z"/></g><g class="cls-2"><circle class="cls-3" cx="928.67" cy="3508.53" r="2"/><path class="cls-3" d="M928.67,3507a1.5,1.5,0,1,1-1.5,1.5,1.5,1.5,0,0,1,1.5-1.5m0-1a2.5,2.5,0,1,0,2.5,2.5A2.5,2.5,0,0,0,928.67,3506Z"/></g><g class="cls-2"><circle class="cls-3" cx="1055.67" cy="3730.79" r="2"/><path class="cls-3" d="M1055.67,3729.29a1.5,1.5,0,1,1-1.5,1.5,1.5,1.5,0,0,1,1.5-1.5m0-1a2.5,2.5,0,1,0,2.5,2.5A2.5,2.5,0,0,0,1055.67,3728.29Z"/></g><g class="cls-2"><circle class="cls-3" cx="725.94" cy="3115.8" r="2"/><path class="cls-3" d="M725.94,3114.3a1.5,1.5,0,1,1-1.5,1.5,1.5,1.5,0,0,1,1.5-1.5m0-1a2.5,2.5,0,1,0,2.5,2.5A2.5,2.5,0,0,0,725.94,3113.3Z"/></g><g class="cls-2"><circle class="cls-3" cx="4356.67" cy="2457.17" r="2"/><path class="cls-3" d="M4356.67,2455.67a1.5,1.5,0,1,1-1.5,1.5,1.5,1.5,0,0,1,1.5-1.5m0-1a2.5,2.5,0,1,0,2.5,2.5A2.5,2.5,0,0,0,4356.67,2454.67Z"/></g><line class="cls-36" x1="929.19" y1="3506.08" x2="952.81" y2="3395.36"/><line class="cls-41" x1="1011.29" y1="3481.57" x2="931.04" y2="3507.75"/><g class="cls-2"><circle class="cls-3" cx="934.83" cy="3558.4" r="2"/><path class="cls-3" d="M934.83,3556.9a1.5,1.5,0,1,1-1.5,1.5,1.5,1.5,0,0,1,1.5-1.5m0-1a2.5,2.5,0,1,0,2.5,2.5A2.5,2.5,0,0,0,934.83,3555.9Z"/></g><line class="cls-31" x1="934.52" y1="3555.9" x2="928.98" y2="3511.03"/><line class="cls-27" x1="921.51" y1="3621.88" x2="934.32" y2="3560.84"/><line class="cls-41" x1="1012.25" y1="3478.73" x2="954.75" y2="3394.98"/><g class="cls-2"><circle class="cls-3" cx="3586" cy="1562.5" r="2"/><path class="cls-3" d="M3586,1561a1.5,1.5,0,1,1-1.5,1.5,1.5,1.5,0,0,1,1.5-1.5m0-1a2.5,2.5,0,1,0,2.5,2.5A2.5,2.5,0,0,0,3586,1560Z"/></g><g class="cls-2"><circle class="cls-3" cx="3424.67" cy="554.5" r="2"/><path class="cls-3" d="M3424.67,553a1.5,1.5,0,1,1-1.5,1.5,1.5,1.5,0,0,1,1.5-1.5m0-1a2.5,2.5,0,1,0,2.5,2.5A2.5,2.5,0,0,0,3424.67,552Z"/></g><g class="cls-2"><circle class="cls-3" cx="4335.56" cy="1503.33" r="2"/><path class="cls-3" d="M4335.56,1501.83a1.5,1.5,0,1,1-1.5,1.5,1.5,1.5,0,0,1,1.5-1.5m0-1a2.5,2.5,0,1,0,2.5,2.5A2.49,2.49,0,0,0,4335.56,1500.83Z"/></g><g class="cls-2"><circle class="cls-3" cx="1110.67" cy="904.5" r="2"/><path class="cls-3" d="M1110.67,903a1.5,1.5,0,1,1-1.5,1.5,1.5,1.5,0,0,1,1.5-1.5m0-1a2.5,2.5,0,1,0,2.5,2.5A2.5,2.5,0,0,0,1110.67,902Z"/></g><g class="cls-10"><circle class="cls-3" cx="2800" cy="2942.83" r="0.5"/><path class="cls-3" d="M2800,2941.83a1,1,0,1,0,1,1A1,1,0,0,0,2800,2941.83Z"/></g><g class="cls-9"><circle class="cls-3" cx="2778.66" cy="2838.92" r="4"/><path class="cls-3" d="M2778.66,2835.42a3.5,3.5,0,1,1-3.5,3.5,3.49,3.49,0,0,1,3.5-3.5h0m0-1a4.5,4.5,0,1,0,4.5,4.5h0a4.48,4.48,0,0,0-4.48-4.5Z"/></g><g class="cls-2"><circle class="cls-3" cx="2733.11" cy="2960.08" r="2"/><path class="cls-3" d="M2733.11,2958.58a1.5,1.5,0,1,1-1.5,1.5,1.52,1.52,0,0,1,1.5-1.5m0-1a2.5,2.5,0,1,0,2.5,2.5A2.5,2.5,0,0,0,2733.11,2957.58Z"/></g><g class="cls-2"><circle class="cls-3" cx="4411.83" cy="3007" r="2"/><path class="cls-3" d="M4411.83,3005.5a1.5,1.5,0,1,1-1.5,1.5,1.5,1.5,0,0,1,1.5-1.5m0-1a2.5,2.5,0,1,0,2.5,2.5A2.5,2.5,0,0,0,4411.83,3004.5Z"/></g><g class="cls-8"><circle class="cls-3" cx="4373.17" cy="3045" r="3"/><path class="cls-3" d="M4373.17,3042.5a2.5,2.5,0,1,1-2.5,2.5,2.5,2.5,0,0,1,2.5-2.5m0-1a3.5,3.5,0,1,0,3.5,3.5,3.5,3.5,0,0,0-3.5-3.5Z"/></g><line class="cls-30" x1="4375.66" y1="3042.55" x2="4410.05" y2="3008.75"/><g class="cls-2"><ellipse class="cls-3" cx="1571.73" cy="1868.34" rx="1.77" ry="2.41"/><path class="cls-3" d="M1571.73,1866.54c.73,0,1.33.81,1.33,1.8s-.6,1.81-1.33,1.81-1.33-.81-1.33-1.81.59-1.8,1.33-1.8m0-1.21c-1.23,0-2.22,1.35-2.22,3s1,3,2.22,3,2.21-1.35,2.21-3S1573,1865.33,1571.73,1865.33Z"/></g><g class="cls-8"><ellipse class="cls-3" cx="1537.44" cy="1914.12" rx="2.66" ry="3.61"/><path class="cls-3" d="M1537.44,1911.11c1.22,0,2.21,1.34,2.21,3s-1,3-2.21,3-2.22-1.35-2.22-3,1-3,2.22-3m0-1.21c-1.72,0-3.11,1.89-3.11,4.22s1.39,4.21,3.11,4.21,3.1-1.88,3.1-4.21-1.39-4.22-3.1-4.22Z"/></g><line class="cls-30" x1="1539.65" y1="1911.16" x2="1570.15" y2="1870.45"/><g class="cls-2"><circle class="cls-3" cx="2927.83" cy="1529.72" r="2"/><path class="cls-3" d="M2927.83,1528.22a1.5,1.5,0,1,1-1.5,1.5,1.5,1.5,0,0,1,1.5-1.5m0-1a2.5,2.5,0,1,0,2.5,2.5A2.5,2.5,0,0,0,2927.83,1527.22Z"/></g><g class="cls-8"><circle class="cls-3" cx="2889.17" cy="1567.72" r="3"/><path class="cls-3" d="M2889.17,1565.22a2.5,2.5,0,1,1-2.5,2.5,2.5,2.5,0,0,1,2.5-2.5m0-1a3.5,3.5,0,1,0,3.5,3.5,3.5,3.5,0,0,0-3.5-3.5Z"/></g><line class="cls-30" x1="2891.66" y1="1565.27" x2="2926.05" y2="1531.47"/></g></svg>