<svg id="Layer_1" data-name="Layer 1" xmlns="http://www.w3.org/2000/svg" viewBox="0 0 5000 5000"><defs><style>.cls-1{fill:#02002a;}.cls-2{fill:#2e3445;}.cls-3{opacity:0.3;}.cls-13,.cls-14,.cls-15,.cls-16,.cls-19,.cls-21,.cls-22,.cls-4{fill:#fff;}.cls-5{opacity:0.22;}.cls-6{opacity:0.28;}.cls-7{opacity:0.34;}.cls-8{opacity:0.4;}.cls-9{opacity:0.5;}.cls-10,.cls-14{opacity:0.15;}.cls-11{fill:none;}.cls-11,.cls-13,.cls-14,.cls-15,.cls-16,.cls-19,.cls-21,.cls-22{stroke:#fff;stroke-miterlimit:10;}.cls-12,.cls-13{opacity:0.1;}.cls-15{opacity:0.14;}.cls-16{opacity:0.16;}.cls-17{opacity:0.26;}.cls-18{opacity:0.17;}.cls-19{opacity:0.11;}.cls-20{opacity:0.32;}.cls-21{opacity:0.12;}.cls-22{opacity:0.13;}</style></defs><rect class="cls-1" width="5000" height="5000"/><circle class="cls-2" cx="2500" cy="2500" r="183"/><path d="M2500,2317.5a181.92,181.92,0,1,1-71,14.34,181.48,181.48,0,0,1,71-14.34m0-1c-101.34,0-183.5,82.16-183.5,183.5s82.16,183.5,183.5,183.5,183.5-82.16,183.5-183.5-82.16-183.5-183.5-183.5Z" transform="translate(0 0)"/><g class="cls-3"><circle class="cls-4" cx="1880.5" cy="2383.5" r="2"/><path class="cls-4" d="M1880.5,2382a1.5,1.5,0,1,1-1.5,1.5,1.5,1.5,0,0,1,1.5-1.5m0-1a2.5,2.5,0,1,0,2.5,2.5,2.5,2.5,0,0,0-2.5-2.5Z" transform="translate(0 0)"/></g><g class="cls-3"><circle class="cls-4" cx="2215.5" cy="2290.5" r="2"/><path class="cls-4" d="M2215.5,2289a1.5,1.5,0,1,1-1.5,1.5,1.5,1.5,0,0,1,1.5-1.5m0-1a2.5,2.5,0,1,0,2.5,2.5,2.5,2.5,0,0,0-2.5-2.5Z" transform="translate(0 0)"/></g><g class="cls-3"><circle class="cls-4" cx="2074.5" cy="2403" r="2"/><path class="cls-4" d="M2074.5,2401.5a1.5,1.5,0,1,1-1.5,1.5,1.5,1.5,0,0,1,1.5-1.5m0-1a2.5,2.5,0,1,0,2.5,2.5,2.5,2.5,0,0,0-2.5-2.5Z" transform="translate(0 0)"/></g><g class="cls-3"><circle class="cls-4" cx="2145.5" cy="2679.5" r="2"/><path class="cls-4" d="M2145.5,2678a1.5,1.5,0,1,1-1.5,1.5,1.5,1.5,0,0,1,1.5-1.5m0-1a2.5,2.5,0,1,0,2.5,2.5,2.5,2.5,0,0,0-2.5-2.5Z" transform="translate(0 0)"/></g><g class="cls-5"><circle class="cls-4" cx="2343" cy="2706.17" r="1"/><path class="cls-4" d="M2343,2705.67a.5.5,0,0,1,.5.5.5.5,0,0,1-1,0,.5.5,0,0,1,.5-.5m0-1a1.5,1.5,0,1,0,1.5,1.5,1.5,1.5,0,0,0-1.5-1.5Z" transform="translate(0 0)"/></g><g class="cls-3"><circle class="cls-4" cx="2325" cy="2818.17" r="2"/><path class="cls-4" d="M2325,2816.67a1.5,1.5,0,1,1-1.5,1.5,1.5,1.5,0,0,1,1.5-1.5m0-1a2.5,2.5,0,1,0,2.5,2.5,2.5,2.5,0,0,0-2.5-2.5Z" transform="translate(0 0)"/></g><g class="cls-3"><circle class="cls-4" cx="2642.33" cy="2842.67" r="2"/><path class="cls-4" d="M2642.33,2841.17a1.5,1.5,0,1,1-1.5,1.5,1.5,1.5,0,0,1,1.5-1.5m0-1a2.5,2.5,0,1,0,2.5,2.5,2.5,2.5,0,0,0-2.5-2.5Z" transform="translate(0 0)"/></g><g class="cls-6"><circle class="cls-4" cx="2018.33" cy="2730.67" r="1.5"/><path class="cls-4" d="M2018.33,2729.67a1,1,0,1,1-1,1,1,1,0,0,1,1-1m0-1a2,2,0,1,0,2,2,2,2,0,0,0-2-2Z" transform="translate(0 0)"/></g><g class="cls-3"><circle class="cls-4" cx="1682.33" cy="2580.67" r="2"/><path class="cls-4" d="M1682.33,2579.17a1.5,1.5,0,1,1-1.5,1.5,1.5,1.5,0,0,1,1.5-1.5m0-1a2.5,2.5,0,1,0,2.5,2.5,2.5,2.5,0,0,0-2.5-2.5Z" transform="translate(0 0)"/></g><g class="cls-3"><circle class="cls-4" cx="1682.33" cy="2932.67" r="2"/><path class="cls-4" d="M1682.33,2931.17a1.5,1.5,0,1,1-1.5,1.5,1.5,1.5,0,0,1,1.5-1.5m0-1a2.5,2.5,0,1,0,2.5,2.5,2.5,2.5,0,0,0-2.5-2.5Z" transform="translate(0 0)"/></g><g class="cls-3"><circle class="cls-4" cx="1682.33" cy="3412.67" r="2"/><path class="cls-4" d="M1682.33,3411.17a1.5,1.5,0,1,1-1.5,1.5,1.5,1.5,0,0,1,1.5-1.5m0-1a2.5,2.5,0,1,0,2.5,2.5,2.5,2.5,0,0,0-2.5-2.5Z" transform="translate(0 0)"/></g><g class="cls-3"><circle class="cls-4" cx="1625.33" cy="3172.67" r="2"/><path class="cls-4" d="M1625.33,3171.17a1.5,1.5,0,1,1-1.5,1.5,1.5,1.5,0,0,1,1.5-1.5m0-1a2.5,2.5,0,1,0,2.5,2.5,2.5,2.5,0,0,0-2.5-2.5Z" transform="translate(0 0)"/></g><g class="cls-3"><circle class="cls-4" cx="1826.33" cy="2216.67" r="2"/><path class="cls-4" d="M1826.33,2215.17a1.5,1.5,0,1,1-1.5,1.5,1.5,1.5,0,0,1,1.5-1.5m0-1a2.5,2.5,0,1,0,2.5,2.5,2.5,2.5,0,0,0-2.5-2.5Z" transform="translate(0 0)"/></g><g class="cls-3"><circle class="cls-4" cx="1938.33" cy="3060.67" r="2"/><path class="cls-4" d="M1938.33,3059.17a1.5,1.5,0,1,1-1.5,1.5,1.5,1.5,0,0,1,1.5-1.5m0-1a2.5,2.5,0,1,0,2.5,2.5,2.5,2.5,0,0,0-2.5-2.5Z" transform="translate(0 0)"/></g><g class="cls-7"><circle class="cls-4" cx="2107.67" cy="2944.33" r="2"/><path class="cls-4" d="M2107.67,2942.83a1.5,1.5,0,1,1-1.5,1.5,1.51,1.51,0,0,1,1.5-1.5m0-1a2.5,2.5,0,1,0,2.5,2.5,2.5,2.5,0,0,0-2.5-2.5Z" transform="translate(0 0)"/></g><g class="cls-3"><circle class="cls-4" cx="2288.67" cy="3296.33" r="2"/><path class="cls-4" d="M2288.67,3294.83a1.5,1.5,0,1,1-1.5,1.5,1.51,1.51,0,0,1,1.5-1.5m0-1a2.5,2.5,0,1,0,2.5,2.5,2.5,2.5,0,0,0-2.5-2.5Z" transform="translate(0 0)"/></g><g class="cls-3"><circle class="cls-4" cx="2414.33" cy="3081.67" r="2"/><path class="cls-4" d="M2414.33,3080.17a1.5,1.5,0,1,1-1.5,1.5,1.5,1.5,0,0,1,1.5-1.5m0-1a2.5,2.5,0,1,0,2.5,2.5,2.5,2.5,0,0,0-2.5-2.5Z" transform="translate(0 0)"/></g><g class="cls-3"><circle class="cls-4" cx="3365" cy="3081.67" r="2"/><path class="cls-4" d="M3365,3080.17a1.5,1.5,0,1,1-1.5,1.5,1.5,1.5,0,0,1,1.5-1.5m0-1a2.5,2.5,0,1,0,2.5,2.5,2.5,2.5,0,0,0-2.5-2.5Z" transform="translate(0 0)"/></g><g class="cls-3"><circle class="cls-4" cx="3417" cy="3363" r="2"/><path class="cls-4" d="M3417,3361.5a1.5,1.5,0,1,1-1.5,1.5,1.5,1.5,0,0,1,1.5-1.5m0-1a2.5,2.5,0,1,0,2.5,2.5,2.5,2.5,0,0,0-2.5-2.5Z" transform="translate(0 0)"/></g><g class="cls-3"><circle class="cls-4" cx="3517" cy="2915" r="2"/><path class="cls-4" d="M3517,2913.5a1.5,1.5,0,1,1-1.5,1.5,1.5,1.5,0,0,1,1.5-1.5m0-1a2.5,2.5,0,1,0,2.5,2.5,2.5,2.5,0,0,0-2.5-2.5Z" transform="translate(0 0)"/></g><g class="cls-3"><circle class="cls-4" cx="3385" cy="1699" r="2"/><path class="cls-4" d="M3385,1697.5a1.5,1.5,0,1,1-1.5,1.5,1.5,1.5,0,0,1,1.5-1.5m0-1a2.5,2.5,0,1,0,2.5,2.5,2.5,2.5,0,0,0-2.5-2.5Z" transform="translate(0 0)"/></g><g class="cls-3"><circle class="cls-4" cx="4057" cy="2608.33" r="2"/><path class="cls-4" d="M4057,2606.83a1.5,1.5,0,1,1-1.5,1.5,1.5,1.5,0,0,1,1.5-1.5m0-1a2.5,2.5,0,1,0,2.5,2.5,2.5,2.5,0,0,0-2.5-2.5Z" transform="translate(0 0)"/></g><g class="cls-3"><circle class="cls-4" cx="4281" cy="501.67" r="2"/><path class="cls-4" d="M4281,500.17a1.5,1.5,0,1,1-1.5,1.5,1.5,1.5,0,0,1,1.5-1.5m0-1a2.5,2.5,0,1,0,2.5,2.5,2.5,2.5,0,0,0-2.5-2.5Z" transform="translate(0 0)"/></g><g class="cls-3"><circle class="cls-4" cx="2265" cy="456.67" r="2"/><path class="cls-4" d="M2265,455.17a1.5,1.5,0,1,1-1.5,1.5,1.5,1.5,0,0,1,1.5-1.5m0-1a2.5,2.5,0,1,0,2.5,2.5,2.5,2.5,0,0,0-2.5-2.5Z" transform="translate(0 0)"/></g><g class="cls-3"><circle class="cls-4" cx="2393" cy="1712.33" r="2"/><path class="cls-4" d="M2393,1710.83a1.5,1.5,0,1,1-1.5,1.5,1.5,1.5,0,0,1,1.5-1.5m0-1a2.5,2.5,0,1,0,2.5,2.5,2.5,2.5,0,0,0-2.5-2.5Z" transform="translate(0 0)"/></g><g class="cls-3"><circle class="cls-4" cx="2681" cy="1840.33" r="2"/><path class="cls-4" d="M2681,1838.83a1.5,1.5,0,1,1-1.5,1.5,1.5,1.5,0,0,1,1.5-1.5m0-1a2.5,2.5,0,1,0,2.5,2.5,2.5,2.5,0,0,0-2.5-2.5Z" transform="translate(0 0)"/></g><g class="cls-3"><circle class="cls-4" cx="2681" cy="1168.33" r="2"/><path class="cls-4" d="M2681,1166.83a1.5,1.5,0,1,1-1.5,1.5,1.5,1.5,0,0,1,1.5-1.5m0-1a2.5,2.5,0,1,0,2.5,2.5,2.5,2.5,0,0,0-2.5-2.5Z" transform="translate(0 0)"/></g><g class="cls-3"><circle class="cls-4" cx="2873" cy="259" r="2"/><path class="cls-4" d="M2873,257.5a1.5,1.5,0,1,1-1.5,1.5,1.5,1.5,0,0,1,1.5-1.5m0-1a2.5,2.5,0,1,0,2.5,2.5,2.5,2.5,0,0,0-2.5-2.5Z" transform="translate(0 0)"/></g><g class="cls-3"><circle class="cls-4" cx="3033" cy="611" r="2"/><path class="cls-4" d="M3033,609.5a1.5,1.5,0,1,1-1.5,1.5,1.5,1.5,0,0,1,1.5-1.5m0-1a2.5,2.5,0,1,0,2.5,2.5,2.5,2.5,0,0,0-2.5-2.5Z" transform="translate(0 0)"/></g><g class="cls-3"><circle class="cls-4" cx="2809" cy="739" r="2"/><path class="cls-4" d="M2809,737.5a1.5,1.5,0,1,1-1.5,1.5,1.5,1.5,0,0,1,1.5-1.5m0-1a2.5,2.5,0,1,0,2.5,2.5,2.5,2.5,0,0,0-2.5-2.5Z" transform="translate(0 0)"/></g><g class="cls-3"><circle class="cls-4" cx="3801" cy="1027" r="2"/><path class="cls-4" d="M3801,1025.5a1.5,1.5,0,1,1-1.5,1.5,1.5,1.5,0,0,1,1.5-1.5m0-1a2.5,2.5,0,1,0,2.5,2.5,2.5,2.5,0,0,0-2.5-2.5Z" transform="translate(0 0)"/></g><g class="cls-3"><circle class="cls-4" cx="3852" cy="1347" r="2"/><path class="cls-4" d="M3852,1345.5a1.5,1.5,0,1,1-1.5,1.5,1.5,1.5,0,0,1,1.5-1.5m0-1a2.5,2.5,0,1,0,2.5,2.5,2.5,2.5,0,0,0-2.5-2.5Z" transform="translate(0 0)"/></g><g class="cls-3"><circle class="cls-4" cx="4089" cy="693.67" r="2"/><path class="cls-4" d="M4089,692.17a1.5,1.5,0,1,1-1.5,1.5,1.5,1.5,0,0,1,1.5-1.5m0-1a2.5,2.5,0,1,0,2.5,2.5,2.5,2.5,0,0,0-2.5-2.5Z" transform="translate(0 0)"/></g><g class="cls-3"><circle class="cls-4" cx="4089" cy="1045.67" r="2"/><path class="cls-4" d="M4089,1044.17a1.5,1.5,0,1,1-1.5,1.5,1.5,1.5,0,0,1,1.5-1.5m0-1a2.5,2.5,0,1,0,2.5,2.5,2.5,2.5,0,0,0-2.5-2.5Z" transform="translate(0 0)"/></g><g class="cls-3"><circle class="cls-4" cx="4089" cy="1973.67" r="2"/><path class="cls-4" d="M4089,1972.17a1.5,1.5,0,1,1-1.5,1.5,1.5,1.5,0,0,1,1.5-1.5m0-1a2.5,2.5,0,1,0,2.5,2.5,2.5,2.5,0,0,0-2.5-2.5Z" transform="translate(0 0)"/></g><g class="cls-3"><circle class="cls-4" cx="4569" cy="1032.33" r="2"/><path class="cls-4" d="M4569,1030.83a1.5,1.5,0,1,1-1.5,1.5,1.5,1.5,0,0,1,1.5-1.5m0-1a2.5,2.5,0,1,0,2.5,2.5,2.5,2.5,0,0,0-2.5-2.5Z" transform="translate(0 0)"/></g><g class="cls-3"><circle class="cls-4" cx="4569" cy="1160.33" r="2"/><path class="cls-4" d="M4569,1158.83a1.5,1.5,0,1,1-1.5,1.5,1.5,1.5,0,0,1,1.5-1.5m0-1a2.5,2.5,0,1,0,2.5,2.5,2.5,2.5,0,0,0-2.5-2.5Z" transform="translate(0 0)"/></g><g class="cls-3"><circle class="cls-4" cx="4569" cy="1704.33" r="2"/><path class="cls-4" d="M4569,1702.83a1.5,1.5,0,1,1-1.5,1.5,1.5,1.5,0,0,1,1.5-1.5m0-1a2.5,2.5,0,1,0,2.5,2.5,2.5,2.5,0,0,0-2.5-2.5Z" transform="translate(0 0)"/></g><g class="cls-3"><circle class="cls-4" cx="4697" cy="2312.33" r="2"/><path class="cls-4" d="M4697,2310.83a1.5,1.5,0,1,1-1.5,1.5,1.5,1.5,0,0,1,1.5-1.5m0-1a2.5,2.5,0,1,0,2.5,2.5,2.5,2.5,0,0,0-2.5-2.5Z" transform="translate(0 0)"/></g><g class="cls-3"><circle class="cls-4" cx="4825" cy="2856.33" r="2"/><path class="cls-4" d="M4825,2854.83a1.5,1.5,0,1,1-1.5,1.5,1.5,1.5,0,0,1,1.5-1.5m0-1a2.5,2.5,0,1,0,2.5,2.5,2.5,2.5,0,0,0-2.5-2.5Z" transform="translate(0 0)"/></g><g class="cls-3"><circle class="cls-4" cx="4409" cy="2760.33" r="2"/><path class="cls-4" d="M4409,2758.83a1.5,1.5,0,1,1-1.5,1.5,1.5,1.5,0,0,1,1.5-1.5m0-1a2.5,2.5,0,1,0,2.5,2.5,2.5,2.5,0,0,0-2.5-2.5Z" transform="translate(0 0)"/></g><g class="cls-3"><circle class="cls-4" cx="4505" cy="4149.67" r="2"/><path class="cls-4" d="M4505,4148.17a1.5,1.5,0,1,1-1.5,1.5,1.5,1.5,0,0,1,1.5-1.5m0-1a2.5,2.5,0,1,0,2.5,2.5,2.5,2.5,0,0,0-2.5-2.5Z" transform="translate(0 0)"/></g><g class="cls-3"><circle class="cls-4" cx="4536" cy="3413.67" r="2"/><path class="cls-4" d="M4536,3412.17a1.5,1.5,0,1,1-1.5,1.5,1.5,1.5,0,0,1,1.5-1.5m0-1a2.5,2.5,0,1,0,2.5,2.5,2.5,2.5,0,0,0-2.5-2.5Z" transform="translate(0 0)"/></g><g class="cls-3"><circle class="cls-4" cx="4633" cy="3509.67" r="2"/><path class="cls-4" d="M4633,3508.17a1.5,1.5,0,1,1-1.5,1.5,1.5,1.5,0,0,1,1.5-1.5m0-1a2.5,2.5,0,1,0,2.5,2.5,2.5,2.5,0,0,0-2.5-2.5Z" transform="translate(0 0)"/></g><g class="cls-3"><circle class="cls-4" cx="4889" cy="3957.67" r="2"/><path class="cls-4" d="M4889,3956.17a1.5,1.5,0,1,1-1.5,1.5,1.5,1.5,0,0,1,1.5-1.5m0-1a2.5,2.5,0,1,0,2.5,2.5,2.5,2.5,0,0,0-2.5-2.5Z" transform="translate(0 0)"/></g><g class="cls-3"><circle class="cls-4" cx="4921" cy="3285.67" r="2"/><path class="cls-4" d="M4921,3284.17a1.5,1.5,0,1,1-1.5,1.5,1.5,1.5,0,0,1,1.5-1.5m0-1a2.5,2.5,0,1,0,2.5,2.5,2.5,2.5,0,0,0-2.5-2.5Z" transform="translate(0 0)"/></g><g class="cls-3"><circle class="cls-4" cx="4153" cy="3061.67" r="2"/><path class="cls-4" d="M4153,3060.17a1.5,1.5,0,1,1-1.5,1.5,1.5,1.5,0,0,1,1.5-1.5m0-1a2.5,2.5,0,1,0,2.5,2.5,2.5,2.5,0,0,0-2.5-2.5Z" transform="translate(0 0)"/></g><g class="cls-3"><circle class="cls-4" cx="4153" cy="3797.67" r="2"/><path class="cls-4" d="M4153,3796.17a1.5,1.5,0,1,1-1.5,1.5,1.5,1.5,0,0,1,1.5-1.5m0-1a2.5,2.5,0,1,0,2.5,2.5,2.5,2.5,0,0,0-2.5-2.5Z" transform="translate(0 0)"/></g><g class="cls-3"><circle class="cls-4" cx="4153" cy="4341.67" r="2"/><path class="cls-4" d="M4153,4340.17a1.5,1.5,0,1,1-1.5,1.5,1.5,1.5,0,0,1,1.5-1.5m0-1a2.5,2.5,0,1,0,2.5,2.5,2.5,2.5,0,0,0-2.5-2.5Z" transform="translate(0 0)"/></g><g class="cls-3"><circle class="cls-4" cx="3545" cy="4309.67" r="2"/><path class="cls-4" d="M3545,4308.17a1.5,1.5,0,1,1-1.5,1.5,1.5,1.5,0,0,1,1.5-1.5m0-1a2.5,2.5,0,1,0,2.5,2.5,2.5,2.5,0,0,0-2.5-2.5Z" transform="translate(0 0)"/></g><g class="cls-3"><circle class="cls-4" cx="3033" cy="3240.33" r="2"/><path class="cls-4" d="M3033,3238.83a1.5,1.5,0,1,1-1.5,1.5,1.5,1.5,0,0,1,1.5-1.5m0-1a2.5,2.5,0,1,0,2.5,2.5,2.5,2.5,0,0,0-2.5-2.5Z" transform="translate(0 0)"/></g><g class="cls-3"><circle class="cls-4" cx="3033" cy="3816.33" r="2"/><path class="cls-4" d="M3033,3814.83a1.5,1.5,0,1,1-1.5,1.5,1.5,1.5,0,0,1,1.5-1.5m0-1a2.5,2.5,0,1,0,2.5,2.5,2.5,2.5,0,0,0-2.5-2.5Z" transform="translate(0 0)"/></g><g class="cls-3"><circle class="cls-4" cx="3033" cy="4520.33" r="2"/><path class="cls-4" d="M3033,4518.83a1.5,1.5,0,1,1-1.5,1.5,1.5,1.5,0,0,1,1.5-1.5m0-1a2.5,2.5,0,1,0,2.5,2.5,2.5,2.5,0,0,0-2.5-2.5Z" transform="translate(0 0)"/></g><g class="cls-3"><circle class="cls-4" cx="2457" cy="4648.33" r="2"/><path class="cls-4" d="M2457,4646.83a1.5,1.5,0,1,1-1.5,1.5,1.5,1.5,0,0,1,1.5-1.5m0-1a2.5,2.5,0,1,0,2.5,2.5,2.5,2.5,0,0,0-2.5-2.5Z" transform="translate(0 0)"/></g><g class="cls-3"><circle class="cls-4" cx="2457" cy="4104.33" r="2"/><path class="cls-4" d="M2457,4102.83a1.5,1.5,0,1,1-1.5,1.5,1.5,1.5,0,0,1,1.5-1.5m0-1a2.5,2.5,0,1,0,2.5,2.5,2.5,2.5,0,0,0-2.5-2.5Z" transform="translate(0 0)"/></g><g class="cls-3"><circle class="cls-4" cx="2105" cy="3848.33" r="2"/><path class="cls-4" d="M2105,3846.83a1.5,1.5,0,1,1-1.5,1.5,1.5,1.5,0,0,1,1.5-1.5m0-1a2.5,2.5,0,1,0,2.5,2.5,2.5,2.5,0,0,0-2.5-2.5Z" transform="translate(0 0)"/></g><g class="cls-3"><circle class="cls-4" cx="2233" cy="4296.33" r="2"/><path class="cls-4" d="M2233,4294.83a1.5,1.5,0,1,1-1.5,1.5,1.5,1.5,0,0,1,1.5-1.5m0-1a2.5,2.5,0,1,0,2.5,2.5,2.5,2.5,0,0,0-2.5-2.5Z" transform="translate(0 0)"/></g><g class="cls-3"><circle class="cls-4" cx="1465" cy="4456.33" r="2"/><path class="cls-4" d="M1465,4454.83a1.5,1.5,0,1,1-1.5,1.5,1.5,1.5,0,0,1,1.5-1.5m0-1a2.5,2.5,0,1,0,2.5,2.5,2.5,2.5,0,0,0-2.5-2.5Z" transform="translate(0 0)"/></g><g class="cls-3"><circle class="cls-4" cx="1817" cy="4712.33" r="2"/><path class="cls-4" d="M1817,4710.83a1.5,1.5,0,1,1-1.5,1.5,1.5,1.5,0,0,1,1.5-1.5m0-1a2.5,2.5,0,1,0,2.5,2.5,2.5,2.5,0,0,0-2.5-2.5Z" transform="translate(0 0)"/></g><g class="cls-3"><circle class="cls-4" cx="1849" cy="3880.33" r="2"/><path class="cls-4" d="M1849,3878.83a1.5,1.5,0,1,1-1.5,1.5,1.5,1.5,0,0,1,1.5-1.5m0-1a2.5,2.5,0,1,0,2.5,2.5,2.5,2.5,0,0,0-2.5-2.5Z" transform="translate(0 0)"/></g><g class="cls-3"><circle class="cls-4" cx="1369" cy="3624.33" r="2"/><path class="cls-4" d="M1369,3622.83a1.5,1.5,0,1,1-1.5,1.5,1.5,1.5,0,0,1,1.5-1.5m0-1a2.5,2.5,0,1,0,2.5,2.5,2.5,2.5,0,0,0-2.5-2.5Z" transform="translate(0 0)"/></g><g class="cls-3"><circle class="cls-4" cx="1403" cy="3976.33" r="2"/><path class="cls-4" d="M1403,3974.83a1.5,1.5,0,1,1-1.5,1.5,1.5,1.5,0,0,1,1.5-1.5m0-1a2.5,2.5,0,1,0,2.5,2.5,2.5,2.5,0,0,0-2.5-2.5Z" transform="translate(0 0)"/></g><g class="cls-3"><circle class="cls-4" cx="1273" cy="4264.33" r="2"/><path class="cls-4" d="M1273,4262.83a1.5,1.5,0,1,1-1.5,1.5,1.5,1.5,0,0,1,1.5-1.5m0-1a2.5,2.5,0,1,0,2.5,2.5,2.5,2.5,0,0,0-2.5-2.5Z" transform="translate(0 0)"/></g><g class="cls-3"><circle class="cls-4" cx="1177" cy="3144.33" r="2"/><path class="cls-4" d="M1177,3142.83a1.5,1.5,0,1,1-1.5,1.5,1.5,1.5,0,0,1,1.5-1.5m0-1a2.5,2.5,0,1,0,2.5,2.5,2.5,2.5,0,0,0-2.5-2.5Z" transform="translate(0 0)"/></g><g class="cls-3"><circle class="cls-4" cx="1305" cy="2856.33" r="2"/><path class="cls-4" d="M1305,2854.83a1.5,1.5,0,1,1-1.5,1.5,1.5,1.5,0,0,1,1.5-1.5m0-1a2.5,2.5,0,1,0,2.5,2.5,2.5,2.5,0,0,0-2.5-2.5Z" transform="translate(0 0)"/></g><g class="cls-3"><circle class="cls-4" cx="1353" cy="2248.33" r="2"/><path class="cls-4" d="M1353,2246.83a1.5,1.5,0,1,1-1.5,1.5,1.5,1.5,0,0,1,1.5-1.5m0-1a2.5,2.5,0,1,0,2.5,2.5,2.5,2.5,0,0,0-2.5-2.5Z" transform="translate(0 0)"/></g><g class="cls-3"><circle class="cls-4" cx="1254" cy="1640.33" r="2"/><path class="cls-4" d="M1254,1638.83a1.5,1.5,0,1,1-1.5,1.5,1.5,1.5,0,0,1,1.5-1.5m0-1a2.5,2.5,0,1,0,2.5,2.5,2.5,2.5,0,0,0-2.5-2.5Z" transform="translate(0 0)"/></g><g class="cls-3"><circle class="cls-4" cx="1593" cy="1640.33" r="2"/><path class="cls-4" d="M1593,1638.83a1.5,1.5,0,1,1-1.5,1.5,1.5,1.5,0,0,1,1.5-1.5m0-1a2.5,2.5,0,1,0,2.5,2.5,2.5,2.5,0,0,0-2.5-2.5Z" transform="translate(0 0)"/></g><g class="cls-3"><circle class="cls-4" cx="1625" cy="1416.33" r="2"/><path class="cls-4" d="M1625,1414.83a1.5,1.5,0,1,1-1.5,1.5,1.5,1.5,0,0,1,1.5-1.5m0-1a2.5,2.5,0,1,0,2.5,2.5,2.5,2.5,0,0,0-2.5-2.5Z" transform="translate(0 0)"/></g><g class="cls-3"><circle class="cls-4" cx="1945" cy="1832.33" r="2"/><path class="cls-4" d="M1945,1830.83a1.5,1.5,0,1,1-1.5,1.5,1.5,1.5,0,0,1,1.5-1.5m0-1a2.5,2.5,0,1,0,2.5,2.5,2.5,2.5,0,0,0-2.5-2.5Z" transform="translate(0 0)"/></g><g class="cls-3"><circle class="cls-4" cx="2073" cy="1416.33" r="2"/><path class="cls-4" d="M2073,1414.83a1.5,1.5,0,1,1-1.5,1.5,1.5,1.5,0,0,1,1.5-1.5m0-1a2.5,2.5,0,1,0,2.5,2.5,2.5,2.5,0,0,0-2.5-2.5Z" transform="translate(0 0)"/></g><g class="cls-3"><circle class="cls-4" cx="2233" cy="936.33" r="2"/><path class="cls-4" d="M2233,934.83a1.5,1.5,0,1,1-1.5,1.5,1.5,1.5,0,0,1,1.5-1.5m0-1a2.5,2.5,0,1,0,2.5,2.5,2.5,2.5,0,0,0-2.5-2.5Z" transform="translate(0 0)"/></g><g class="cls-3"><circle class="cls-4" cx="1433" cy="968.33" r="2"/><path class="cls-4" d="M1433,966.83a1.5,1.5,0,1,1-1.5,1.5,1.5,1.5,0,0,1,1.5-1.5m0-1a2.5,2.5,0,1,0,2.5,2.5,2.5,2.5,0,0,0-2.5-2.5Z" transform="translate(0 0)"/></g><g class="cls-3"><circle class="cls-4" cx="953" cy="712.33" r="2"/><path class="cls-4" d="M953,710.83a1.5,1.5,0,1,1-1.5,1.5,1.5,1.5,0,0,1,1.5-1.5m0-1a2.5,2.5,0,1,0,2.5,2.5,2.5,2.5,0,0,0-2.5-2.5Z" transform="translate(0 0)"/></g><g class="cls-3"><circle class="cls-4" cx="1209" cy="1256.33" r="2"/><path class="cls-4" d="M1209,1254.83a1.5,1.5,0,1,1-1.5,1.5,1.5,1.5,0,0,1,1.5-1.5m0-1a2.5,2.5,0,1,0,2.5,2.5,2.5,2.5,0,0,0-2.5-2.5Z" transform="translate(0 0)"/></g><g class="cls-3"><circle class="cls-4" cx="793" cy="1448.33" r="2"/><path class="cls-4" d="M793,1446.83a1.5,1.5,0,1,1-1.5,1.5,1.5,1.5,0,0,1,1.5-1.5m0-1a2.5,2.5,0,1,0,2.5,2.5,2.5,2.5,0,0,0-2.5-2.5Z" transform="translate(0 0)"/></g><g class="cls-3"><circle class="cls-4" cx="793" cy="1960.33" r="2"/><path class="cls-4" d="M793,1958.83a1.5,1.5,0,1,1-1.5,1.5,1.5,1.5,0,0,1,1.5-1.5m0-1a2.5,2.5,0,1,0,2.5,2.5,2.5,2.5,0,0,0-2.5-2.5Z" transform="translate(0 0)"/></g><g class="cls-3"><circle class="cls-4" cx="377" cy="2248.33" r="2"/><path class="cls-4" d="M377,2246.83a1.5,1.5,0,1,1-1.5,1.5,1.5,1.5,0,0,1,1.5-1.5m0-1a2.5,2.5,0,1,0,2.5,2.5,2.5,2.5,0,0,0-2.5-2.5Z" transform="translate(0 0)"/></g><g class="cls-3"><circle class="cls-4" cx="633" cy="2792.33" r="2"/><path class="cls-4" d="M633,2790.83a1.5,1.5,0,1,1-1.5,1.5,1.5,1.5,0,0,1,1.5-1.5m0-1a2.5,2.5,0,1,0,2.5,2.5,2.5,2.5,0,0,0-2.5-2.5Z" transform="translate(0 0)"/></g><g class="cls-3"><circle class="cls-4" cx="921" cy="2600.33" r="2"/><path class="cls-4" d="M921,2598.83a1.5,1.5,0,1,1-1.5,1.5,1.5,1.5,0,0,1,1.5-1.5m0-1a2.5,2.5,0,1,0,2.5,2.5,2.5,2.5,0,0,0-2.5-2.5Z" transform="translate(0 0)"/></g><g class="cls-3"><circle class="cls-4" cx="921" cy="3624.33" r="2"/><path class="cls-4" d="M921,3622.83a1.5,1.5,0,1,1-1.5,1.5,1.5,1.5,0,0,1,1.5-1.5m0-1a2.5,2.5,0,1,0,2.5,2.5,2.5,2.5,0,0,0-2.5-2.5Z" transform="translate(0 0)"/></g><g class="cls-3"><circle class="cls-4" cx="825" cy="4040.33" r="2"/><path class="cls-4" d="M825,4038.83a1.5,1.5,0,1,1-1.5,1.5,1.5,1.5,0,0,1,1.5-1.5m0-1a2.5,2.5,0,1,0,2.5,2.5,2.5,2.5,0,0,0-2.5-2.5Z" transform="translate(0 0)"/></g><g class="cls-3"><circle class="cls-4" cx="1081" cy="3912.33" r="2"/><path class="cls-4" d="M1081,3910.83a1.5,1.5,0,1,1-1.5,1.5,1.5,1.5,0,0,1,1.5-1.5m0-1a2.5,2.5,0,1,0,2.5,2.5,2.5,2.5,0,0,0-2.5-2.5Z" transform="translate(0 0)"/></g><g class="cls-3"><circle class="cls-4" cx="665" cy="4456.33" r="2"/><path class="cls-4" d="M665,4454.83a1.5,1.5,0,1,1-1.5,1.5,1.5,1.5,0,0,1,1.5-1.5m0-1a2.5,2.5,0,1,0,2.5,2.5,2.5,2.5,0,0,0-2.5-2.5Z" transform="translate(0 0)"/></g><g class="cls-3"><circle class="cls-4" cx="921" cy="4520.33" r="2"/><path class="cls-4" d="M921,4518.83a1.5,1.5,0,1,1-1.5,1.5,1.5,1.5,0,0,1,1.5-1.5m0-1a2.5,2.5,0,1,0,2.5,2.5,2.5,2.5,0,0,0-2.5-2.5Z" transform="translate(0 0)"/></g><g class="cls-3"><circle class="cls-4" cx="537" cy="3432.33" r="2"/><path class="cls-4" d="M537,3430.83a1.5,1.5,0,1,1-1.5,1.5,1.5,1.5,0,0,1,1.5-1.5m0-1a2.5,2.5,0,1,0,2.5,2.5,2.5,2.5,0,0,0-2.5-2.5Z" transform="translate(0 0)"/></g><g class="cls-3"><circle class="cls-4" cx="441" cy="776.33" r="2"/><path class="cls-4" d="M441,774.83a1.5,1.5,0,1,1-1.5,1.5,1.5,1.5,0,0,1,1.5-1.5m0-1a2.5,2.5,0,1,0,2.5,2.5,2.5,2.5,0,0,0-2.5-2.5Z" transform="translate(0 0)"/></g><g class="cls-3"><circle class="cls-4" cx="1497" cy="360.33" r="2"/><path class="cls-4" d="M1497,358.83a1.5,1.5,0,1,1-1.5,1.5,1.5,1.5,0,0,1,1.5-1.5m0-1a2.5,2.5,0,1,0,2.5,2.5,2.5,2.5,0,0,0-2.5-2.5Z" transform="translate(0 0)"/></g><g class="cls-3"><circle class="cls-4" cx="1785" cy="680.33" r="2"/><path class="cls-4" d="M1785,678.83a1.5,1.5,0,1,1-1.5,1.5,1.5,1.5,0,0,1,1.5-1.5m0-1a2.5,2.5,0,1,0,2.5,2.5,2.5,2.5,0,0,0-2.5-2.5Z" transform="translate(0 0)"/></g><g class="cls-3"><circle class="cls-4" cx="3353" cy="1128.33" r="2"/><path class="cls-4" d="M3353,1126.83a1.5,1.5,0,1,1-1.5,1.5,1.5,1.5,0,0,1,1.5-1.5m0-1a2.5,2.5,0,1,0,2.5,2.5,2.5,2.5,0,0,0-2.5-2.5Z" transform="translate(0 0)"/></g><g class="cls-3"><circle class="cls-4" cx="3577" cy="456.33" r="2"/><path class="cls-4" d="M3577,454.83a1.5,1.5,0,1,1-1.5,1.5,1.5,1.5,0,0,1,1.5-1.5m0-1a2.5,2.5,0,1,0,2.5,2.5,2.5,2.5,0,0,0-2.5-2.5Z" transform="translate(0 0)"/></g><g class="cls-3"><circle class="cls-4" cx="4921" cy="552.33" r="2"/><path class="cls-4" d="M4921,550.83a1.5,1.5,0,1,1-1.5,1.5,1.5,1.5,0,0,1,1.5-1.5m0-1a2.5,2.5,0,1,0,2.5,2.5,2.5,2.5,0,0,0-2.5-2.5Z" transform="translate(0 0)"/></g><g class="cls-3"><circle class="cls-4" cx="4825" cy="1768.33" r="2"/><path class="cls-4" d="M4825,1766.83a1.5,1.5,0,1,1-1.5,1.5,1.5,1.5,0,0,1,1.5-1.5m0-1a2.5,2.5,0,1,0,2.5,2.5,2.5,2.5,0,0,0-2.5-2.5Z" transform="translate(0 0)"/></g><g class="cls-3"><circle class="cls-4" cx="4889" cy="2376.33" r="2"/><path class="cls-4" d="M4889,2374.83a1.5,1.5,0,1,1-1.5,1.5,1.5,1.5,0,0,1,1.5-1.5m0-1a2.5,2.5,0,1,0,2.5,2.5,2.5,2.5,0,0,0-2.5-2.5Z" transform="translate(0 0)"/></g><g class="cls-3"><circle class="cls-4" cx="3290.33" cy="2377" r="2"/><path class="cls-4" d="M3290.33,2375.5a1.5,1.5,0,1,1-1.5,1.5,1.5,1.5,0,0,1,1.5-1.5m0-1a2.5,2.5,0,1,0,2.5,2.5,2.5,2.5,0,0,0-2.5-2.5Z" transform="translate(0 0)"/></g><g class="cls-3"><circle class="cls-4" cx="3185.33" cy="2185" r="2"/><path class="cls-4" d="M3185.33,2183.5a1.5,1.5,0,1,1-1.5,1.5,1.5,1.5,0,0,1,1.5-1.5m0-1a2.5,2.5,0,1,0,2.5,2.5,2.5,2.5,0,0,0-2.5-2.5Z" transform="translate(0 0)"/></g><g class="cls-3"><circle class="cls-4" cx="3674.33" cy="2313" r="2"/><path class="cls-4" d="M3674.33,2311.5a1.5,1.5,0,1,1-1.5,1.5,1.5,1.5,0,0,1,1.5-1.5m0-1a2.5,2.5,0,1,0,2.5,2.5,2.5,2.5,0,0,0-2.5-2.5Z" transform="translate(0 0)"/></g><g class="cls-3"><circle class="cls-4" cx="3802.33" cy="2121" r="2"/><path class="cls-4" d="M3802.33,2119.5a1.5,1.5,0,1,1-1.5,1.5,1.5,1.5,0,0,1,1.5-1.5m0-1a2.5,2.5,0,1,0,2.5,2.5,2.5,2.5,0,0,0-2.5-2.5Z" transform="translate(0 0)"/></g><g class="cls-3"><circle class="cls-4" cx="3162.33" cy="1993" r="2"/><path class="cls-4" d="M3162.33,1991.5a1.5,1.5,0,1,1-1.5,1.5,1.5,1.5,0,0,1,1.5-1.5m0-1a2.5,2.5,0,1,0,2.5,2.5,2.5,2.5,0,0,0-2.5-2.5Z" transform="translate(0 0)"/></g><g class="cls-3"><circle class="cls-4" cx="2906.33" cy="2313" r="2"/><path class="cls-4" d="M2906.33,2311.5a1.5,1.5,0,1,1-1.5,1.5,1.5,1.5,0,0,1,1.5-1.5m0-1a2.5,2.5,0,1,0,2.5,2.5,2.5,2.5,0,0,0-2.5-2.5Z" transform="translate(0 0)"/></g><g class="cls-3"><circle class="cls-4" cx="2937" cy="2783.89" r="2"/><path class="cls-4" d="M2937,2782.39a1.5,1.5,0,1,1-1.5,1.5,1.5,1.5,0,0,1,1.5-1.5m0-1a2.5,2.5,0,1,0,2.5,2.5,2.5,2.5,0,0,0-2.5-2.5Z" transform="translate(0 0)"/></g><g class="cls-3"><circle class="cls-4" cx="2842.33" cy="3593" r="2"/><path class="cls-4" d="M2842.33,3591.5a1.5,1.5,0,1,1-1.5,1.5,1.5,1.5,0,0,1,1.5-1.5m0-1a2.5,2.5,0,1,0,2.5,2.5,2.5,2.5,0,0,0-2.5-2.5Z" transform="translate(0 0)"/></g><g class="cls-3"><circle class="cls-4" cx="3226.33" cy="2505" r="2"/><path class="cls-4" d="M3226.33,2503.5a1.5,1.5,0,1,1-1.5,1.5,1.5,1.5,0,0,1,1.5-1.5m0-1a2.5,2.5,0,1,0,2.5,2.5,2.5,2.5,0,0,0-2.5-2.5Z" transform="translate(0 0)"/></g><g class="cls-8"><circle class="cls-4" cx="2534" cy="2169" r="3"/><path class="cls-4" d="M2534,2166.5a2.5,2.5,0,1,1-2.5,2.5,2.5,2.5,0,0,1,2.5-2.5m0-1a3.5,3.5,0,1,0,3.5,3.5,3.5,3.5,0,0,0-3.5-3.5Z" transform="translate(0 0)"/></g><g class="cls-8"><circle class="cls-4" cx="3218.33" cy="4951.33" r="3"/><path class="cls-4" d="M3218.33,4948.83a2.5,2.5,0,1,1-2.5,2.5,2.51,2.51,0,0,1,2.5-2.5m0-1a3.5,3.5,0,1,0,3.5,3.5,3.5,3.5,0,0,0-3.5-3.5Z" transform="translate(0 0)"/></g><g class="cls-8"><circle class="cls-4" cx="2194.33" cy="4334.33" r="3"/><path class="cls-4" d="M2194.33,4331.83a2.5,2.5,0,1,1-2.5,2.5,2.51,2.51,0,0,1,2.5-2.5m0-1a3.5,3.5,0,1,0,3.5,3.5,3.5,3.5,0,0,0-3.5-3.5Z" transform="translate(0 0)"/></g><g class="cls-8"><circle class="cls-4" cx="2834.33" cy="3246.33" r="3"/><path class="cls-4" d="M2834.33,3243.83a2.5,2.5,0,1,1-2.5,2.5,2.5,2.5,0,0,1,2.5-2.5m0-1a3.5,3.5,0,1,0,3.5,3.5,3.5,3.5,0,0,0-3.5-3.5Z" transform="translate(0 0)"/></g><g class="cls-8"><circle class="cls-4" cx="3081" cy="867" r="3"/><path class="cls-4" d="M3081,864.5a2.5,2.5,0,1,1-2.5,2.5,2.5,2.5,0,0,1,2.5-2.5m0-1a3.5,3.5,0,1,0,3.5,3.5,3.5,3.5,0,0,0-3.5-3.5Z" transform="translate(0 0)"/></g><g class="cls-8"><circle class="cls-4" cx="2990" cy="1443" r="3"/><path class="cls-4" d="M2990,1440.5a2.5,2.5,0,1,1-2.5,2.5,2.5,2.5,0,0,1,2.5-2.5m0-1a3.5,3.5,0,1,0,3.5,3.5,3.5,3.5,0,0,0-3.5-3.5Z" transform="translate(0 0)"/></g><g class="cls-8"><circle class="cls-4" cx="4041" cy="3075" r="3"/><path class="cls-4" d="M4041,3072.5a2.5,2.5,0,1,1-2.5,2.5,2.5,2.5,0,0,1,2.5-2.5m0-1a3.5,3.5,0,1,0,3.5,3.5,3.5,3.5,0,0,0-3.5-3.5Z" transform="translate(0 0)"/></g><g class="cls-8"><circle class="cls-4" cx="1449" cy="1635" r="3"/><path class="cls-4" d="M1449,1632.5a2.5,2.5,0,1,1-2.5,2.5,2.5,2.5,0,0,1,2.5-2.5m0-1a3.5,3.5,0,1,0,3.5,3.5,3.5,3.5,0,0,0-3.5-3.5Z" transform="translate(0 0)"/></g><g class="cls-8"><circle class="cls-4" cx="1065" cy="3075" r="3"/><path class="cls-4" d="M1065,3072.5a2.5,2.5,0,1,1-2.5,2.5,2.5,2.5,0,0,1,2.5-2.5m0-1a3.5,3.5,0,1,0,3.5,3.5,3.5,3.5,0,0,0-3.5-3.5Z" transform="translate(0 0)"/></g><g class="cls-8"><circle class="cls-4" cx="105" cy="4035" r="3"/><path class="cls-4" d="M105,4032.5a2.5,2.5,0,1,1-2.5,2.5,2.5,2.5,0,0,1,2.5-2.5m0-1a3.5,3.5,0,1,0,3.5,3.5,3.5,3.5,0,0,0-3.5-3.5Z" transform="translate(0 0)"/></g><g class="cls-8"><circle class="cls-4" cx="489" cy="3171" r="3"/><path class="cls-4" d="M489,3168.5a2.5,2.5,0,1,1-2.5,2.5,2.5,2.5,0,0,1,2.5-2.5m0-1a3.5,3.5,0,1,0,3.5,3.5,3.5,3.5,0,0,0-3.5-3.5Z" transform="translate(0 0)"/></g><g class="cls-8"><circle class="cls-4" cx="489" cy="1827" r="3"/><path class="cls-4" d="M489,1824.5a2.5,2.5,0,1,1-2.5,2.5,2.5,2.5,0,0,1,2.5-2.5m0-1a3.5,3.5,0,1,0,3.5,3.5,3.5,3.5,0,0,0-3.5-3.5Z" transform="translate(0 0)"/></g><g class="cls-8"><circle class="cls-4" cx="3585" cy="4021" r="3"/><path class="cls-4" d="M3585,4018.5a2.5,2.5,0,1,1-2.5,2.5,2.5,2.5,0,0,1,2.5-2.5m0-1a3.5,3.5,0,1,0,3.5,3.5,3.5,3.5,0,0,0-3.5-3.5Z" transform="translate(0 0)"/></g><g class="cls-9"><circle class="cls-4" cx="3988" cy="3554" r="4"/><path class="cls-4" d="M3988,3550.5a3.5,3.5,0,1,1-3.5,3.5,3.5,3.5,0,0,1,3.5-3.5m0-1a4.5,4.5,0,1,0,4.5,4.5,4.49,4.49,0,0,0-4.5-4.5Z" transform="translate(0 0)"/></g><g class="cls-9"><circle class="cls-4" cx="4136" cy="2046" r="4"/><path class="cls-4" d="M4136,2042.5a3.5,3.5,0,1,1-3.5,3.5,3.5,3.5,0,0,1,3.5-3.5m0-1a4.5,4.5,0,1,0,4.5,4.5,4.49,4.49,0,0,0-4.5-4.5Z" transform="translate(0 0)"/></g><g class="cls-9"><circle class="cls-4" cx="3265" cy="3268" r="4"/><path class="cls-4" d="M3265,3264.5a3.5,3.5,0,1,1-3.5,3.5,3.5,3.5,0,0,1,3.5-3.5m0-1a4.5,4.5,0,1,0,4.5,4.5,4.49,4.49,0,0,0-4.5-4.5Z" transform="translate(0 0)"/></g><g class="cls-9"><circle class="cls-4" cx="3086" cy="2307" r="4"/><path class="cls-4" d="M3086,2303.5a3.5,3.5,0,1,1-3.5,3.5,3.5,3.5,0,0,1,3.5-3.5m0-1a4.5,4.5,0,1,0,4.5,4.5,4.49,4.49,0,0,0-4.5-4.5Z" transform="translate(0 0)"/></g><g class="cls-9"><circle class="cls-4" cx="2221" cy="1635" r="4"/><path class="cls-4" d="M2221,1631.5a3.5,3.5,0,1,1-3.5,3.5,3.5,3.5,0,0,1,3.5-3.5m0-1a4.5,4.5,0,1,0,4.5,4.5,4.49,4.49,0,0,0-4.5-4.5Z" transform="translate(0 0)"/></g><g class="cls-9"><circle class="cls-4" cx="2797" cy="4227" r="4"/><path class="cls-4" d="M2797,4223.5a3.5,3.5,0,1,1-3.5,3.5,3.5,3.5,0,0,1,3.5-3.5m0-1a4.5,4.5,0,1,0,4.5,4.5,4.49,4.49,0,0,0-4.5-4.5Z" transform="translate(0 0)"/></g><g class="cls-9"><circle class="cls-4" cx="1357" cy="3459" r="4"/><path class="cls-4" d="M1357,3455.5a3.5,3.5,0,1,1-3.5,3.5,3.5,3.5,0,0,1,3.5-3.5m0-1a4.5,4.5,0,1,0,4.5,4.5,4.49,4.49,0,0,0-4.5-4.5Z" transform="translate(0 0)"/></g><g class="cls-9"><circle class="cls-4" cx="973" cy="1923" r="4"/><path class="cls-4" d="M973,1919.5a3.5,3.5,0,1,1-3.5,3.5,3.5,3.5,0,0,1,3.5-3.5m0-1a4.5,4.5,0,1,0,4.5,4.5,4.49,4.49,0,0,0-4.5-4.5Z" transform="translate(0 0)"/></g><g class="cls-9"><circle class="cls-4" cx="973" cy="53" r="4"/><path class="cls-4" d="M973,49.5a3.5,3.5,0,1,1-3.5,3.5,3.5,3.5,0,0,1,3.5-3.5m0-1a4.5,4.5,0,1,0,4.5,4.5,4.49,4.49,0,0,0-4.5-4.5Z" transform="translate(0 0)"/></g><g class="cls-9"><circle class="cls-4" cx="729" cy="1155" r="4"/><path class="cls-4" d="M729,1151.5a3.5,3.5,0,1,1-3.5,3.5,3.5,3.5,0,0,1,3.5-3.5m0-1a4.5,4.5,0,1,0,4.5,4.5,4.49,4.49,0,0,0-4.5-4.5Z" transform="translate(0 0)"/></g><g class="cls-9"><circle class="cls-4" cx="1453" cy="1347" r="4"/><path class="cls-4" d="M1453,1343.5a3.5,3.5,0,1,1-3.5,3.5,3.5,3.5,0,0,1,3.5-3.5m0-1a4.5,4.5,0,1,0,4.5,4.5,4.49,4.49,0,0,0-4.5-4.5Z" transform="translate(0 0)"/></g><g class="cls-9"><circle class="cls-4" cx="2029" cy="1347" r="4"/><path class="cls-4" d="M2029,1343.5a3.5,3.5,0,1,1-3.5,3.5,3.5,3.5,0,0,1,3.5-3.5m0-1a4.5,4.5,0,1,0,4.5,4.5,4.49,4.49,0,0,0-4.5-4.5Z" transform="translate(0 0)"/></g><g class="cls-9"><circle class="cls-4" cx="2029" cy="3804" r="4"/><path class="cls-4" d="M2029,3800.5a3.5,3.5,0,1,1-3.5,3.5,3.5,3.5,0,0,1,3.5-3.5m0-1a4.5,4.5,0,1,0,4.5,4.5,4.49,4.49,0,0,0-4.5-4.5Z" transform="translate(0 0)"/></g><g class="cls-9"><circle class="cls-4" cx="3757" cy="2979" r="4"/><path class="cls-4" d="M3757,2975.5a3.5,3.5,0,1,1-3.5,3.5,3.5,3.5,0,0,1,3.5-3.5m0-1a4.5,4.5,0,1,0,4.5,4.5,4.49,4.49,0,0,0-4.5-4.5Z" transform="translate(0 0)"/></g><g class="cls-9"><circle class="cls-4" cx="1837" cy="2403" r="4"/><path class="cls-4" d="M1837,2399.5a3.5,3.5,0,1,1-3.5,3.5,3.5,3.5,0,0,1,3.5-3.5m0-1a4.5,4.5,0,1,0,4.5,4.5,4.49,4.49,0,0,0-4.5-4.5Z" transform="translate(0 0)"/></g><g class="cls-5"><circle class="cls-4" cx="3007" cy="2707.33" r="1"/><path class="cls-4" d="M3007,2706.83a.5.5,0,0,1,.5.5.5.5,0,0,1-1,0,.5.5,0,0,1,.5-.5m0-1a1.5,1.5,0,1,0,1.5,1.5,1.5,1.5,0,0,0-1.5-1.5Z" transform="translate(0 0)"/></g><g class="cls-5"><circle class="cls-4" cx="2895" cy="2563.33" r="1"/><path class="cls-4" d="M2895,2562.83a.5.5,0,0,1,.5.5.5.5,0,0,1-1,0,.5.5,0,0,1,.5-.5m0-1a1.5,1.5,0,1,0,1.5,1.5,1.5,1.5,0,0,0-1.5-1.5Z" transform="translate(0 0)"/></g><g class="cls-5"><circle class="cls-4" cx="2828.11" cy="2715.44" r="1"/><path class="cls-4" d="M2828.11,2714.94a.5.5,0,0,1,.5.5.5.5,0,0,1-.5.5.5.5,0,0,1-.5-.5.51.51,0,0,1,.5-.5m0-1a1.5,1.5,0,1,0,1.5,1.5,1.5,1.5,0,0,0-1.5-1.5Z" transform="translate(0 0)"/></g><g class="cls-5"><circle class="cls-4" cx="2703" cy="2163.33" r="1"/><path class="cls-4" d="M2703,2162.83a.5.5,0,0,1,.5.5.5.5,0,0,1-1,0,.5.5,0,0,1,.5-.5m0-1a1.5,1.5,0,1,0,1.5,1.5,1.5,1.5,0,0,0-1.5-1.5Z" transform="translate(0 0)"/></g><g class="cls-5"><circle class="cls-4" cx="2683" cy="2291.33" r="1"/><path class="cls-4" d="M2683,2290.83a.5.5,0,0,1,.5.5.5.5,0,0,1-1,0,.5.5,0,0,1,.5-.5m0-1a1.5,1.5,0,1,0,1.5,1.5,1.5,1.5,0,0,0-1.5-1.5Z" transform="translate(0 0)"/></g><g class="cls-5"><circle class="cls-4" cx="2431" cy="2131.33" r="1"/><path class="cls-4" d="M2431,2130.83a.5.5,0,0,1,.5.5.5.5,0,0,1-1,0,.5.5,0,0,1,.5-.5m0-1a1.5,1.5,0,1,0,1.5,1.5,1.5,1.5,0,0,0-1.5-1.5Z" transform="translate(0 0)"/></g><g class="cls-5"><circle class="cls-4" cx="2047" cy="2131.33" r="1"/><path class="cls-4" d="M2047,2130.83a.5.5,0,0,1,.5.5.5.5,0,0,1-1,0,.5.5,0,0,1,.5-.5m0-1a1.5,1.5,0,1,0,1.5,1.5,1.5,1.5,0,0,0-1.5-1.5Z" transform="translate(0 0)"/></g><g class="cls-6"><circle class="cls-4" cx="2047" cy="2323.33" r="1"/><path class="cls-4" d="M2047,2322.83a.5.5,0,0,1,.5.5.5.5,0,0,1-1,0,.5.5,0,0,1,.5-.5m0-1a1.5,1.5,0,1,0,1.5,1.5,1.5,1.5,0,0,0-1.5-1.5Z" transform="translate(0 0)"/></g><g class="cls-5"><circle class="cls-4" cx="2255" cy="1891.33" r="1"/><path class="cls-4" d="M2255,1890.83a.5.5,0,0,1,.5.5.5.5,0,0,1-1,0,.5.5,0,0,1,.5-.5m0-1a1.5,1.5,0,1,0,1.5,1.5,1.5,1.5,0,0,0-1.5-1.5Z" transform="translate(0 0)"/></g><g class="cls-5"><circle class="cls-4" cx="2255" cy="2083.33" r="1"/><path class="cls-4" d="M2255,2082.83a.5.5,0,0,1,.5.5.5.5,0,0,1-1,0,.5.5,0,0,1,.5-.5m0-1a1.5,1.5,0,1,0,1.5,1.5,1.5,1.5,0,0,0-1.5-1.5Z" transform="translate(0 0)"/></g><g class="cls-5"><circle class="cls-4" cx="1661.38" cy="1854.71" r="1"/><path class="cls-4" d="M1661.38,1854.21a.5.5,0,0,1,.5.5.5.5,0,0,1-.5.5.5.5,0,0,1-.5-.5.51.51,0,0,1,.5-.5m0-1a1.5,1.5,0,1,0,1.5,1.5,1.5,1.5,0,0,0-1.5-1.5Z" transform="translate(0 0)"/></g><g class="cls-5"><circle class="cls-4" cx="1661.38" cy="3866.14" r="1"/><path class="cls-4" d="M1661.38,3865.64a.5.5,0,0,1,.5.5.5.5,0,0,1-.5.5.5.5,0,0,1-.5-.5.51.51,0,0,1,.5-.5m0-1a1.5,1.5,0,1,0,1.5,1.5,1.5,1.5,0,0,0-1.5-1.5Z" transform="translate(0 0)"/></g><g class="cls-5"><circle class="cls-4" cx="838.52" cy="3866.14" r="1"/><path class="cls-4" d="M838.52,3865.64a.5.5,0,0,1,.5.5.5.5,0,0,1-.5.5.5.5,0,0,1-.5-.5.51.51,0,0,1,.5-.5m0-1a1.5,1.5,0,1,0,1.5,1.5,1.5,1.5,0,0,0-1.5-1.5Z" transform="translate(0 0)"/></g><g class="cls-5"><circle class="cls-4" cx="518.52" cy="3866.14" r="1"/><path class="cls-4" d="M518.52,3865.64a.5.5,0,0,1,.5.5.5.5,0,0,1-.5.5.5.5,0,0,1-.5-.5.51.51,0,0,1,.5-.5m0-1a1.5,1.5,0,1,0,1.5,1.5,1.5,1.5,0,0,0-1.5-1.5Z" transform="translate(0 0)"/></g><g class="cls-5"><circle class="cls-4" cx="335.67" cy="2540.43" r="1"/><path class="cls-4" d="M335.67,2539.93a.5.5,0,0,1,.5.5.51.51,0,0,1-.5.5.5.5,0,0,1-.5-.5.5.5,0,0,1,.5-.5m0-1a1.5,1.5,0,1,0,1.5,1.5,1.5,1.5,0,0,0-1.5-1.5Z" transform="translate(0 0)"/></g><g class="cls-5"><circle class="cls-4" cx="1112.81" cy="2677.57" r="1"/><path class="cls-4" d="M1112.81,2677.07a.5.5,0,0,1,.5.5.5.5,0,0,1-1,0,.5.5,0,0,1,.5-.5m0-1a1.5,1.5,0,1,0,1.5,1.5,1.5,1.5,0,0,0-1.5-1.5Z" transform="translate(0 0)"/></g><g class="cls-5"><circle class="cls-4" cx="1112.81" cy="1854.71" r="1"/><path class="cls-4" d="M1112.81,1854.21a.5.5,0,0,1,.5.5.5.5,0,0,1-1,0,.5.5,0,0,1,.5-.5m0-1a1.5,1.5,0,1,0,1.5,1.5,1.5,1.5,0,0,0-1.5-1.5Z" transform="translate(0 0)"/></g><g class="cls-5"><circle class="cls-4" cx="4038.52" cy="1763.29" r="1"/><path class="cls-4" d="M4038.52,1762.79a.5.5,0,0,1,.5.5.5.5,0,0,1-.5.5.51.51,0,0,1-.5-.5.5.5,0,0,1,.5-.5m0-1a1.5,1.5,0,1,0,1.5,1.5,1.5,1.5,0,0,0-1.5-1.5Z" transform="translate(0 0)"/></g><g class="cls-5"><circle class="cls-4" cx="4312.81" cy="1306.14" r="1"/><path class="cls-4" d="M4312.81,1305.64a.5.5,0,0,1,.5.5.5.5,0,1,1-1,0,.5.5,0,0,1,.5-.5m0-1a1.5,1.5,0,1,0,1.5,1.5,1.5,1.5,0,0,0-1.5-1.5Z" transform="translate(0 0)"/></g><g class="cls-5"><circle class="cls-4" cx="4312.81" cy="3683.29" r="1"/><path class="cls-4" d="M4312.81,3682.79a.5.5,0,0,1,.5.5.5.5,0,0,1-1,0,.5.5,0,0,1,.5-.5m0-1a1.5,1.5,0,1,0,1.5,1.5,1.5,1.5,0,0,0-1.5-1.5Z" transform="translate(0 0)"/></g><g class="cls-5"><circle class="cls-4" cx="4815.67" cy="2906.14" r="1"/><path class="cls-4" d="M4815.67,2905.64a.51.51,0,0,1,.5.5.5.5,0,0,1-.5.5.5.5,0,0,1-.5-.5.5.5,0,0,1,.5-.5m0-1a1.5,1.5,0,1,0,1.5,1.5,1.5,1.5,0,0,0-1.5-1.5Z" transform="translate(0 0)"/></g><g class="cls-5"><circle class="cls-4" cx="4724.24" cy="1809" r="1"/><path class="cls-4" d="M4724.24,1808.5a.5.5,0,0,1,0,1,.5.5,0,0,1,0-1m0-1a1.5,1.5,0,1,0,1.5,1.5,1.5,1.5,0,0,0-1.5-1.5Z" transform="translate(0 0)"/></g><g class="cls-5"><circle class="cls-4" cx="4724.24" cy="1397.57" r="1"/><path class="cls-4" d="M4724.24,1397.07a.51.51,0,0,1,.5.5.5.5,0,0,1-.5.5.5.5,0,0,1-.5-.5.5.5,0,0,1,.5-.5m0-1a1.5,1.5,0,1,0,1.5,1.5,1.5,1.5,0,0,0-1.5-1.5Z" transform="translate(0 0)"/></g><g class="cls-5"><circle class="cls-4" cx="3855.67" cy="940.43" r="1"/><path class="cls-4" d="M3855.67,939.93a.5.5,0,0,1,.5.5.51.51,0,0,1-.5.5.5.5,0,0,1-.5-.5.5.5,0,0,1,.5-.5m0-1a1.5,1.5,0,1,0,1.5,1.5,1.5,1.5,0,0,0-1.5-1.5Z" transform="translate(0 0)"/></g><g class="cls-5"><circle class="cls-4" cx="2667.1" cy="1031.86" r="1"/><path class="cls-4" d="M2667.1,1031.36a.5.5,0,0,1,.5.5.51.51,0,0,1-.5.5.5.5,0,0,1-.5-.5.5.5,0,0,1,.5-.5m0-1a1.5,1.5,0,1,0,1.5,1.5,1.5,1.5,0,0,0-1.5-1.5Z" transform="translate(0 0)"/></g><g class="cls-5"><circle class="cls-4" cx="2209.95" cy="620.43" r="1"/><path class="cls-4" d="M2210,619.93a.5.5,0,0,1,.5.5.5.5,0,0,1-.5.5.51.51,0,0,1-.5-.5.5.5,0,0,1,.5-.5m0-1a1.5,1.5,0,1,0,1.5,1.5,1.5,1.5,0,0,0-1.5-1.5Z" transform="translate(0 0)"/></g><g class="cls-5"><circle class="cls-4" cx="2347.1" cy="1580.43" r="1"/><path class="cls-4" d="M2347.1,1579.93a.5.5,0,0,1,.5.5.51.51,0,0,1-.5.5.5.5,0,0,1-.5-.5.5.5,0,0,1,.5-.5m0-1a1.5,1.5,0,1,0,1.5,1.5,1.5,1.5,0,0,0-1.5-1.5Z" transform="translate(0 0)"/></g><g class="cls-5"><circle class="cls-4" cx="1798.52" cy="1763.29" r="1"/><path class="cls-4" d="M1798.52,1762.79a.5.5,0,0,1,.5.5.5.5,0,0,1-.5.5.51.51,0,0,1-.5-.5.5.5,0,0,1,.5-.5m0-1a1.5,1.5,0,1,0,1.5,1.5,1.5,1.5,0,0,0-1.5-1.5Z" transform="translate(0 0)"/></g><g class="cls-5"><circle class="cls-4" cx="1432.81" cy="2083.29" r="1"/><path class="cls-4" d="M1432.81,2082.79a.5.5,0,0,1,.5.5.5.5,0,0,1-1,0,.5.5,0,0,1,.5-.5m0-1a1.5,1.5,0,1,0,1.5,1.5,1.5,1.5,0,0,0-1.5-1.5Z" transform="translate(0 0)"/></g><g class="cls-5"><circle class="cls-4" cx="1432.81" cy="2769" r="1"/><path class="cls-4" d="M1432.81,2768.5a.5.5,0,1,1-.5.5.5.5,0,0,1,.5-.5m0-1a1.5,1.5,0,1,0,1.5,1.5,1.5,1.5,0,0,0-1.5-1.5Z" transform="translate(0 0)"/></g><g class="cls-5"><circle class="cls-4" cx="1204.24" cy="2631.86" r="1"/><path class="cls-4" d="M1204.24,2631.36a.5.5,0,0,1,.5.5.51.51,0,0,1-.5.5.5.5,0,0,1-.5-.5.5.5,0,0,1,.5-.5m0-1a1.5,1.5,0,1,0,1.5,1.5,1.5,1.5,0,0,0-1.5-1.5Z" transform="translate(0 0)"/></g><g class="cls-5"><circle class="cls-4" cx="975.67" cy="2174.71" r="1"/><path class="cls-4" d="M975.67,2174.21a.51.51,0,0,1,.5.5.5.5,0,0,1-.5.5.5.5,0,0,1-.5-.5.5.5,0,0,1,.5-.5m0-1a1.5,1.5,0,1,0,1.5,1.5,1.5,1.5,0,0,0-1.5-1.5Z" transform="translate(0 0)"/></g><g class="cls-5"><circle class="cls-4" cx="1661.38" cy="1077.57" r="1"/><path class="cls-4" d="M1661.38,1077.07a.5.5,0,0,1,.5.5.5.5,0,0,1-.5.5.5.5,0,0,1-.5-.5.51.51,0,0,1,.5-.5m0-1a1.5,1.5,0,1,0,1.5,1.5,1.5,1.5,0,0,0-1.5-1.5Z" transform="translate(0 0)"/></g><g class="cls-5"><circle class="cls-4" cx="2575.67" cy="1397.57" r="1"/><path class="cls-4" d="M2575.67,1397.07a.51.51,0,0,1,.5.5.5.5,0,0,1-.5.5.5.5,0,0,1-.5-.5.5.5,0,0,1,.5-.5m0-1a1.5,1.5,0,1,0,1.5,1.5,1.5,1.5,0,0,0-1.5-1.5Z" transform="translate(0 0)"/></g><g class="cls-5"><circle class="cls-4" cx="2987.1" cy="1717.57" r="1"/><path class="cls-4" d="M2987.1,1717.07a.51.51,0,0,1,.5.5.5.5,0,0,1-.5.5.5.5,0,0,1-.5-.5.5.5,0,0,1,.5-.5m0-1a1.5,1.5,0,1,0,1.5,1.5,1.5,1.5,0,0,0-1.5-1.5Z" transform="translate(0 0)"/></g><g class="cls-5"><circle class="cls-4" cx="3627.1" cy="2037.57" r="1"/><path class="cls-4" d="M3627.1,2037.07a.51.51,0,0,1,.5.5.5.5,0,0,1-.5.5.5.5,0,0,1-.5-.5.5.5,0,0,1,.5-.5m0-1a1.5,1.5,0,1,0,1.5,1.5,1.5,1.5,0,0,0-1.5-1.5Z" transform="translate(0 0)"/></g><g class="cls-5"><circle class="cls-4" cx="4495.67" cy="2311.86" r="1"/><path class="cls-4" d="M4495.67,2311.36a.5.5,0,0,1,.5.5.51.51,0,0,1-.5.5.5.5,0,0,1-.5-.5.5.5,0,0,1,.5-.5m0-1a1.5,1.5,0,1,0,1.5,1.5,1.5,1.5,0,0,0-1.5-1.5Z" transform="translate(0 0)"/></g><g class="cls-5"><circle class="cls-4" cx="4678.52" cy="757.57" r="1"/><path class="cls-4" d="M4678.52,757.07a.5.5,0,0,1,.5.5.5.5,0,0,1-.5.5.5.5,0,0,1-.5-.5.51.51,0,0,1,.5-.5m0-1a1.5,1.5,0,1,0,1.5,1.5,1.5,1.5,0,0,0-1.5-1.5Z" transform="translate(0 0)"/></g><g class="cls-5"><circle class="cls-4" cx="4267.1" cy="346.14" r="1"/><path class="cls-4" d="M4267.1,345.64a.51.51,0,0,1,.5.5.5.5,0,0,1-.5.5.5.5,0,0,1-.5-.5.5.5,0,0,1,.5-.5m0-1a1.5,1.5,0,1,0,1.5,1.5,1.5,1.5,0,0,0-1.5-1.5Z" transform="translate(0 0)"/></g><g class="cls-5"><circle class="cls-4" cx="3809.95" cy="1763.29" r="1"/><path class="cls-4" d="M3810,1762.79a.5.5,0,0,1,.5.5.5.5,0,0,1-.5.5.51.51,0,0,1-.5-.5.5.5,0,0,1,.5-.5m0-1a1.5,1.5,0,1,0,1.5,1.5,1.5,1.5,0,0,0-1.5-1.5Z" transform="translate(0 0)"/></g><g class="cls-5"><circle class="cls-4" cx="3444.24" cy="3774.71" r="1"/><path class="cls-4" d="M3444.24,3774.21a.51.51,0,0,1,.5.5.5.5,0,0,1-.5.5.5.5,0,0,1-.5-.5.5.5,0,0,1,.5-.5m0-1a1.5,1.5,0,1,0,1.5,1.5,1.5,1.5,0,0,0-1.5-1.5Z" transform="translate(0 0)"/></g><g class="cls-5"><circle class="cls-4" cx="2758.52" cy="3774.71" r="1"/><path class="cls-4" d="M2758.52,3774.21a.5.5,0,0,1,.5.5.5.5,0,0,1-.5.5.5.5,0,0,1-.5-.5.51.51,0,0,1,.5-.5m0-1a1.5,1.5,0,1,0,1.5,1.5,1.51,1.51,0,0,0-1.5-1.5Z" transform="translate(0 0)"/></g><g class="cls-5"><circle class="cls-4" cx="2392.81" cy="3729" r="1"/><path class="cls-4" d="M2392.81,3728.5a.5.5,0,1,1-.5.5.5.5,0,0,1,.5-.5m0-1a1.5,1.5,0,1,0,1.5,1.5,1.5,1.5,0,0,0-1.5-1.5Z" transform="translate(0 0)"/></g><g class="cls-5"><circle class="cls-4" cx="2027.1" cy="3409" r="1"/><path class="cls-4" d="M2027.1,3408.5a.5.5,0,1,1,0,1,.5.5,0,0,1,0-1m0-1a1.5,1.5,0,1,0,1.5,1.5,1.5,1.5,0,0,0-1.5-1.5Z" transform="translate(0 0)"/></g><g class="cls-6"><circle class="cls-4" cx="2415.67" cy="3790.33" r="1.5"/><path class="cls-4" d="M2415.67,3789.33a1,1,0,1,1-1,1,1,1,0,0,1,1-1m0-1a2,2,0,1,0,2,2,2,2,0,0,0-2-2Z" transform="translate(0 0)"/></g><g class="cls-6"><circle class="cls-4" cx="2671.67" cy="3406.33" r="1.5"/><path class="cls-4" d="M2671.67,3405.33a1,1,0,1,1-1,1,1,1,0,0,1,1-1m0-1a2,2,0,1,0,2,2,2,2,0,0,0-2-2Z" transform="translate(0 0)"/></g><g class="cls-6"><circle class="cls-4" cx="2863.67" cy="3086.33" r="1.5"/><path class="cls-4" d="M2863.67,3085.33a1,1,0,1,1-1,1,1,1,0,0,1,1-1m0-1a2,2,0,1,0,2,2,2,2,0,0,0-2-2Z" transform="translate(0 0)"/></g><g class="cls-6"><circle class="cls-4" cx="3311.67" cy="2894.33" r="1.5"/><path class="cls-4" d="M3311.67,2893.33a1,1,0,1,1-1,1,1,1,0,0,1,1-1m0-1a2,2,0,1,0,2,2,2,2,0,0,0-2-2Z" transform="translate(0 0)"/></g><g class="cls-6"><circle class="cls-4" cx="2830.67" cy="2085" r="1.5"/><path class="cls-4" d="M2830.67,2084a1,1,0,1,1-1,1,1,1,0,0,1,1-1m0-1a2,2,0,1,0,2,2,2,2,0,0,0-2-2Z" transform="translate(0 0)"/></g><g class="cls-6"><circle class="cls-4" cx="1647.67" cy="2062.33" r="1.5"/><path class="cls-4" d="M1647.67,2061.33a1,1,0,1,1-1,1,1,1,0,0,1,1-1m0-1a2,2,0,1,0,2,2,2,2,0,0,0-2-2Z" transform="translate(0 0)"/></g><g class="cls-6"><circle class="cls-4" cx="1327.67" cy="1998.33" r="1.5"/><path class="cls-4" d="M1327.67,1997.33a1,1,0,1,1-1,1,1,1,0,0,1,1-1m0-1a2,2,0,1,0,2,2,2,2,0,0,0-2-2Z" transform="translate(0 0)"/></g><g class="cls-6"><circle class="cls-4" cx="1455.67" cy="2574.33" r="1.5"/><path class="cls-4" d="M1455.67,2573.33a1,1,0,1,1-1,1,1,1,0,0,1,1-1m0-1a2,2,0,1,0,2,2,2,2,0,0,0-2-2Z" transform="translate(0 0)"/></g><g class="cls-6"><circle class="cls-4" cx="1839.67" cy="3918.33" r="1.5"/><path class="cls-4" d="M1839.67,3917.33a1,1,0,1,1-1,1,1,1,0,0,1,1-1m0-1a2,2,0,1,0,2,2,2,2,0,0,0-2-2Z" transform="translate(0 0)"/></g><g class="cls-6"><circle class="cls-4" cx="1888.67" cy="3534.33" r="1.5"/><path class="cls-4" d="M1888.67,3533.33a1,1,0,1,1-1,1,1,1,0,0,1,1-1m0-1a2,2,0,1,0,2,2,2,2,0,0,0-2-2Z" transform="translate(0 0)"/></g><g class="cls-6"><circle class="cls-4" cx="3055.67" cy="4558.33" r="1.5"/><path class="cls-4" d="M3055.67,4557.33a1,1,0,1,1-1,1,1,1,0,0,1,1-1m0-1a2,2,0,1,0,2,2,2,2,0,0,0-2-2Z" transform="translate(0 0)"/></g><g class="cls-6"><circle class="cls-4" cx="3183.67" cy="4238.33" r="1.5"/><path class="cls-4" d="M3183.67,4237.33a1,1,0,1,1-1,1,1,1,0,0,1,1-1m0-1a2,2,0,1,0,2,2,2,2,0,0,0-2-2Z" transform="translate(0 0)"/></g><g class="cls-6"><circle class="cls-4" cx="4143.67" cy="2318.33" r="1.5"/><path class="cls-4" d="M4143.67,2317.33a1,1,0,1,1-1,1,1,1,0,0,1,1-1m0-1a2,2,0,1,0,2,2,2,2,0,0,0-2-2Z" transform="translate(0 0)"/></g><g class="cls-6"><circle class="cls-4" cx="4271.67" cy="1102.33" r="1.5"/><path class="cls-4" d="M4271.67,1101.33a1,1,0,1,1-1,1,1,1,0,0,1,1-1m0-1a2,2,0,1,0,2,2,2,2,0,0,0-2-2Z" transform="translate(0 0)"/></g><g class="cls-6"><circle class="cls-4" cx="3567.67" cy="1230.33" r="1.5"/><path class="cls-4" d="M3567.67,1229.33a1,1,0,1,1-1,1,1,1,0,0,1,1-1m0-1a2,2,0,1,0,2,2,2,2,0,0,0-2-2Z" transform="translate(0 0)"/></g><g class="cls-6"><circle class="cls-4" cx="2735.67" cy="1486.33" r="1.5"/><path class="cls-4" d="M2735.67,1485.33a1,1,0,1,1-1,1,1,1,0,0,1,1-1m0-1a2,2,0,1,0,2,2,2,2,0,0,0-2-2Z" transform="translate(0 0)"/></g><g class="cls-6"><circle class="cls-4" cx="2031.67" cy="846.33" r="1.5"/><path class="cls-4" d="M2031.67,845.33a1,1,0,1,1-1,1,1,1,0,0,1,1-1m0-1a2,2,0,1,0,2,2,2,2,0,0,0-2-2Z" transform="translate(0 0)"/></g><g class="cls-6"><circle class="cls-4" cx="1263.67" cy="526.33" r="1.5"/><path class="cls-4" d="M1263.67,525.33a1,1,0,1,1-1,1,1,1,0,0,1,1-1m0-1a2,2,0,1,0,2,2,2,2,0,0,0-2-2Z" transform="translate(0 0)"/></g><g class="cls-6"><circle class="cls-4" cx="815.67" cy="334.33" r="1.5"/><path class="cls-4" d="M815.67,333.33a1,1,0,1,1-1,1,1,1,0,0,1,1-1m0-1a2,2,0,1,0,2,2,2,2,0,0,0-2-2Z" transform="translate(0 0)"/></g><g class="cls-6"><circle class="cls-4" cx="2031.67" cy="3918.33" r="1.5"/><path class="cls-4" d="M2031.67,3917.33a1,1,0,1,1-1,1,1,1,0,0,1,1-1m0-1a2,2,0,1,0,2,2,2,2,0,0,0-2-2Z" transform="translate(0 0)"/></g><g class="cls-6"><circle class="cls-4" cx="2543.67" cy="3406.33" r="1.5"/><path class="cls-4" d="M2543.67,3405.33a1,1,0,1,1-1,1,1,1,0,0,1,1-1m0-1a2,2,0,1,0,2,2,2,2,0,0,0-2-2Z" transform="translate(0 0)"/></g><g class="cls-6"><circle class="cls-4" cx="1903.67" cy="3278.33" r="1.5"/><path class="cls-4" d="M1903.67,3277.33a1,1,0,1,1-1,1,1,1,0,0,1,1-1m0-1a2,2,0,1,0,2,2,2,2,0,0,0-2-2Z" transform="translate(0 0)"/></g><g class="cls-6"><circle class="cls-4" cx="2283" cy="3007" r="1.5"/><path class="cls-4" d="M2283,3006a1,1,0,1,1-1,1,1,1,0,0,1,1-1m0-1a2,2,0,1,0,2,2,2,2,0,0,0-2-2Z" transform="translate(0 0)"/></g><g class="cls-9"><circle class="cls-4" cx="2037" cy="2736" r="4"/><path class="cls-4" d="M2037,2732.5a3.5,3.5,0,1,1-3.5,3.5,3.5,3.5,0,0,1,3.5-3.5m0-1a4.5,4.5,0,1,0,4.5,4.5,4.49,4.49,0,0,0-4.5-4.5Z" transform="translate(0 0)"/></g><g class="cls-9"><circle class="cls-4" cx="3381" cy="2976" r="4"/><path class="cls-4" d="M3381,2972.5a3.5,3.5,0,1,1-3.5,3.5,3.5,3.5,0,0,1,3.5-3.5m0-1a4.5,4.5,0,1,0,4.5,4.5,4.49,4.49,0,0,0-4.5-4.5Z" transform="translate(0 0)"/></g><g class="cls-9"><circle class="cls-4" cx="3525" cy="2736" r="4"/><path class="cls-4" d="M3525,2732.5a3.5,3.5,0,1,1-3.5,3.5,3.5,3.5,0,0,1,3.5-3.5m0-1a4.5,4.5,0,1,0,4.5,4.5,4.49,4.49,0,0,0-4.5-4.5Z" transform="translate(0 0)"/></g><g class="cls-9"><circle class="cls-4" cx="3429" cy="2016" r="4"/><path class="cls-4" d="M3429,2012.5a3.5,3.5,0,1,1-3.5,3.5,3.5,3.5,0,0,1,3.5-3.5m0-1a4.5,4.5,0,1,0,4.5,4.5,4.49,4.49,0,0,0-4.5-4.5Z" transform="translate(0 0)"/></g><g class="cls-9"><circle class="cls-4" cx="3429" cy="1344" r="4"/><path class="cls-4" d="M3429,1340.5a3.5,3.5,0,1,1-3.5,3.5,3.5,3.5,0,0,1,3.5-3.5m0-1a4.5,4.5,0,1,0,4.5,4.5,4.49,4.49,0,0,0-4.5-4.5Z" transform="translate(0 0)"/></g><g class="cls-9"><circle class="cls-4" cx="3141" cy="1104" r="4"/><path class="cls-4" d="M3141,1100.5a3.5,3.5,0,1,1-3.5,3.5,3.5,3.5,0,0,1,3.5-3.5m0-1a4.5,4.5,0,1,0,4.5,4.5,4.49,4.49,0,0,0-4.5-4.5Z" transform="translate(0 0)"/></g><g class="cls-9"><circle class="cls-4" cx="3141" cy="1632" r="4"/><path class="cls-4" d="M3141,1628.5a3.5,3.5,0,1,1-3.5,3.5,3.5,3.5,0,0,1,3.5-3.5m0-1a4.5,4.5,0,1,0,4.5,4.5,4.49,4.49,0,0,0-4.5-4.5Z" transform="translate(0 0)"/></g><g class="cls-9"><circle class="cls-4" cx="2709" cy="1706" r="4"/><path class="cls-4" d="M2709,1702.5a3.5,3.5,0,1,1-3.5,3.5,3.5,3.5,0,0,1,3.5-3.5m0-1a4.5,4.5,0,1,0,4.5,4.5,4.49,4.49,0,0,0-4.5-4.5Z" transform="translate(0 0)"/></g><g class="cls-9"><circle class="cls-4" cx="2565" cy="1200" r="4"/><path class="cls-4" d="M2565,1196.5a3.5,3.5,0,1,1-3.5,3.5,3.5,3.5,0,0,1,3.5-3.5m0-1a4.5,4.5,0,1,0,4.5,4.5,4.49,4.49,0,0,0-4.5-4.5Z" transform="translate(0 0)"/></g><g id="Lines"><g class="cls-10"><line class="cls-11" x1="1841.11" y1="2401.16" x2="1878.22" y2="2384.52"/></g><g class="cls-12"><line class="cls-11" x1="2703.13" y1="2161.83" x2="2707.42" y2="2113.38"/><line class="cls-4" x1="2703.13" y1="2161.83" x2="2707.42" y2="2113.38"/></g><line class="cls-13" x1="2704.43" y1="2163.77" x2="2841.79" y2="2206.11"/><line class="cls-13" x1="2843.07" y1="2205.06" x2="2830.87" y2="2086.99"/><line class="cls-13" x1="2771.8" y1="2028.34" x2="2829.23" y2="2083.61"/><line class="cls-13" x1="1882.85" y1="2382.66" x2="2045.59" y2="2323.84"/><line class="cls-13" x1="2048.47" y1="2323.05" x2="2213.05" y2="2290.98"/><line class="cls-13" x1="2073.68" y1="2400.64" x2="2047.49" y2="2324.75"/><line class="cls-14" x1="2074.62" y1="2405.5" x2="2080.78" y2="2532.84"/><line class="cls-13" x1="2020.26" y1="2731.22" x2="2032.67" y2="2734.76"/><line class="cls-15" x1="2143.28" y1="2680.65" x2="2040.99" y2="2733.92"/><line class="cls-15" x1="2037.82" y1="2740.43" x2="2058.06" y2="2849.86"/><line class="cls-13" x1="2059.04" y1="2852.66" x2="2106.5" y2="2942.13"/><line class="cls-13" x1="2040.76" y1="2738.47" x2="2128.75" y2="2796.34"/><line class="cls-13" x1="2131.32" y1="2797.87" x2="2171.8" y2="2819.49"/><line class="cls-16" x1="2530.71" y1="2167.8" x2="2432.41" y2="2131.85"/><line class="cls-16" x1="2431.75" y1="2130.04" x2="2497.08" y2="2017.49"/><line class="cls-16" x1="2533.21" y1="2165.59" x2="2498.9" y2="2017.77"/><line class="cls-13" x1="2708.42" y1="2110.66" x2="2765.97" y2="2028.9"/></g><g class="cls-9"><circle class="cls-4" cx="2081" cy="2537.33" r="4"/><path class="cls-4" d="M2081,2533.83a3.5,3.5,0,1,1-3.5,3.5,3.5,3.5,0,0,1,3.5-3.5m0-1a4.5,4.5,0,1,0,4.5,4.5,4.5,4.5,0,0,0-4.5-4.5Z" transform="translate(0 0)"/></g><g class="cls-5"><circle class="cls-4" cx="2058.33" cy="2851.33" r="1"/><path class="cls-4" d="M2058.33,2850.83a.5.5,0,0,1,.5.5.5.5,0,0,1-.5.5.5.5,0,0,1-.5-.5.51.51,0,0,1,.5-.5m0-1a1.5,1.5,0,1,0,1.5,1.5,1.5,1.5,0,0,0-1.5-1.5Z" transform="translate(0 0)"/></g><g class="cls-3"><circle class="cls-4" cx="2174" cy="2820.67" r="2"/><path class="cls-4" d="M2174,2819.17a1.5,1.5,0,1,1-1.5,1.5,1.5,1.5,0,0,1,1.5-1.5m0-1a2.5,2.5,0,1,0,2.5,2.5,2.5,2.5,0,0,0-2.5-2.5Z" transform="translate(0 0)"/></g><g class="cls-17"><circle class="cls-4" cx="2130" cy="2797.17" r="1"/><path class="cls-4" d="M2130,2796.67a.5.5,0,0,1,.5.5.5.5,0,0,1-1,0,.5.5,0,0,1,.5-.5m0-1a1.5,1.5,0,1,0,1.5,1.5,1.5,1.5,0,0,0-1.5-1.5Z" transform="translate(0 0)"/></g><g class="cls-5"><circle class="cls-4" cx="1852.67" cy="2784.17" r="0.5"/><path class="cls-4" d="M1852.67,2783.17a1,1,0,0,0,0,2,1,1,0,0,0,0-2Z" transform="translate(0 0)"/></g><g class="cls-10"><circle class="cls-4" cx="2008.67" cy="2564.17" r="0.5"/><path class="cls-4" d="M2008.67,2563.17a1,1,0,0,0,0,2,1,1,0,0,0,0-2Z" transform="translate(0 0)"/></g><g class="cls-5"><circle class="cls-4" cx="2218.67" cy="2297.17" r="0.5"/><path class="cls-4" d="M2218.67,2296.17a1,1,0,0,0,0,2,1,1,0,0,0,0-2Z" transform="translate(0 0)"/></g><g class="cls-5"><circle class="cls-4" cx="2308.67" cy="2192.17" r="0.5"/><path class="cls-4" d="M2308.67,2191.17a1,1,0,0,0,0,2,1,1,0,0,0,0-2Z" transform="translate(0 0)"/></g><g class="cls-5"><circle class="cls-4" cx="2404.67" cy="2320.17" r="0.5"/><path class="cls-4" d="M2404.67,2319.17a1,1,0,0,0,0,2,1,1,0,0,0,0-2Z" transform="translate(0 0)"/></g><g class="cls-5"><circle class="cls-4" cx="2836.67" cy="2440.17" r="0.5"/><path class="cls-4" d="M2836.67,2439.17a1,1,0,0,0,0,2,1,1,0,0,0,0-2Z" transform="translate(0 0)"/></g><g class="cls-5"><circle class="cls-4" cx="3020.67" cy="2208.17" r="0.5"/><path class="cls-4" d="M3020.67,2207.17a1,1,0,0,0,0,2,1,1,0,0,0,0-2Z" transform="translate(0 0)"/></g><g class="cls-5"><circle class="cls-4" cx="2996.67" cy="1864.17" r="0.5"/><path class="cls-4" d="M2996.67,1863.17a1,1,0,0,0,0,2,1,1,0,0,0,0-2Z" transform="translate(0 0)"/></g><g class="cls-5"><circle class="cls-4" cx="2540.67" cy="1768.17" r="0.5"/><path class="cls-4" d="M2540.67,1767.17a1,1,0,0,0,0,2,1,1,0,0,0,0-2Z" transform="translate(0 0)"/></g><g class="cls-5"><circle class="cls-4" cx="1988.67" cy="1536.17" r="0.5"/><path class="cls-4" d="M1988.67,1535.17a1,1,0,0,0,0,2,1,1,0,0,0,0-2Z" transform="translate(0 0)"/></g><g class="cls-5"><circle class="cls-4" cx="2028.67" cy="3624.17" r="0.5"/><path class="cls-4" d="M2028.67,3623.17a1,1,0,0,0,0,2,1,1,0,0,0,0-2Z" transform="translate(0 0)"/></g><g class="cls-5"><circle class="cls-4" cx="2524.67" cy="3624.17" r="0.5"/><path class="cls-4" d="M2524.67,3623.17a1,1,0,0,0,0,2,1,1,0,0,0,0-2Z" transform="translate(0 0)"/></g><g class="cls-5"><circle class="cls-4" cx="3284.67" cy="3576.17" r="0.5"/><path class="cls-4" d="M3284.67,3575.17a1,1,0,0,0,0,2,1,1,0,0,0,0-2Z" transform="translate(0 0)"/></g><g class="cls-5"><circle class="cls-4" cx="3060.67" cy="3440.17" r="0.5"/><path class="cls-4" d="M3060.67,3439.17a1,1,0,0,0,0,2,1,1,0,0,0,0-2Z" transform="translate(0 0)"/></g><g class="cls-18"><circle class="cls-4" cx="2207.67" cy="2898.58" r="0.5"/><path class="cls-4" d="M2207.67,2897.58a1,1,0,1,0,1,1,1,1,0,0,0-1-1Z" transform="translate(0 0)"/></g><g class="cls-10"><circle class="cls-4" cx="1908.11" cy="2670.22" r="0.5"/><path class="cls-4" d="M1908.11,2669.22a1,1,0,1,0,1,1,1,1,0,0,0-1-1Z" transform="translate(0 0)"/></g><g class="cls-10"><circle class="cls-4" cx="2127.67" cy="2582.67" r="0.5"/><path class="cls-4" d="M2127.67,2581.67a1,1,0,0,0,0,2,1,1,0,0,0,0-2Z" transform="translate(0 0)"/></g><g class="cls-10"><circle class="cls-4" cx="2207.67" cy="2470.67" r="0.5"/><path class="cls-4" d="M2207.67,2469.67a1,1,0,0,0,0,2,1,1,0,0,0,0-2Z" transform="translate(0 0)"/></g><g class="cls-10"><circle class="cls-4" cx="2671.67" cy="3190.67" r="0.5"/><path class="cls-4" d="M2671.67,3189.67a1,1,0,0,0,0,2,1,1,0,0,0,0-2Z" transform="translate(0 0)"/></g><g class="cls-10"><circle class="cls-4" cx="2575.67" cy="3030.67" r="0.5"/><path class="cls-4" d="M2575.67,3029.67a1,1,0,0,0,0,2,1,1,0,0,0,0-2Z" transform="translate(0 0)"/></g><g class="cls-10"><circle class="cls-4" cx="2575.67" cy="3990.67" r="0.5"/><path class="cls-4" d="M2575.67,3989.67a1,1,0,0,0,0,2,1,1,0,0,0,0-2Z" transform="translate(0 0)"/></g><g class="cls-10"><circle class="cls-4" cx="3343.67" cy="4086.67" r="0.5"/><path class="cls-4" d="M3343.67,4085.67a1,1,0,0,0,0,2,1,1,0,0,0,0-2Z" transform="translate(0 0)"/></g><g class="cls-10"><circle class="cls-4" cx="3103.67" cy="3046.67" r="0.5"/><path class="cls-4" d="M3103.67,3045.67a1,1,0,0,0,0,2,1,1,0,0,0,0-2Z" transform="translate(0 0)"/></g><g class="cls-10"><circle class="cls-4" cx="2575.67" cy="3238.67" r="0.5"/><path class="cls-4" d="M2575.67,3237.67a1,1,0,0,0,0,2,1,1,0,0,0,0-2Z" transform="translate(0 0)"/></g><g class="cls-10"><circle class="cls-4" cx="2799.67" cy="2822.67" r="0.5"/><path class="cls-4" d="M2799.67,2821.67a1,1,0,0,0,0,2,1,1,0,0,0,0-2Z" transform="translate(0 0)"/></g><g class="cls-3"><circle class="cls-4" cx="2498.33" cy="2015.33" r="2"/><path class="cls-4" d="M2498.33,2013.83a1.5,1.5,0,1,1-1.5,1.5,1.5,1.5,0,0,1,1.5-1.5m0-1a2.5,2.5,0,1,0,2.5,2.5,2.5,2.5,0,0,0-2.5-2.5Z" transform="translate(0 0)"/></g><g class="cls-9"><circle class="cls-4" cx="2768.56" cy="2025.22" r="4"/><path class="cls-4" d="M2768.56,2021.72a3.5,3.5,0,1,1-3.5,3.5,3.5,3.5,0,0,1,3.5-3.5m0-1a4.5,4.5,0,1,0,4.5,4.5,4.5,4.5,0,0,0-4.5-4.5Z" transform="translate(0 0)"/></g><g class="cls-5"><circle class="cls-4" cx="2707.56" cy="2111.89" r="1"/><path class="cls-4" d="M2707.56,2111.39a.5.5,0,0,1,.5.5.51.51,0,0,1-.5.5.5.5,0,0,1-.5-.5.5.5,0,0,1,.5-.5m0-1a1.5,1.5,0,1,0,1.5,1.5,1.5,1.5,0,0,0-1.5-1.5Z" transform="translate(0 0)"/></g><g class="cls-5"><circle class="cls-4" cx="2416.56" cy="1875.89" r="1"/><path class="cls-4" d="M2416.56,1875.39a.5.5,0,0,1,.5.5.51.51,0,0,1-.5.5.5.5,0,0,1-.5-.5.5.5,0,0,1,.5-.5m0-1a1.5,1.5,0,1,0,1.5,1.5,1.5,1.5,0,0,0-1.5-1.5Z" transform="translate(0 0)"/></g><g class="cls-5"><circle class="cls-4" cx="2843.22" cy="2206.56" r="1"/><path class="cls-4" d="M2843.22,2206.06a.5.5,0,0,1,.5.5.5.5,0,0,1-.5.5.51.51,0,0,1-.5-.5.5.5,0,0,1,.5-.5m0-1a1.5,1.5,0,1,0,1.5,1.5,1.5,1.5,0,0,0-1.5-1.5Z" transform="translate(0 0)"/></g><g class="cls-3"><circle class="cls-4" cx="2924.22" cy="2738.61" r="2"/><path class="cls-4" d="M2924.22,2737.11a1.5,1.5,0,1,1-1.5,1.5,1.5,1.5,0,0,1,1.5-1.5m0-1a2.5,2.5,0,1,0,2.5,2.5,2.5,2.5,0,0,0-2.5-2.5Z" transform="translate(0 0)"/></g><g class="cls-3"><circle class="cls-4" cx="2909.33" cy="2622.28" r="2"/><path class="cls-4" d="M2909.33,2620.78a1.5,1.5,0,1,1-1.5,1.5,1.5,1.5,0,0,1,1.5-1.5m0-1a2.5,2.5,0,1,0,2.5,2.5,2.5,2.5,0,0,0-2.5-2.5Z" transform="translate(0 0)"/></g><line class="cls-13" x1="2908.74" y1="2619.85" x2="2895.35" y2="2564.79"/><g class="cls-10"><circle class="cls-4" cx="2729.83" cy="2629.4" r="0.5"/><path class="cls-4" d="M2729.83,2628.4a1,1,0,1,0,1,1,1,1,0,0,0-1-1Z" transform="translate(0 0)"/></g><g class="cls-10"><circle class="cls-4" cx="2917.89" cy="2929.78" r="0.5"/><path class="cls-4" d="M2917.89,2928.78a1,1,0,1,0,1,1,1,1,0,0,0-1-1Z" transform="translate(0 0)"/></g><g class="cls-10"><circle class="cls-4" cx="3206.11" cy="2769.97" r="0.5"/><path class="cls-4" d="M3206.11,2769a1,1,0,1,0,1,1,1,1,0,0,0-1-1Z" transform="translate(0 0)"/></g><g class="cls-10"><circle class="cls-4" cx="2269.17" cy="2528.73" r="0.5"/><path class="cls-4" d="M2269.17,2527.73a1,1,0,1,0,1,1,1,1,0,0,0-1-1Z" transform="translate(0 0)"/></g><g class="cls-10"><circle class="cls-4" cx="2687.67" cy="2034.11" r="0.5"/><path class="cls-4" d="M2687.67,2033.11a1,1,0,1,0,1,1,1,1,0,0,0-1-1Z" transform="translate(0 0)"/></g><line class="cls-13" x1="2923.91" y1="2736.13" x2="2909.65" y2="2624.75"/><line class="cls-16" x1="2936.32" y1="2781.48" x2="2924.9" y2="2741.02"/><line class="cls-19" x1="2926.56" y1="2737.73" x2="3005.6" y2="2707.86"/><g class="cls-10"><circle class="cls-4" cx="2907.42" cy="2737.85" r="0.5"/><path class="cls-4" d="M2907.42,2736.85a1,1,0,0,0,0,2,1,1,0,0,0,0-2Z" transform="translate(0 0)"/></g><line class="cls-19" x1="2921.72" y1="2738.61" x2="2908.42" y2="2737.85"/><line class="cls-19" x1="2906.46" y1="2737.58" x2="2829.55" y2="2715.85"/><g class="cls-3"><circle class="cls-4" cx="2382.33" cy="3155.75" r="2"/><path class="cls-4" d="M2382.33,3154.25a1.5,1.5,0,1,1-1.5,1.5,1.5,1.5,0,0,1,1.5-1.5m0-1a2.5,2.5,0,1,0,2.5,2.5,2.5,2.5,0,0,0-2.5-2.5Z" transform="translate(0 0)"/></g><g class="cls-6"><circle class="cls-4" cx="2373.83" cy="3055.4" r="1.5"/><path class="cls-4" d="M2373.83,3054.4a1,1,0,1,1-1,1,1,1,0,0,1,1-1m0-1a2,2,0,1,0,2,2,2,2,0,0,0-2-2Z" transform="translate(0 0)"/></g><g class="cls-20"><circle class="cls-4" cx="2433.17" cy="3014" r="2"/><path class="cls-4" d="M2433.17,3012.5a1.5,1.5,0,1,1-1.5,1.5,1.5,1.5,0,0,1,1.5-1.5m0-1a2.5,2.5,0,1,0,2.5,2.5,2.5,2.5,0,0,0-2.5-2.5Z" transform="translate(0 0)"/></g><line class="cls-13" x1="2375.47" y1="3054.25" x2="2431.12" y2="3015.43"/><g class="cls-5"><circle class="cls-4" cx="2422.28" cy="2993.13" r="0.5"/><path class="cls-4" d="M2422.28,2992.13a1,1,0,1,0,1,1,1,1,0,0,0-1-1Z" transform="translate(0 0)"/></g><line class="cls-21" x1="2432.01" y1="3011.78" x2="2422.74" y2="2994.01"/><line class="cls-22" x1="2412.24" y1="3080.31" x2="2375.52" y2="3056.46"/><line class="cls-22" x1="2383.32" y1="3153.46" x2="2413.34" y2="3083.96"/><g class="cls-3"><circle class="cls-4" cx="2933" cy="3208.75" r="2"/><path class="cls-4" d="M2933,3207.25a1.5,1.5,0,1,1-1.5,1.5,1.5,1.5,0,0,1,1.5-1.5m0-1a2.5,2.5,0,1,0,2.5,2.5,2.5,2.5,0,0,0-2.5-2.5Z" transform="translate(0 0)"/></g><line class="cls-22" x1="2837.79" y1="3245.06" x2="2930.69" y2="3209.68"/><line class="cls-19" x1="2935.4" y1="3209.47" x2="3030.62" y2="3239.54"/><g class="cls-5"><circle class="cls-4" cx="2682.78" cy="2978.5" r="0.5"/><path class="cls-4" d="M2682.78,2977.5a1,1,0,1,0,1,1,1,1,0,0,0-1-1Z" transform="translate(0 0)"/></g><g class="cls-6"><circle class="cls-4" cx="2591.39" cy="3046.31" r="1.5"/><path class="cls-4" d="M2591.39,3045.31a1,1,0,1,1-1,1,1,1,0,0,1,1-1m0-1a2,2,0,1,0,2,2,2,2,0,0,0-2-2Z" transform="translate(0 0)"/></g></svg>