<svg id="Layer_1" data-name="Layer 1" xmlns="http://www.w3.org/2000/svg" viewBox="0 0 5000 5000"><defs><style>.cls-1{fill:#02002a;}.cls-2{fill:#2e3445;}.cls-3{opacity:0.3;}.cls-11,.cls-4{fill:#fff;}.cls-5{opacity:0.22;}.cls-6{opacity:0.28;}.cls-7{opacity:0.4;}.cls-8{opacity:0.5;}.cls-11,.cls-9{opacity:0.1;}.cls-10{fill:none;}.cls-10,.cls-11{stroke:#fff;stroke-miterlimit:10;}.cls-12{opacity:0.15;}.cls-13{opacity:0.17;}</style></defs><rect class="cls-1" x="0.5" y="0.5" width="4999" height="4999"/><path d="M5002-4.33v4998H4V-4.33H5002m1-1H3v5000H5003V-5.33Z" transform="translate(-3 5.33)"/><circle class="cls-2" cx="2497" cy="2505.33" r="183"/><path d="M2500,2317.5a181.92,181.92,0,1,1-71,14.34,181.48,181.48,0,0,1,71-14.34m0-1c-101.34,0-183.5,82.16-183.5,183.5s82.16,183.5,183.5,183.5,183.5-82.16,183.5-183.5-82.16-183.5-183.5-183.5Z" transform="translate(-3 5.33)"/><g class="cls-3"><circle class="cls-4" cx="1877.5" cy="2388.83" r="2"/><path class="cls-4" d="M1880.5,2382a1.5,1.5,0,1,1-1.5,1.5,1.5,1.5,0,0,1,1.5-1.5m0-1a2.5,2.5,0,1,0,2.5,2.5,2.5,2.5,0,0,0-2.5-2.5Z" transform="translate(-3 5.33)"/></g><g class="cls-3"><circle class="cls-4" cx="2212.5" cy="2295.83" r="2"/><path class="cls-4" d="M2215.5,2289a1.5,1.5,0,1,1-1.5,1.5,1.5,1.5,0,0,1,1.5-1.5m0-1a2.5,2.5,0,1,0,2.5,2.5,2.5,2.5,0,0,0-2.5-2.5Z" transform="translate(-3 5.33)"/></g><g class="cls-3"><circle class="cls-4" cx="2071.5" cy="2408.33" r="2"/><path class="cls-4" d="M2074.5,2401.5a1.5,1.5,0,1,1-1.5,1.5,1.5,1.5,0,0,1,1.5-1.5m0-1a2.5,2.5,0,1,0,2.5,2.5,2.5,2.5,0,0,0-2.5-2.5Z" transform="translate(-3 5.33)"/></g><g class="cls-3"><circle class="cls-4" cx="2142.5" cy="2684.83" r="2"/><path class="cls-4" d="M2145.5,2678a1.5,1.5,0,1,1-1.5,1.5,1.5,1.5,0,0,1,1.5-1.5m0-1a2.5,2.5,0,1,0,2.5,2.5,2.5,2.5,0,0,0-2.5-2.5Z" transform="translate(-3 5.33)"/></g><g class="cls-5"><circle class="cls-4" cx="2340" cy="2711.5" r="1"/><path class="cls-4" d="M2343,2705.67a.5.5,0,0,1,.5.5.5.5,0,0,1-1,0,.5.5,0,0,1,.5-.5m0-1a1.5,1.5,0,1,0,1.5,1.5,1.5,1.5,0,0,0-1.5-1.5Z" transform="translate(-3 5.33)"/></g><g class="cls-3"><circle class="cls-4" cx="2322" cy="2823.5" r="2"/><path class="cls-4" d="M2325,2816.67a1.5,1.5,0,1,1-1.5,1.5,1.5,1.5,0,0,1,1.5-1.5m0-1a2.5,2.5,0,1,0,2.5,2.5,2.5,2.5,0,0,0-2.5-2.5Z" transform="translate(-3 5.33)"/></g><g class="cls-3"><circle class="cls-4" cx="2639.33" cy="2848" r="2"/><path class="cls-4" d="M2642.33,2841.17a1.5,1.5,0,1,1-1.5,1.5,1.5,1.5,0,0,1,1.5-1.5m0-1a2.5,2.5,0,1,0,2.5,2.5,2.5,2.5,0,0,0-2.5-2.5Z" transform="translate(-3 5.33)"/></g><g class="cls-6"><circle class="cls-4" cx="2015.33" cy="2736" r="1.5"/><path class="cls-4" d="M2018.33,2729.67a1,1,0,1,1-1,1,1,1,0,0,1,1-1m0-1a2,2,0,1,0,2,2,2,2,0,0,0-2-2Z" transform="translate(-3 5.33)"/></g><g class="cls-3"><circle class="cls-4" cx="1679.33" cy="2586" r="2"/><path class="cls-4" d="M1682.33,2579.17a1.5,1.5,0,1,1-1.5,1.5,1.5,1.5,0,0,1,1.5-1.5m0-1a2.5,2.5,0,1,0,2.5,2.5,2.5,2.5,0,0,0-2.5-2.5Z" transform="translate(-3 5.33)"/></g><g class="cls-3"><circle class="cls-4" cx="1679.33" cy="2938" r="2"/><path class="cls-4" d="M1682.33,2931.17a1.5,1.5,0,1,1-1.5,1.5,1.5,1.5,0,0,1,1.5-1.5m0-1a2.5,2.5,0,1,0,2.5,2.5,2.5,2.5,0,0,0-2.5-2.5Z" transform="translate(-3 5.33)"/></g><g class="cls-3"><circle class="cls-4" cx="1679.33" cy="3418" r="2"/><path class="cls-4" d="M1682.33,3411.17a1.5,1.5,0,1,1-1.5,1.5,1.5,1.5,0,0,1,1.5-1.5m0-1a2.5,2.5,0,1,0,2.5,2.5,2.5,2.5,0,0,0-2.5-2.5Z" transform="translate(-3 5.33)"/></g><g class="cls-3"><circle class="cls-4" cx="1622.33" cy="3178" r="2"/><path class="cls-4" d="M1625.33,3171.17a1.5,1.5,0,1,1-1.5,1.5,1.5,1.5,0,0,1,1.5-1.5m0-1a2.5,2.5,0,1,0,2.5,2.5,2.5,2.5,0,0,0-2.5-2.5Z" transform="translate(-3 5.33)"/></g><g class="cls-3"><circle class="cls-4" cx="1823.33" cy="2222" r="2"/><path class="cls-4" d="M1826.33,2215.17a1.5,1.5,0,1,1-1.5,1.5,1.5,1.5,0,0,1,1.5-1.5m0-1a2.5,2.5,0,1,0,2.5,2.5,2.5,2.5,0,0,0-2.5-2.5Z" transform="translate(-3 5.33)"/></g><g class="cls-3"><circle class="cls-4" cx="1935.33" cy="3066" r="2"/><path class="cls-4" d="M1938.33,3059.17a1.5,1.5,0,1,1-1.5,1.5,1.5,1.5,0,0,1,1.5-1.5m0-1a2.5,2.5,0,1,0,2.5,2.5,2.5,2.5,0,0,0-2.5-2.5Z" transform="translate(-3 5.33)"/></g><g class="cls-3"><circle class="cls-4" cx="2104.67" cy="2949.67" r="2"/><path class="cls-4" d="M2107.67,2942.83a1.5,1.5,0,1,1-1.5,1.5,1.51,1.51,0,0,1,1.5-1.5m0-1a2.5,2.5,0,1,0,2.5,2.5,2.5,2.5,0,0,0-2.5-2.5Z" transform="translate(-3 5.33)"/></g><g class="cls-3"><circle class="cls-4" cx="2285.67" cy="3301.67" r="2"/><path class="cls-4" d="M2288.67,3294.83a1.5,1.5,0,1,1-1.5,1.5,1.51,1.51,0,0,1,1.5-1.5m0-1a2.5,2.5,0,1,0,2.5,2.5,2.5,2.5,0,0,0-2.5-2.5Z" transform="translate(-3 5.33)"/></g><g class="cls-3"><circle class="cls-4" cx="2411.33" cy="3087" r="2"/><path class="cls-4" d="M2414.33,3080.17a1.5,1.5,0,1,1-1.5,1.5,1.5,1.5,0,0,1,1.5-1.5m0-1a2.5,2.5,0,1,0,2.5,2.5,2.5,2.5,0,0,0-2.5-2.5Z" transform="translate(-3 5.33)"/></g><g class="cls-3"><circle class="cls-4" cx="3362" cy="3087" r="2"/><path class="cls-4" d="M3365,3080.17a1.5,1.5,0,1,1-1.5,1.5,1.5,1.5,0,0,1,1.5-1.5m0-1a2.5,2.5,0,1,0,2.5,2.5,2.5,2.5,0,0,0-2.5-2.5Z" transform="translate(-3 5.33)"/></g><g class="cls-3"><circle class="cls-4" cx="3414" cy="3368.33" r="2"/><path class="cls-4" d="M3417,3361.5a1.5,1.5,0,1,1-1.5,1.5,1.5,1.5,0,0,1,1.5-1.5m0-1a2.5,2.5,0,1,0,2.5,2.5,2.5,2.5,0,0,0-2.5-2.5Z" transform="translate(-3 5.33)"/></g><g class="cls-3"><circle class="cls-4" cx="3514" cy="2920.33" r="2"/><path class="cls-4" d="M3517,2913.5a1.5,1.5,0,1,1-1.5,1.5,1.5,1.5,0,0,1,1.5-1.5m0-1a2.5,2.5,0,1,0,2.5,2.5,2.5,2.5,0,0,0-2.5-2.5Z" transform="translate(-3 5.33)"/></g><g class="cls-3"><circle class="cls-4" cx="3382" cy="1704.33" r="2"/><path class="cls-4" d="M3385,1697.5a1.5,1.5,0,1,1-1.5,1.5,1.5,1.5,0,0,1,1.5-1.5m0-1a2.5,2.5,0,1,0,2.5,2.5,2.5,2.5,0,0,0-2.5-2.5Z" transform="translate(-3 5.33)"/></g><g class="cls-3"><circle class="cls-4" cx="4054" cy="2613.67" r="2"/><path class="cls-4" d="M4057,2606.83a1.5,1.5,0,1,1-1.5,1.5,1.5,1.5,0,0,1,1.5-1.5m0-1a2.5,2.5,0,1,0,2.5,2.5,2.5,2.5,0,0,0-2.5-2.5Z" transform="translate(-3 5.33)"/></g><g class="cls-3"><circle class="cls-4" cx="4278" cy="507" r="2"/><path class="cls-4" d="M4281,500.17a1.5,1.5,0,1,1-1.5,1.5,1.5,1.5,0,0,1,1.5-1.5m0-1a2.5,2.5,0,1,0,2.5,2.5,2.5,2.5,0,0,0-2.5-2.5Z" transform="translate(-3 5.33)"/></g><g class="cls-3"><circle class="cls-4" cx="2262" cy="462" r="2"/><path class="cls-4" d="M2265,455.17a1.5,1.5,0,1,1-1.5,1.5,1.5,1.5,0,0,1,1.5-1.5m0-1a2.5,2.5,0,1,0,2.5,2.5,2.5,2.5,0,0,0-2.5-2.5Z" transform="translate(-3 5.33)"/></g><g class="cls-3"><circle class="cls-4" cx="2390" cy="1717.67" r="2"/><path class="cls-4" d="M2393,1710.83a1.5,1.5,0,1,1-1.5,1.5,1.5,1.5,0,0,1,1.5-1.5m0-1a2.5,2.5,0,1,0,2.5,2.5,2.5,2.5,0,0,0-2.5-2.5Z" transform="translate(-3 5.33)"/></g><g class="cls-3"><circle class="cls-4" cx="2678" cy="1845.67" r="2"/><path class="cls-4" d="M2681,1838.83a1.5,1.5,0,1,1-1.5,1.5,1.5,1.5,0,0,1,1.5-1.5m0-1a2.5,2.5,0,1,0,2.5,2.5,2.5,2.5,0,0,0-2.5-2.5Z" transform="translate(-3 5.33)"/></g><g class="cls-3"><circle class="cls-4" cx="2678" cy="1173.67" r="2"/><path class="cls-4" d="M2681,1166.83a1.5,1.5,0,1,1-1.5,1.5,1.5,1.5,0,0,1,1.5-1.5m0-1a2.5,2.5,0,1,0,2.5,2.5,2.5,2.5,0,0,0-2.5-2.5Z" transform="translate(-3 5.33)"/></g><g class="cls-3"><circle class="cls-4" cx="2870" cy="264.33" r="2"/><path class="cls-4" d="M2873,257.5a1.5,1.5,0,1,1-1.5,1.5,1.5,1.5,0,0,1,1.5-1.5m0-1a2.5,2.5,0,1,0,2.5,2.5,2.5,2.5,0,0,0-2.5-2.5Z" transform="translate(-3 5.33)"/></g><g class="cls-3"><circle class="cls-4" cx="3030" cy="616.33" r="2"/><path class="cls-4" d="M3033,609.5a1.5,1.5,0,1,1-1.5,1.5,1.5,1.5,0,0,1,1.5-1.5m0-1a2.5,2.5,0,1,0,2.5,2.5,2.5,2.5,0,0,0-2.5-2.5Z" transform="translate(-3 5.33)"/></g><g class="cls-3"><circle class="cls-4" cx="2806" cy="744.33" r="2"/><path class="cls-4" d="M2809,737.5a1.5,1.5,0,1,1-1.5,1.5,1.5,1.5,0,0,1,1.5-1.5m0-1a2.5,2.5,0,1,0,2.5,2.5,2.5,2.5,0,0,0-2.5-2.5Z" transform="translate(-3 5.33)"/></g><g class="cls-3"><circle class="cls-4" cx="3798" cy="1032.33" r="2"/><path class="cls-4" d="M3801,1025.5a1.5,1.5,0,1,1-1.5,1.5,1.5,1.5,0,0,1,1.5-1.5m0-1a2.5,2.5,0,1,0,2.5,2.5,2.5,2.5,0,0,0-2.5-2.5Z" transform="translate(-3 5.33)"/></g><g class="cls-3"><circle class="cls-4" cx="3849" cy="1352.33" r="2"/><path class="cls-4" d="M3852,1345.5a1.5,1.5,0,1,1-1.5,1.5,1.5,1.5,0,0,1,1.5-1.5m0-1a2.5,2.5,0,1,0,2.5,2.5,2.5,2.5,0,0,0-2.5-2.5Z" transform="translate(-3 5.33)"/></g><g class="cls-3"><circle class="cls-4" cx="4086" cy="699" r="2"/><path class="cls-4" d="M4089,692.17a1.5,1.5,0,1,1-1.5,1.5,1.5,1.5,0,0,1,1.5-1.5m0-1a2.5,2.5,0,1,0,2.5,2.5,2.5,2.5,0,0,0-2.5-2.5Z" transform="translate(-3 5.33)"/></g><g class="cls-3"><circle class="cls-4" cx="4086" cy="1051" r="2"/><path class="cls-4" d="M4089,1044.17a1.5,1.5,0,1,1-1.5,1.5,1.5,1.5,0,0,1,1.5-1.5m0-1a2.5,2.5,0,1,0,2.5,2.5,2.5,2.5,0,0,0-2.5-2.5Z" transform="translate(-3 5.33)"/></g><g class="cls-3"><circle class="cls-4" cx="4086" cy="1979" r="2"/><path class="cls-4" d="M4089,1972.17a1.5,1.5,0,1,1-1.5,1.5,1.5,1.5,0,0,1,1.5-1.5m0-1a2.5,2.5,0,1,0,2.5,2.5,2.5,2.5,0,0,0-2.5-2.5Z" transform="translate(-3 5.33)"/></g><g class="cls-3"><circle class="cls-4" cx="4566" cy="1037.67" r="2"/><path class="cls-4" d="M4569,1030.83a1.5,1.5,0,1,1-1.5,1.5,1.5,1.5,0,0,1,1.5-1.5m0-1a2.5,2.5,0,1,0,2.5,2.5,2.5,2.5,0,0,0-2.5-2.5Z" transform="translate(-3 5.33)"/></g><g class="cls-3"><circle class="cls-4" cx="4566" cy="1165.67" r="2"/><path class="cls-4" d="M4569,1158.83a1.5,1.5,0,1,1-1.5,1.5,1.5,1.5,0,0,1,1.5-1.5m0-1a2.5,2.5,0,1,0,2.5,2.5,2.5,2.5,0,0,0-2.5-2.5Z" transform="translate(-3 5.33)"/></g><g class="cls-3"><circle class="cls-4" cx="4566" cy="1709.67" r="2"/><path class="cls-4" d="M4569,1702.83a1.5,1.5,0,1,1-1.5,1.5,1.5,1.5,0,0,1,1.5-1.5m0-1a2.5,2.5,0,1,0,2.5,2.5,2.5,2.5,0,0,0-2.5-2.5Z" transform="translate(-3 5.33)"/></g><g class="cls-3"><circle class="cls-4" cx="4694" cy="2317.67" r="2"/><path class="cls-4" d="M4697,2310.83a1.5,1.5,0,1,1-1.5,1.5,1.5,1.5,0,0,1,1.5-1.5m0-1a2.5,2.5,0,1,0,2.5,2.5,2.5,2.5,0,0,0-2.5-2.5Z" transform="translate(-3 5.33)"/></g><g class="cls-3"><circle class="cls-4" cx="4822" cy="2861.67" r="2"/><path class="cls-4" d="M4825,2854.83a1.5,1.5,0,1,1-1.5,1.5,1.5,1.5,0,0,1,1.5-1.5m0-1a2.5,2.5,0,1,0,2.5,2.5,2.5,2.5,0,0,0-2.5-2.5Z" transform="translate(-3 5.33)"/></g><g class="cls-3"><circle class="cls-4" cx="4406" cy="2765.67" r="2"/><path class="cls-4" d="M4409,2758.83a1.5,1.5,0,1,1-1.5,1.5,1.5,1.5,0,0,1,1.5-1.5m0-1a2.5,2.5,0,1,0,2.5,2.5,2.5,2.5,0,0,0-2.5-2.5Z" transform="translate(-3 5.33)"/></g><g class="cls-3"><circle class="cls-4" cx="4502" cy="4155" r="2"/><path class="cls-4" d="M4505,4148.17a1.5,1.5,0,1,1-1.5,1.5,1.5,1.5,0,0,1,1.5-1.5m0-1a2.5,2.5,0,1,0,2.5,2.5,2.5,2.5,0,0,0-2.5-2.5Z" transform="translate(-3 5.33)"/></g><g class="cls-3"><circle class="cls-4" cx="4533" cy="3419" r="2"/><path class="cls-4" d="M4536,3412.17a1.5,1.5,0,1,1-1.5,1.5,1.5,1.5,0,0,1,1.5-1.5m0-1a2.5,2.5,0,1,0,2.5,2.5,2.5,2.5,0,0,0-2.5-2.5Z" transform="translate(-3 5.33)"/></g><g class="cls-3"><circle class="cls-4" cx="4630" cy="3515" r="2"/><path class="cls-4" d="M4633,3508.17a1.5,1.5,0,1,1-1.5,1.5,1.5,1.5,0,0,1,1.5-1.5m0-1a2.5,2.5,0,1,0,2.5,2.5,2.5,2.5,0,0,0-2.5-2.5Z" transform="translate(-3 5.33)"/></g><g class="cls-3"><circle class="cls-4" cx="4886" cy="3963" r="2"/><path class="cls-4" d="M4889,3956.17a1.5,1.5,0,1,1-1.5,1.5,1.5,1.5,0,0,1,1.5-1.5m0-1a2.5,2.5,0,1,0,2.5,2.5,2.5,2.5,0,0,0-2.5-2.5Z" transform="translate(-3 5.33)"/></g><g class="cls-3"><circle class="cls-4" cx="4918" cy="3291" r="2"/><path class="cls-4" d="M4921,3284.17a1.5,1.5,0,1,1-1.5,1.5,1.5,1.5,0,0,1,1.5-1.5m0-1a2.5,2.5,0,1,0,2.5,2.5,2.5,2.5,0,0,0-2.5-2.5Z" transform="translate(-3 5.33)"/></g><g class="cls-3"><circle class="cls-4" cx="4150" cy="3067" r="2"/><path class="cls-4" d="M4153,3060.17a1.5,1.5,0,1,1-1.5,1.5,1.5,1.5,0,0,1,1.5-1.5m0-1a2.5,2.5,0,1,0,2.5,2.5,2.5,2.5,0,0,0-2.5-2.5Z" transform="translate(-3 5.33)"/></g><g class="cls-3"><circle class="cls-4" cx="4150" cy="3803" r="2"/><path class="cls-4" d="M4153,3796.17a1.5,1.5,0,1,1-1.5,1.5,1.5,1.5,0,0,1,1.5-1.5m0-1a2.5,2.5,0,1,0,2.5,2.5,2.5,2.5,0,0,0-2.5-2.5Z" transform="translate(-3 5.33)"/></g><g class="cls-3"><circle class="cls-4" cx="4150" cy="4347" r="2"/><path class="cls-4" d="M4153,4340.17a1.5,1.5,0,1,1-1.5,1.5,1.5,1.5,0,0,1,1.5-1.5m0-1a2.5,2.5,0,1,0,2.5,2.5,2.5,2.5,0,0,0-2.5-2.5Z" transform="translate(-3 5.33)"/></g><g class="cls-3"><circle class="cls-4" cx="3542" cy="4315" r="2"/><path class="cls-4" d="M3545,4308.17a1.5,1.5,0,1,1-1.5,1.5,1.5,1.5,0,0,1,1.5-1.5m0-1a2.5,2.5,0,1,0,2.5,2.5,2.5,2.5,0,0,0-2.5-2.5Z" transform="translate(-3 5.33)"/></g><g class="cls-3"><circle class="cls-4" cx="3030" cy="3245.67" r="2"/><path class="cls-4" d="M3033,3238.83a1.5,1.5,0,1,1-1.5,1.5,1.5,1.5,0,0,1,1.5-1.5m0-1a2.5,2.5,0,1,0,2.5,2.5,2.5,2.5,0,0,0-2.5-2.5Z" transform="translate(-3 5.33)"/></g><g class="cls-3"><circle class="cls-4" cx="3030" cy="3821.67" r="2"/><path class="cls-4" d="M3033,3814.83a1.5,1.5,0,1,1-1.5,1.5,1.5,1.5,0,0,1,1.5-1.5m0-1a2.5,2.5,0,1,0,2.5,2.5,2.5,2.5,0,0,0-2.5-2.5Z" transform="translate(-3 5.33)"/></g><g class="cls-3"><circle class="cls-4" cx="3030" cy="4525.67" r="2"/><path class="cls-4" d="M3033,4518.83a1.5,1.5,0,1,1-1.5,1.5,1.5,1.5,0,0,1,1.5-1.5m0-1a2.5,2.5,0,1,0,2.5,2.5,2.5,2.5,0,0,0-2.5-2.5Z" transform="translate(-3 5.33)"/></g><g class="cls-3"><circle class="cls-4" cx="2454" cy="4653.67" r="2"/><path class="cls-4" d="M2457,4646.83a1.5,1.5,0,1,1-1.5,1.5,1.5,1.5,0,0,1,1.5-1.5m0-1a2.5,2.5,0,1,0,2.5,2.5,2.5,2.5,0,0,0-2.5-2.5Z" transform="translate(-3 5.33)"/></g><g class="cls-3"><circle class="cls-4" cx="2454" cy="4109.67" r="2"/><path class="cls-4" d="M2457,4102.83a1.5,1.5,0,1,1-1.5,1.5,1.5,1.5,0,0,1,1.5-1.5m0-1a2.5,2.5,0,1,0,2.5,2.5,2.5,2.5,0,0,0-2.5-2.5Z" transform="translate(-3 5.33)"/></g><g class="cls-3"><circle class="cls-4" cx="2102" cy="3853.67" r="2"/><path class="cls-4" d="M2105,3846.83a1.5,1.5,0,1,1-1.5,1.5,1.5,1.5,0,0,1,1.5-1.5m0-1a2.5,2.5,0,1,0,2.5,2.5,2.5,2.5,0,0,0-2.5-2.5Z" transform="translate(-3 5.33)"/></g><g class="cls-3"><circle class="cls-4" cx="2230" cy="4301.67" r="2"/><path class="cls-4" d="M2233,4294.83a1.5,1.5,0,1,1-1.5,1.5,1.5,1.5,0,0,1,1.5-1.5m0-1a2.5,2.5,0,1,0,2.5,2.5,2.5,2.5,0,0,0-2.5-2.5Z" transform="translate(-3 5.33)"/></g><g class="cls-3"><circle class="cls-4" cx="1462" cy="4461.67" r="2"/><path class="cls-4" d="M1465,4454.83a1.5,1.5,0,1,1-1.5,1.5,1.5,1.5,0,0,1,1.5-1.5m0-1a2.5,2.5,0,1,0,2.5,2.5,2.5,2.5,0,0,0-2.5-2.5Z" transform="translate(-3 5.33)"/></g><g class="cls-3"><circle class="cls-4" cx="1814" cy="4717.67" r="2"/><path class="cls-4" d="M1817,4710.83a1.5,1.5,0,1,1-1.5,1.5,1.5,1.5,0,0,1,1.5-1.5m0-1a2.5,2.5,0,1,0,2.5,2.5,2.5,2.5,0,0,0-2.5-2.5Z" transform="translate(-3 5.33)"/></g><g class="cls-3"><circle class="cls-4" cx="1846" cy="3885.67" r="2"/><path class="cls-4" d="M1849,3878.83a1.5,1.5,0,1,1-1.5,1.5,1.5,1.5,0,0,1,1.5-1.5m0-1a2.5,2.5,0,1,0,2.5,2.5,2.5,2.5,0,0,0-2.5-2.5Z" transform="translate(-3 5.33)"/></g><g class="cls-3"><circle class="cls-4" cx="1366" cy="3629.67" r="2"/><path class="cls-4" d="M1369,3622.83a1.5,1.5,0,1,1-1.5,1.5,1.5,1.5,0,0,1,1.5-1.5m0-1a2.5,2.5,0,1,0,2.5,2.5,2.5,2.5,0,0,0-2.5-2.5Z" transform="translate(-3 5.33)"/></g><g class="cls-3"><circle class="cls-4" cx="1400" cy="3981.67" r="2"/><path class="cls-4" d="M1403,3974.83a1.5,1.5,0,1,1-1.5,1.5,1.5,1.5,0,0,1,1.5-1.5m0-1a2.5,2.5,0,1,0,2.5,2.5,2.5,2.5,0,0,0-2.5-2.5Z" transform="translate(-3 5.33)"/></g><g class="cls-3"><circle class="cls-4" cx="1270" cy="4269.67" r="2"/><path class="cls-4" d="M1273,4262.83a1.5,1.5,0,1,1-1.5,1.5,1.5,1.5,0,0,1,1.5-1.5m0-1a2.5,2.5,0,1,0,2.5,2.5,2.5,2.5,0,0,0-2.5-2.5Z" transform="translate(-3 5.33)"/></g><g class="cls-3"><circle class="cls-4" cx="1174" cy="3149.67" r="2"/><path class="cls-4" d="M1177,3142.83a1.5,1.5,0,1,1-1.5,1.5,1.5,1.5,0,0,1,1.5-1.5m0-1a2.5,2.5,0,1,0,2.5,2.5,2.5,2.5,0,0,0-2.5-2.5Z" transform="translate(-3 5.33)"/></g><g class="cls-3"><circle class="cls-4" cx="1302" cy="2861.67" r="2"/><path class="cls-4" d="M1305,2854.83a1.5,1.5,0,1,1-1.5,1.5,1.5,1.5,0,0,1,1.5-1.5m0-1a2.5,2.5,0,1,0,2.5,2.5,2.5,2.5,0,0,0-2.5-2.5Z" transform="translate(-3 5.33)"/></g><g class="cls-3"><circle class="cls-4" cx="1350" cy="2253.67" r="2"/><path class="cls-4" d="M1353,2246.83a1.5,1.5,0,1,1-1.5,1.5,1.5,1.5,0,0,1,1.5-1.5m0-1a2.5,2.5,0,1,0,2.5,2.5,2.5,2.5,0,0,0-2.5-2.5Z" transform="translate(-3 5.33)"/></g><g class="cls-3"><circle class="cls-4" cx="1251" cy="1645.67" r="2"/><path class="cls-4" d="M1254,1638.83a1.5,1.5,0,1,1-1.5,1.5,1.5,1.5,0,0,1,1.5-1.5m0-1a2.5,2.5,0,1,0,2.5,2.5,2.5,2.5,0,0,0-2.5-2.5Z" transform="translate(-3 5.33)"/></g><g class="cls-3"><circle class="cls-4" cx="1590" cy="1645.67" r="2"/><path class="cls-4" d="M1593,1638.83a1.5,1.5,0,1,1-1.5,1.5,1.5,1.5,0,0,1,1.5-1.5m0-1a2.5,2.5,0,1,0,2.5,2.5,2.5,2.5,0,0,0-2.5-2.5Z" transform="translate(-3 5.33)"/></g><g class="cls-3"><circle class="cls-4" cx="1622" cy="1421.67" r="2"/><path class="cls-4" d="M1625,1414.83a1.5,1.5,0,1,1-1.5,1.5,1.5,1.5,0,0,1,1.5-1.5m0-1a2.5,2.5,0,1,0,2.5,2.5,2.5,2.5,0,0,0-2.5-2.5Z" transform="translate(-3 5.33)"/></g><g class="cls-3"><circle class="cls-4" cx="1942" cy="1837.67" r="2"/><path class="cls-4" d="M1945,1830.83a1.5,1.5,0,1,1-1.5,1.5,1.5,1.5,0,0,1,1.5-1.5m0-1a2.5,2.5,0,1,0,2.5,2.5,2.5,2.5,0,0,0-2.5-2.5Z" transform="translate(-3 5.33)"/></g><g class="cls-3"><circle class="cls-4" cx="2070" cy="1421.67" r="2"/><path class="cls-4" d="M2073,1414.83a1.5,1.5,0,1,1-1.5,1.5,1.5,1.5,0,0,1,1.5-1.5m0-1a2.5,2.5,0,1,0,2.5,2.5,2.5,2.5,0,0,0-2.5-2.5Z" transform="translate(-3 5.33)"/></g><g class="cls-3"><circle class="cls-4" cx="2230" cy="941.67" r="2"/><path class="cls-4" d="M2233,934.83a1.5,1.5,0,1,1-1.5,1.5,1.5,1.5,0,0,1,1.5-1.5m0-1a2.5,2.5,0,1,0,2.5,2.5,2.5,2.5,0,0,0-2.5-2.5Z" transform="translate(-3 5.33)"/></g><g class="cls-3"><circle class="cls-4" cx="1430" cy="973.67" r="2"/><path class="cls-4" d="M1433,966.83a1.5,1.5,0,1,1-1.5,1.5,1.5,1.5,0,0,1,1.5-1.5m0-1a2.5,2.5,0,1,0,2.5,2.5,2.5,2.5,0,0,0-2.5-2.5Z" transform="translate(-3 5.33)"/></g><g class="cls-3"><circle class="cls-4" cx="950" cy="717.67" r="2"/><path class="cls-4" d="M953,710.83a1.5,1.5,0,1,1-1.5,1.5,1.5,1.5,0,0,1,1.5-1.5m0-1a2.5,2.5,0,1,0,2.5,2.5,2.5,2.5,0,0,0-2.5-2.5Z" transform="translate(-3 5.33)"/></g><g class="cls-3"><circle class="cls-4" cx="1206" cy="1261.67" r="2"/><path class="cls-4" d="M1209,1254.83a1.5,1.5,0,1,1-1.5,1.5,1.5,1.5,0,0,1,1.5-1.5m0-1a2.5,2.5,0,1,0,2.5,2.5,2.5,2.5,0,0,0-2.5-2.5Z" transform="translate(-3 5.33)"/></g><g class="cls-3"><circle class="cls-4" cx="790" cy="1453.67" r="2"/><path class="cls-4" d="M793,1446.83a1.5,1.5,0,1,1-1.5,1.5,1.5,1.5,0,0,1,1.5-1.5m0-1a2.5,2.5,0,1,0,2.5,2.5,2.5,2.5,0,0,0-2.5-2.5Z" transform="translate(-3 5.33)"/></g><g class="cls-3"><circle class="cls-4" cx="790" cy="1965.67" r="2"/><path class="cls-4" d="M793,1958.83a1.5,1.5,0,1,1-1.5,1.5,1.5,1.5,0,0,1,1.5-1.5m0-1a2.5,2.5,0,1,0,2.5,2.5,2.5,2.5,0,0,0-2.5-2.5Z" transform="translate(-3 5.33)"/></g><g class="cls-3"><circle class="cls-4" cx="374" cy="2253.67" r="2"/><path class="cls-4" d="M377,2246.83a1.5,1.5,0,1,1-1.5,1.5,1.5,1.5,0,0,1,1.5-1.5m0-1a2.5,2.5,0,1,0,2.5,2.5,2.5,2.5,0,0,0-2.5-2.5Z" transform="translate(-3 5.33)"/></g><g class="cls-3"><circle class="cls-4" cx="630" cy="2797.67" r="2"/><path class="cls-4" d="M633,2790.83a1.5,1.5,0,1,1-1.5,1.5,1.5,1.5,0,0,1,1.5-1.5m0-1a2.5,2.5,0,1,0,2.5,2.5,2.5,2.5,0,0,0-2.5-2.5Z" transform="translate(-3 5.33)"/></g><g class="cls-3"><circle class="cls-4" cx="918" cy="2605.67" r="2"/><path class="cls-4" d="M921,2598.83a1.5,1.5,0,1,1-1.5,1.5,1.5,1.5,0,0,1,1.5-1.5m0-1a2.5,2.5,0,1,0,2.5,2.5,2.5,2.5,0,0,0-2.5-2.5Z" transform="translate(-3 5.33)"/></g><g class="cls-3"><circle class="cls-4" cx="918" cy="3629.67" r="2"/><path class="cls-4" d="M921,3622.83a1.5,1.5,0,1,1-1.5,1.5,1.5,1.5,0,0,1,1.5-1.5m0-1a2.5,2.5,0,1,0,2.5,2.5,2.5,2.5,0,0,0-2.5-2.5Z" transform="translate(-3 5.33)"/></g><g class="cls-3"><circle class="cls-4" cx="822" cy="4045.67" r="2"/><path class="cls-4" d="M825,4038.83a1.5,1.5,0,1,1-1.5,1.5,1.5,1.5,0,0,1,1.5-1.5m0-1a2.5,2.5,0,1,0,2.5,2.5,2.5,2.5,0,0,0-2.5-2.5Z" transform="translate(-3 5.33)"/></g><g class="cls-3"><circle class="cls-4" cx="1078" cy="3917.67" r="2"/><path class="cls-4" d="M1081,3910.83a1.5,1.5,0,1,1-1.5,1.5,1.5,1.5,0,0,1,1.5-1.5m0-1a2.5,2.5,0,1,0,2.5,2.5,2.5,2.5,0,0,0-2.5-2.5Z" transform="translate(-3 5.33)"/></g><g class="cls-3"><circle class="cls-4" cx="662" cy="4461.67" r="2"/><path class="cls-4" d="M665,4454.83a1.5,1.5,0,1,1-1.5,1.5,1.5,1.5,0,0,1,1.5-1.5m0-1a2.5,2.5,0,1,0,2.5,2.5,2.5,2.5,0,0,0-2.5-2.5Z" transform="translate(-3 5.33)"/></g><g class="cls-3"><circle class="cls-4" cx="918" cy="4525.67" r="2"/><path class="cls-4" d="M921,4518.83a1.5,1.5,0,1,1-1.5,1.5,1.5,1.5,0,0,1,1.5-1.5m0-1a2.5,2.5,0,1,0,2.5,2.5,2.5,2.5,0,0,0-2.5-2.5Z" transform="translate(-3 5.33)"/></g><g class="cls-3"><circle class="cls-4" cx="534" cy="3437.67" r="2"/><path class="cls-4" d="M537,3430.83a1.5,1.5,0,1,1-1.5,1.5,1.5,1.5,0,0,1,1.5-1.5m0-1a2.5,2.5,0,1,0,2.5,2.5,2.5,2.5,0,0,0-2.5-2.5Z" transform="translate(-3 5.33)"/></g><g class="cls-3"><circle class="cls-4" cx="438" cy="781.67" r="2"/><path class="cls-4" d="M441,774.83a1.5,1.5,0,1,1-1.5,1.5,1.5,1.5,0,0,1,1.5-1.5m0-1a2.5,2.5,0,1,0,2.5,2.5,2.5,2.5,0,0,0-2.5-2.5Z" transform="translate(-3 5.33)"/></g><g class="cls-3"><circle class="cls-4" cx="1494" cy="365.67" r="2"/><path class="cls-4" d="M1497,358.83a1.5,1.5,0,1,1-1.5,1.5,1.5,1.5,0,0,1,1.5-1.5m0-1a2.5,2.5,0,1,0,2.5,2.5,2.5,2.5,0,0,0-2.5-2.5Z" transform="translate(-3 5.33)"/></g><g class="cls-3"><circle class="cls-4" cx="1782" cy="685.67" r="2"/><path class="cls-4" d="M1785,678.83a1.5,1.5,0,1,1-1.5,1.5,1.5,1.5,0,0,1,1.5-1.5m0-1a2.5,2.5,0,1,0,2.5,2.5,2.5,2.5,0,0,0-2.5-2.5Z" transform="translate(-3 5.33)"/></g><g class="cls-3"><circle class="cls-4" cx="3350" cy="1133.67" r="2"/><path class="cls-4" d="M3353,1126.83a1.5,1.5,0,1,1-1.5,1.5,1.5,1.5,0,0,1,1.5-1.5m0-1a2.5,2.5,0,1,0,2.5,2.5,2.5,2.5,0,0,0-2.5-2.5Z" transform="translate(-3 5.33)"/></g><g class="cls-3"><circle class="cls-4" cx="3574" cy="461.67" r="2"/><path class="cls-4" d="M3577,454.83a1.5,1.5,0,1,1-1.5,1.5,1.5,1.5,0,0,1,1.5-1.5m0-1a2.5,2.5,0,1,0,2.5,2.5,2.5,2.5,0,0,0-2.5-2.5Z" transform="translate(-3 5.33)"/></g><g class="cls-3"><circle class="cls-4" cx="4918" cy="557.67" r="2"/><path class="cls-4" d="M4921,550.83a1.5,1.5,0,1,1-1.5,1.5,1.5,1.5,0,0,1,1.5-1.5m0-1a2.5,2.5,0,1,0,2.5,2.5,2.5,2.5,0,0,0-2.5-2.5Z" transform="translate(-3 5.33)"/></g><g class="cls-3"><circle class="cls-4" cx="4822" cy="1773.67" r="2"/><path class="cls-4" d="M4825,1766.83a1.5,1.5,0,1,1-1.5,1.5,1.5,1.5,0,0,1,1.5-1.5m0-1a2.5,2.5,0,1,0,2.5,2.5,2.5,2.5,0,0,0-2.5-2.5Z" transform="translate(-3 5.33)"/></g><g class="cls-3"><circle class="cls-4" cx="4886" cy="2381.67" r="2"/><path class="cls-4" d="M4889,2374.83a1.5,1.5,0,1,1-1.5,1.5,1.5,1.5,0,0,1,1.5-1.5m0-1a2.5,2.5,0,1,0,2.5,2.5,2.5,2.5,0,0,0-2.5-2.5Z" transform="translate(-3 5.33)"/></g><g class="cls-3"><circle class="cls-4" cx="3287.33" cy="2382.33" r="2"/><path class="cls-4" d="M3290.33,2375.5a1.5,1.5,0,1,1-1.5,1.5,1.5,1.5,0,0,1,1.5-1.5m0-1a2.5,2.5,0,1,0,2.5,2.5,2.5,2.5,0,0,0-2.5-2.5Z" transform="translate(-3 5.33)"/></g><g class="cls-3"><circle class="cls-4" cx="3182.33" cy="2190.33" r="2"/><path class="cls-4" d="M3185.33,2183.5a1.5,1.5,0,1,1-1.5,1.5,1.5,1.5,0,0,1,1.5-1.5m0-1a2.5,2.5,0,1,0,2.5,2.5,2.5,2.5,0,0,0-2.5-2.5Z" transform="translate(-3 5.33)"/></g><g class="cls-3"><circle class="cls-4" cx="3671.33" cy="2318.33" r="2"/><path class="cls-4" d="M3674.33,2311.5a1.5,1.5,0,1,1-1.5,1.5,1.5,1.5,0,0,1,1.5-1.5m0-1a2.5,2.5,0,1,0,2.5,2.5,2.5,2.5,0,0,0-2.5-2.5Z" transform="translate(-3 5.33)"/></g><g class="cls-3"><circle class="cls-4" cx="3799.33" cy="2126.33" r="2"/><path class="cls-4" d="M3802.33,2119.5a1.5,1.5,0,1,1-1.5,1.5,1.5,1.5,0,0,1,1.5-1.5m0-1a2.5,2.5,0,1,0,2.5,2.5,2.5,2.5,0,0,0-2.5-2.5Z" transform="translate(-3 5.33)"/></g><g class="cls-3"><circle class="cls-4" cx="3159.33" cy="1998.33" r="2"/><path class="cls-4" d="M3162.33,1991.5a1.5,1.5,0,1,1-1.5,1.5,1.5,1.5,0,0,1,1.5-1.5m0-1a2.5,2.5,0,1,0,2.5,2.5,2.5,2.5,0,0,0-2.5-2.5Z" transform="translate(-3 5.33)"/></g><g class="cls-3"><circle class="cls-4" cx="2903.33" cy="2318.33" r="2"/><path class="cls-4" d="M2906.33,2311.5a1.5,1.5,0,1,1-1.5,1.5,1.5,1.5,0,0,1,1.5-1.5m0-1a2.5,2.5,0,1,0,2.5,2.5,2.5,2.5,0,0,0-2.5-2.5Z" transform="translate(-3 5.33)"/></g><g class="cls-3"><circle class="cls-4" cx="2967.33" cy="2830.33" r="2"/><path class="cls-4" d="M2970.33,2823.5a1.5,1.5,0,1,1-1.5,1.5,1.5,1.5,0,0,1,1.5-1.5m0-1a2.5,2.5,0,1,0,2.5,2.5,2.5,2.5,0,0,0-2.5-2.5Z" transform="translate(-3 5.33)"/></g><g class="cls-3"><circle class="cls-4" cx="2839.33" cy="3598.33" r="2"/><path class="cls-4" d="M2842.33,3591.5a1.5,1.5,0,1,1-1.5,1.5,1.5,1.5,0,0,1,1.5-1.5m0-1a2.5,2.5,0,1,0,2.5,2.5,2.5,2.5,0,0,0-2.5-2.5Z" transform="translate(-3 5.33)"/></g><g class="cls-3"><circle class="cls-4" cx="3223.33" cy="2510.33" r="2"/><path class="cls-4" d="M3226.33,2503.5a1.5,1.5,0,1,1-1.5,1.5,1.5,1.5,0,0,1,1.5-1.5m0-1a2.5,2.5,0,1,0,2.5,2.5,2.5,2.5,0,0,0-2.5-2.5Z" transform="translate(-3 5.33)"/></g><g class="cls-7"><circle class="cls-4" cx="2531" cy="2174.33" r="3"/><path class="cls-4" d="M2534,2166.5a2.5,2.5,0,1,1-2.5,2.5,2.5,2.5,0,0,1,2.5-2.5m0-1a3.5,3.5,0,1,0,3.5,3.5,3.5,3.5,0,0,0-3.5-3.5Z" transform="translate(-3 5.33)"/></g><g class="cls-7"><circle class="cls-4" cx="3215.33" cy="4956.67" r="3"/><path class="cls-4" d="M3218.33,4948.83a2.5,2.5,0,1,1-2.5,2.5,2.51,2.51,0,0,1,2.5-2.5m0-1a3.5,3.5,0,1,0,3.5,3.5,3.5,3.5,0,0,0-3.5-3.5Z" transform="translate(-3 5.33)"/></g><g class="cls-7"><circle class="cls-4" cx="2191.33" cy="4339.67" r="3"/><path class="cls-4" d="M2194.33,4331.83a2.5,2.5,0,1,1-2.5,2.5,2.51,2.51,0,0,1,2.5-2.5m0-1a3.5,3.5,0,1,0,3.5,3.5,3.5,3.5,0,0,0-3.5-3.5Z" transform="translate(-3 5.33)"/></g><g class="cls-7"><circle class="cls-4" cx="2831.33" cy="3251.67" r="3"/><path class="cls-4" d="M2834.33,3243.83a2.5,2.5,0,1,1-2.5,2.5,2.5,2.5,0,0,1,2.5-2.5m0-1a3.5,3.5,0,1,0,3.5,3.5,3.5,3.5,0,0,0-3.5-3.5Z" transform="translate(-3 5.33)"/></g><g class="cls-7"><circle class="cls-4" cx="3078" cy="872.33" r="3"/><path class="cls-4" d="M3081,864.5a2.5,2.5,0,1,1-2.5,2.5,2.5,2.5,0,0,1,2.5-2.5m0-1a3.5,3.5,0,1,0,3.5,3.5,3.5,3.5,0,0,0-3.5-3.5Z" transform="translate(-3 5.33)"/></g><g class="cls-7"><circle class="cls-4" cx="2987" cy="1448.33" r="3"/><path class="cls-4" d="M2990,1440.5a2.5,2.5,0,1,1-2.5,2.5,2.5,2.5,0,0,1,2.5-2.5m0-1a3.5,3.5,0,1,0,3.5,3.5,3.5,3.5,0,0,0-3.5-3.5Z" transform="translate(-3 5.33)"/></g><g class="cls-7"><circle class="cls-4" cx="4038" cy="3080.33" r="3"/><path class="cls-4" d="M4041,3072.5a2.5,2.5,0,1,1-2.5,2.5,2.5,2.5,0,0,1,2.5-2.5m0-1a3.5,3.5,0,1,0,3.5,3.5,3.5,3.5,0,0,0-3.5-3.5Z" transform="translate(-3 5.33)"/></g><g class="cls-7"><circle class="cls-4" cx="1446" cy="1640.33" r="3"/><path class="cls-4" d="M1449,1632.5a2.5,2.5,0,1,1-2.5,2.5,2.5,2.5,0,0,1,2.5-2.5m0-1a3.5,3.5,0,1,0,3.5,3.5,3.5,3.5,0,0,0-3.5-3.5Z" transform="translate(-3 5.33)"/></g><g class="cls-7"><circle class="cls-4" cx="1062" cy="3080.33" r="3"/><path class="cls-4" d="M1065,3072.5a2.5,2.5,0,1,1-2.5,2.5,2.5,2.5,0,0,1,2.5-2.5m0-1a3.5,3.5,0,1,0,3.5,3.5,3.5,3.5,0,0,0-3.5-3.5Z" transform="translate(-3 5.33)"/></g><g class="cls-7"><circle class="cls-4" cx="102" cy="4040.33" r="3"/><path class="cls-4" d="M105,4032.5a2.5,2.5,0,1,1-2.5,2.5,2.5,2.5,0,0,1,2.5-2.5m0-1a3.5,3.5,0,1,0,3.5,3.5,3.5,3.5,0,0,0-3.5-3.5Z" transform="translate(-3 5.33)"/></g><g class="cls-7"><circle class="cls-4" cx="486" cy="3176.33" r="3"/><path class="cls-4" d="M489,3168.5a2.5,2.5,0,1,1-2.5,2.5,2.5,2.5,0,0,1,2.5-2.5m0-1a3.5,3.5,0,1,0,3.5,3.5,3.5,3.5,0,0,0-3.5-3.5Z" transform="translate(-3 5.33)"/></g><g class="cls-7"><circle class="cls-4" cx="486" cy="1832.33" r="3"/><path class="cls-4" d="M489,1824.5a2.5,2.5,0,1,1-2.5,2.5,2.5,2.5,0,0,1,2.5-2.5m0-1a3.5,3.5,0,1,0,3.5,3.5,3.5,3.5,0,0,0-3.5-3.5Z" transform="translate(-3 5.33)"/></g><g class="cls-7"><circle class="cls-4" cx="3582" cy="4026.33" r="3"/><path class="cls-4" d="M3585,4018.5a2.5,2.5,0,1,1-2.5,2.5,2.5,2.5,0,0,1,2.5-2.5m0-1a3.5,3.5,0,1,0,3.5,3.5,3.5,3.5,0,0,0-3.5-3.5Z" transform="translate(-3 5.33)"/></g><g class="cls-8"><circle class="cls-4" cx="3985" cy="3559.33" r="4"/><path class="cls-4" d="M3988,3550.5a3.5,3.5,0,1,1-3.5,3.5,3.5,3.5,0,0,1,3.5-3.5m0-1a4.5,4.5,0,1,0,4.5,4.5,4.49,4.49,0,0,0-4.5-4.5Z" transform="translate(-3 5.33)"/></g><g class="cls-8"><circle class="cls-4" cx="4133" cy="2051.33" r="4"/><path class="cls-4" d="M4136,2042.5a3.5,3.5,0,1,1-3.5,3.5,3.5,3.5,0,0,1,3.5-3.5m0-1a4.5,4.5,0,1,0,4.5,4.5,4.49,4.49,0,0,0-4.5-4.5Z" transform="translate(-3 5.33)"/></g><g class="cls-8"><circle class="cls-4" cx="3262" cy="3273.33" r="4"/><path class="cls-4" d="M3265,3264.5a3.5,3.5,0,1,1-3.5,3.5,3.5,3.5,0,0,1,3.5-3.5m0-1a4.5,4.5,0,1,0,4.5,4.5,4.49,4.49,0,0,0-4.5-4.5Z" transform="translate(-3 5.33)"/></g><g class="cls-8"><circle class="cls-4" cx="3083" cy="2312.33" r="4"/><path class="cls-4" d="M3086,2303.5a3.5,3.5,0,1,1-3.5,3.5,3.5,3.5,0,0,1,3.5-3.5m0-1a4.5,4.5,0,1,0,4.5,4.5,4.49,4.49,0,0,0-4.5-4.5Z" transform="translate(-3 5.33)"/></g><g class="cls-8"><circle class="cls-4" cx="2218" cy="1640.33" r="4"/><path class="cls-4" d="M2221,1631.5a3.5,3.5,0,1,1-3.5,3.5,3.5,3.5,0,0,1,3.5-3.5m0-1a4.5,4.5,0,1,0,4.5,4.5,4.49,4.49,0,0,0-4.5-4.5Z" transform="translate(-3 5.33)"/></g><g class="cls-8"><circle class="cls-4" cx="2794" cy="4232.33" r="4"/><path class="cls-4" d="M2797,4223.5a3.5,3.5,0,1,1-3.5,3.5,3.5,3.5,0,0,1,3.5-3.5m0-1a4.5,4.5,0,1,0,4.5,4.5,4.49,4.49,0,0,0-4.5-4.5Z" transform="translate(-3 5.33)"/></g><g class="cls-8"><circle class="cls-4" cx="1354" cy="3464.33" r="4"/><path class="cls-4" d="M1357,3455.5a3.5,3.5,0,1,1-3.5,3.5,3.5,3.5,0,0,1,3.5-3.5m0-1a4.5,4.5,0,1,0,4.5,4.5,4.49,4.49,0,0,0-4.5-4.5Z" transform="translate(-3 5.33)"/></g><g class="cls-8"><circle class="cls-4" cx="970" cy="1928.33" r="4"/><path class="cls-4" d="M973,1919.5a3.5,3.5,0,1,1-3.5,3.5,3.5,3.5,0,0,1,3.5-3.5m0-1a4.5,4.5,0,1,0,4.5,4.5,4.49,4.49,0,0,0-4.5-4.5Z" transform="translate(-3 5.33)"/></g><g class="cls-8"><circle class="cls-4" cx="970" cy="58.33" r="4"/><path class="cls-4" d="M973,49.5a3.5,3.5,0,1,1-3.5,3.5,3.5,3.5,0,0,1,3.5-3.5m0-1a4.5,4.5,0,1,0,4.5,4.5,4.49,4.49,0,0,0-4.5-4.5Z" transform="translate(-3 5.33)"/></g><g class="cls-8"><circle class="cls-4" cx="726" cy="1160.33" r="4"/><path class="cls-4" d="M729,1151.5a3.5,3.5,0,1,1-3.5,3.5,3.5,3.5,0,0,1,3.5-3.5m0-1a4.5,4.5,0,1,0,4.5,4.5,4.49,4.49,0,0,0-4.5-4.5Z" transform="translate(-3 5.33)"/></g><g class="cls-8"><circle class="cls-4" cx="1450" cy="1352.33" r="4"/><path class="cls-4" d="M1453,1343.5a3.5,3.5,0,1,1-3.5,3.5,3.5,3.5,0,0,1,3.5-3.5m0-1a4.5,4.5,0,1,0,4.5,4.5,4.49,4.49,0,0,0-4.5-4.5Z" transform="translate(-3 5.33)"/></g><g class="cls-8"><circle class="cls-4" cx="2026" cy="1352.33" r="4"/><path class="cls-4" d="M2029,1343.5a3.5,3.5,0,1,1-3.5,3.5,3.5,3.5,0,0,1,3.5-3.5m0-1a4.5,4.5,0,1,0,4.5,4.5,4.49,4.49,0,0,0-4.5-4.5Z" transform="translate(-3 5.33)"/></g><g class="cls-8"><circle class="cls-4" cx="2026" cy="3809.33" r="4"/><path class="cls-4" d="M2029,3800.5a3.5,3.5,0,1,1-3.5,3.5,3.5,3.5,0,0,1,3.5-3.5m0-1a4.5,4.5,0,1,0,4.5,4.5,4.49,4.49,0,0,0-4.5-4.5Z" transform="translate(-3 5.33)"/></g><g class="cls-8"><circle class="cls-4" cx="3754" cy="2984.33" r="4"/><path class="cls-4" d="M3757,2975.5a3.5,3.5,0,1,1-3.5,3.5,3.5,3.5,0,0,1,3.5-3.5m0-1a4.5,4.5,0,1,0,4.5,4.5,4.49,4.49,0,0,0-4.5-4.5Z" transform="translate(-3 5.33)"/></g><g class="cls-8"><circle class="cls-4" cx="1834" cy="2408.33" r="4"/><path class="cls-4" d="M1837,2399.5a3.5,3.5,0,1,1-3.5,3.5,3.5,3.5,0,0,1,3.5-3.5m0-1a4.5,4.5,0,1,0,4.5,4.5,4.49,4.49,0,0,0-4.5-4.5Z" transform="translate(-3 5.33)"/></g><g class="cls-5"><circle class="cls-4" cx="3004" cy="2712.67" r="1"/><path class="cls-4" d="M3007,2706.83a.5.5,0,0,1,.5.5.5.5,0,0,1-1,0,.5.5,0,0,1,.5-.5m0-1a1.5,1.5,0,1,0,1.5,1.5,1.5,1.5,0,0,0-1.5-1.5Z" transform="translate(-3 5.33)"/></g><g class="cls-5"><circle class="cls-4" cx="2892" cy="2568.67" r="1"/><path class="cls-4" d="M2895,2562.83a.5.5,0,0,1,.5.5.5.5,0,0,1-1,0,.5.5,0,0,1,.5-.5m0-1a1.5,1.5,0,1,0,1.5,1.5,1.5,1.5,0,0,0-1.5-1.5Z" transform="translate(-3 5.33)"/></g><g class="cls-5"><circle class="cls-4" cx="2812" cy="2696.67" r="1"/><path class="cls-4" d="M2815,2690.83a.5.5,0,0,1,.5.5.5.5,0,0,1-1,0,.5.5,0,0,1,.5-.5m0-1a1.5,1.5,0,1,0,1.5,1.5,1.5,1.5,0,0,0-1.5-1.5Z" transform="translate(-3 5.33)"/></g><g class="cls-5"><circle class="cls-4" cx="2700" cy="2168.67" r="1"/><path class="cls-4" d="M2703,2162.83a.5.5,0,0,1,.5.5.5.5,0,0,1-1,0,.5.5,0,0,1,.5-.5m0-1a1.5,1.5,0,1,0,1.5,1.5,1.5,1.5,0,0,0-1.5-1.5Z" transform="translate(-3 5.33)"/></g><g class="cls-5"><circle class="cls-4" cx="2680" cy="2296.67" r="1"/><path class="cls-4" d="M2683,2290.83a.5.5,0,0,1,.5.5.5.5,0,0,1-1,0,.5.5,0,0,1,.5-.5m0-1a1.5,1.5,0,1,0,1.5,1.5,1.5,1.5,0,0,0-1.5-1.5Z" transform="translate(-3 5.33)"/></g><g class="cls-5"><circle class="cls-4" cx="2428" cy="2136.67" r="1"/><path class="cls-4" d="M2431,2130.83a.5.5,0,0,1,.5.5.5.5,0,0,1-1,0,.5.5,0,0,1,.5-.5m0-1a1.5,1.5,0,1,0,1.5,1.5,1.5,1.5,0,0,0-1.5-1.5Z" transform="translate(-3 5.33)"/></g><g class="cls-5"><circle class="cls-4" cx="2044" cy="2136.67" r="1"/><path class="cls-4" d="M2047,2130.83a.5.5,0,0,1,.5.5.5.5,0,0,1-1,0,.5.5,0,0,1,.5-.5m0-1a1.5,1.5,0,1,0,1.5,1.5,1.5,1.5,0,0,0-1.5-1.5Z" transform="translate(-3 5.33)"/></g><g class="cls-5"><circle class="cls-4" cx="2044" cy="2328.67" r="1"/><path class="cls-4" d="M2047,2322.83a.5.5,0,0,1,.5.5.5.5,0,0,1-1,0,.5.5,0,0,1,.5-.5m0-1a1.5,1.5,0,1,0,1.5,1.5,1.5,1.5,0,0,0-1.5-1.5Z" transform="translate(-3 5.33)"/></g><g class="cls-5"><circle class="cls-4" cx="2252" cy="1896.67" r="1"/><path class="cls-4" d="M2255,1890.83a.5.5,0,0,1,.5.5.5.5,0,0,1-1,0,.5.5,0,0,1,.5-.5m0-1a1.5,1.5,0,1,0,1.5,1.5,1.5,1.5,0,0,0-1.5-1.5Z" transform="translate(-3 5.33)"/></g><g class="cls-5"><circle class="cls-4" cx="2252" cy="2088.67" r="1"/><path class="cls-4" d="M2255,2082.83a.5.5,0,0,1,.5.5.5.5,0,0,1-1,0,.5.5,0,0,1,.5-.5m0-1a1.5,1.5,0,1,0,1.5,1.5,1.5,1.5,0,0,0-1.5-1.5Z" transform="translate(-3 5.33)"/></g><g class="cls-5"><circle class="cls-4" cx="1658.38" cy="1860.05" r="1"/><path class="cls-4" d="M1661.38,1854.21a.5.5,0,0,1,.5.5.5.5,0,0,1-.5.5.5.5,0,0,1-.5-.5.51.51,0,0,1,.5-.5m0-1a1.5,1.5,0,1,0,1.5,1.5,1.5,1.5,0,0,0-1.5-1.5Z" transform="translate(-3 5.33)"/></g><g class="cls-5"><circle class="cls-4" cx="1658.38" cy="3871.48" r="1"/><path class="cls-4" d="M1661.38,3865.64a.5.5,0,0,1,.5.5.5.5,0,0,1-.5.5.5.5,0,0,1-.5-.5.51.51,0,0,1,.5-.5m0-1a1.5,1.5,0,1,0,1.5,1.5,1.5,1.5,0,0,0-1.5-1.5Z" transform="translate(-3 5.33)"/></g><g class="cls-5"><circle class="cls-4" cx="835.52" cy="3871.48" r="1"/><path class="cls-4" d="M838.52,3865.64a.5.5,0,0,1,.5.5.5.5,0,0,1-.5.5.5.5,0,0,1-.5-.5.51.51,0,0,1,.5-.5m0-1a1.5,1.5,0,1,0,1.5,1.5,1.5,1.5,0,0,0-1.5-1.5Z" transform="translate(-3 5.33)"/></g><g class="cls-5"><circle class="cls-4" cx="515.52" cy="3871.48" r="1"/><path class="cls-4" d="M518.52,3865.64a.5.5,0,0,1,.5.5.5.5,0,0,1-.5.5.5.5,0,0,1-.5-.5.51.51,0,0,1,.5-.5m0-1a1.5,1.5,0,1,0,1.5,1.5,1.5,1.5,0,0,0-1.5-1.5Z" transform="translate(-3 5.33)"/></g><g class="cls-5"><circle class="cls-4" cx="332.67" cy="2545.76" r="1"/><path class="cls-4" d="M335.67,2539.93a.5.5,0,0,1,.5.5.51.51,0,0,1-.5.5.5.5,0,0,1-.5-.5.5.5,0,0,1,.5-.5m0-1a1.5,1.5,0,1,0,1.5,1.5,1.5,1.5,0,0,0-1.5-1.5Z" transform="translate(-3 5.33)"/></g><g class="cls-5"><circle class="cls-4" cx="1109.81" cy="2682.9" r="1"/><path class="cls-4" d="M1112.81,2677.07a.5.5,0,0,1,.5.5.5.5,0,0,1-1,0,.5.5,0,0,1,.5-.5m0-1a1.5,1.5,0,1,0,1.5,1.5,1.5,1.5,0,0,0-1.5-1.5Z" transform="translate(-3 5.33)"/></g><g class="cls-5"><circle class="cls-4" cx="1109.81" cy="1860.05" r="1"/><path class="cls-4" d="M1112.81,1854.21a.5.5,0,0,1,.5.5.5.5,0,0,1-1,0,.5.5,0,0,1,.5-.5m0-1a1.5,1.5,0,1,0,1.5,1.5,1.5,1.5,0,0,0-1.5-1.5Z" transform="translate(-3 5.33)"/></g><g class="cls-5"><circle class="cls-4" cx="4035.52" cy="1768.62" r="1"/><path class="cls-4" d="M4038.52,1762.79a.5.5,0,0,1,.5.5.5.5,0,0,1-.5.5.51.51,0,0,1-.5-.5.5.5,0,0,1,.5-.5m0-1a1.5,1.5,0,1,0,1.5,1.5,1.5,1.5,0,0,0-1.5-1.5Z" transform="translate(-3 5.33)"/></g><g class="cls-5"><circle class="cls-4" cx="4309.81" cy="1311.48" r="1"/><path class="cls-4" d="M4312.81,1305.64a.5.5,0,0,1,.5.5.5.5,0,1,1-1,0,.5.5,0,0,1,.5-.5m0-1a1.5,1.5,0,1,0,1.5,1.5,1.5,1.5,0,0,0-1.5-1.5Z" transform="translate(-3 5.33)"/></g><g class="cls-5"><circle class="cls-4" cx="4309.81" cy="3688.62" r="1"/><path class="cls-4" d="M4312.81,3682.79a.5.5,0,0,1,.5.5.5.5,0,0,1-1,0,.5.5,0,0,1,.5-.5m0-1a1.5,1.5,0,1,0,1.5,1.5,1.5,1.5,0,0,0-1.5-1.5Z" transform="translate(-3 5.33)"/></g><g class="cls-5"><circle class="cls-4" cx="4812.67" cy="2911.48" r="1"/><path class="cls-4" d="M4815.67,2905.64a.51.51,0,0,1,.5.5.5.5,0,0,1-.5.5.5.5,0,0,1-.5-.5.5.5,0,0,1,.5-.5m0-1a1.5,1.5,0,1,0,1.5,1.5,1.5,1.5,0,0,0-1.5-1.5Z" transform="translate(-3 5.33)"/></g><g class="cls-5"><circle class="cls-4" cx="4721.24" cy="1814.33" r="1"/><path class="cls-4" d="M4724.24,1808.5a.5.5,0,0,1,0,1,.5.5,0,0,1,0-1m0-1a1.5,1.5,0,1,0,1.5,1.5,1.5,1.5,0,0,0-1.5-1.5Z" transform="translate(-3 5.33)"/></g><g class="cls-5"><circle class="cls-4" cx="4721.24" cy="1402.9" r="1"/><path class="cls-4" d="M4724.24,1397.07a.51.51,0,0,1,.5.5.5.5,0,0,1-.5.5.5.5,0,0,1-.5-.5.5.5,0,0,1,.5-.5m0-1a1.5,1.5,0,1,0,1.5,1.5,1.5,1.5,0,0,0-1.5-1.5Z" transform="translate(-3 5.33)"/></g><g class="cls-5"><circle class="cls-4" cx="3852.67" cy="945.76" r="1"/><path class="cls-4" d="M3855.67,939.93a.5.5,0,0,1,.5.5.51.51,0,0,1-.5.5.5.5,0,0,1-.5-.5.5.5,0,0,1,.5-.5m0-1a1.5,1.5,0,1,0,1.5,1.5,1.5,1.5,0,0,0-1.5-1.5Z" transform="translate(-3 5.33)"/></g><g class="cls-5"><circle class="cls-4" cx="2664.1" cy="1037.19" r="1"/><path class="cls-4" d="M2667.1,1031.36a.5.5,0,0,1,.5.5.51.51,0,0,1-.5.5.5.5,0,0,1-.5-.5.5.5,0,0,1,.5-.5m0-1a1.5,1.5,0,1,0,1.5,1.5,1.5,1.5,0,0,0-1.5-1.5Z" transform="translate(-3 5.33)"/></g><g class="cls-5"><circle class="cls-4" cx="2206.95" cy="625.76" r="1"/><path class="cls-4" d="M2210,619.93a.5.5,0,0,1,.5.5.5.5,0,0,1-.5.5.51.51,0,0,1-.5-.5.5.5,0,0,1,.5-.5m0-1a1.5,1.5,0,1,0,1.5,1.5,1.5,1.5,0,0,0-1.5-1.5Z" transform="translate(-3 5.33)"/></g><g class="cls-5"><circle class="cls-4" cx="2344.1" cy="1585.76" r="1"/><path class="cls-4" d="M2347.1,1579.93a.5.5,0,0,1,.5.5.51.51,0,0,1-.5.5.5.5,0,0,1-.5-.5.5.5,0,0,1,.5-.5m0-1a1.5,1.5,0,1,0,1.5,1.5,1.5,1.5,0,0,0-1.5-1.5Z" transform="translate(-3 5.33)"/></g><g class="cls-5"><circle class="cls-4" cx="1795.52" cy="1768.62" r="1"/><path class="cls-4" d="M1798.52,1762.79a.5.5,0,0,1,.5.5.5.5,0,0,1-.5.5.51.51,0,0,1-.5-.5.5.5,0,0,1,.5-.5m0-1a1.5,1.5,0,1,0,1.5,1.5,1.5,1.5,0,0,0-1.5-1.5Z" transform="translate(-3 5.33)"/></g><g class="cls-5"><circle class="cls-4" cx="1429.81" cy="2088.62" r="1"/><path class="cls-4" d="M1432.81,2082.79a.5.5,0,0,1,.5.5.5.5,0,0,1-1,0,.5.5,0,0,1,.5-.5m0-1a1.5,1.5,0,1,0,1.5,1.5,1.5,1.5,0,0,0-1.5-1.5Z" transform="translate(-3 5.33)"/></g><g class="cls-5"><circle class="cls-4" cx="1429.81" cy="2774.33" r="1"/><path class="cls-4" d="M1432.81,2768.5a.5.5,0,1,1-.5.5.5.5,0,0,1,.5-.5m0-1a1.5,1.5,0,1,0,1.5,1.5,1.5,1.5,0,0,0-1.5-1.5Z" transform="translate(-3 5.33)"/></g><g class="cls-5"><circle class="cls-4" cx="1201.24" cy="2637.19" r="1"/><path class="cls-4" d="M1204.24,2631.36a.5.5,0,0,1,.5.5.51.51,0,0,1-.5.5.5.5,0,0,1-.5-.5.5.5,0,0,1,.5-.5m0-1a1.5,1.5,0,1,0,1.5,1.5,1.5,1.5,0,0,0-1.5-1.5Z" transform="translate(-3 5.33)"/></g><g class="cls-5"><circle class="cls-4" cx="972.67" cy="2180.05" r="1"/><path class="cls-4" d="M975.67,2174.21a.51.51,0,0,1,.5.5.5.5,0,0,1-.5.5.5.5,0,0,1-.5-.5.5.5,0,0,1,.5-.5m0-1a1.5,1.5,0,1,0,1.5,1.5,1.5,1.5,0,0,0-1.5-1.5Z" transform="translate(-3 5.33)"/></g><g class="cls-5"><circle class="cls-4" cx="1658.38" cy="1082.9" r="1"/><path class="cls-4" d="M1661.38,1077.07a.5.5,0,0,1,.5.5.5.5,0,0,1-.5.5.5.5,0,0,1-.5-.5.51.51,0,0,1,.5-.5m0-1a1.5,1.5,0,1,0,1.5,1.5,1.5,1.5,0,0,0-1.5-1.5Z" transform="translate(-3 5.33)"/></g><g class="cls-5"><circle class="cls-4" cx="2572.67" cy="1402.9" r="1"/><path class="cls-4" d="M2575.67,1397.07a.51.51,0,0,1,.5.5.5.5,0,0,1-.5.5.5.5,0,0,1-.5-.5.5.5,0,0,1,.5-.5m0-1a1.5,1.5,0,1,0,1.5,1.5,1.5,1.5,0,0,0-1.5-1.5Z" transform="translate(-3 5.33)"/></g><g class="cls-5"><circle class="cls-4" cx="2984.1" cy="1722.9" r="1"/><path class="cls-4" d="M2987.1,1717.07a.51.51,0,0,1,.5.5.5.5,0,0,1-.5.5.5.5,0,0,1-.5-.5.5.5,0,0,1,.5-.5m0-1a1.5,1.5,0,1,0,1.5,1.5,1.5,1.5,0,0,0-1.5-1.5Z" transform="translate(-3 5.33)"/></g><g class="cls-5"><circle class="cls-4" cx="3624.1" cy="2042.9" r="1"/><path class="cls-4" d="M3627.1,2037.07a.51.51,0,0,1,.5.5.5.5,0,0,1-.5.5.5.5,0,0,1-.5-.5.5.5,0,0,1,.5-.5m0-1a1.5,1.5,0,1,0,1.5,1.5,1.5,1.5,0,0,0-1.5-1.5Z" transform="translate(-3 5.33)"/></g><g class="cls-5"><circle class="cls-4" cx="4492.67" cy="2317.19" r="1"/><path class="cls-4" d="M4495.67,2311.36a.5.5,0,0,1,.5.5.51.51,0,0,1-.5.5.5.5,0,0,1-.5-.5.5.5,0,0,1,.5-.5m0-1a1.5,1.5,0,1,0,1.5,1.5,1.5,1.5,0,0,0-1.5-1.5Z" transform="translate(-3 5.33)"/></g><g class="cls-5"><circle class="cls-4" cx="4675.52" cy="762.9" r="1"/><path class="cls-4" d="M4678.52,757.07a.5.5,0,0,1,.5.5.5.5,0,0,1-.5.5.5.5,0,0,1-.5-.5.51.51,0,0,1,.5-.5m0-1a1.5,1.5,0,1,0,1.5,1.5,1.5,1.5,0,0,0-1.5-1.5Z" transform="translate(-3 5.33)"/></g><g class="cls-5"><circle class="cls-4" cx="4264.1" cy="351.48" r="1"/><path class="cls-4" d="M4267.1,345.64a.51.51,0,0,1,.5.5.5.5,0,0,1-.5.5.5.5,0,0,1-.5-.5.5.5,0,0,1,.5-.5m0-1a1.5,1.5,0,1,0,1.5,1.5,1.5,1.5,0,0,0-1.5-1.5Z" transform="translate(-3 5.33)"/></g><g class="cls-5"><circle class="cls-4" cx="3806.95" cy="1768.62" r="1"/><path class="cls-4" d="M3810,1762.79a.5.5,0,0,1,.5.5.5.5,0,0,1-.5.5.51.51,0,0,1-.5-.5.5.5,0,0,1,.5-.5m0-1a1.5,1.5,0,1,0,1.5,1.5,1.5,1.5,0,0,0-1.5-1.5Z" transform="translate(-3 5.33)"/></g><g class="cls-5"><circle class="cls-4" cx="3441.24" cy="3780.05" r="1"/><path class="cls-4" d="M3444.24,3774.21a.51.51,0,0,1,.5.5.5.5,0,0,1-.5.5.5.5,0,0,1-.5-.5.5.5,0,0,1,.5-.5m0-1a1.5,1.5,0,1,0,1.5,1.5,1.5,1.5,0,0,0-1.5-1.5Z" transform="translate(-3 5.33)"/></g><g class="cls-5"><circle class="cls-4" cx="2755.52" cy="3780.05" r="1"/><path class="cls-4" d="M2758.52,3774.21a.5.5,0,0,1,.5.5.5.5,0,0,1-.5.5.5.5,0,0,1-.5-.5.51.51,0,0,1,.5-.5m0-1a1.5,1.5,0,1,0,1.5,1.5,1.51,1.51,0,0,0-1.5-1.5Z" transform="translate(-3 5.33)"/></g><g class="cls-5"><circle class="cls-4" cx="2389.81" cy="3734.33" r="1"/><path class="cls-4" d="M2392.81,3728.5a.5.5,0,1,1-.5.5.5.5,0,0,1,.5-.5m0-1a1.5,1.5,0,1,0,1.5,1.5,1.5,1.5,0,0,0-1.5-1.5Z" transform="translate(-3 5.33)"/></g><g class="cls-5"><circle class="cls-4" cx="2024.1" cy="3414.33" r="1"/><path class="cls-4" d="M2027.1,3408.5a.5.5,0,1,1,0,1,.5.5,0,0,1,0-1m0-1a1.5,1.5,0,1,0,1.5,1.5,1.5,1.5,0,0,0-1.5-1.5Z" transform="translate(-3 5.33)"/></g><g class="cls-6"><circle class="cls-4" cx="2412.67" cy="3795.67" r="1.5"/><path class="cls-4" d="M2415.67,3789.33a1,1,0,1,1-1,1,1,1,0,0,1,1-1m0-1a2,2,0,1,0,2,2,2,2,0,0,0-2-2Z" transform="translate(-3 5.33)"/></g><g class="cls-6"><circle class="cls-4" cx="2668.67" cy="3411.67" r="1.5"/><path class="cls-4" d="M2671.67,3405.33a1,1,0,1,1-1,1,1,1,0,0,1,1-1m0-1a2,2,0,1,0,2,2,2,2,0,0,0-2-2Z" transform="translate(-3 5.33)"/></g><g class="cls-6"><circle class="cls-4" cx="2860.67" cy="3091.67" r="1.5"/><path class="cls-4" d="M2863.67,3085.33a1,1,0,1,1-1,1,1,1,0,0,1,1-1m0-1a2,2,0,1,0,2,2,2,2,0,0,0-2-2Z" transform="translate(-3 5.33)"/></g><g class="cls-6"><circle class="cls-4" cx="3308.67" cy="2899.67" r="1.5"/><path class="cls-4" d="M3311.67,2893.33a1,1,0,1,1-1,1,1,1,0,0,1,1-1m0-1a2,2,0,1,0,2,2,2,2,0,0,0-2-2Z" transform="translate(-3 5.33)"/></g><g class="cls-6"><circle class="cls-4" cx="2796.67" cy="2067.67" r="1.5"/><path class="cls-4" d="M2799.67,2061.33a1,1,0,1,1-1,1,1,1,0,0,1,1-1m0-1a2,2,0,1,0,2,2,2,2,0,0,0-2-2Z" transform="translate(-3 5.33)"/></g><g class="cls-6"><circle class="cls-4" cx="1644.67" cy="2067.67" r="1.5"/><path class="cls-4" d="M1647.67,2061.33a1,1,0,1,1-1,1,1,1,0,0,1,1-1m0-1a2,2,0,1,0,2,2,2,2,0,0,0-2-2Z" transform="translate(-3 5.33)"/></g><g class="cls-6"><circle class="cls-4" cx="1324.67" cy="2003.67" r="1.5"/><path class="cls-4" d="M1327.67,1997.33a1,1,0,1,1-1,1,1,1,0,0,1,1-1m0-1a2,2,0,1,0,2,2,2,2,0,0,0-2-2Z" transform="translate(-3 5.33)"/></g><g class="cls-6"><circle class="cls-4" cx="1452.67" cy="2579.67" r="1.5"/><path class="cls-4" d="M1455.67,2573.33a1,1,0,1,1-1,1,1,1,0,0,1,1-1m0-1a2,2,0,1,0,2,2,2,2,0,0,0-2-2Z" transform="translate(-3 5.33)"/></g><g class="cls-6"><circle class="cls-4" cx="1836.67" cy="3923.67" r="1.5"/><path class="cls-4" d="M1839.67,3917.33a1,1,0,1,1-1,1,1,1,0,0,1,1-1m0-1a2,2,0,1,0,2,2,2,2,0,0,0-2-2Z" transform="translate(-3 5.33)"/></g><g class="cls-6"><circle class="cls-4" cx="1885.67" cy="3539.67" r="1.5"/><path class="cls-4" d="M1888.67,3533.33a1,1,0,1,1-1,1,1,1,0,0,1,1-1m0-1a2,2,0,1,0,2,2,2,2,0,0,0-2-2Z" transform="translate(-3 5.33)"/></g><g class="cls-6"><circle class="cls-4" cx="3052.67" cy="4563.67" r="1.5"/><path class="cls-4" d="M3055.67,4557.33a1,1,0,1,1-1,1,1,1,0,0,1,1-1m0-1a2,2,0,1,0,2,2,2,2,0,0,0-2-2Z" transform="translate(-3 5.33)"/></g><g class="cls-6"><circle class="cls-4" cx="3180.67" cy="4243.67" r="1.5"/><path class="cls-4" d="M3183.67,4237.33a1,1,0,1,1-1,1,1,1,0,0,1,1-1m0-1a2,2,0,1,0,2,2,2,2,0,0,0-2-2Z" transform="translate(-3 5.33)"/></g><g class="cls-6"><circle class="cls-4" cx="4140.67" cy="2323.67" r="1.5"/><path class="cls-4" d="M4143.67,2317.33a1,1,0,1,1-1,1,1,1,0,0,1,1-1m0-1a2,2,0,1,0,2,2,2,2,0,0,0-2-2Z" transform="translate(-3 5.33)"/></g><g class="cls-6"><circle class="cls-4" cx="4268.67" cy="1107.67" r="1.5"/><path class="cls-4" d="M4271.67,1101.33a1,1,0,1,1-1,1,1,1,0,0,1,1-1m0-1a2,2,0,1,0,2,2,2,2,0,0,0-2-2Z" transform="translate(-3 5.33)"/></g><g class="cls-6"><circle class="cls-4" cx="3564.67" cy="1235.67" r="1.5"/><path class="cls-4" d="M3567.67,1229.33a1,1,0,1,1-1,1,1,1,0,0,1,1-1m0-1a2,2,0,1,0,2,2,2,2,0,0,0-2-2Z" transform="translate(-3 5.33)"/></g><g class="cls-6"><circle class="cls-4" cx="2732.67" cy="1491.67" r="1.5"/><path class="cls-4" d="M2735.67,1485.33a1,1,0,1,1-1,1,1,1,0,0,1,1-1m0-1a2,2,0,1,0,2,2,2,2,0,0,0-2-2Z" transform="translate(-3 5.33)"/></g><g class="cls-6"><circle class="cls-4" cx="2028.67" cy="851.67" r="1.5"/><path class="cls-4" d="M2031.67,845.33a1,1,0,1,1-1,1,1,1,0,0,1,1-1m0-1a2,2,0,1,0,2,2,2,2,0,0,0-2-2Z" transform="translate(-3 5.33)"/></g><g class="cls-6"><circle class="cls-4" cx="1260.67" cy="531.67" r="1.5"/><path class="cls-4" d="M1263.67,525.33a1,1,0,1,1-1,1,1,1,0,0,1,1-1m0-1a2,2,0,1,0,2,2,2,2,0,0,0-2-2Z" transform="translate(-3 5.33)"/></g><g class="cls-6"><circle class="cls-4" cx="812.67" cy="339.67" r="1.5"/><path class="cls-4" d="M815.67,333.33a1,1,0,1,1-1,1,1,1,0,0,1,1-1m0-1a2,2,0,1,0,2,2,2,2,0,0,0-2-2Z" transform="translate(-3 5.33)"/></g><g class="cls-6"><circle class="cls-4" cx="2028.67" cy="3923.67" r="1.5"/><path class="cls-4" d="M2031.67,3917.33a1,1,0,1,1-1,1,1,1,0,0,1,1-1m0-1a2,2,0,1,0,2,2,2,2,0,0,0-2-2Z" transform="translate(-3 5.33)"/></g><g class="cls-6"><circle class="cls-4" cx="2540.67" cy="3411.67" r="1.5"/><path class="cls-4" d="M2543.67,3405.33a1,1,0,1,1-1,1,1,1,0,0,1,1-1m0-1a2,2,0,1,0,2,2,2,2,0,0,0-2-2Z" transform="translate(-3 5.33)"/></g><g class="cls-6"><circle class="cls-4" cx="1900.67" cy="3283.67" r="1.5"/><path class="cls-4" d="M1903.67,3277.33a1,1,0,1,1-1,1,1,1,0,0,1,1-1m0-1a2,2,0,1,0,2,2,2,2,0,0,0-2-2Z" transform="translate(-3 5.33)"/></g><g class="cls-6"><circle class="cls-4" cx="2338" cy="3010.33" r="1.5"/><path class="cls-4" d="M2341,3004a1,1,0,1,1-1,1,1,1,0,0,1,1-1m0-1a2,2,0,1,0,2,2,2,2,0,0,0-2-2Z" transform="translate(-3 5.33)"/></g><g class="cls-8"><circle class="cls-4" cx="2034" cy="2741.33" r="4"/><path class="cls-4" d="M2037,2732.5a3.5,3.5,0,1,1-3.5,3.5,3.5,3.5,0,0,1,3.5-3.5m0-1a4.5,4.5,0,1,0,4.5,4.5,4.49,4.49,0,0,0-4.5-4.5Z" transform="translate(-3 5.33)"/></g><g class="cls-8"><circle class="cls-4" cx="3378" cy="2981.33" r="4"/><path class="cls-4" d="M3381,2972.5a3.5,3.5,0,1,1-3.5,3.5,3.5,3.5,0,0,1,3.5-3.5m0-1a4.5,4.5,0,1,0,4.5,4.5,4.49,4.49,0,0,0-4.5-4.5Z" transform="translate(-3 5.33)"/></g><g class="cls-8"><circle class="cls-4" cx="3522" cy="2741.33" r="4"/><path class="cls-4" d="M3525,2732.5a3.5,3.5,0,1,1-3.5,3.5,3.5,3.5,0,0,1,3.5-3.5m0-1a4.5,4.5,0,1,0,4.5,4.5,4.49,4.49,0,0,0-4.5-4.5Z" transform="translate(-3 5.33)"/></g><g class="cls-8"><circle class="cls-4" cx="3426" cy="2021.33" r="4"/><path class="cls-4" d="M3429,2012.5a3.5,3.5,0,1,1-3.5,3.5,3.5,3.5,0,0,1,3.5-3.5m0-1a4.5,4.5,0,1,0,4.5,4.5,4.49,4.49,0,0,0-4.5-4.5Z" transform="translate(-3 5.33)"/></g><g class="cls-8"><circle class="cls-4" cx="3426" cy="1349.33" r="4"/><path class="cls-4" d="M3429,1340.5a3.5,3.5,0,1,1-3.5,3.5,3.5,3.5,0,0,1,3.5-3.5m0-1a4.5,4.5,0,1,0,4.5,4.5,4.49,4.49,0,0,0-4.5-4.5Z" transform="translate(-3 5.33)"/></g><g class="cls-8"><circle class="cls-4" cx="3138" cy="1109.33" r="4"/><path class="cls-4" d="M3141,1100.5a3.5,3.5,0,1,1-3.5,3.5,3.5,3.5,0,0,1,3.5-3.5m0-1a4.5,4.5,0,1,0,4.5,4.5,4.49,4.49,0,0,0-4.5-4.5Z" transform="translate(-3 5.33)"/></g><g class="cls-8"><circle class="cls-4" cx="3138" cy="1637.33" r="4"/><path class="cls-4" d="M3141,1628.5a3.5,3.5,0,1,1-3.5,3.5,3.5,3.5,0,0,1,3.5-3.5m0-1a4.5,4.5,0,1,0,4.5,4.5,4.49,4.49,0,0,0-4.5-4.5Z" transform="translate(-3 5.33)"/></g><g class="cls-8"><circle class="cls-4" cx="2706" cy="1711.33" r="4"/><path class="cls-4" d="M2709,1702.5a3.5,3.5,0,1,1-3.5,3.5,3.5,3.5,0,0,1,3.5-3.5m0-1a4.5,4.5,0,1,0,4.5,4.5,4.49,4.49,0,0,0-4.5-4.5Z" transform="translate(-3 5.33)"/></g><g class="cls-8"><circle class="cls-4" cx="2562" cy="1205.33" r="4"/><path class="cls-4" d="M2565,1196.5a3.5,3.5,0,1,1-3.5,3.5,3.5,3.5,0,0,1,3.5-3.5m0-1a4.5,4.5,0,1,0,4.5,4.5,4.49,4.49,0,0,0-4.5-4.5Z" transform="translate(-3 5.33)"/></g><g id="Lines"><g class="cls-9"><line class="cls-10" x1="1838.11" y1="2406.49" x2="1875.22" y2="2389.86"/></g></g><line class="cls-11" x1="1879.85" y1="2388" x2="2042.59" y2="2329.18"/><line class="cls-11" x1="2045.47" y1="2328.38" x2="2210.05" y2="2296.31"/><g class="cls-8"><circle class="cls-4" cx="2078" cy="2542.67" r="4"/><path class="cls-4" d="M2081,2533.83a3.5,3.5,0,1,1-3.5,3.5,3.5,3.5,0,0,1,3.5-3.5m0-1a4.5,4.5,0,1,0,4.5,4.5,4.5,4.5,0,0,0-4.5-4.5Z" transform="translate(-3 5.33)"/></g><line class="cls-11" x1="2070.68" y1="2405.97" x2="2044.49" y2="2330.08"/><line class="cls-11" x1="2071.62" y1="2410.83" x2="2077.78" y2="2538.17"/><line class="cls-11" x1="2017.26" y1="2736.55" x2="2029.67" y2="2740.1"/><line class="cls-11" x1="2140.28" y1="2685.99" x2="2037.99" y2="2739.25"/><line class="cls-11" x1="2034.82" y1="2745.76" x2="2055.06" y2="2855.19"/><g class="cls-5"><circle class="cls-4" cx="2055.33" cy="2856.67" r="1"/><path class="cls-4" d="M2058.33,2850.83a.5.5,0,0,1,.5.5.5.5,0,0,1-.5.5.5.5,0,0,1-.5-.5.51.51,0,0,1,.5-.5m0-1a1.5,1.5,0,1,0,1.5,1.5,1.5,1.5,0,0,0-1.5-1.5Z" transform="translate(-3 5.33)"/></g><line class="cls-11" x1="2056.04" y1="2857.99" x2="2103.5" y2="2947.47"/><g class="cls-3"><circle class="cls-4" cx="2171" cy="2826" r="2"/><path class="cls-4" d="M2174,2819.17a1.5,1.5,0,1,1-1.5,1.5,1.5,1.5,0,0,1,1.5-1.5m0-1a2.5,2.5,0,1,0,2.5,2.5,2.5,2.5,0,0,0-2.5-2.5Z" transform="translate(-3 5.33)"/></g><g class="cls-5"><circle class="cls-4" cx="2127" cy="2802.5" r="1"/><path class="cls-4" d="M2130,2796.67a.5.5,0,0,1,.5.5.5.5,0,0,1-1,0,.5.5,0,0,1,.5-.5m0-1a1.5,1.5,0,1,0,1.5,1.5,1.5,1.5,0,0,0-1.5-1.5Z" transform="translate(-3 5.33)"/></g><g class="cls-5"><circle class="cls-4" cx="1849.67" cy="2789.5" r="0.5"/><path class="cls-4" d="M1852.67,2783.17a1,1,0,0,0,0,2,1,1,0,0,0,0-2Z" transform="translate(-3 5.33)"/></g><g class="cls-12"><circle class="cls-4" cx="2005.67" cy="2569.5" r="0.5"/><path class="cls-4" d="M2008.67,2563.17a1,1,0,0,0,0,2,1,1,0,0,0,0-2Z" transform="translate(-3 5.33)"/></g><g class="cls-5"><circle class="cls-4" cx="2215.67" cy="2302.5" r="0.5"/><path class="cls-4" d="M2218.67,2296.17a1,1,0,0,0,0,2,1,1,0,0,0,0-2Z" transform="translate(-3 5.33)"/></g><g class="cls-5"><circle class="cls-4" cx="2305.67" cy="2197.5" r="0.5"/><path class="cls-4" d="M2308.67,2191.17a1,1,0,0,0,0,2,1,1,0,0,0,0-2Z" transform="translate(-3 5.33)"/></g><g class="cls-5"><circle class="cls-4" cx="2401.67" cy="2325.5" r="0.5"/><path class="cls-4" d="M2404.67,2319.17a1,1,0,0,0,0,2,1,1,0,0,0,0-2Z" transform="translate(-3 5.33)"/></g><g class="cls-5"><circle class="cls-4" cx="2833.67" cy="2445.5" r="0.5"/><path class="cls-4" d="M2836.67,2439.17a1,1,0,0,0,0,2,1,1,0,0,0,0-2Z" transform="translate(-3 5.33)"/></g><g class="cls-5"><circle class="cls-4" cx="3017.67" cy="2213.5" r="0.5"/><path class="cls-4" d="M3020.67,2207.17a1,1,0,0,0,0,2,1,1,0,0,0,0-2Z" transform="translate(-3 5.33)"/></g><g class="cls-5"><circle class="cls-4" cx="2993.67" cy="1869.5" r="0.5"/><path class="cls-4" d="M2996.67,1863.17a1,1,0,0,0,0,2,1,1,0,0,0,0-2Z" transform="translate(-3 5.33)"/></g><g class="cls-5"><circle class="cls-4" cx="2537.67" cy="1773.5" r="0.5"/><path class="cls-4" d="M2540.67,1767.17a1,1,0,0,0,0,2,1,1,0,0,0,0-2Z" transform="translate(-3 5.33)"/></g><g class="cls-5"><circle class="cls-4" cx="1985.67" cy="1541.5" r="0.5"/><path class="cls-4" d="M1988.67,1535.17a1,1,0,0,0,0,2,1,1,0,0,0,0-2Z" transform="translate(-3 5.33)"/></g><g class="cls-5"><circle class="cls-4" cx="2025.67" cy="3629.5" r="0.5"/><path class="cls-4" d="M2028.67,3623.17a1,1,0,0,0,0,2,1,1,0,0,0,0-2Z" transform="translate(-3 5.33)"/></g><g class="cls-5"><circle class="cls-4" cx="2521.67" cy="3629.5" r="0.5"/><path class="cls-4" d="M2524.67,3623.17a1,1,0,0,0,0,2,1,1,0,0,0,0-2Z" transform="translate(-3 5.33)"/></g><g class="cls-5"><circle class="cls-4" cx="3281.67" cy="3581.5" r="0.5"/><path class="cls-4" d="M3284.67,3575.17a1,1,0,0,0,0,2,1,1,0,0,0,0-2Z" transform="translate(-3 5.33)"/></g><g class="cls-5"><circle class="cls-4" cx="3057.67" cy="3445.5" r="0.5"/><path class="cls-4" d="M3060.67,3439.17a1,1,0,0,0,0,2,1,1,0,0,0,0-2Z" transform="translate(-3 5.33)"/></g><line class="cls-11" x1="2037.76" y1="2743.81" x2="2125.75" y2="2801.68"/><line class="cls-11" x1="2128.32" y1="2803.21" x2="2168.8" y2="2824.82"/><g class="cls-13"><circle class="cls-4" cx="2204.67" cy="2903.92" r="0.5"/><path class="cls-4" d="M2207.67,2897.58a1,1,0,1,0,1,1,1,1,0,0,0-1-1Z" transform="translate(-3 5.33)"/></g><g class="cls-12"><circle class="cls-4" cx="1905.11" cy="2675.56" r="0.5"/><path class="cls-4" d="M1908.11,2669.22a1,1,0,1,0,1,1,1,1,0,0,0-1-1Z" transform="translate(-3 5.33)"/></g><g class="cls-12"><circle class="cls-4" cx="2124.67" cy="2588" r="0.5"/><path class="cls-4" d="M2127.67,2581.67a1,1,0,0,0,0,2,1,1,0,0,0,0-2Z" transform="translate(-3 5.33)"/></g><g class="cls-12"><circle class="cls-4" cx="2204.67" cy="2476" r="0.5"/><path class="cls-4" d="M2207.67,2469.67a1,1,0,0,0,0,2,1,1,0,0,0,0-2Z" transform="translate(-3 5.33)"/></g><g class="cls-12"><circle class="cls-4" cx="2668.67" cy="3196" r="0.5"/><path class="cls-4" d="M2671.67,3189.67a1,1,0,0,0,0,2,1,1,0,0,0,0-2Z" transform="translate(-3 5.33)"/></g><g class="cls-12"><circle class="cls-4" cx="2572.67" cy="3036" r="0.5"/><path class="cls-4" d="M2575.67,3029.67a1,1,0,0,0,0,2,1,1,0,0,0,0-2Z" transform="translate(-3 5.33)"/></g><g class="cls-12"><circle class="cls-4" cx="2572.67" cy="3996" r="0.5"/><path class="cls-4" d="M2575.67,3989.67a1,1,0,0,0,0,2,1,1,0,0,0,0-2Z" transform="translate(-3 5.33)"/></g><g class="cls-12"><circle class="cls-4" cx="3340.67" cy="4092" r="0.5"/><path class="cls-4" d="M3343.67,4085.67a1,1,0,0,0,0,2,1,1,0,0,0,0-2Z" transform="translate(-3 5.33)"/></g><g class="cls-12"><circle class="cls-4" cx="3100.67" cy="3052" r="0.5"/><path class="cls-4" d="M3103.67,3045.67a1,1,0,0,0,0,2,1,1,0,0,0,0-2Z" transform="translate(-3 5.33)"/></g><g class="cls-12"><circle class="cls-4" cx="2572.67" cy="3244" r="0.5"/><path class="cls-4" d="M2575.67,3237.67a1,1,0,0,0,0,2,1,1,0,0,0,0-2Z" transform="translate(-3 5.33)"/></g><g class="cls-12"><circle class="cls-4" cx="2796.67" cy="2828" r="0.5"/><path class="cls-4" d="M2799.67,2821.67a1,1,0,0,0,0,2,1,1,0,0,0,0-2Z" transform="translate(-3 5.33)"/></g><g class="cls-3"><circle class="cls-4" cx="2495.33" cy="2020.67" r="2"/><path class="cls-4" d="M2498.33,2013.83a1.5,1.5,0,1,1-1.5,1.5,1.5,1.5,0,0,1,1.5-1.5m0-1a2.5,2.5,0,1,0,2.5,2.5,2.5,2.5,0,0,0-2.5-2.5Z" transform="translate(-3 5.33)"/></g><line class="cls-11" x1="2527.71" y1="2173.13" x2="2429.41" y2="2137.18"/><line class="cls-11" x1="2428.75" y1="2135.37" x2="2494.08" y2="2022.83"/></svg>