<svg id="Layer_1" data-name="Layer 1" xmlns="http://www.w3.org/2000/svg" viewBox="0 0 4122.11 3733.83"><defs><style>.cls-1,.cls-2{fill:#fff;opacity:0.25;}.cls-1{stroke:#fff;stroke-miterlimit:10;}</style></defs><circle class="cls-1" cx="46.72" cy="858.83" r="1.5"/><circle class="cls-2" cx="1607.72" cy="1595.17" r="1.5"/><circle class="cls-2" cx="2192.39" cy="2197.5" r="1.5"/><circle class="cls-2" cx="2913.72" cy="1329.33" r="1.5"/><circle class="cls-2" cx="3734.72" cy="2408.33" r="1.5"/><circle class="cls-2" cx="4120.61" cy="136.06" r="1.5"/><circle class="cls-2" cx="2971.28" cy="1.5" r="1.5"/><circle class="cls-2" cx="2935.72" cy="3719.83" r="1.5"/><circle class="cls-2" cx="132.72" cy="3532.33" r="1.5"/><circle class="cls-2" cx="1085.06" cy="2926.17" r="1.5"/><circle class="cls-2" cx="1386.39" cy="2037" r="1.5"/><circle class="cls-2" cx="1788.39" cy="674.33" r="1.5"/><circle class="cls-2" cx="1.5" cy="1415.17" r="1.5"/><circle class="cls-2" cx="2221.72" cy="3222.83" r="1.5"/><circle class="cls-2" cx="3090.39" cy="392.17" r="1.5"/><circle class="cls-2" cx="1799.06" cy="972.17" r="1.5"/><circle class="cls-2" cx="493.06" cy="1021.83" r="1.5"/><circle class="cls-1" cx="1364.72" cy="2728.83" r="2.5"/><circle class="cls-1" cx="2158.72" cy="2657.33" r="2.5"/><circle class="cls-1" cx="2133.72" cy="2095" r="2.5"/><circle class="cls-1" cx="373.72" cy="3730.83" r="2.5"/><circle class="cls-1" cx="2154.72" cy="3683.33" r="2.5"/><circle class="cls-1" cx="3154.39" cy="1949.94" r="2.5"/><circle class="cls-1" cx="1042.72" cy="1252.33" r="2.5"/><circle class="cls-1" cx="2130.72" cy="476.33" r="2.5"/><circle class="cls-1" cx="583.72" cy="1413.83" r="2.5"/></svg>