<svg id="Layer_1" data-name="Layer 1" xmlns="http://www.w3.org/2000/svg" viewBox="0 0 38 25"><defs><style>.cls-1{fill:#fff;fill-rule:evenodd;}</style></defs><path class="cls-1" d="M5.16,2.18H32.84a1.9,1.9,0,0,1,2,1.82,1.9,1.9,0,0,1-2,1.82H5.16A1.9,1.9,0,0,1,3.19,4,1.9,1.9,0,0,1,5.16,2.18Z"/><path class="cls-1" d="M5.16,10.68H32.84a1.9,1.9,0,0,1,2,1.82,1.9,1.9,0,0,1-2,1.82H5.16a1.9,1.9,0,0,1-2-1.82A1.9,1.9,0,0,1,5.16,10.68Z"/><path class="cls-1" d="M5.16,19.18H32.84a1.83,1.83,0,1,1,0,3.64H5.16a1.83,1.83,0,1,1,0-3.64Z"/></svg>