<svg xmlns="http://www.w3.org/2000/svg" viewBox="0 0 4822 4906.33"><defs><style>.cls-1{fill:#2e3445;}.cls-2{opacity:0.3;}.cls-27,.cls-28,.cls-29,.cls-3,.cls-30,.cls-31,.cls-33,.cls-34,.cls-36,.cls-37,.cls-38,.cls-39,.cls-40,.cls-41{fill:#fff;}.cls-4{opacity:0.22;}.cls-5{opacity:0.28;}.cls-6{opacity:0.34;}.cls-7{opacity:0.35;}.cls-8{opacity:0.4;}.cls-9{opacity:0.5;}.cls-10,.cls-16{opacity:0.15;}.cls-11,.cls-13,.cls-14,.cls-15,.cls-16,.cls-17,.cls-18,.cls-21,.cls-24,.cls-25{fill:none;}.cls-11,.cls-14,.cls-15,.cls-16,.cls-17,.cls-18,.cls-21,.cls-24,.cls-25,.cls-27,.cls-28,.cls-29,.cls-30,.cls-31,.cls-33,.cls-34,.cls-36,.cls-37,.cls-40,.cls-41{stroke:#fff;stroke-miterlimit:10;}.cls-12,.cls-14{opacity:0.1;}.cls-14,.cls-15,.cls-16,.cls-17,.cls-18,.cls-21,.cls-24,.cls-25{isolation:isolate;}.cls-15,.cls-36{opacity:0.19;}.cls-17{opacity:0.14;}.cls-18{opacity:0.16;}.cls-19{opacity:0.26;}.cls-20{opacity:0.17;}.cls-21{opacity:0.11;}.cls-22,.cls-38{opacity:0.4;}.cls-23{opacity:0.32;}.cls-24{opacity:0.12;}.cls-25{opacity:0.13;}.cls-26,.cls-40{opacity:0.25;}.cls-27{opacity:0.18;}.cls-28{opacity:0.16;}.cls-29{opacity:0.1;}.cls-30{opacity:0.13;}.cls-31{opacity:0.15;}.cls-32{opacity:0.39;}.cls-33{opacity:0.14;}.cls-34{opacity:0.12;}.cls-35{opacity:0.45;}.cls-37{opacity:0.22;}.cls-39{opacity:0.36;}.cls-41{opacity:0.21;}</style></defs><g id="Layer_1" data-name="Layer 1"><circle class="cls-1" cx="2398.5" cy="2451.5" r="183"/><path d="M2500,2317.5a181.91,181.91,0,0,1,181.71,182.13c-.11,100.47-81.65,181.82-182.12,181.71a181.92,181.92,0,1,1,.41-363.84m0-1c-101.34,0-183.5,82.16-183.5,183.5s82.16,183.5,183.5,183.5,183.5-82.16,183.5-183.5S2601.34,2316.5,2500,2316.5Z" transform="translate(-101.5 -48.5)"/><g class="cls-2"><circle class="cls-3" cx="1779" cy="2335" r="2"/><path class="cls-3" d="M1880.5,2382a1.5,1.5,0,1,1-1.5,1.5,1.5,1.5,0,0,1,1.5-1.5m0-1a2.5,2.5,0,1,0,2.5,2.5A2.5,2.5,0,0,0,1880.5,2381Z" transform="translate(-101.5 -48.5)"/></g><g class="cls-2"><circle class="cls-3" cx="2114" cy="2242" r="2"/><path class="cls-3" d="M2215.5,2289a1.5,1.5,0,1,1-1.5,1.5,1.5,1.5,0,0,1,1.5-1.5m0-1a2.5,2.5,0,1,0,2.5,2.5A2.5,2.5,0,0,0,2215.5,2288Z" transform="translate(-101.5 -48.5)"/></g><g class="cls-2"><circle class="cls-3" cx="1973" cy="2354.5" r="2"/><path class="cls-3" d="M2074.5,2401.5a1.5,1.5,0,1,1-1.5,1.5,1.5,1.5,0,0,1,1.5-1.5m0-1a2.5,2.5,0,1,0,2.5,2.5A2.5,2.5,0,0,0,2074.5,2400.5Z" transform="translate(-101.5 -48.5)"/></g><g class="cls-2"><circle class="cls-3" cx="2044" cy="2631" r="2"/><path class="cls-3" d="M2145.5,2678a1.5,1.5,0,1,1-1.5,1.5,1.5,1.5,0,0,1,1.5-1.5m0-1a2.5,2.5,0,1,0,2.5,2.5A2.5,2.5,0,0,0,2145.5,2677Z" transform="translate(-101.5 -48.5)"/></g><g class="cls-4"><circle class="cls-3" cx="2241.5" cy="2657.67" r="1"/><path class="cls-3" d="M2343,2705.67a.5.5,0,1,1-.5.5.5.5,0,0,1,.5-.5m0-1a1.5,1.5,0,1,0,1.5,1.5A1.5,1.5,0,0,0,2343,2704.67Z" transform="translate(-101.5 -48.5)"/></g><g class="cls-2"><circle class="cls-3" cx="2199.5" cy="2770.17" r="2"/><path class="cls-3" d="M2301,2817.17a1.5,1.5,0,1,1-1.5,1.5,1.5,1.5,0,0,1,1.5-1.5m0-1a2.5,2.5,0,1,0,2.5,2.5A2.5,2.5,0,0,0,2301,2816.17Z" transform="translate(-101.5 -48.5)"/></g><g class="cls-2"><circle class="cls-3" cx="2517.17" cy="2747" r="2"/><path class="cls-3" d="M2618.67,2794a1.5,1.5,0,1,1-1.5,1.5,1.5,1.5,0,0,1,1.5-1.5m0-1a2.5,2.5,0,1,0,2.5,2.5A2.5,2.5,0,0,0,2618.67,2793Z" transform="translate(-101.5 -48.5)"/></g><g class="cls-5"><circle class="cls-3" cx="1916.83" cy="2682.17" r="1.5"/><path class="cls-3" d="M2018.33,2729.67a1,1,0,1,1-1,1,1,1,0,0,1,1-1m0-1a2,2,0,1,0,2,2A2,2,0,0,0,2018.33,2728.67Z" transform="translate(-101.5 -48.5)"/></g><g class="cls-2"><circle class="cls-3" cx="1580.83" cy="2532.17" r="2"/><path class="cls-3" d="M1682.33,2579.17a1.5,1.5,0,1,1-1.5,1.5,1.5,1.5,0,0,1,1.5-1.5m0-1a2.5,2.5,0,1,0,2.5,2.5A2.5,2.5,0,0,0,1682.33,2578.17Z" transform="translate(-101.5 -48.5)"/></g><g class="cls-2"><circle class="cls-3" cx="1580.83" cy="2884.17" r="2"/><path class="cls-3" d="M1682.33,2931.17a1.5,1.5,0,1,1-1.5,1.5,1.5,1.5,0,0,1,1.5-1.5m0-1a2.5,2.5,0,1,0,2.5,2.5A2.5,2.5,0,0,0,1682.33,2930.17Z" transform="translate(-101.5 -48.5)"/></g><g class="cls-2"><circle class="cls-3" cx="1580.83" cy="3364.17" r="2"/><path class="cls-3" d="M1682.33,3411.17a1.5,1.5,0,1,1-1.5,1.5,1.5,1.5,0,0,1,1.5-1.5m0-1a2.5,2.5,0,1,0,2.5,2.5A2.5,2.5,0,0,0,1682.33,3410.17Z" transform="translate(-101.5 -48.5)"/></g><g class="cls-2"><circle class="cls-3" cx="1523.83" cy="3124.17" r="2"/><path class="cls-3" d="M1625.33,3171.17a1.5,1.5,0,1,1-1.5,1.5,1.5,1.5,0,0,1,1.5-1.5m0-1a2.5,2.5,0,1,0,2.5,2.5A2.5,2.5,0,0,0,1625.33,3170.17Z" transform="translate(-101.5 -48.5)"/></g><g class="cls-2"><circle class="cls-3" cx="1724.83" cy="2168.17" r="2"/><path class="cls-3" d="M1826.33,2215.17a1.5,1.5,0,1,1-1.5,1.5,1.5,1.5,0,0,1,1.5-1.5m0-1a2.5,2.5,0,1,0,2.5,2.5A2.5,2.5,0,0,0,1826.33,2214.17Z" transform="translate(-101.5 -48.5)"/></g><g class="cls-2"><circle class="cls-3" cx="1836.83" cy="3012.17" r="2"/><path class="cls-3" d="M1938.33,3059.17a1.5,1.5,0,1,1-1.5,1.5,1.5,1.5,0,0,1,1.5-1.5m0-1a2.5,2.5,0,1,0,2.5,2.5A2.5,2.5,0,0,0,1938.33,3058.17Z" transform="translate(-101.5 -48.5)"/></g><g class="cls-6"><circle class="cls-3" cx="2006.17" cy="2895.83" r="2"/><path class="cls-3" d="M2107.67,2942.83a1.5,1.5,0,1,1-1.5,1.5,1.5,1.5,0,0,1,1.5-1.5m0-1a2.5,2.5,0,1,0,2.5,2.5A2.5,2.5,0,0,0,2107.67,2941.83Z" transform="translate(-101.5 -48.5)"/></g><g class="cls-2"><circle class="cls-3" cx="2187.17" cy="3247.83" r="2"/><path class="cls-3" d="M2288.67,3294.83a1.5,1.5,0,1,1-1.5,1.5,1.5,1.5,0,0,1,1.5-1.5m0-1a2.5,2.5,0,1,0,2.5,2.5A2.5,2.5,0,0,0,2288.67,3293.83Z" transform="translate(-101.5 -48.5)"/></g><g class="cls-2"><circle class="cls-3" cx="2312.83" cy="3033.17" r="2"/><path class="cls-3" d="M2414.33,3080.17a1.5,1.5,0,1,1-1.5,1.5,1.5,1.5,0,0,1,1.5-1.5m0-1a2.5,2.5,0,1,0,2.5,2.5A2.5,2.5,0,0,0,2414.33,3079.17Z" transform="translate(-101.5 -48.5)"/></g><g class="cls-2"><circle class="cls-3" cx="3316.83" cy="3017" r="2"/><path class="cls-3" d="M3418.33,3064a1.5,1.5,0,1,1-1.5,1.5,1.5,1.5,0,0,1,1.5-1.5m0-1a2.5,2.5,0,1,0,2.5,2.5A2.5,2.5,0,0,0,3418.33,3063Z" transform="translate(-101.5 -48.5)"/></g><g class="cls-2"><circle class="cls-3" cx="3315.5" cy="3314.5" r="2"/><path class="cls-3" d="M3417,3361.5a1.5,1.5,0,1,1-1.5,1.5,1.5,1.5,0,0,1,1.5-1.5m0-1a2.5,2.5,0,1,0,2.5,2.5A2.5,2.5,0,0,0,3417,3360.5Z" transform="translate(-101.5 -48.5)"/></g><g class="cls-2"><circle class="cls-3" cx="3415.5" cy="2866.5" r="2"/><path class="cls-3" d="M3517,2913.5a1.5,1.5,0,1,1-1.5,1.5,1.5,1.5,0,0,1,1.5-1.5m0-1a2.5,2.5,0,1,0,2.5,2.5A2.5,2.5,0,0,0,3517,2912.5Z" transform="translate(-101.5 -48.5)"/></g><g class="cls-2"><circle class="cls-3" cx="3283.5" cy="1650.5" r="2"/><path class="cls-3" d="M3385,1697.5a1.5,1.5,0,1,1-1.5,1.5,1.5,1.5,0,0,1,1.5-1.5m0-1a2.5,2.5,0,1,0,2.5,2.5A2.5,2.5,0,0,0,3385,1696.5Z" transform="translate(-101.5 -48.5)"/></g><g class="cls-2"><circle class="cls-3" cx="3955.5" cy="2559.83" r="2"/><path class="cls-3" d="M4057,2606.83a1.5,1.5,0,1,1-1.5,1.5,1.5,1.5,0,0,1,1.5-1.5m0-1a2.5,2.5,0,1,0,2.5,2.5A2.5,2.5,0,0,0,4057,2605.83Z" transform="translate(-101.5 -48.5)"/></g><g class="cls-2"><circle class="cls-3" cx="4179.5" cy="453.17" r="2"/><path class="cls-3" d="M4281,500.17a1.5,1.5,0,1,1-1.5,1.5,1.5,1.5,0,0,1,1.5-1.5m0-1a2.5,2.5,0,1,0,2.5,2.5h0A2.5,2.5,0,0,0,4281,499.17Z" transform="translate(-101.5 -48.5)"/></g><g class="cls-2"><circle class="cls-3" cx="2163.5" cy="408.17" r="2"/><path class="cls-3" d="M2265,455.17a1.5,1.5,0,1,1-1.5,1.5,1.5,1.5,0,0,1,1.5-1.5h0m0-1a2.5,2.5,0,1,0,2.5,2.5A2.5,2.5,0,0,0,2265,454.17Z" transform="translate(-101.5 -48.5)"/></g><g class="cls-2"><circle class="cls-3" cx="2291.5" cy="1663.83" r="2"/><path class="cls-3" d="M2393,1710.83a1.5,1.5,0,1,1-1.5,1.5,1.5,1.5,0,0,1,1.5-1.5m0-1a2.5,2.5,0,1,0,2.5,2.5A2.5,2.5,0,0,0,2393,1709.83Z" transform="translate(-101.5 -48.5)"/></g><g class="cls-2"><circle class="cls-3" cx="2579.5" cy="1791.83" r="2"/><path class="cls-3" d="M2681,1838.83a1.5,1.5,0,1,1-1.5,1.5h0a1.5,1.5,0,0,1,1.5-1.5m0-1a2.5,2.5,0,1,0,2.5,2.5A2.5,2.5,0,0,0,2681,1837.83Z" transform="translate(-101.5 -48.5)"/></g><g class="cls-2"><circle class="cls-3" cx="2579.5" cy="1119.83" r="2"/><path class="cls-3" d="M2681,1166.83a1.5,1.5,0,1,1-1.5,1.5,1.5,1.5,0,0,1,1.5-1.5m0-1a2.5,2.5,0,1,0,2.5,2.5A2.5,2.5,0,0,0,2681,1165.83Z" transform="translate(-101.5 -48.5)"/></g><g class="cls-2"><circle class="cls-3" cx="2771.5" cy="210.5" r="2"/><path class="cls-3" d="M2873,257.5a1.5,1.5,0,1,1-1.5,1.5,1.5,1.5,0,0,1,1.5-1.5m0-1a2.5,2.5,0,1,0,2.5,2.5A2.5,2.5,0,0,0,2873,256.5Z" transform="translate(-101.5 -48.5)"/></g><g class="cls-2"><circle class="cls-3" cx="2931.5" cy="562.5" r="2"/><path class="cls-3" d="M3033,609.5a1.5,1.5,0,1,1-1.5,1.5,1.5,1.5,0,0,1,1.5-1.5m0-1a2.5,2.5,0,1,0,2.5,2.5A2.5,2.5,0,0,0,3033,608.5Z" transform="translate(-101.5 -48.5)"/></g><g class="cls-2"><circle class="cls-3" cx="2707.5" cy="690.5" r="2"/><path class="cls-3" d="M2809,737.5a1.5,1.5,0,1,1-1.5,1.5,1.5,1.5,0,0,1,1.5-1.5m0-1a2.5,2.5,0,1,0,2.5,2.5A2.5,2.5,0,0,0,2809,736.5Z" transform="translate(-101.5 -48.5)"/></g><g class="cls-2"><circle class="cls-3" cx="3699.5" cy="978.5" r="2"/><path class="cls-3" d="M3801,1025.5a1.5,1.5,0,1,1-1.5,1.5,1.5,1.5,0,0,1,1.5-1.5m0-1a2.5,2.5,0,1,0,2.5,2.5A2.5,2.5,0,0,0,3801,1024.5Z" transform="translate(-101.5 -48.5)"/></g><g class="cls-2"><circle class="cls-3" cx="3750.5" cy="1298.5" r="2"/><path class="cls-3" d="M3852,1345.5a1.5,1.5,0,1,1-1.5,1.5,1.5,1.5,0,0,1,1.5-1.5m0-1a2.5,2.5,0,1,0,2.5,2.5A2.5,2.5,0,0,0,3852,1344.5Z" transform="translate(-101.5 -48.5)"/></g><g class="cls-2"><circle class="cls-3" cx="3987.5" cy="645.17" r="2"/><path class="cls-3" d="M4089,692.17a1.5,1.5,0,1,1-1.5,1.5,1.5,1.5,0,0,1,1.5-1.5m0-1a2.5,2.5,0,1,0,2.5,2.5A2.5,2.5,0,0,0,4089,691.17Z" transform="translate(-101.5 -48.5)"/></g><g class="cls-2"><circle class="cls-3" cx="3987.5" cy="997.17" r="2"/><path class="cls-3" d="M4089,1044.17a1.5,1.5,0,1,1-1.5,1.5,1.5,1.5,0,0,1,1.5-1.5m0-1a2.5,2.5,0,1,0,2.5,2.5A2.5,2.5,0,0,0,4089,1043.17Z" transform="translate(-101.5 -48.5)"/></g><g class="cls-2"><circle class="cls-3" cx="3987.5" cy="1925.17" r="2"/><path class="cls-3" d="M4089,1972.17a1.5,1.5,0,1,1-1.5,1.5,1.5,1.5,0,0,1,1.5-1.5m0-1a2.5,2.5,0,1,0,2.5,2.5A2.5,2.5,0,0,0,4089,1971.17Z" transform="translate(-101.5 -48.5)"/></g><g class="cls-2"><circle class="cls-3" cx="4467.5" cy="983.83" r="2"/><path class="cls-3" d="M4569,1030.83a1.5,1.5,0,1,1-1.5,1.5,1.5,1.5,0,0,1,1.5-1.5m0-1a2.5,2.5,0,1,0,2.5,2.5A2.5,2.5,0,0,0,4569,1029.83Z" transform="translate(-101.5 -48.5)"/></g><g class="cls-2"><circle class="cls-3" cx="4467.5" cy="1111.83" r="2"/><path class="cls-3" d="M4569,1158.83a1.5,1.5,0,1,1-1.5,1.5,1.5,1.5,0,0,1,1.5-1.5m0-1a2.5,2.5,0,1,0,2.5,2.5A2.5,2.5,0,0,0,4569,1157.83Z" transform="translate(-101.5 -48.5)"/></g><g class="cls-2"><circle class="cls-3" cx="4467.5" cy="1655.83" r="2"/><path class="cls-3" d="M4569,1702.83a1.5,1.5,0,1,1-1.5,1.5,1.5,1.5,0,0,1,1.5-1.5m0-1a2.5,2.5,0,1,0,2.5,2.5A2.5,2.5,0,0,0,4569,1701.83Z" transform="translate(-101.5 -48.5)"/></g><g class="cls-2"><circle class="cls-3" cx="4595.5" cy="2263.83" r="2"/><path class="cls-3" d="M4697,2310.83a1.5,1.5,0,1,1-1.5,1.5,1.5,1.5,0,0,1,1.5-1.5m0-1a2.5,2.5,0,1,0,2.5,2.5A2.5,2.5,0,0,0,4697,2309.83Z" transform="translate(-101.5 -48.5)"/></g><g class="cls-2"><circle class="cls-3" cx="4723.5" cy="2807.83" r="2"/><path class="cls-3" d="M4825,2854.83a1.5,1.5,0,1,1-1.5,1.5,1.5,1.5,0,0,1,1.5-1.5m0-1a2.5,2.5,0,1,0,2.5,2.5A2.5,2.5,0,0,0,4825,2853.83Z" transform="translate(-101.5 -48.5)"/></g><g class="cls-2"><circle class="cls-3" cx="4307.5" cy="2711.83" r="2"/><path class="cls-3" d="M4409,2758.83a1.5,1.5,0,1,1-1.5,1.5,1.5,1.5,0,0,1,1.5-1.5m0-1a2.5,2.5,0,1,0,2.5,2.5A2.5,2.5,0,0,0,4409,2757.83Z" transform="translate(-101.5 -48.5)"/></g><g class="cls-2"><circle class="cls-3" cx="4403.5" cy="4101.17" r="2"/><path class="cls-3" d="M4505,4148.17a1.5,1.5,0,1,1-1.5,1.5,1.5,1.5,0,0,1,1.5-1.5m0-1a2.5,2.5,0,1,0,2.5,2.5A2.5,2.5,0,0,0,4505,4147.17Z" transform="translate(-101.5 -48.5)"/></g><g class="cls-2"><circle class="cls-3" cx="4434.5" cy="3365.17" r="2"/><path class="cls-3" d="M4536,3412.17a1.5,1.5,0,1,1-1.5,1.5,1.5,1.5,0,0,1,1.5-1.5m0-1a2.5,2.5,0,1,0,2.5,2.5A2.5,2.5,0,0,0,4536,3411.17Z" transform="translate(-101.5 -48.5)"/></g><g class="cls-2"><circle class="cls-3" cx="4531.5" cy="3461.17" r="2"/><path class="cls-3" d="M4633,3508.17a1.5,1.5,0,1,1-1.5,1.5,1.5,1.5,0,0,1,1.5-1.5m0-1a2.5,2.5,0,1,0,2.5,2.5A2.5,2.5,0,0,0,4633,3507.17Z" transform="translate(-101.5 -48.5)"/></g><g class="cls-2"><circle class="cls-3" cx="4787.5" cy="3909.17" r="2"/><path class="cls-3" d="M4889,3956.17a1.5,1.5,0,1,1-1.5,1.5,1.5,1.5,0,0,1,1.5-1.5m0-1a2.5,2.5,0,1,0,2.5,2.5A2.5,2.5,0,0,0,4889,3955.17Z" transform="translate(-101.5 -48.5)"/></g><g class="cls-2"><circle class="cls-3" cx="4819.5" cy="3237.17" r="2"/><path class="cls-3" d="M4921,3284.17a1.5,1.5,0,1,1-1.5,1.5,1.5,1.5,0,0,1,1.5-1.5m0-1a2.5,2.5,0,1,0,2.5,2.5A2.5,2.5,0,0,0,4921,3283.17Z" transform="translate(-101.5 -48.5)"/></g><g class="cls-2"><circle class="cls-3" cx="4051.5" cy="3013.17" r="2"/><path class="cls-3" d="M4153,3060.17a1.5,1.5,0,1,1-1.5,1.5,1.5,1.5,0,0,1,1.5-1.5m0-1a2.5,2.5,0,1,0,2.5,2.5A2.5,2.5,0,0,0,4153,3059.17Z" transform="translate(-101.5 -48.5)"/></g><g class="cls-2"><circle class="cls-3" cx="4051.5" cy="3749.17" r="2"/><path class="cls-3" d="M4153,3796.17a1.5,1.5,0,1,1-1.5,1.5,1.5,1.5,0,0,1,1.5-1.5m0-1a2.5,2.5,0,1,0,2.5,2.5A2.5,2.5,0,0,0,4153,3795.17Z" transform="translate(-101.5 -48.5)"/></g><g class="cls-2"><circle class="cls-3" cx="4051.5" cy="4293.17" r="2"/><path class="cls-3" d="M4153,4340.17a1.5,1.5,0,1,1-1.5,1.5,1.5,1.5,0,0,1,1.5-1.5m0-1a2.5,2.5,0,1,0,2.5,2.5A2.5,2.5,0,0,0,4153,4339.17Z" transform="translate(-101.5 -48.5)"/></g><g class="cls-2"><circle class="cls-3" cx="3443.5" cy="4261.17" r="2"/><path class="cls-3" d="M3545,4308.17a1.5,1.5,0,1,1-1.5,1.5,1.5,1.5,0,0,1,1.5-1.5m0-1a2.5,2.5,0,1,0,2.5,2.5A2.5,2.5,0,0,0,3545,4307.17Z" transform="translate(-101.5 -48.5)"/></g><g class="cls-2"><circle class="cls-3" cx="2931.5" cy="3191.83" r="2"/><path class="cls-3" d="M3033,3238.83a1.5,1.5,0,1,1-1.5,1.5,1.5,1.5,0,0,1,1.5-1.5m0-1a2.5,2.5,0,1,0,2.5,2.5A2.5,2.5,0,0,0,3033,3237.83Z" transform="translate(-101.5 -48.5)"/></g><g class="cls-2"><circle class="cls-3" cx="2931.5" cy="3767.83" r="2"/><path class="cls-3" d="M3033,3814.83a1.5,1.5,0,1,1-1.5,1.5,1.5,1.5,0,0,1,1.5-1.5m0-1a2.5,2.5,0,1,0,2.5,2.5A2.5,2.5,0,0,0,3033,3813.83Z" transform="translate(-101.5 -48.5)"/></g><g class="cls-2"><circle class="cls-3" cx="2931.5" cy="4471.83" r="2"/><path class="cls-3" d="M3033,4518.83a1.5,1.5,0,1,1-1.5,1.5,1.5,1.5,0,0,1,1.5-1.5m0-1a2.5,2.5,0,1,0,2.5,2.5A2.5,2.5,0,0,0,3033,4517.83Z" transform="translate(-101.5 -48.5)"/></g><g class="cls-2"><circle class="cls-3" cx="2355.5" cy="4599.83" r="2"/><path class="cls-3" d="M2457,4646.83a1.5,1.5,0,1,1-1.5,1.5,1.5,1.5,0,0,1,1.5-1.5m0-1a2.5,2.5,0,1,0,2.5,2.5A2.5,2.5,0,0,0,2457,4645.83Z" transform="translate(-101.5 -48.5)"/></g><g class="cls-2"><circle class="cls-3" cx="2355.5" cy="4055.83" r="2"/><path class="cls-3" d="M2457,4102.83a1.5,1.5,0,1,1-1.5,1.5,1.5,1.5,0,0,1,1.5-1.5m0-1a2.5,2.5,0,1,0,2.5,2.5A2.5,2.5,0,0,0,2457,4101.83Z" transform="translate(-101.5 -48.5)"/></g><g class="cls-2"><circle class="cls-3" cx="2003.5" cy="3799.83" r="2"/><path class="cls-3" d="M2105,3846.83a1.5,1.5,0,1,1-1.5,1.5,1.5,1.5,0,0,1,1.5-1.5m0-1a2.5,2.5,0,1,0,2.5,2.5A2.5,2.5,0,0,0,2105,3845.83Z" transform="translate(-101.5 -48.5)"/></g><g class="cls-2"><circle class="cls-3" cx="2131.5" cy="4247.83" r="2"/><path class="cls-3" d="M2233,4294.83a1.5,1.5,0,1,1-1.5,1.5,1.5,1.5,0,0,1,1.5-1.5m0-1a2.5,2.5,0,1,0,2.5,2.5A2.5,2.5,0,0,0,2233,4293.83Z" transform="translate(-101.5 -48.5)"/></g><g class="cls-2"><circle class="cls-3" cx="1363.5" cy="4407.83" r="2"/><path class="cls-3" d="M1465,4454.83a1.5,1.5,0,1,1-1.5,1.5,1.5,1.5,0,0,1,1.5-1.5m0-1a2.5,2.5,0,1,0,2.5,2.5A2.5,2.5,0,0,0,1465,4453.83Z" transform="translate(-101.5 -48.5)"/></g><g class="cls-2"><circle class="cls-3" cx="1715.5" cy="4663.83" r="2"/><path class="cls-3" d="M1817,4710.83a1.5,1.5,0,1,1-1.5,1.5,1.5,1.5,0,0,1,1.5-1.5m0-1a2.5,2.5,0,1,0,2.5,2.5A2.5,2.5,0,0,0,1817,4709.83Z" transform="translate(-101.5 -48.5)"/></g><g class="cls-2"><circle class="cls-3" cx="1747.5" cy="3831.83" r="2"/><path class="cls-3" d="M1849,3878.83a1.5,1.5,0,1,1-1.5,1.5h0a1.5,1.5,0,0,1,1.5-1.5m0-1a2.5,2.5,0,1,0,2.5,2.5A2.5,2.5,0,0,0,1849,3877.83Z" transform="translate(-101.5 -48.5)"/></g><g class="cls-2"><circle class="cls-3" cx="1267.5" cy="3575.83" r="2"/><path class="cls-3" d="M1369,3622.83a1.5,1.5,0,1,1-1.5,1.5,1.5,1.5,0,0,1,1.5-1.5m0-1a2.5,2.5,0,1,0,2.5,2.5A2.5,2.5,0,0,0,1369,3621.83Z" transform="translate(-101.5 -48.5)"/></g><g class="cls-2"><circle class="cls-3" cx="1301.5" cy="3927.83" r="2"/><path class="cls-3" d="M1403,3974.83a1.5,1.5,0,1,1-1.5,1.5,1.5,1.5,0,0,1,1.5-1.5m0-1a2.5,2.5,0,1,0,2.5,2.5A2.5,2.5,0,0,0,1403,3973.83Z" transform="translate(-101.5 -48.5)"/></g><g class="cls-2"><circle class="cls-3" cx="1171.5" cy="4215.83" r="2"/><path class="cls-3" d="M1273,4262.83a1.5,1.5,0,1,1-1.5,1.5,1.5,1.5,0,0,1,1.5-1.5m0-1a2.5,2.5,0,1,0,2.5,2.5A2.5,2.5,0,0,0,1273,4261.83Z" transform="translate(-101.5 -48.5)"/></g><g class="cls-2"><circle class="cls-3" cx="1075.5" cy="3095.83" r="2"/><path class="cls-3" d="M1177,3142.83a1.5,1.5,0,1,1-1.5,1.5,1.5,1.5,0,0,1,1.5-1.5m0-1a2.5,2.5,0,1,0,2.5,2.5A2.5,2.5,0,0,0,1177,3141.83Z" transform="translate(-101.5 -48.5)"/></g><g class="cls-2"><circle class="cls-3" cx="1203.5" cy="2807.83" r="2"/><path class="cls-3" d="M1305,2854.83a1.5,1.5,0,1,1-1.5,1.5,1.5,1.5,0,0,1,1.5-1.5m0-1a2.5,2.5,0,1,0,2.5,2.5A2.5,2.5,0,0,0,1305,2853.83Z" transform="translate(-101.5 -48.5)"/></g><g class="cls-2"><circle class="cls-3" cx="1251.5" cy="2199.83" r="2"/><path class="cls-3" d="M1353,2246.83a1.5,1.5,0,1,1-1.5,1.5,1.5,1.5,0,0,1,1.5-1.5m0-1a2.5,2.5,0,1,0,2.5,2.5A2.5,2.5,0,0,0,1353,2245.83Z" transform="translate(-101.5 -48.5)"/></g><g class="cls-2"><circle class="cls-3" cx="1152.5" cy="1591.83" r="2"/><path class="cls-3" d="M1254,1638.83a1.5,1.5,0,1,1-1.5,1.5,1.5,1.5,0,0,1,1.5-1.5m0-1a2.5,2.5,0,1,0,2.5,2.5A2.5,2.5,0,0,0,1254,1637.83Z" transform="translate(-101.5 -48.5)"/></g><g class="cls-2"><circle class="cls-3" cx="1491.5" cy="1591.83" r="2"/><path class="cls-3" d="M1593,1638.83a1.5,1.5,0,1,1-1.5,1.5,1.5,1.5,0,0,1,1.5-1.5m0-1a2.5,2.5,0,1,0,2.5,2.5A2.5,2.5,0,0,0,1593,1637.83Z" transform="translate(-101.5 -48.5)"/></g><g class="cls-2"><circle class="cls-3" cx="1523.5" cy="1367.83" r="2"/><path class="cls-3" d="M1625,1414.83a1.5,1.5,0,1,1-1.5,1.5,1.5,1.5,0,0,1,1.5-1.5m0-1a2.5,2.5,0,1,0,2.5,2.5A2.5,2.5,0,0,0,1625,1413.83Z" transform="translate(-101.5 -48.5)"/></g><g class="cls-2"><circle class="cls-3" cx="1843.5" cy="1783.83" r="2"/><path class="cls-3" d="M1945,1830.83a1.5,1.5,0,1,1-1.5,1.5,1.5,1.5,0,0,1,1.5-1.5m0-1a2.5,2.5,0,1,0,2.5,2.5A2.5,2.5,0,0,0,1945,1829.83Z" transform="translate(-101.5 -48.5)"/></g><g class="cls-2"><circle class="cls-3" cx="1971.5" cy="1367.83" r="2"/><path class="cls-3" d="M2073,1414.83a1.5,1.5,0,1,1-1.5,1.5,1.5,1.5,0,0,1,1.5-1.5m0-1a2.5,2.5,0,1,0,2.5,2.5A2.5,2.5,0,0,0,2073,1413.83Z" transform="translate(-101.5 -48.5)"/></g><g class="cls-2"><circle class="cls-3" cx="2131.5" cy="887.83" r="2"/><path class="cls-3" d="M2233,934.83a1.5,1.5,0,1,1-1.5,1.5,1.5,1.5,0,0,1,1.5-1.5m0-1a2.5,2.5,0,1,0,2.5,2.5A2.5,2.5,0,0,0,2233,933.83Z" transform="translate(-101.5 -48.5)"/></g><g class="cls-2"><circle class="cls-3" cx="1331.5" cy="919.83" r="2"/><path class="cls-3" d="M1433,966.83a1.5,1.5,0,1,1-1.5,1.5,1.5,1.5,0,0,1,1.5-1.5m0-1a2.5,2.5,0,1,0,2.5,2.5A2.5,2.5,0,0,0,1433,965.83Z" transform="translate(-101.5 -48.5)"/></g><g class="cls-2"><circle class="cls-3" cx="851.5" cy="663.83" r="2"/><path class="cls-3" d="M953,710.83a1.5,1.5,0,1,1-1.5,1.5,1.5,1.5,0,0,1,1.5-1.5m0-1a2.5,2.5,0,1,0,2.5,2.5A2.5,2.5,0,0,0,953,709.83Z" transform="translate(-101.5 -48.5)"/></g><g class="cls-2"><circle class="cls-3" cx="1107.5" cy="1207.83" r="2"/><path class="cls-3" d="M1209,1254.83a1.5,1.5,0,1,1-1.5,1.5,1.5,1.5,0,0,1,1.5-1.5m0-1a2.5,2.5,0,1,0,2.5,2.5A2.5,2.5,0,0,0,1209,1253.83Z" transform="translate(-101.5 -48.5)"/></g><g class="cls-2"><circle class="cls-3" cx="691.5" cy="1399.83" r="2"/><path class="cls-3" d="M793,1446.83a1.5,1.5,0,1,1-1.5,1.5,1.5,1.5,0,0,1,1.5-1.5m0-1a2.5,2.5,0,1,0,2.5,2.5A2.5,2.5,0,0,0,793,1445.83Z" transform="translate(-101.5 -48.5)"/></g><g class="cls-2"><circle class="cls-3" cx="691.5" cy="1911.83" r="2"/><path class="cls-3" d="M793,1958.83a1.5,1.5,0,1,1-1.5,1.5,1.5,1.5,0,0,1,1.5-1.5m0-1a2.5,2.5,0,1,0,2.5,2.5A2.5,2.5,0,0,0,793,1957.83Z" transform="translate(-101.5 -48.5)"/></g><g class="cls-2"><circle class="cls-3" cx="275.5" cy="2199.83" r="2"/><path class="cls-3" d="M377,2246.83a1.5,1.5,0,1,1-1.5,1.5,1.5,1.5,0,0,1,1.5-1.5m0-1a2.5,2.5,0,1,0,2.5,2.5A2.5,2.5,0,0,0,377,2245.83Z" transform="translate(-101.5 -48.5)"/></g><g class="cls-2"><circle class="cls-3" cx="531.5" cy="2743.83" r="2"/><path class="cls-3" d="M633,2790.83a1.5,1.5,0,1,1-1.5,1.5,1.5,1.5,0,0,1,1.5-1.5m0-1a2.5,2.5,0,1,0,2.5,2.5A2.5,2.5,0,0,0,633,2789.83Z" transform="translate(-101.5 -48.5)"/></g><g class="cls-2"><circle class="cls-3" cx="819.5" cy="2551.83" r="2"/><path class="cls-3" d="M921,2598.83a1.5,1.5,0,1,1-1.5,1.5,1.5,1.5,0,0,1,1.5-1.5m0-1a2.5,2.5,0,1,0,2.5,2.5A2.5,2.5,0,0,0,921,2597.83Z" transform="translate(-101.5 -48.5)"/></g><g class="cls-2"><circle class="cls-3" cx="819.5" cy="3575.83" r="2"/><path class="cls-3" d="M921,3622.83a1.5,1.5,0,1,1-1.5,1.5,1.5,1.5,0,0,1,1.5-1.5m0-1a2.5,2.5,0,1,0,2.5,2.5A2.5,2.5,0,0,0,921,3621.83Z" transform="translate(-101.5 -48.5)"/></g><g class="cls-2"><circle class="cls-3" cx="723.5" cy="3991.83" r="2"/><path class="cls-3" d="M825,4038.83a1.5,1.5,0,1,1-1.5,1.5h0a1.5,1.5,0,0,1,1.5-1.5m0-1a2.5,2.5,0,1,0,2.5,2.5A2.5,2.5,0,0,0,825,4037.83Z" transform="translate(-101.5 -48.5)"/></g><g class="cls-2"><circle class="cls-3" cx="979.5" cy="3863.83" r="2"/><path class="cls-3" d="M1081,3910.83a1.5,1.5,0,1,1-1.5,1.5,1.5,1.5,0,0,1,1.5-1.5h0m0-1a2.5,2.5,0,1,0,2.5,2.5A2.5,2.5,0,0,0,1081,3909.83Z" transform="translate(-101.5 -48.5)"/></g><g class="cls-2"><circle class="cls-3" cx="563.5" cy="4407.83" r="2"/><path class="cls-3" d="M665,4454.83a1.5,1.5,0,1,1-1.5,1.5,1.5,1.5,0,0,1,1.5-1.5m0-1a2.5,2.5,0,1,0,2.5,2.5A2.5,2.5,0,0,0,665,4453.83Z" transform="translate(-101.5 -48.5)"/></g><g class="cls-2"><circle class="cls-3" cx="819.5" cy="4471.83" r="2"/><path class="cls-3" d="M921,4518.83a1.5,1.5,0,1,1-1.5,1.5,1.5,1.5,0,0,1,1.5-1.5m0-1a2.5,2.5,0,1,0,2.5,2.5A2.5,2.5,0,0,0,921,4517.83Z" transform="translate(-101.5 -48.5)"/></g><g class="cls-2"><circle class="cls-3" cx="435.5" cy="3383.83" r="2"/><path class="cls-3" d="M537,3430.83a1.5,1.5,0,1,1-1.5,1.5,1.5,1.5,0,0,1,1.5-1.5m0-1a2.5,2.5,0,1,0,2.5,2.5A2.5,2.5,0,0,0,537,3429.83Z" transform="translate(-101.5 -48.5)"/></g><g class="cls-2"><circle class="cls-3" cx="339.5" cy="727.83" r="2"/><path class="cls-3" d="M441,774.83a1.5,1.5,0,1,1-1.5,1.5,1.5,1.5,0,0,1,1.5-1.5m0-1a2.5,2.5,0,1,0,2.5,2.5A2.5,2.5,0,0,0,441,773.83Z" transform="translate(-101.5 -48.5)"/></g><g class="cls-2"><circle class="cls-3" cx="1395.5" cy="311.83" r="2"/><path class="cls-3" d="M1497,358.83a1.5,1.5,0,1,1-1.5,1.5,1.5,1.5,0,0,1,1.5-1.5m0-1a2.5,2.5,0,1,0,2.5,2.5A2.5,2.5,0,0,0,1497,357.83Z" transform="translate(-101.5 -48.5)"/></g><g class="cls-2"><circle class="cls-3" cx="1683.5" cy="631.83" r="2"/><path class="cls-3" d="M1785,678.83a1.5,1.5,0,1,1-1.5,1.5,1.5,1.5,0,0,1,1.5-1.5m0-1a2.5,2.5,0,1,0,2.5,2.5A2.5,2.5,0,0,0,1785,677.83Z" transform="translate(-101.5 -48.5)"/></g><g class="cls-7"><circle class="cls-3" cx="3224.61" cy="1064.83" r="2"/><path class="cls-3" d="M3326.11,1111.83a1.5,1.5,0,1,1-1.5,1.5,1.5,1.5,0,0,1,1.5-1.5m0-1a2.5,2.5,0,1,0,2.5,2.5A2.5,2.5,0,0,0,3326.11,1110.83Z" transform="translate(-101.5 -48.5)"/></g><g class="cls-2"><circle class="cls-3" cx="3475.5" cy="407.83" r="2"/><path class="cls-3" d="M3577,454.83a1.5,1.5,0,1,1-1.5,1.5,1.5,1.5,0,0,1,1.5-1.5m0-1a2.5,2.5,0,1,0,2.5,2.5A2.5,2.5,0,0,0,3577,453.83Z" transform="translate(-101.5 -48.5)"/></g><g class="cls-2"><circle class="cls-3" cx="4819.5" cy="503.83" r="2"/><path class="cls-3" d="M4921,550.83a1.5,1.5,0,1,1-1.5,1.5,1.5,1.5,0,0,1,1.5-1.5m0-1a2.5,2.5,0,1,0,2.5,2.5A2.5,2.5,0,0,0,4921,549.83Z" transform="translate(-101.5 -48.5)"/></g><g class="cls-2"><circle class="cls-3" cx="4723.5" cy="1719.83" r="2"/><path class="cls-3" d="M4825,1766.83a1.5,1.5,0,1,1-1.5,1.5,1.5,1.5,0,0,1,1.5-1.5m0-1a2.5,2.5,0,1,0,2.5,2.5A2.5,2.5,0,0,0,4825,1765.83Z" transform="translate(-101.5 -48.5)"/></g><g class="cls-2"><circle class="cls-3" cx="4787.5" cy="2327.83" r="2"/><path class="cls-3" d="M4889,2374.83a1.5,1.5,0,1,1-1.5,1.5,1.5,1.5,0,0,1,1.5-1.5m0-1a2.5,2.5,0,1,0,2.5,2.5A2.5,2.5,0,0,0,4889,2373.83Z" transform="translate(-101.5 -48.5)"/></g><g class="cls-2"><circle class="cls-3" cx="3188.83" cy="2328.5" r="2"/><path class="cls-3" d="M3290.33,2375.5a1.5,1.5,0,1,1-1.5,1.5,1.5,1.5,0,0,1,1.5-1.5m0-1a2.5,2.5,0,1,0,2.5,2.5A2.5,2.5,0,0,0,3290.33,2374.5Z" transform="translate(-101.5 -48.5)"/></g><g class="cls-2"><circle class="cls-3" cx="3083.83" cy="2136.5" r="2"/><path class="cls-3" d="M3185.33,2183.5a1.5,1.5,0,1,1-1.5,1.5,1.5,1.5,0,0,1,1.5-1.5m0-1a2.5,2.5,0,1,0,2.5,2.5A2.5,2.5,0,0,0,3185.33,2182.5Z" transform="translate(-101.5 -48.5)"/></g><g class="cls-2"><circle class="cls-3" cx="3572.83" cy="2264.5" r="2"/><path class="cls-3" d="M3674.33,2311.5a1.5,1.5,0,1,1-1.5,1.5,1.5,1.5,0,0,1,1.5-1.5m0-1a2.5,2.5,0,1,0,2.5,2.5A2.5,2.5,0,0,0,3674.33,2310.5Z" transform="translate(-101.5 -48.5)"/></g><g class="cls-2"><circle class="cls-3" cx="3700.83" cy="2072.5" r="2"/><path class="cls-3" d="M3802.33,2119.5a1.5,1.5,0,1,1-1.5,1.5,1.5,1.5,0,0,1,1.5-1.5m0-1a2.5,2.5,0,1,0,2.5,2.5A2.5,2.5,0,0,0,3802.33,2118.5Z" transform="translate(-101.5 -48.5)"/></g><g class="cls-2"><circle class="cls-3" cx="3060.83" cy="1944.5" r="2"/><path class="cls-3" d="M3162.33,1991.5a1.5,1.5,0,1,1-1.5,1.5,1.5,1.5,0,0,1,1.5-1.5h0m0-1a2.5,2.5,0,1,0,2.5,2.5A2.5,2.5,0,0,0,3162.33,1990.5Z" transform="translate(-101.5 -48.5)"/></g><g class="cls-2"><circle class="cls-3" cx="2804.83" cy="2264.5" r="2"/><path class="cls-3" d="M2906.33,2311.5a1.5,1.5,0,1,1-1.5,1.5,1.5,1.5,0,0,1,1.5-1.5m0-1a2.5,2.5,0,1,0,2.5,2.5A2.5,2.5,0,0,0,2906.33,2310.5Z" transform="translate(-101.5 -48.5)"/></g><g class="cls-2"><circle class="cls-3" cx="2835.5" cy="2735.39" r="2"/><path class="cls-3" d="M2937,2782.39a1.5,1.5,0,1,1-1.5,1.5,1.5,1.5,0,0,1,1.5-1.5m0-1a2.5,2.5,0,1,0,2.5,2.5A2.5,2.5,0,0,0,2937,2781.39Z" transform="translate(-101.5 -48.5)"/></g><g class="cls-2"><circle class="cls-3" cx="2740.83" cy="3544.5" r="2"/><path class="cls-3" d="M2842.33,3591.5a1.5,1.5,0,1,1-1.5,1.5,1.5,1.5,0,0,1,1.5-1.5m0-1a2.5,2.5,0,1,0,2.5,2.5A2.5,2.5,0,0,0,2842.33,3590.5Z" transform="translate(-101.5 -48.5)"/></g><g class="cls-2"><circle class="cls-3" cx="3124.83" cy="2456.5" r="2"/><path class="cls-3" d="M3226.33,2503.5a1.5,1.5,0,1,1-1.5,1.5,1.5,1.5,0,0,1,1.5-1.5m0-1a2.5,2.5,0,1,0,2.5,2.5A2.5,2.5,0,0,0,3226.33,2502.5Z" transform="translate(-101.5 -48.5)"/></g><g class="cls-8"><circle class="cls-3" cx="2432.5" cy="2120.5" r="3"/><path class="cls-3" d="M2534,2166.5a2.5,2.5,0,1,1-2.5,2.5,2.5,2.5,0,0,1,2.5-2.5m0-1a3.5,3.5,0,1,0,3.5,3.5,3.5,3.5,0,0,0-3.5-3.5Z" transform="translate(-101.5 -48.5)"/></g><g class="cls-8"><circle class="cls-3" cx="3116.83" cy="4902.83" r="3"/><path class="cls-3" d="M3218.33,4948.83a2.5,2.5,0,1,1-2.5,2.5,2.5,2.5,0,0,1,2.5-2.5m0-1a3.5,3.5,0,1,0,3.5,3.5,3.5,3.5,0,0,0-3.5-3.5Z" transform="translate(-101.5 -48.5)"/></g><g class="cls-8"><circle class="cls-3" cx="2092.83" cy="4285.83" r="3"/><path class="cls-3" d="M2194.33,4331.83a2.5,2.5,0,1,1-2.5,2.5,2.5,2.5,0,0,1,2.5-2.5m0-1a3.5,3.5,0,1,0,3.5,3.5,3.5,3.5,0,0,0-3.5-3.5Z" transform="translate(-101.5 -48.5)"/></g><g class="cls-8"><circle class="cls-3" cx="2732.83" cy="3197.83" r="3"/><path class="cls-3" d="M2834.33,3243.83a2.5,2.5,0,1,1-2.5,2.5,2.5,2.5,0,0,1,2.5-2.5m0-1a3.5,3.5,0,1,0,3.5,3.5,3.5,3.5,0,0,0-3.5-3.5Z" transform="translate(-101.5 -48.5)"/></g><g class="cls-8"><circle class="cls-3" cx="2979.5" cy="818.5" r="3"/><path class="cls-3" d="M3081,864.5a2.5,2.5,0,1,1-2.5,2.5,2.5,2.5,0,0,1,2.5-2.5m0-1a3.5,3.5,0,1,0,3.5,3.5A3.5,3.5,0,0,0,3081,863.5Z" transform="translate(-101.5 -48.5)"/></g><g class="cls-8"><circle class="cls-3" cx="2888.5" cy="1394.5" r="3"/><path class="cls-3" d="M2990,1440.5a2.5,2.5,0,1,1-2.5,2.5,2.5,2.5,0,0,1,2.5-2.5m0-1a3.5,3.5,0,1,0,3.5,3.5,3.5,3.5,0,0,0-3.5-3.5Z" transform="translate(-101.5 -48.5)"/></g><g class="cls-8"><circle class="cls-3" cx="3939.5" cy="3026.5" r="3"/><path class="cls-3" d="M4041,3072.5a2.5,2.5,0,1,1-2.5,2.5,2.5,2.5,0,0,1,2.5-2.5m0-1a3.5,3.5,0,1,0,3.5,3.5,3.5,3.5,0,0,0-3.5-3.5Z" transform="translate(-101.5 -48.5)"/></g><g class="cls-8"><circle class="cls-3" cx="1347.5" cy="1586.5" r="3"/><path class="cls-3" d="M1449,1632.5a2.5,2.5,0,1,1-2.5,2.5,2.5,2.5,0,0,1,2.5-2.5m0-1a3.5,3.5,0,1,0,3.5,3.5,3.5,3.5,0,0,0-3.5-3.5Z" transform="translate(-101.5 -48.5)"/></g><g class="cls-8"><circle class="cls-3" cx="963.5" cy="3026.5" r="3"/><path class="cls-3" d="M1065,3072.5a2.5,2.5,0,1,1-2.5,2.5,2.5,2.5,0,0,1,2.5-2.5m0-1a3.5,3.5,0,1,0,3.5,3.5,3.5,3.5,0,0,0-3.5-3.5Z" transform="translate(-101.5 -48.5)"/></g><g class="cls-8"><circle class="cls-3" cx="3.5" cy="3986.5" r="3"/><path class="cls-3" d="M105,4032.5a2.5,2.5,0,1,1-2.5,2.5,2.5,2.5,0,0,1,2.5-2.5m0-1a3.5,3.5,0,1,0,3.5,3.5h0A3.5,3.5,0,0,0,105,4031.5Z" transform="translate(-101.5 -48.5)"/></g><g class="cls-8"><circle class="cls-3" cx="387.5" cy="3122.5" r="3"/><path class="cls-3" d="M489,3168.5a2.5,2.5,0,1,1-2.5,2.5,2.5,2.5,0,0,1,2.5-2.5m0-1a3.5,3.5,0,1,0,3.5,3.5,3.5,3.5,0,0,0-3.5-3.5Z" transform="translate(-101.5 -48.5)"/></g><g class="cls-8"><circle class="cls-3" cx="387.5" cy="1778.5" r="3"/><path class="cls-3" d="M489,1824.5a2.5,2.5,0,1,1-2.5,2.5,2.5,2.5,0,0,1,2.5-2.5m0-1a3.5,3.5,0,1,0,3.5,3.5,3.5,3.5,0,0,0-3.5-3.5Z" transform="translate(-101.5 -48.5)"/></g><g class="cls-8"><circle class="cls-3" cx="3483.5" cy="3972.5" r="3"/><path class="cls-3" d="M3585,4018.5a2.5,2.5,0,1,1-2.5,2.5,2.5,2.5,0,0,1,2.5-2.5m0-1a3.5,3.5,0,1,0,3.5,3.5,3.5,3.5,0,0,0-3.5-3.5Z" transform="translate(-101.5 -48.5)"/></g><g class="cls-9"><circle class="cls-3" cx="3886.5" cy="3505.5" r="4"/><path class="cls-3" d="M3988,3550.5a3.5,3.5,0,1,1-3.5,3.5,3.5,3.5,0,0,1,3.5-3.5h0m0-1a4.5,4.5,0,1,0,4.5,4.5h0a4.49,4.49,0,0,0-4.48-4.5Z" transform="translate(-101.5 -48.5)"/></g><g class="cls-9"><circle class="cls-3" cx="4034.5" cy="1997.5" r="4"/><path class="cls-3" d="M4136,2042.5a3.5,3.5,0,1,1-3.5,3.5,3.5,3.5,0,0,1,3.5-3.5h0m0-1a4.5,4.5,0,1,0,4.5,4.5h0a4.49,4.49,0,0,0-4.48-4.5Z" transform="translate(-101.5 -48.5)"/></g><g class="cls-9"><circle class="cls-3" cx="3163.5" cy="3219.5" r="4"/><path class="cls-3" d="M3265,3264.5a3.5,3.5,0,1,1-3.5,3.5,3.5,3.5,0,0,1,3.5-3.5h0m0-1a4.5,4.5,0,1,0,4.5,4.5h0a4.49,4.49,0,0,0-4.48-4.5Z" transform="translate(-101.5 -48.5)"/></g><g class="cls-9"><circle class="cls-3" cx="2984.5" cy="2258.5" r="4"/><path class="cls-3" d="M3086,2303.5a3.5,3.5,0,1,1-3.5,3.5,3.5,3.5,0,0,1,3.5-3.5h0m0-1a4.5,4.5,0,1,0,4.5,4.5,4.49,4.49,0,0,0-4.5-4.5Z" transform="translate(-101.5 -48.5)"/></g><g class="cls-9"><circle class="cls-3" cx="2119.5" cy="1586.5" r="4"/><path class="cls-3" d="M2221,1631.5a3.5,3.5,0,1,1-3.5,3.5,3.5,3.5,0,0,1,3.5-3.5h0m0-1a4.5,4.5,0,1,0,4.5,4.5,4.49,4.49,0,0,0-4.5-4.5Z" transform="translate(-101.5 -48.5)"/></g><g class="cls-9"><circle class="cls-3" cx="2695.5" cy="4178.5" r="4"/><path class="cls-3" d="M2797,4223.5a3.5,3.5,0,1,1-3.5,3.5h0a3.5,3.5,0,0,1,3.5-3.5m0-1a4.5,4.5,0,1,0,4.5,4.5h0a4.49,4.49,0,0,0-4.48-4.5Z" transform="translate(-101.5 -48.5)"/></g><g class="cls-9"><circle class="cls-3" cx="1255.5" cy="3410.5" r="4"/><path class="cls-3" d="M1357,3455.5a3.5,3.5,0,1,1-3.5,3.5,3.5,3.5,0,0,1,3.5-3.5h0m0-1a4.5,4.5,0,1,0,4.5,4.5h0a4.49,4.49,0,0,0-4.48-4.5Z" transform="translate(-101.5 -48.5)"/></g><g class="cls-9"><circle class="cls-3" cx="871.5" cy="1874.5" r="4"/><path class="cls-3" d="M973,1919.5a3.5,3.5,0,1,1-3.5,3.5,3.5,3.5,0,0,1,3.5-3.5h0m0-1a4.5,4.5,0,1,0,4.5,4.5,4.49,4.49,0,0,0-4.5-4.5Z" transform="translate(-101.5 -48.5)"/></g><g class="cls-9"><circle class="cls-3" cx="871.5" cy="4.5" r="4"/><path class="cls-3" d="M973,49.5a3.5,3.5,0,1,1-3.5,3.5,3.5,3.5,0,0,1,3.5-3.5m0-1a4.5,4.5,0,1,0,4.5,4.5,4.49,4.49,0,0,0-4.5-4.5Z" transform="translate(-101.5 -48.5)"/></g><g class="cls-9"><circle class="cls-3" cx="627.5" cy="1106.5" r="4"/><path class="cls-3" d="M729,1151.5a3.5,3.5,0,1,1-3.5,3.5,3.5,3.5,0,0,1,3.5-3.5m0-1a4.5,4.5,0,1,0,4.5,4.5,4.49,4.49,0,0,0-4.5-4.5Z" transform="translate(-101.5 -48.5)"/></g><g class="cls-9"><circle class="cls-3" cx="1351.5" cy="1298.5" r="4"/><path class="cls-3" d="M1453,1343.5a3.5,3.5,0,1,1-3.5,3.5,3.5,3.5,0,0,1,3.5-3.5m0-1a4.5,4.5,0,1,0,4.5,4.5,4.49,4.49,0,0,0-4.5-4.5Z" transform="translate(-101.5 -48.5)"/></g><g class="cls-9"><circle class="cls-3" cx="1927.5" cy="1298.5" r="4"/><path class="cls-3" d="M2029,1343.5a3.5,3.5,0,1,1-3.5,3.5,3.5,3.5,0,0,1,3.5-3.5m0-1a4.5,4.5,0,1,0,4.5,4.5,4.49,4.49,0,0,0-4.5-4.5Z" transform="translate(-101.5 -48.5)"/></g><g class="cls-9"><circle class="cls-3" cx="1927.5" cy="3755.5" r="4"/><path class="cls-3" d="M2029,3800.5a3.5,3.5,0,1,1-3.5,3.5,3.5,3.5,0,0,1,3.5-3.5h0m0-1a4.5,4.5,0,1,0,4.5,4.5h0a4.49,4.49,0,0,0-4.48-4.5Z" transform="translate(-101.5 -48.5)"/></g><g class="cls-9"><circle class="cls-3" cx="3498.72" cy="2907.2" r="4"/><path class="cls-3" d="M3600.22,2952.2a3.5,3.5,0,1,1-3.5,3.5,3.49,3.49,0,0,1,3.5-3.5h0m0-1a4.5,4.5,0,1,0,4.5,4.5,4.5,4.5,0,0,0-4.5-4.5Z" transform="translate(-101.5 -48.5)"/></g><g class="cls-9"><circle class="cls-3" cx="1735.5" cy="2354.5" r="4"/><path class="cls-3" d="M1837,2399.5a3.5,3.5,0,1,1-3.5,3.5,3.5,3.5,0,0,1,3.5-3.5h0m0-1a4.5,4.5,0,1,0,4.5,4.5,4.49,4.49,0,0,0-4.5-4.5Z" transform="translate(-101.5 -48.5)"/></g><g class="cls-4"><circle class="cls-3" cx="2905.5" cy="2658.83" r="1"/><path class="cls-3" d="M3007,2706.83a.5.5,0,1,1-.5.5.5.5,0,0,1,.5-.5m0-1a1.5,1.5,0,1,0,1.5,1.5A1.5,1.5,0,0,0,3007,2705.83Z" transform="translate(-101.5 -48.5)"/></g><g class="cls-4"><circle class="cls-3" cx="2793.5" cy="2514.83" r="1"/><path class="cls-3" d="M2895,2562.83a.5.5,0,1,1-.5.5.5.5,0,0,1,.5-.5m0-1a1.5,1.5,0,1,0,1.5,1.5A1.5,1.5,0,0,0,2895,2561.83Z" transform="translate(-101.5 -48.5)"/></g><g class="cls-4"><circle class="cls-3" cx="2726.61" cy="2666.94" r="1"/><path class="cls-3" d="M2828.11,2714.94a.5.5,0,1,1-.5.5.52.52,0,0,1,.5-.5m0-1a1.5,1.5,0,1,0,1.5,1.5A1.5,1.5,0,0,0,2828.11,2713.94Z" transform="translate(-101.5 -48.5)"/></g><g class="cls-4"><circle class="cls-3" cx="2601.5" cy="2114.83" r="1"/><path class="cls-3" d="M2703,2162.83a.5.5,0,1,1-.5.5.5.5,0,0,1,.5-.5m0-1a1.5,1.5,0,1,0,1.5,1.5A1.5,1.5,0,0,0,2703,2161.83Z" transform="translate(-101.5 -48.5)"/></g><g class="cls-4"><circle class="cls-3" cx="2581.5" cy="2242.83" r="1"/><path class="cls-3" d="M2683,2290.83a.5.5,0,1,1-.5.5.5.5,0,0,1,.5-.5m0-1a1.5,1.5,0,1,0,1.5,1.5A1.5,1.5,0,0,0,2683,2289.83Z" transform="translate(-101.5 -48.5)"/></g><g class="cls-4"><circle class="cls-3" cx="2329.5" cy="2082.83" r="1"/><path class="cls-3" d="M2431,2130.83a.5.5,0,1,1-.5.5.5.5,0,0,1,.5-.5m0-1a1.5,1.5,0,1,0,1.5,1.5A1.5,1.5,0,0,0,2431,2129.83Z" transform="translate(-101.5 -48.5)"/></g><g class="cls-4"><circle class="cls-3" cx="1945.5" cy="2082.83" r="1"/><path class="cls-3" d="M2047,2130.83a.5.5,0,1,1-.5.5.5.5,0,0,1,.5-.5m0-1a1.5,1.5,0,1,0,1.5,1.5A1.5,1.5,0,0,0,2047,2129.83Z" transform="translate(-101.5 -48.5)"/></g><g class="cls-5"><circle class="cls-3" cx="1945.5" cy="2274.83" r="1"/><path class="cls-3" d="M2047,2322.83a.5.5,0,1,1-.5.5.5.5,0,0,1,.5-.5m0-1a1.5,1.5,0,1,0,1.5,1.5A1.5,1.5,0,0,0,2047,2321.83Z" transform="translate(-101.5 -48.5)"/></g><g class="cls-4"><circle class="cls-3" cx="2153.5" cy="1842.83" r="1"/><path class="cls-3" d="M2255,1890.83a.5.5,0,1,1-.5.5.5.5,0,0,1,.5-.5m0-1a1.5,1.5,0,1,0,1.5,1.5A1.5,1.5,0,0,0,2255,1889.83Z" transform="translate(-101.5 -48.5)"/></g><g class="cls-4"><circle class="cls-3" cx="2153.5" cy="2034.83" r="1"/><path class="cls-3" d="M2255,2082.83a.5.5,0,1,1-.5.5.5.5,0,0,1,.5-.5m0-1a1.5,1.5,0,1,0,1.5,1.5A1.5,1.5,0,0,0,2255,2081.83Z" transform="translate(-101.5 -48.5)"/></g><g class="cls-4"><circle class="cls-3" cx="1559.88" cy="1806.21" r="1"/><path class="cls-3" d="M1661.38,1854.21a.5.5,0,1,1-.5.5.52.52,0,0,1,.5-.5m0-1a1.5,1.5,0,1,0,1.5,1.5h0A1.5,1.5,0,0,0,1661.38,1853.21Z" transform="translate(-101.5 -48.5)"/></g><g class="cls-4"><circle class="cls-3" cx="1559.88" cy="3817.64" r="1"/><path class="cls-3" d="M1661.38,3865.64a.5.5,0,1,1-.5.5.52.52,0,0,1,.5-.5m0-1a1.5,1.5,0,1,0,1.5,1.5h0A1.5,1.5,0,0,0,1661.38,3864.64Z" transform="translate(-101.5 -48.5)"/></g><g class="cls-4"><circle class="cls-3" cx="737.02" cy="3817.64" r="1"/><path class="cls-3" d="M838.52,3865.64a.5.5,0,1,1-.5.5.52.52,0,0,1,.5-.5m0-1a1.5,1.5,0,1,0,1.5,1.5h0A1.5,1.5,0,0,0,838.52,3864.64Z" transform="translate(-101.5 -48.5)"/></g><g class="cls-4"><circle class="cls-3" cx="417.02" cy="3817.64" r="1"/><path class="cls-3" d="M518.52,3865.64a.5.5,0,1,1-.5.5.52.52,0,0,1,.5-.5m0-1a1.5,1.5,0,1,0,1.5,1.5h0A1.5,1.5,0,0,0,518.52,3864.64Z" transform="translate(-101.5 -48.5)"/></g><g class="cls-4"><circle class="cls-3" cx="234.17" cy="2491.93" r="1"/><path class="cls-3" d="M335.67,2539.93a.5.5,0,0,1,.5.5.52.52,0,0,1-.5.5.5.5,0,0,1,0-1m0-1a1.5,1.5,0,1,0,1.5,1.5A1.5,1.5,0,0,0,335.67,2538.93Z" transform="translate(-101.5 -48.5)"/></g><g class="cls-4"><circle class="cls-3" cx="1011.31" cy="2629.07" r="1"/><path class="cls-3" d="M1112.81,2677.07a.5.5,0,1,1-.5.5.5.5,0,0,1,.5-.5m0-1a1.5,1.5,0,1,0,1.5,1.5A1.5,1.5,0,0,0,1112.81,2676.07Z" transform="translate(-101.5 -48.5)"/></g><g class="cls-4"><circle class="cls-3" cx="1011.31" cy="1806.21" r="1"/><path class="cls-3" d="M1112.81,1854.21a.5.5,0,1,1-.5.5.5.5,0,0,1,.5-.5m0-1a1.5,1.5,0,1,0,1.5,1.5h0A1.5,1.5,0,0,0,1112.81,1853.21Z" transform="translate(-101.5 -48.5)"/></g><g class="cls-4"><circle class="cls-3" cx="3937.02" cy="1714.79" r="1"/><path class="cls-3" d="M4038.52,1762.79a.5.5,0,0,1,0,1,.52.52,0,0,1-.5-.5.5.5,0,0,1,.5-.5m0-1a1.5,1.5,0,1,0,1.5,1.5,1.5,1.5,0,0,0-1.5-1.5Z" transform="translate(-101.5 -48.5)"/></g><g class="cls-4"><circle class="cls-3" cx="4211.31" cy="1257.64" r="1"/><path class="cls-3" d="M4312.81,1305.64a.5.5,0,1,1-.5.5.5.5,0,0,1,.5-.5m0-1a1.5,1.5,0,1,0,1.5,1.5A1.5,1.5,0,0,0,4312.81,1304.64Z" transform="translate(-101.5 -48.5)"/></g><g class="cls-4"><circle class="cls-3" cx="4211.31" cy="3634.79" r="1"/><path class="cls-3" d="M4312.81,3682.79a.5.5,0,1,1-.5.5.5.5,0,0,1,.5-.5m0-1a1.5,1.5,0,1,0,1.5,1.5h0A1.5,1.5,0,0,0,4312.81,3681.79Z" transform="translate(-101.5 -48.5)"/></g><g class="cls-4"><circle class="cls-3" cx="4714.17" cy="2857.64" r="1"/><path class="cls-3" d="M4815.67,2905.64a.52.52,0,0,1,.5.5.5.5,0,1,1-.5-.5m0-1a1.5,1.5,0,1,0,1.5,1.5A1.5,1.5,0,0,0,4815.67,2904.64Z" transform="translate(-101.5 -48.5)"/></g><g class="cls-4"><circle class="cls-3" cx="4622.74" cy="1760.5" r="1"/><path class="cls-3" d="M4724.24,1808.5a.5.5,0,1,1-.5.5.5.5,0,0,1,.5-.5m0-1a1.5,1.5,0,1,0,1.5,1.5A1.5,1.5,0,0,0,4724.24,1807.5Z" transform="translate(-101.5 -48.5)"/></g><g class="cls-4"><circle class="cls-3" cx="4622.74" cy="1349.07" r="1"/><path class="cls-3" d="M4724.24,1397.07a.52.52,0,0,1,.5.5.5.5,0,1,1-.5-.5m0-1a1.5,1.5,0,1,0,1.5,1.5A1.5,1.5,0,0,0,4724.24,1396.07Z" transform="translate(-101.5 -48.5)"/></g><g class="cls-4"><circle class="cls-3" cx="3754.17" cy="891.93" r="1"/><path class="cls-3" d="M3855.67,939.93a.5.5,0,0,1,.5.5.52.52,0,0,1-.5.5.5.5,0,0,1,0-1m0-1a1.5,1.5,0,1,0,1.5,1.5,1.5,1.5,0,0,0-1.5-1.5Z" transform="translate(-101.5 -48.5)"/></g><g class="cls-4"><circle class="cls-3" cx="2565.6" cy="983.36" r="1"/><path class="cls-3" d="M2667.1,1031.36a.5.5,0,0,1,.5.5.52.52,0,0,1-.5.5.5.5,0,0,1,0-1m0-1a1.5,1.5,0,1,0,1.5,1.5A1.5,1.5,0,0,0,2667.1,1030.36Z" transform="translate(-101.5 -48.5)"/></g><g class="cls-4"><circle class="cls-3" cx="2108.45" cy="571.93" r="1"/><path class="cls-3" d="M2210,619.93a.5.5,0,0,1,0,1,.52.52,0,0,1-.5-.5.5.5,0,0,1,.5-.5m0-1a1.5,1.5,0,1,0,1.5,1.5A1.5,1.5,0,0,0,2210,618.93Z" transform="translate(-101.5 -48.5)"/></g><g class="cls-4"><circle class="cls-3" cx="2245.6" cy="1531.93" r="1"/><path class="cls-3" d="M2347.1,1579.93a.5.5,0,0,1,.5.5.52.52,0,0,1-.5.5.5.5,0,0,1,0-1m0-1a1.5,1.5,0,1,0,1.5,1.5A1.5,1.5,0,0,0,2347.1,1578.93Z" transform="translate(-101.5 -48.5)"/></g><g class="cls-4"><circle class="cls-3" cx="1697.02" cy="1714.29" r="1"/><path class="cls-3" d="M1798.52,1762.29a.5.5,0,0,1,0,1,.52.52,0,0,1-.5-.5.5.5,0,0,1,.5-.5m0-1a1.5,1.5,0,1,0,1.5,1.5,1.5,1.5,0,0,0-1.5-1.5Z" transform="translate(-101.5 -48.5)"/></g><g class="cls-4"><circle class="cls-3" cx="1331.31" cy="2034.79" r="1"/><path class="cls-3" d="M1432.81,2082.79a.5.5,0,1,1-.5.5.5.5,0,0,1,.5-.5m0-1a1.5,1.5,0,1,0,1.5,1.5A1.5,1.5,0,0,0,1432.81,2081.79Z" transform="translate(-101.5 -48.5)"/></g><g class="cls-4"><circle class="cls-3" cx="1331.31" cy="2720.5" r="1"/><path class="cls-3" d="M1432.81,2768.5a.5.5,0,1,1-.5.5.5.5,0,0,1,.5-.5m0-1a1.5,1.5,0,1,0,1.5,1.5A1.5,1.5,0,0,0,1432.81,2767.5Z" transform="translate(-101.5 -48.5)"/></g><g class="cls-4"><circle class="cls-3" cx="1102.74" cy="2583.36" r="1"/><path class="cls-3" d="M1204.24,2631.36a.5.5,0,0,1,.5.5.52.52,0,0,1-.5.5.5.5,0,0,1,0-1m0-1a1.5,1.5,0,1,0,1.5,1.5A1.5,1.5,0,0,0,1204.24,2630.36Z" transform="translate(-101.5 -48.5)"/></g><g class="cls-4"><circle class="cls-3" cx="874.17" cy="2126.21" r="1"/><path class="cls-3" d="M975.67,2174.21a.52.52,0,0,1,.5.5.5.5,0,1,1-.5-.5m0-1a1.5,1.5,0,1,0,1.5,1.5A1.5,1.5,0,0,0,975.67,2173.21Z" transform="translate(-101.5 -48.5)"/></g><g class="cls-4"><circle class="cls-3" cx="1559.88" cy="1029.07" r="1"/><path class="cls-3" d="M1661.38,1077.07a.5.5,0,1,1-.5.5.52.52,0,0,1,.5-.5m0-1a1.5,1.5,0,1,0,1.5,1.5A1.5,1.5,0,0,0,1661.38,1076.07Z" transform="translate(-101.5 -48.5)"/></g><g class="cls-4"><circle class="cls-3" cx="2474.17" cy="1349.07" r="1"/><path class="cls-3" d="M2575.67,1397.07a.52.52,0,0,1,.5.5.5.5,0,1,1-.5-.5m0-1a1.5,1.5,0,1,0,1.5,1.5A1.5,1.5,0,0,0,2575.67,1396.07Z" transform="translate(-101.5 -48.5)"/></g><g class="cls-4"><circle class="cls-3" cx="2885.6" cy="1669.07" r="1"/><path class="cls-3" d="M2987.1,1717.07a.52.52,0,0,1,.5.5.5.5,0,1,1-.5-.5m0-1a1.5,1.5,0,1,0,1.5,1.5A1.5,1.5,0,0,0,2987.1,1716.07Z" transform="translate(-101.5 -48.5)"/></g><g class="cls-4"><circle class="cls-3" cx="3525.6" cy="1989.07" r="1"/><path class="cls-3" d="M3627.1,2037.07a.52.52,0,0,1,.5.5.5.5,0,1,1-.5-.5m0-1a1.5,1.5,0,1,0,1.5,1.5A1.5,1.5,0,0,0,3627.1,2036.07Z" transform="translate(-101.5 -48.5)"/></g><g class="cls-4"><circle class="cls-3" cx="4394.17" cy="2263.36" r="1"/><path class="cls-3" d="M4495.67,2311.36a.5.5,0,0,1,.5.5.52.52,0,0,1-.5.5.5.5,0,0,1,0-1m0-1a1.5,1.5,0,1,0,1.5,1.5A1.5,1.5,0,0,0,4495.67,2310.36Z" transform="translate(-101.5 -48.5)"/></g><g class="cls-4"><circle class="cls-3" cx="4577.02" cy="709.07" r="1"/><path class="cls-3" d="M4678.52,757.07a.5.5,0,1,1-.5.5.52.52,0,0,1,.5-.5m0-1a1.5,1.5,0,1,0,1.5,1.5A1.5,1.5,0,0,0,4678.52,756.07Z" transform="translate(-101.5 -48.5)"/></g><g class="cls-4"><circle class="cls-3" cx="4165.6" cy="297.64" r="1"/><path class="cls-3" d="M4267.1,345.64a.52.52,0,0,1,.5.5.5.5,0,1,1-.5-.5m0-1a1.5,1.5,0,1,0,1.5,1.5A1.5,1.5,0,0,0,4267.1,344.64Z" transform="translate(-101.5 -48.5)"/></g><g class="cls-4"><circle class="cls-3" cx="3708.45" cy="1714.79" r="1"/><path class="cls-3" d="M3810,1762.79a.5.5,0,0,1,0,1,.52.52,0,0,1-.5-.5.5.5,0,0,1,.5-.5m0-1a1.5,1.5,0,1,0,1.5,1.5,1.5,1.5,0,0,0-1.5-1.5Z" transform="translate(-101.5 -48.5)"/></g><g class="cls-4"><circle class="cls-3" cx="3342.74" cy="3726.21" r="1"/><path class="cls-3" d="M3444.24,3774.21a.52.52,0,0,1,.5.5.5.5,0,1,1-.5-.5m0-1a1.5,1.5,0,1,0,1.5,1.5A1.5,1.5,0,0,0,3444.24,3773.21Z" transform="translate(-101.5 -48.5)"/></g><g class="cls-4"><circle class="cls-3" cx="2657.02" cy="3726.21" r="1"/><path class="cls-3" d="M2758.52,3774.21a.5.5,0,1,1-.5.5.52.52,0,0,1,.5-.5m0-1a1.5,1.5,0,1,0,1.5,1.5A1.5,1.5,0,0,0,2758.52,3773.21Z" transform="translate(-101.5 -48.5)"/></g><g class="cls-4"><circle class="cls-3" cx="2291.31" cy="3680.5" r="1"/><path class="cls-3" d="M2392.81,3728.5a.5.5,0,1,1-.5.5.5.5,0,0,1,.5-.5m0-1a1.5,1.5,0,1,0,1.5,1.5A1.5,1.5,0,0,0,2392.81,3727.5Z" transform="translate(-101.5 -48.5)"/></g><g class="cls-4"><circle class="cls-3" cx="1925.6" cy="3360.5" r="1"/><path class="cls-3" d="M2027.1,3408.5a.5.5,0,1,1-.5.5.5.5,0,0,1,.5-.5m0-1a1.5,1.5,0,1,0,1.5,1.5A1.5,1.5,0,0,0,2027.1,3407.5Z" transform="translate(-101.5 -48.5)"/></g><g class="cls-5"><circle class="cls-3" cx="2314.17" cy="3741.83" r="1.5"/><path class="cls-3" d="M2415.67,3789.33a1,1,0,1,1-1,1,1,1,0,0,1,1-1m0-1a2,2,0,1,0,2,2A2,2,0,0,0,2415.67,3788.33Z" transform="translate(-101.5 -48.5)"/></g><g class="cls-5"><circle class="cls-3" cx="2570.17" cy="3357.83" r="1.5"/><path class="cls-3" d="M2671.67,3405.33a1,1,0,1,1-1,1,1,1,0,0,1,1-1m0-1a2,2,0,1,0,2,2A2,2,0,0,0,2671.67,3404.33Z" transform="translate(-101.5 -48.5)"/></g><g class="cls-5"><circle class="cls-3" cx="2762.17" cy="3037.83" r="1.5"/><path class="cls-3" d="M2863.67,3085.33a1,1,0,1,1-1,1,1,1,0,0,1,1-1m0-1a2,2,0,1,0,2,2A2,2,0,0,0,2863.67,3084.33Z" transform="translate(-101.5 -48.5)"/></g><g class="cls-5"><circle class="cls-3" cx="3210.17" cy="2845.83" r="1.5"/><path class="cls-3" d="M3311.67,2893.33a1,1,0,1,1-1,1,1,1,0,0,1,1-1m0-1a2,2,0,1,0,2,2A2,2,0,0,0,3311.67,2892.33Z" transform="translate(-101.5 -48.5)"/></g><g class="cls-5"><circle class="cls-3" cx="2729.17" cy="2036.5" r="1.5"/><path class="cls-3" d="M2830.67,2084a1,1,0,1,1-1,1,1,1,0,0,1,1-1m0-1a2,2,0,1,0,2,2A2,2,0,0,0,2830.67,2083Z" transform="translate(-101.5 -48.5)"/></g><g class="cls-5"><circle class="cls-3" cx="1546.17" cy="2013.83" r="1.5"/><path class="cls-3" d="M1647.67,2061.33a1,1,0,1,1-1,1,1,1,0,0,1,1-1m0-1a2,2,0,1,0,2,2A2,2,0,0,0,1647.67,2060.33Z" transform="translate(-101.5 -48.5)"/></g><g class="cls-5"><circle class="cls-3" cx="1226.17" cy="1949.83" r="1.5"/><path class="cls-3" d="M1327.67,1997.33a1,1,0,1,1-1,1,1,1,0,0,1,1-1m0-1a2,2,0,1,0,2,2A2,2,0,0,0,1327.67,1996.33Z" transform="translate(-101.5 -48.5)"/></g><g class="cls-5"><circle class="cls-3" cx="1354.17" cy="2525.83" r="1.5"/><path class="cls-3" d="M1455.67,2573.33a1,1,0,1,1-1,1,1,1,0,0,1,1-1m0-1a2,2,0,1,0,2,2A2,2,0,0,0,1455.67,2572.33Z" transform="translate(-101.5 -48.5)"/></g><g class="cls-5"><circle class="cls-3" cx="1738.17" cy="3869.83" r="1.5"/><path class="cls-3" d="M1839.67,3917.33a1,1,0,1,1-1,1,1,1,0,0,1,1-1m0-1a2,2,0,1,0,2,2A2,2,0,0,0,1839.67,3916.33Z" transform="translate(-101.5 -48.5)"/></g><g class="cls-5"><circle class="cls-3" cx="1787.17" cy="3485.83" r="1.5"/><path class="cls-3" d="M1888.67,3533.33a1,1,0,1,1-1,1,1,1,0,0,1,1-1m0-1a2,2,0,1,0,2,2A2,2,0,0,0,1888.67,3532.33Z" transform="translate(-101.5 -48.5)"/></g><g class="cls-5"><circle class="cls-3" cx="2954.17" cy="4509.83" r="1.5"/><path class="cls-3" d="M3055.67,4557.33a1,1,0,1,1-1,1,1,1,0,0,1,1-1m0-1a2,2,0,1,0,2,2A2,2,0,0,0,3055.67,4556.33Z" transform="translate(-101.5 -48.5)"/></g><g class="cls-5"><circle class="cls-3" cx="3082.17" cy="4189.83" r="1.5"/><path class="cls-3" d="M3183.67,4237.33a1,1,0,1,1-1,1,1,1,0,0,1,1-1m0-1a2,2,0,1,0,2,2A2,2,0,0,0,3183.67,4236.33Z" transform="translate(-101.5 -48.5)"/></g><g class="cls-5"><circle class="cls-3" cx="4042.17" cy="2269.83" r="1.5"/><path class="cls-3" d="M4143.67,2317.33a1,1,0,1,1-1,1,1,1,0,0,1,1-1m0-1a2,2,0,1,0,2,2A2,2,0,0,0,4143.67,2316.33Z" transform="translate(-101.5 -48.5)"/></g><g class="cls-5"><circle class="cls-3" cx="4170.17" cy="1053.83" r="1.5"/><path class="cls-3" d="M4271.67,1101.33a1,1,0,1,1-1,1,1,1,0,0,1,1-1m0-1a2,2,0,1,0,2,2A2,2,0,0,0,4271.67,1100.33Z" transform="translate(-101.5 -48.5)"/></g><g class="cls-5"><circle class="cls-3" cx="3466.17" cy="1181.83" r="1.5"/><path class="cls-3" d="M3567.67,1229.33a1,1,0,1,1-1,1,1,1,0,0,1,1-1m0-1a2,2,0,1,0,2,2A2,2,0,0,0,3567.67,1228.33Z" transform="translate(-101.5 -48.5)"/></g><g class="cls-5"><circle class="cls-3" cx="2634.17" cy="1437.83" r="1.5"/><path class="cls-3" d="M2735.67,1485.33a1,1,0,1,1-1,1,1,1,0,0,1,1-1m0-1a2,2,0,1,0,2,2A2,2,0,0,0,2735.67,1484.33Z" transform="translate(-101.5 -48.5)"/></g><g class="cls-5"><circle class="cls-3" cx="1930.17" cy="797.83" r="1.5"/><path class="cls-3" d="M2031.67,845.33a1,1,0,1,1-1,1,1,1,0,0,1,1-1m0-1a2,2,0,1,0,2,2A2,2,0,0,0,2031.67,844.33Z" transform="translate(-101.5 -48.5)"/></g><g class="cls-5"><circle class="cls-3" cx="1162.17" cy="477.83" r="1.5"/><path class="cls-3" d="M1263.67,525.33a1,1,0,1,1-1,1,1,1,0,0,1,1-1m0-1a2,2,0,1,0,2,2A2,2,0,0,0,1263.67,524.33Z" transform="translate(-101.5 -48.5)"/></g><g class="cls-5"><circle class="cls-3" cx="714.17" cy="285.83" r="1.5"/><path class="cls-3" d="M815.67,333.33a1,1,0,1,1-1,1,1,1,0,0,1,1-1m0-1a2,2,0,1,0,2,2A2,2,0,0,0,815.67,332.33Z" transform="translate(-101.5 -48.5)"/></g><g class="cls-5"><circle class="cls-3" cx="1930.17" cy="3869.83" r="1.5"/><path class="cls-3" d="M2031.67,3917.33a1,1,0,1,1-1,1,1,1,0,0,1,1-1m0-1a2,2,0,1,0,2,2A2,2,0,0,0,2031.67,3916.33Z" transform="translate(-101.5 -48.5)"/></g><g class="cls-5"><circle class="cls-3" cx="2442.17" cy="3357.83" r="1.5"/><path class="cls-3" d="M2543.67,3405.33a1,1,0,1,1-1,1,1,1,0,0,1,1-1m0-1a2,2,0,1,0,2,2A2,2,0,0,0,2543.67,3404.33Z" transform="translate(-101.5 -48.5)"/></g><g class="cls-5"><circle class="cls-3" cx="1802.17" cy="3229.83" r="1.5"/><path class="cls-3" d="M1903.67,3277.33a1,1,0,1,1-1,1,1,1,0,0,1,1-1m0-1a2,2,0,1,0,2,2A2,2,0,0,0,1903.67,3276.33Z" transform="translate(-101.5 -48.5)"/></g><g class="cls-5"><circle class="cls-3" cx="2181.5" cy="2958.5" r="1.5"/><path class="cls-3" d="M2283,3006a1,1,0,1,1-1,1,1,1,0,0,1,1-1m0-1a2,2,0,1,0,2,2A2,2,0,0,0,2283,3005Z" transform="translate(-101.5 -48.5)"/></g><g class="cls-9"><circle class="cls-3" cx="1935.5" cy="2687.5" r="4"/><path class="cls-3" d="M2037,2732.5a3.5,3.5,0,1,1-3.5,3.5,3.5,3.5,0,0,1,3.5-3.5h0m0-1a4.5,4.5,0,1,0,4.5,4.5h0a4.49,4.49,0,0,0-4.48-4.5Z" transform="translate(-101.5 -48.5)"/></g><g class="cls-9"><circle class="cls-3" cx="3279.5" cy="2927.5" r="4"/><path class="cls-3" d="M3381,2972.5a3.5,3.5,0,1,1-3.5,3.5,3.5,3.5,0,0,1,3.5-3.5h0m0-1a4.5,4.5,0,1,0,4.5,4.5h0a4.49,4.49,0,0,0-4.48-4.5Z" transform="translate(-101.5 -48.5)"/></g><g class="cls-9"><circle class="cls-3" cx="3423.5" cy="2687.5" r="4"/><path class="cls-3" d="M3525,2732.5a3.5,3.5,0,1,1-3.5,3.5,3.5,3.5,0,0,1,3.5-3.5h0m0-1a4.5,4.5,0,1,0,4.5,4.5h0a4.49,4.49,0,0,0-4.48-4.5Z" transform="translate(-101.5 -48.5)"/></g><g class="cls-9"><circle class="cls-3" cx="3327.5" cy="1967.5" r="4"/><path class="cls-3" d="M3429,2012.5a3.5,3.5,0,1,1-3.5,3.5,3.5,3.5,0,0,1,3.5-3.5h0m0-1a4.5,4.5,0,1,0,4.5,4.5,4.49,4.49,0,0,0-4.5-4.5Z" transform="translate(-101.5 -48.5)"/></g><g class="cls-9"><circle class="cls-3" cx="3327.5" cy="1295.5" r="4"/><path class="cls-3" d="M3429,1340.5a3.5,3.5,0,1,1-3.5,3.5,3.5,3.5,0,0,1,3.5-3.5m0-1a4.5,4.5,0,1,0,4.5,4.5,4.49,4.49,0,0,0-4.5-4.5Z" transform="translate(-101.5 -48.5)"/></g><g class="cls-9"><circle class="cls-3" cx="3084.17" cy="1064.83" r="4"/><path class="cls-3" d="M3185.67,1109.83a3.5,3.5,0,1,1-3.5,3.5,3.5,3.5,0,0,1,3.5-3.5m0-1a4.5,4.5,0,1,0,4.5,4.5,4.49,4.49,0,0,0-4.5-4.5Z" transform="translate(-101.5 -48.5)"/></g><g class="cls-9"><circle class="cls-3" cx="3039.5" cy="1583.5" r="4"/><path class="cls-3" d="M3141,1628.5a3.5,3.5,0,1,1-3.5,3.5,3.5,3.5,0,0,1,3.5-3.5h0m0-1a4.5,4.5,0,1,0,4.5,4.5,4.49,4.49,0,0,0-4.5-4.5Z" transform="translate(-101.5 -48.5)"/></g><g class="cls-9"><circle class="cls-3" cx="2607.5" cy="1657.5" r="4"/><path class="cls-3" d="M2709,1702.5a3.5,3.5,0,1,1-3.5,3.5,3.5,3.5,0,0,1,3.5-3.5h0m0-1a4.5,4.5,0,1,0,4.5,4.5,4.49,4.49,0,0,0-4.5-4.5Z" transform="translate(-101.5 -48.5)"/></g><g class="cls-9"><circle class="cls-3" cx="2463.5" cy="1151.5" r="4"/><path class="cls-3" d="M2565,1196.5a3.5,3.5,0,1,1-3.5,3.5,3.5,3.5,0,0,1,3.5-3.5m0-1a4.5,4.5,0,1,0,4.5,4.5,4.49,4.49,0,0,0-4.5-4.5Z" transform="translate(-101.5 -48.5)"/></g><g id="Lines"><g class="cls-10"><line class="cls-11" x1="1739.61" y1="2352.66" x2="1776.72" y2="2336.02"/></g><g class="cls-12"><line class="cls-11" x1="2601.63" y1="2113.33" x2="2605.92" y2="2064.88"/><line class="cls-13" x1="2601.63" y1="2113.33" x2="2605.92" y2="2064.88"/></g><line class="cls-14" x1="2602.93" y1="2115.27" x2="2740.29" y2="2157.61"/><line class="cls-14" x1="2741.57" y1="2156.56" x2="2729.37" y2="2038.49"/><line class="cls-14" x1="2670.3" y1="1979.84" x2="2727.73" y2="2035.11"/><line class="cls-15" x1="1781.35" y1="2334.16" x2="1944.09" y2="2275.34"/><line class="cls-14" x1="1946.97" y1="2274.55" x2="2111.55" y2="2242.48"/><line class="cls-14" x1="1972.18" y1="2352.14" x2="1945.99" y2="2276.25"/><line class="cls-16" x1="1973.12" y1="2357" x2="1979.28" y2="2484.34"/><line class="cls-14" x1="1918.76" y1="2682.72" x2="1931.17" y2="2686.26"/><line class="cls-17" x1="2041.78" y1="2632.15" x2="1939.49" y2="2685.42"/><line class="cls-17" x1="1936.32" y1="2691.93" x2="1956.56" y2="2801.36"/><line class="cls-14" x1="1957.54" y1="2804.16" x2="2005" y2="2893.63"/><line class="cls-14" x1="1939.26" y1="2689.97" x2="2027.25" y2="2747.84"/><line class="cls-14" x1="2029.82" y1="2749.37" x2="2070.3" y2="2770.99"/><line class="cls-18" x1="2429.21" y1="2119.3" x2="2330.91" y2="2083.35"/><line class="cls-18" x1="2330.25" y1="2081.54" x2="2395.58" y2="1968.99"/><line class="cls-18" x1="2431.71" y1="2117.09" x2="2397.4" y2="1969.27"/><line class="cls-14" x1="2606.92" y1="2062.16" x2="2664.47" y2="1980.4"/></g><g class="cls-9"><circle class="cls-3" cx="1979.5" cy="2488.83" r="4"/><path class="cls-3" d="M2081,2533.83a3.5,3.5,0,1,1-3.5,3.5,3.5,3.5,0,0,1,3.5-3.5h0m0-1a4.5,4.5,0,1,0,4.5,4.5,4.49,4.49,0,0,0-4.5-4.5Z" transform="translate(-101.5 -48.5)"/></g><g class="cls-4"><circle class="cls-3" cx="1956.83" cy="2802.83" r="1"/><path class="cls-3" d="M2058.33,2850.83a.5.5,0,1,1-.5.5.52.52,0,0,1,.5-.5m0-1a1.5,1.5,0,1,0,1.5,1.5A1.5,1.5,0,0,0,2058.33,2849.83Z" transform="translate(-101.5 -48.5)"/></g><g class="cls-2"><circle class="cls-3" cx="2072.5" cy="2772.17" r="2"/><path class="cls-3" d="M2174,2819.17a1.5,1.5,0,1,1-1.5,1.5,1.5,1.5,0,0,1,1.5-1.5m0-1a2.5,2.5,0,1,0,2.5,2.5A2.5,2.5,0,0,0,2174,2818.17Z" transform="translate(-101.5 -48.5)"/></g><g class="cls-19"><circle class="cls-3" cx="2028.5" cy="2748.67" r="1"/><path class="cls-3" d="M2130,2796.67a.5.5,0,1,1-.5.5.5.5,0,0,1,.5-.5m0-1a1.5,1.5,0,1,0,1.5,1.5A1.5,1.5,0,0,0,2130,2795.67Z" transform="translate(-101.5 -48.5)"/></g><g class="cls-4"><circle class="cls-3" cx="1751.17" cy="2735.67" r="0.5"/><path class="cls-3" d="M1852.67,2783.17a1,1,0,1,0,1,1A1,1,0,0,0,1852.67,2783.17Z" transform="translate(-101.5 -48.5)"/></g><g class="cls-10"><circle class="cls-3" cx="1907.17" cy="2515.67" r="0.5"/><path class="cls-3" d="M2008.67,2563.17a1,1,0,1,0,1,1A1,1,0,0,0,2008.67,2563.17Z" transform="translate(-101.5 -48.5)"/></g><g class="cls-4"><circle class="cls-3" cx="2117.17" cy="2248.67" r="0.5"/><path class="cls-3" d="M2218.67,2296.17a1,1,0,1,0,1,1A1,1,0,0,0,2218.67,2296.17Z" transform="translate(-101.5 -48.5)"/></g><g class="cls-4"><circle class="cls-3" cx="2207.17" cy="2143.67" r="0.5"/><path class="cls-3" d="M2308.67,2191.17a1,1,0,1,0,1,1A1,1,0,0,0,2308.67,2191.17Z" transform="translate(-101.5 -48.5)"/></g><g class="cls-4"><circle class="cls-3" cx="2303.17" cy="2271.67" r="0.5"/><path class="cls-3" d="M2404.67,2319.17a1,1,0,1,0,1,1A1,1,0,0,0,2404.67,2319.17Z" transform="translate(-101.5 -48.5)"/></g><g class="cls-4"><circle class="cls-3" cx="2735.17" cy="2391.67" r="0.5"/><path class="cls-3" d="M2836.67,2439.17a1,1,0,1,0,1,1A1,1,0,0,0,2836.67,2439.17Z" transform="translate(-101.5 -48.5)"/></g><g class="cls-4"><circle class="cls-3" cx="2919.17" cy="2159.67" r="0.5"/><path class="cls-3" d="M3020.67,2207.17a1,1,0,1,0,1,1A1,1,0,0,0,3020.67,2207.17Z" transform="translate(-101.5 -48.5)"/></g><g class="cls-4"><circle class="cls-3" cx="2895.17" cy="1815.67" r="0.5"/><path class="cls-3" d="M2996.67,1863.17a1,1,0,1,0,1,1A1,1,0,0,0,2996.67,1863.17Z" transform="translate(-101.5 -48.5)"/></g><g class="cls-4"><circle class="cls-3" cx="2439.17" cy="1719.67" r="0.5"/><path class="cls-3" d="M2540.67,1767.17a1,1,0,1,0,1,1A1,1,0,0,0,2540.67,1767.17Z" transform="translate(-101.5 -48.5)"/></g><g class="cls-4"><circle class="cls-3" cx="1887.17" cy="1487.67" r="0.5"/><path class="cls-3" d="M1988.67,1535.17a1,1,0,1,0,1,1A1,1,0,0,0,1988.67,1535.17Z" transform="translate(-101.5 -48.5)"/></g><g class="cls-4"><circle class="cls-3" cx="1927.17" cy="3575.67" r="0.5"/><path class="cls-3" d="M2028.67,3623.17a1,1,0,1,0,1,1A1,1,0,0,0,2028.67,3623.17Z" transform="translate(-101.5 -48.5)"/></g><g class="cls-4"><circle class="cls-3" cx="2423.17" cy="3575.67" r="0.5"/><path class="cls-3" d="M2524.67,3623.17a1,1,0,1,0,1,1A1,1,0,0,0,2524.67,3623.17Z" transform="translate(-101.5 -48.5)"/></g><g class="cls-4"><circle class="cls-3" cx="3183.17" cy="3527.67" r="0.5"/><path class="cls-3" d="M3284.67,3575.17a1,1,0,1,0,1,1A1,1,0,0,0,3284.67,3575.17Z" transform="translate(-101.5 -48.5)"/></g><g class="cls-4"><circle class="cls-3" cx="2959.17" cy="3391.67" r="0.5"/><path class="cls-3" d="M3060.67,3439.17a1,1,0,1,0,1,1A1,1,0,0,0,3060.67,3439.17Z" transform="translate(-101.5 -48.5)"/></g><g class="cls-20"><circle class="cls-3" cx="2106.17" cy="2850.08" r="0.5"/><path class="cls-3" d="M2207.67,2897.58a1,1,0,1,0,1,1A1,1,0,0,0,2207.67,2897.58Z" transform="translate(-101.5 -48.5)"/></g><g class="cls-10"><circle class="cls-3" cx="1806.61" cy="2621.72" r="0.5"/><path class="cls-3" d="M1908.11,2669.22a1,1,0,1,0,1,1A1,1,0,0,0,1908.11,2669.22Z" transform="translate(-101.5 -48.5)"/></g><g class="cls-10"><circle class="cls-3" cx="2026.17" cy="2534.17" r="0.5"/><path class="cls-3" d="M2127.67,2581.67a1,1,0,1,0,1,1A1,1,0,0,0,2127.67,2581.67Z" transform="translate(-101.5 -48.5)"/></g><g class="cls-10"><circle class="cls-3" cx="2106.17" cy="2422.17" r="0.5"/><path class="cls-3" d="M2207.67,2469.67a1,1,0,1,0,1,1A1,1,0,0,0,2207.67,2469.67Z" transform="translate(-101.5 -48.5)"/></g><g class="cls-10"><circle class="cls-3" cx="2570.17" cy="3142.17" r="0.5"/><path class="cls-3" d="M2671.67,3189.67a1,1,0,1,0,1,1A1,1,0,0,0,2671.67,3189.67Z" transform="translate(-101.5 -48.5)"/></g><g class="cls-10"><circle class="cls-3" cx="2474.17" cy="2982.17" r="0.5"/><path class="cls-3" d="M2575.67,3029.67a1,1,0,1,0,1,1A1,1,0,0,0,2575.67,3029.67Z" transform="translate(-101.5 -48.5)"/></g><g class="cls-10"><circle class="cls-3" cx="2474.17" cy="3942.17" r="0.5"/><path class="cls-3" d="M2575.67,3989.67a1,1,0,1,0,1,1A1,1,0,0,0,2575.67,3989.67Z" transform="translate(-101.5 -48.5)"/></g><g class="cls-10"><circle class="cls-3" cx="3242.17" cy="4038.17" r="0.5"/><path class="cls-3" d="M3343.67,4085.67a1,1,0,1,0,1,1A1,1,0,0,0,3343.67,4085.67Z" transform="translate(-101.5 -48.5)"/></g><g class="cls-10"><circle class="cls-3" cx="3002.17" cy="2998.17" r="0.5"/><path class="cls-3" d="M3103.67,3045.67a1,1,0,1,0,1,1A1,1,0,0,0,3103.67,3045.67Z" transform="translate(-101.5 -48.5)"/></g><g class="cls-10"><circle class="cls-3" cx="2474.17" cy="3190.17" r="0.5"/><path class="cls-3" d="M2575.67,3237.67a1,1,0,1,0,1,1A1,1,0,0,0,2575.67,3237.67Z" transform="translate(-101.5 -48.5)"/></g><g class="cls-10"><circle class="cls-3" cx="2698.17" cy="2774.17" r="0.5"/><path class="cls-3" d="M2799.67,2821.67a1,1,0,1,0,1,1A1,1,0,0,0,2799.67,2821.67Z" transform="translate(-101.5 -48.5)"/></g><g class="cls-2"><circle class="cls-3" cx="2396.83" cy="1966.83" r="2"/><path class="cls-3" d="M2498.33,2013.83a1.5,1.5,0,1,1-1.5,1.5h0a1.5,1.5,0,0,1,1.5-1.5m0-1a2.5,2.5,0,1,0,2.5,2.5,2.5,2.5,0,0,0-2.5-2.5Z" transform="translate(-101.5 -48.5)"/></g><g class="cls-9"><circle class="cls-3" cx="2667.06" cy="1976.72" r="4"/><path class="cls-3" d="M2768.56,2021.72a3.5,3.5,0,1,1-3.5,3.5,3.5,3.5,0,0,1,3.5-3.5h0m0-1a4.5,4.5,0,1,0,4.5,4.5,4.49,4.49,0,0,0-4.5-4.5Z" transform="translate(-101.5 -48.5)"/></g><g class="cls-4"><circle class="cls-3" cx="2606.06" cy="2063.39" r="1"/><path class="cls-3" d="M2707.56,2111.39a.5.5,0,0,1,.5.5.52.52,0,0,1-.5.5.5.5,0,0,1,0-1m0-1a1.5,1.5,0,1,0,1.5,1.5A1.5,1.5,0,0,0,2707.56,2110.39Z" transform="translate(-101.5 -48.5)"/></g><g class="cls-4"><circle class="cls-3" cx="2315.06" cy="1827.39" r="1"/><path class="cls-3" d="M2416.56,1875.39a.5.5,0,0,1,.5.5.52.52,0,0,1-.5.5.5.5,0,0,1,0-1m0-1a1.5,1.5,0,1,0,1.5,1.5A1.5,1.5,0,0,0,2416.56,1874.39Z" transform="translate(-101.5 -48.5)"/></g><g class="cls-4"><circle class="cls-3" cx="2741.72" cy="2158.06" r="1"/><path class="cls-3" d="M2843.22,2206.06a.5.5,0,0,1,0,1,.52.52,0,0,1-.5-.5.5.5,0,0,1,.5-.5m0-1a1.5,1.5,0,1,0,1.5,1.5A1.5,1.5,0,0,0,2843.22,2205.06Z" transform="translate(-101.5 -48.5)"/></g><g class="cls-2"><circle class="cls-3" cx="2822.72" cy="2690.11" r="2"/><path class="cls-3" d="M2924.22,2737.11a1.5,1.5,0,1,1-1.5,1.5,1.5,1.5,0,0,1,1.5-1.5m0-1a2.5,2.5,0,1,0,2.5,2.5A2.5,2.5,0,0,0,2924.22,2736.11Z" transform="translate(-101.5 -48.5)"/></g><g class="cls-2"><circle class="cls-3" cx="2807.83" cy="2573.78" r="2"/><path class="cls-3" d="M2909.33,2620.78a1.5,1.5,0,1,1-1.5,1.5,1.5,1.5,0,0,1,1.5-1.5m0-1a2.5,2.5,0,1,0,2.5,2.5A2.5,2.5,0,0,0,2909.33,2619.78Z" transform="translate(-101.5 -48.5)"/></g><line class="cls-14" x1="2807.24" y1="2571.35" x2="2793.85" y2="2516.29"/><g class="cls-10"><circle class="cls-3" cx="2628.33" cy="2580.9" r="0.5"/><path class="cls-3" d="M2729.83,2628.4a1,1,0,1,0,1,1A1,1,0,0,0,2729.83,2628.4Z" transform="translate(-101.5 -48.5)"/></g><g class="cls-10"><circle class="cls-3" cx="2816.39" cy="2881.28" r="0.5"/><path class="cls-3" d="M2917.89,2928.78a1,1,0,1,0,1,1A1,1,0,0,0,2917.89,2928.78Z" transform="translate(-101.5 -48.5)"/></g><g class="cls-10"><circle class="cls-3" cx="3104.61" cy="2721.47" r="0.5"/><path class="cls-3" d="M3206.11,2769a1,1,0,1,0,1,1A1,1,0,0,0,3206.11,2769Z" transform="translate(-101.5 -48.5)"/></g><g class="cls-10"><circle class="cls-3" cx="2167.67" cy="2480.23" r="0.5"/><path class="cls-3" d="M2269.17,2527.73a1,1,0,1,0,1,1A1,1,0,0,0,2269.17,2527.73Z" transform="translate(-101.5 -48.5)"/></g><g class="cls-10"><circle class="cls-3" cx="2586.17" cy="1985.61" r="0.5"/><path class="cls-3" d="M2687.67,2033.11a1,1,0,1,0,1,1A1,1,0,0,0,2687.67,2033.11Z" transform="translate(-101.5 -48.5)"/></g><line class="cls-14" x1="2822.41" y1="2687.63" x2="2808.15" y2="2576.25"/><line class="cls-18" x1="2834.82" y1="2732.98" x2="2823.4" y2="2692.52"/><line class="cls-21" x1="2825.06" y1="2689.23" x2="2904.1" y2="2659.36"/><g class="cls-22"><circle class="cls-3" cx="2805.92" cy="2689.35" r="0.5"/><path class="cls-3" d="M2907.42,2736.85a1,1,0,1,0,1,1A1,1,0,0,0,2907.42,2736.85Z" transform="translate(-101.5 -48.5)"/></g><line class="cls-21" x1="2820.22" y1="2690.11" x2="2806.92" y2="2689.35"/><line class="cls-21" x1="2804.96" y1="2689.08" x2="2728.05" y2="2667.35"/><g class="cls-2"><circle class="cls-3" cx="2280.83" cy="3107.25" r="2"/><path class="cls-3" d="M2382.33,3154.25a1.5,1.5,0,1,1-1.5,1.5,1.5,1.5,0,0,1,1.5-1.5m0-1a2.5,2.5,0,1,0,2.5,2.5A2.5,2.5,0,0,0,2382.33,3153.25Z" transform="translate(-101.5 -48.5)"/></g><g class="cls-5"><circle class="cls-3" cx="2272.33" cy="3006.9" r="1.5"/><path class="cls-3" d="M2373.83,3054.4a1,1,0,1,1-1,1,1,1,0,0,1,1-1m0-1a2,2,0,1,0,2,2A2,2,0,0,0,2373.83,3053.4Z" transform="translate(-101.5 -48.5)"/></g><g class="cls-23"><circle class="cls-3" cx="2331.67" cy="2965.5" r="2"/><path class="cls-3" d="M2433.17,3012.5a1.5,1.5,0,1,1-1.5,1.5,1.5,1.5,0,0,1,1.5-1.5m0-1a2.5,2.5,0,1,0,2.5,2.5A2.5,2.5,0,0,0,2433.17,3011.5Z" transform="translate(-101.5 -48.5)"/></g><line class="cls-14" x1="2273.97" y1="3005.75" x2="2329.62" y2="2966.93"/><g class="cls-4"><circle class="cls-3" cx="2320.78" cy="2944.63" r="0.5"/><path class="cls-3" d="M2422.28,2992.13a1,1,0,1,0,1,1A1,1,0,0,0,2422.28,2992.13Z" transform="translate(-101.5 -48.5)"/></g><line class="cls-24" x1="2330.51" y1="2963.28" x2="2321.24" y2="2945.51"/><line class="cls-25" x1="2310.74" y1="3031.81" x2="2274.02" y2="3007.96"/><line class="cls-25" x1="2281.82" y1="3104.96" x2="2311.84" y2="3035.46"/><g class="cls-2"><circle class="cls-3" cx="2831.5" cy="3160.25" r="2"/><path class="cls-3" d="M2933,3207.25a1.5,1.5,0,1,1-1.5,1.5,1.5,1.5,0,0,1,1.5-1.5m0-1a2.5,2.5,0,1,0,2.5,2.5A2.5,2.5,0,0,0,2933,3206.25Z" transform="translate(-101.5 -48.5)"/></g><line class="cls-25" x1="2736.29" y1="3196.56" x2="2829.19" y2="3161.18"/><line class="cls-21" x1="2833.9" y1="3160.97" x2="2929.12" y2="3191.04"/><g class="cls-4"><ellipse class="cls-3" cx="3204.03" cy="4148.67" rx="0.5" ry="0.5"/><path class="cls-3" d="M3305.53,4196.18a1,1,0,1,0,1,1A1,1,0,0,0,3305.53,4196.18Z" transform="translate(-101.5 -48.5)"/></g><g class="cls-5"><circle class="cls-3" cx="2489.89" cy="2997.81" r="1.5"/><path class="cls-3" d="M2591.39,3045.31a1,1,0,1,1-1,1,1,1,0,0,1,1-1m0-1a2,2,0,1,0,2,2A2,2,0,0,0,2591.39,3044.31Z" transform="translate(-101.5 -48.5)"/></g><g class="cls-26"><circle class="cls-3" cx="2471.83" cy="2705.32" r="2.25"/><path class="cls-3" d="M2573.33,2752.32a1.5,1.5,0,1,1-1.5,1.5,1.5,1.5,0,0,1,1.5-1.5m0-1.5a3,3,0,1,0,3,3A3,3,0,0,0,2573.33,2750.82Z" transform="translate(-101.5 -48.5)"/></g><g class="cls-5"><circle class="cls-3" cx="2159.5" cy="2352.29" r="1.5"/><path class="cls-3" d="M2261,2399.79a1,1,0,1,1-1,1,1,1,0,0,1,1-1m0-1a2,2,0,1,0,2,2A2,2,0,0,0,2261,2398.79Z" transform="translate(-101.5 -48.5)"/></g><g class="cls-5"><circle class="cls-3" cx="1559.92" cy="2279.03" r="1.5"/><path class="cls-3" d="M1661.42,2326.53a1,1,0,1,1-1,1,1,1,0,0,1,1-1m0-1a2,2,0,1,0,2,2A2,2,0,0,0,1661.42,2325.53Z" transform="translate(-101.5 -48.5)"/></g><g class="cls-5"><circle class="cls-3" cx="3657.17" cy="3576.67" r="1.5"/><path class="cls-3" d="M3758.67,3624.17a1,1,0,1,1-1,1,1,1,0,0,1,1-1m0-1a2,2,0,1,0,2,2A2,2,0,0,0,3758.67,3623.17Z" transform="translate(-101.5 -48.5)"/></g><g class="cls-5"><circle class="cls-3" cx="4294.72" cy="1435.14" r="1.5"/><path class="cls-3" d="M4396.22,1482.64a1,1,0,1,1-1,1,1,1,0,0,1,1-1m0-1a2,2,0,1,0,2,2A2,2,0,0,0,4396.22,1481.64Z" transform="translate(-101.5 -48.5)"/></g><g class="cls-5"><circle class="cls-3" cx="1314.5" cy="606.67" r="1.5"/><path class="cls-3" d="M1416,654.17a1,1,0,1,1-1,1,1,1,0,0,1,1-1m0-1a2,2,0,1,0,2,2A2,2,0,0,0,1416,653.17Z" transform="translate(-101.5 -48.5)"/></g><g class="cls-5"><circle class="cls-3" cx="605.5" cy="2388.29" r="1.5"/><path class="cls-3" d="M707,2435.79a1,1,0,1,1-1,1,1,1,0,0,1,1-1m0-1a2,2,0,1,0,2,2A2,2,0,0,0,707,2434.79Z" transform="translate(-101.5 -48.5)"/></g><g class="cls-5"><circle class="cls-3" cx="1063.33" cy="2323.23" r="1.5"/><path class="cls-3" d="M1164.83,2370.73a1,1,0,1,1-1,1,1,1,0,0,1,1-1m0-1a2,2,0,1,0,2,2A2,2,0,0,0,1164.83,2369.73Z" transform="translate(-101.5 -48.5)"/></g><g class="cls-5"><circle class="cls-3" cx="3719.83" cy="3741.44" r="1.5"/><path class="cls-3" d="M3821.33,3788.94a1,1,0,1,1-1,1,1,1,0,0,1,1-1m0-1a2,2,0,1,0,2,2A2,2,0,0,0,3821.33,3787.94Z" transform="translate(-101.5 -48.5)"/></g><g class="cls-5"><circle class="cls-3" cx="3998.5" cy="1498.94" r="1.5"/><path class="cls-3" d="M4100,1546.44a1,1,0,1,1-1,1,1,1,0,0,1,1-1m0-1a2,2,0,1,0,2,2A2,2,0,0,0,4100,1545.44Z" transform="translate(-101.5 -48.5)"/></g><g class="cls-5"><circle class="cls-3" cx="2275.17" cy="3348.42" r="1.5"/><path class="cls-3" d="M2376.67,3395.92a1,1,0,1,1-1,1,1,1,0,0,1,1-1m0-1a2,2,0,1,0,2,2A2,2,0,0,0,2376.67,3394.92Z" transform="translate(-101.5 -48.5)"/></g><g class="cls-5"><circle class="cls-3" cx="2261.17" cy="3736.67" r="1.5"/><path class="cls-3" d="M2362.67,3784.17a1,1,0,1,1-1,1,1,1,0,0,1,1-1m0-1a2,2,0,1,0,2,2A2,2,0,0,0,2362.67,3783.17Z" transform="translate(-101.5 -48.5)"/></g><g class="cls-5"><circle class="cls-3" cx="2660.06" cy="2355.14" r="1.5"/><path class="cls-3" d="M2761.56,2402.64a1,1,0,1,1-1,1,1,1,0,0,1,1-1m0-1a2,2,0,1,0,2,2A2,2,0,0,0,2761.56,2401.64Z" transform="translate(-101.5 -48.5)"/></g><g class="cls-5"><circle class="cls-3" cx="3063.25" cy="2903.7" r="1.5"/><path class="cls-3" d="M3164.75,2951.2a1,1,0,1,1-1,1,1,1,0,0,1,1-1m0-1a2,2,0,1,0,2,2A2,2,0,0,0,3164.75,2950.2Z" transform="translate(-101.5 -48.5)"/></g><g class="cls-22"><circle class="cls-3" cx="2538.17" cy="2703.32" r="1.5"/><path class="cls-3" d="M2639.67,2750.82a1,1,0,1,1-1,1,1,1,0,0,1,1-1m0-1a2,2,0,1,0,2,2A2,2,0,0,0,2639.67,2749.82Z" transform="translate(-101.5 -48.5)"/></g><line class="cls-27" x1="2518.25" y1="2744.75" x2="2537.3" y2="2705.12"/><line class="cls-28" x1="2474.83" y1="2705.33" x2="2536.17" y2="2703.32"/><line class="cls-29" x1="2474.04" y1="2707.35" x2="2515.33" y2="2745.31"/><g class="cls-2"><circle class="cls-3" cx="2510.17" cy="3119.63" r="2"/><path class="cls-3" d="M2611.67,3166.62a1.5,1.5,0,1,1-1.5,1.5,1.5,1.5,0,0,1,1.5-1.5m0-1a2.5,2.5,0,1,0,2.5,2.5A2.5,2.5,0,0,0,2611.67,3165.62Z" transform="translate(-101.5 -48.5)"/></g><g class="cls-2"><ellipse class="cls-3" cx="3216.7" cy="4118.9" rx="2" ry="1.98"/><path class="cls-3" d="M3318.2,4165.91a1.49,1.49,0,1,1-1.5,1.49,1.49,1.49,0,0,1,1.5-1.49m0-1a2.48,2.48,0,1,0,2.5,2.48A2.49,2.49,0,0,0,3318.2,4164.92Z" transform="translate(-101.5 -48.5)"/></g><g class="cls-4"><circle class="cls-3" cx="2343.83" cy="2800.11" r="1"/><path class="cls-3" d="M2445.33,2848.11a.5.5,0,0,1,0,1,.5.5,0,0,1,0-1m0-1a1.5,1.5,0,1,0,1.5,1.5A1.5,1.5,0,0,0,2445.33,2847.11Z" transform="translate(-101.5 -48.5)"/></g><g class="cls-4"><circle class="cls-3" cx="2014.17" cy="3759" r="1"/><path class="cls-3" d="M2115.67,3807a.5.5,0,0,1,0,1,.5.5,0,0,1,0-1m0-1a1.5,1.5,0,1,0,1.5,1.5A1.5,1.5,0,0,0,2115.67,3806Z" transform="translate(-101.5 -48.5)"/></g><line class="cls-30" x1="1931.61" y1="3868.45" x2="2001.7" y2="3801.55"/><line class="cls-30" x1="2004.13" y1="3797.42" x2="2013.79" y2="3760.45"/><line class="cls-28" x1="1930.17" y1="3867.83" x2="1927.5" y2="3760"/><line class="cls-30" x1="1931.98" y1="3755.88" x2="2012.67" y2="3759"/><line class="cls-31" x1="2001.34" y1="3798.57" x2="1931.39" y2="3757.77"/><g class="cls-9"><circle class="cls-3" cx="2146.5" cy="3479.22" r="4"/><path class="cls-3" d="M2248,3524.22a3.5,3.5,0,1,1-3.5,3.5,3.5,3.5,0,0,1,3.5-3.5h0m0-1a4.5,4.5,0,1,0,4.5,4.5h0a4.5,4.5,0,0,0-4.48-4.5Z" transform="translate(-101.5 -48.5)"/></g><g class="cls-9"><circle class="cls-3" cx="1946.65" cy="1852.18" r="4"/><path class="cls-3" d="M2048.15,1897.18a3.5,3.5,0,1,1-3.5,3.5,3.5,3.5,0,0,1,3.5-3.5h0m0-1a4.5,4.5,0,1,0,4.5,4.5h0a4.49,4.49,0,0,0-4.48-4.5Z" transform="translate(-101.5 -48.5)"/></g><g class="cls-5"><circle class="cls-3" cx="2726.06" cy="3828.56" r="1.5"/><path class="cls-3" d="M2827.56,3876.06a1,1,0,1,1-1,1,1,1,0,0,1,1-1m0-1a2,2,0,1,0,2,2A2,2,0,0,0,2827.56,3875.06Z" transform="translate(-101.5 -48.5)"/></g><g class="cls-5"><circle class="cls-3" cx="3177.5" cy="3587.63" r="1.5"/><path class="cls-3" d="M3279,3635.12a1,1,0,1,1-1,1,1,1,0,0,1,1-1m0-1a2,2,0,1,0,2,2A2,2,0,0,0,3279,3634.12Z" transform="translate(-101.5 -48.5)"/></g><g class="cls-5"><circle class="cls-3" cx="1725.61" cy="834.94" r="1.5"/><path class="cls-3" d="M1827.11,882.44a1,1,0,1,1-1,1,1,1,0,0,1,1-1m0-1a2,2,0,1,0,2,2A2,2,0,0,0,1827.11,881.44Z" transform="translate(-101.5 -48.5)"/></g><g class="cls-5"><circle class="cls-3" cx="832.39" cy="2720.21" r="1.5"/><path class="cls-3" d="M933.89,2767.71a1,1,0,1,1-1,1,1,1,0,0,1,1-1m0-1a2,2,0,1,0,2,2A2,2,0,0,0,933.89,2766.71Z" transform="translate(-101.5 -48.5)"/></g><line class="cls-28" x1="3065.11" y1="2902.97" x2="3208.31" y2="2846.56"/><line class="cls-28" x1="3065.24" y1="2903.92" x2="3275.03" y2="2927.01"/><line class="cls-27" x1="3211.46" y1="2847.35" x2="3276.59" y2="2924.07"/><g class="cls-2"><circle class="cls-3" cx="3359.66" cy="2796.39" r="2"/><path class="cls-3" d="M3461.16,2843.39a1.5,1.5,0,1,1-1.5,1.5,1.5,1.5,0,0,1,1.5-1.5m0-1a2.5,2.5,0,1,0,2.5,2.5A2.5,2.5,0,0,0,3461.16,2842.39Z" transform="translate(-101.5 -48.5)"/></g><line class="cls-28" x1="3315.87" y1="3014.69" x2="3281.23" y2="2931.65"/><line class="cls-31" x1="3283.61" y1="2925.66" x2="3413.22" y2="2867.52"/><line class="cls-30" x1="3212.06" y1="2845.2" x2="3357.3" y2="2797.17"/><line class="cls-30" x1="3413.91" y1="2864.5" x2="3361.22" y2="2798.35"/><line class="cls-28" x1="3360.92" y1="2794.24" x2="3421.23" y2="2691.38"/><line class="cls-31" x1="3417.74" y1="2867.6" x2="3494.68" y2="2905.22"/><g class="cls-2"><circle class="cls-3" cx="1557.83" cy="1667.83" r="2"/><path class="cls-3" d="M1659.33,1714.83a1.5,1.5,0,1,1-1.5,1.5,1.52,1.52,0,0,1,1.5-1.5m0-1a2.5,2.5,0,1,0,2.5,2.5A2.5,2.5,0,0,0,1659.33,1713.83Z" transform="translate(-101.5 -48.5)"/></g><g class="cls-2"><circle class="cls-3" cx="3331.83" cy="3639.83" r="2"/><path class="cls-3" d="M3433.33,3686.83a1.5,1.5,0,1,1-1.5,1.5,1.52,1.52,0,0,1,1.5-1.5m0-1a2.5,2.5,0,1,0,2.5,2.5A2.5,2.5,0,0,0,3433.33,3685.83Z" transform="translate(-101.5 -48.5)"/></g><g class="cls-2"><circle class="cls-3" cx="2942.5" cy="4025.5" r="2"/><path class="cls-3" d="M3044,4072.5a1.5,1.5,0,1,1-1.5,1.5,1.5,1.5,0,0,1,1.5-1.5m0-1a2.5,2.5,0,1,0,2.5,2.5A2.5,2.5,0,0,0,3044,4071.5Z" transform="translate(-101.5 -48.5)"/></g><g class="cls-9"><circle class="cls-3" cx="3105.16" cy="3701.5" r="4"/><path class="cls-3" d="M3206.66,3746.5a3.5,3.5,0,1,1-3.5,3.5h0a3.5,3.5,0,0,1,3.5-3.5m0-1a4.5,4.5,0,1,0,4.5,4.5h0a4.49,4.49,0,0,0-4.48-4.5Z" transform="translate(-101.5 -48.5)"/></g><g class="cls-9"><circle class="cls-3" cx="3009.16" cy="3381.5" r="2.67"/><path class="cls-3" d="M3110.66,3427.67a2.33,2.33,0,1,1-2.33,2.33h0a2.33,2.33,0,0,1,2.33-2.33m0-.67a3,3,0,1,0,3,3h0a3,3,0,0,0-3-3Z" transform="translate(-101.5 -48.5)"/></g><g class="cls-2"><circle class="cls-3" cx="851.83" cy="3344.42" r="2"/><path class="cls-3" d="M953.33,3391.42a1.5,1.5,0,1,1-1.5,1.5,1.5,1.5,0,0,1,1.5-1.5m0-1a2.5,2.5,0,1,0,2.5,2.5A2.5,2.5,0,0,0,953.33,3390.42Z" transform="translate(-101.5 -48.5)"/></g><g class="cls-2"><circle class="cls-3" cx="916.28" cy="2204.56" r="2"/><path class="cls-3" d="M1017.78,2251.56a1.5,1.5,0,1,1-1.5,1.5,1.5,1.5,0,0,1,1.5-1.5m0-1a2.5,2.5,0,1,0,2.5,2.5A2.49,2.49,0,0,0,1017.78,2250.56Z" transform="translate(-101.5 -48.5)"/></g><g class="cls-2"><circle class="cls-3" cx="1337.17" cy="2840.67" r="2"/><path class="cls-3" d="M1438.67,2887.67a1.5,1.5,0,1,1-1.5,1.5,1.5,1.5,0,0,1,1.5-1.5m0-1a2.5,2.5,0,1,0,2.5,2.5A2.5,2.5,0,0,0,1438.67,2886.67Z" transform="translate(-101.5 -48.5)"/></g><g class="cls-2"><circle class="cls-3" cx="4354.06" cy="3130.94" r="2"/><path class="cls-3" d="M4455.56,3177.94a1.5,1.5,0,1,1-1.5,1.5,1.51,1.51,0,0,1,1.5-1.5m0-1a2.5,2.5,0,1,0,2.5,2.5A2.49,2.49,0,0,0,4455.56,3176.94Z" transform="translate(-101.5 -48.5)"/></g><g class="cls-2"><circle class="cls-3" cx="3761.83" cy="2528.42" r="2"/><path class="cls-3" d="M3863.33,2575.42a1.5,1.5,0,1,1-1.5,1.5,1.5,1.5,0,0,1,1.5-1.5m0-1a2.5,2.5,0,1,0,2.5,2.5A2.5,2.5,0,0,0,3863.33,2574.42Z" transform="translate(-101.5 -48.5)"/></g><g class="cls-2"><circle class="cls-3" cx="1875.17" cy="556.42" r="2"/><path class="cls-3" d="M1976.67,603.42a1.5,1.5,0,1,1-1.5,1.5,1.5,1.5,0,0,1,1.5-1.5m0-1a2.5,2.5,0,1,0,2.5,2.5A2.5,2.5,0,0,0,1976.67,602.42Z" transform="translate(-101.5 -48.5)"/></g><g class="cls-2"><circle class="cls-3" cx="3611.17" cy="4109.08" r="2"/><path class="cls-3" d="M3712.67,4156.08a1.5,1.5,0,1,1-1.5,1.5,1.5,1.5,0,0,1,1.5-1.5m0-1a2.5,2.5,0,1,0,2.5,2.5A2.5,2.5,0,0,0,3712.67,4155.08Z" transform="translate(-101.5 -48.5)"/></g><g class="cls-2"><circle class="cls-3" cx="3657.17" cy="4306.94" r="2"/><path class="cls-3" d="M3758.67,4353.94a1.5,1.5,0,1,1-1.5,1.5,1.5,1.5,0,0,1,1.5-1.5m0-1a2.5,2.5,0,1,0,2.5,2.5A2.5,2.5,0,0,0,3758.67,4352.94Z" transform="translate(-101.5 -48.5)"/></g><g class="cls-32"><circle class="cls-3" cx="3825.92" cy="3467.03" r="2"/><path class="cls-3" d="M3927.42,3514a1.5,1.5,0,1,1-1.5,1.5,1.5,1.5,0,0,1,1.5-1.5m0-1a2.5,2.5,0,1,0,2.5,2.5A2.5,2.5,0,0,0,3927.42,3513Z" transform="translate(-101.5 -48.5)"/></g><g class="cls-2"><circle class="cls-3" cx="3714.5" cy="3149.44" r="2"/><path class="cls-3" d="M3816,3196.44a1.5,1.5,0,1,1-1.5,1.5,1.5,1.5,0,0,1,1.5-1.5m0-1a2.5,2.5,0,1,0,2.5,2.5A2.5,2.5,0,0,0,3816,3195.44Z" transform="translate(-101.5 -48.5)"/></g><g class="cls-2"><circle class="cls-3" cx="2543.17" cy="3632.67" r="2"/><path class="cls-3" d="M2644.67,3679.67a1.5,1.5,0,1,1-1.5,1.5,1.5,1.5,0,0,1,1.5-1.5m0-1a2.5,2.5,0,1,0,2.5,2.5A2.5,2.5,0,0,0,2644.67,3678.67Z" transform="translate(-101.5 -48.5)"/></g><g class="cls-2"><circle class="cls-3" cx="1918.17" cy="846.29" r="2"/><path class="cls-3" d="M2019.67,893.29a1.5,1.5,0,1,1-1.5,1.5,1.5,1.5,0,0,1,1.5-1.5m0-1a2.5,2.5,0,1,0,2.5,2.5A2.5,2.5,0,0,0,2019.67,892.29Z" transform="translate(-101.5 -48.5)"/></g><g class="cls-2"><circle class="cls-3" cx="3123.17" cy="2133.81" r="2"/><path class="cls-3" d="M3224.67,2180.81a1.5,1.5,0,1,1-1.5,1.5,1.5,1.5,0,0,1,1.5-1.5m0-1a2.5,2.5,0,1,0,2.5,2.5A2.49,2.49,0,0,0,3224.67,2179.81Z" transform="translate(-101.5 -48.5)"/></g><g class="cls-4"><circle class="cls-3" cx="3101.98" cy="2128.83" r="0.5"/><path class="cls-3" d="M3203.48,2176.33a1,1,0,1,0,1,1A1,1,0,0,0,3203.48,2176.33Z" transform="translate(-101.5 -48.5)"/></g><g class="cls-4"><circle class="cls-3" cx="3107.42" cy="2157.98" r="0.5"/><path class="cls-3" d="M3208.92,2205.48a1,1,0,0,0,0,2,1,1,0,0,0,0-2Z" transform="translate(-101.5 -48.5)"/></g><line class="cls-31" x1="3107.97" y1="2157.14" x2="3121.88" y2="2135.95"/><line class="cls-33" x1="3106.68" y1="2157.3" x2="3085.68" y2="2138.18"/><line class="cls-34" x1="3107.23" y1="2156.99" x2="3102.16" y2="2129.82"/><g class="cls-4"><ellipse class="cls-3" cx="3178.92" cy="4118.9" rx="0.5" ry="0.5"/><path class="cls-3" d="M3280.42,4166.4a1,1,0,1,0,1,1A1,1,0,0,0,3280.42,4166.4Z" transform="translate(-101.5 -48.5)"/></g><g class="cls-4"><ellipse class="cls-3" cx="3172.36" cy="4147.68" rx="0.5" ry="0.5"/><path class="cls-3" d="M3273.86,4195.19a1,1,0,1,0,1,1A1,1,0,0,0,3273.86,4195.19Z" transform="translate(-101.5 -48.5)"/></g><g class="cls-5"><ellipse class="cls-3" cx="3147.14" cy="4173.02" rx="1.5" ry="1.49"/><path class="cls-3" d="M3248.64,4220.53a1,1,0,1,1-1,1,1,1,0,0,1,1-1m0-1a2,2,0,1,0,2,2A2,2,0,0,0,3248.64,4219.53Z" transform="translate(-101.5 -48.5)"/></g><line class="cls-29" x1="3148.55" y1="4171.61" x2="3171.66" y2="4148.39"/><line class="cls-33" x1="3203.03" y1="4148.67" x2="3173.36" y2="4147.68"/><line class="cls-30" x1="3172.58" y1="4146.71" x2="3178.7" y2="4119.86"/><line class="cls-33" x1="3179.92" y1="4118.9" x2="3214.2" y2="4118.9"/><line class="cls-30" x1="3204.42" y1="4147.76" x2="3215.73" y2="4121.18"/><g class="cls-2"><circle class="cls-3" cx="1965.83" cy="1560.79" r="2"/><path class="cls-3" d="M2067.33,1607.79a1.5,1.5,0,1,1-1.5,1.5,1.5,1.5,0,0,1,1.5-1.5m0-1a2.5,2.5,0,1,0,2.5,2.5A2.5,2.5,0,0,0,2067.33,1606.79Z" transform="translate(-101.5 -48.5)"/></g><g class="cls-2"><circle class="cls-3" cx="1922.94" cy="1600.72" r="2"/><path class="cls-3" d="M2024.44,1647.72a1.5,1.5,0,1,1-1.5,1.5,1.5,1.5,0,0,1,1.5-1.5m0-1a2.5,2.5,0,1,0,2.5,2.5A2.5,2.5,0,0,0,2024.44,1646.72Z" transform="translate(-101.5 -48.5)"/></g><g class="cls-9"><circle class="cls-3" cx="1950.83" cy="1648.5" r="4"/><path class="cls-3" d="M2052.33,1693.5a3.5,3.5,0,1,1-3.5,3.5,3.5,3.5,0,0,1,3.5-3.5h0m0-1a4.5,4.5,0,1,0,4.5,4.5h0a4.49,4.49,0,0,0-4.48-4.5Z" transform="translate(-101.5 -48.5)"/></g><g class="cls-9"><circle class="cls-3" cx="2043.5" cy="1554.29" r="4"/><path class="cls-3" d="M2145,1599.29a3.5,3.5,0,1,1-3.5,3.5,3.5,3.5,0,0,1,3.5-3.5h0m0-1a4.5,4.5,0,1,0,4.5,4.5h0a4.5,4.5,0,0,0-4.48-4.5Z" transform="translate(-101.5 -48.5)"/></g><g class="cls-4"><circle class="cls-3" cx="1990.67" cy="1644" r="1"/><path class="cls-3" d="M2092.17,1692a.5.5,0,0,1,0,1,.51.51,0,0,1-.5-.5.5.5,0,0,1,.5-.5m0-1a1.5,1.5,0,1,0,1.5,1.5,1.5,1.5,0,0,0-1.5-1.5Z" transform="translate(-101.5 -48.5)"/></g><g class="cls-4"><circle class="cls-3" cx="2111.33" cy="1549.23" r="1"/><path class="cls-3" d="M2212.83,1597.23a.5.5,0,0,1,.5.5.51.51,0,0,1-.5.5.5.5,0,0,1,0-1m0-1a1.5,1.5,0,1,0,1.5,1.5A1.5,1.5,0,0,0,2212.83,1596.23Z" transform="translate(-101.5 -48.5)"/></g><line class="cls-28" x1="2115.36" y1="1584.74" x2="2047.64" y2="1556.05"/><line class="cls-30" x1="2048" y1="1553.96" x2="2109.85" y2="1549.45"/><line class="cls-31" x1="1968.33" y1="1560.58" x2="2039.03" y2="1554.81"/><line class="cls-33" x1="1924.77" y1="1599.02" x2="1964.01" y2="1562.49"/><line class="cls-28" x1="1948.57" y1="1644.61" x2="1924.2" y2="1602.88"/><line class="cls-30" x1="1955.3" y1="1647.99" x2="1989.18" y2="1644.17"/><line class="cls-31" x1="2953.15" y1="4508.12" x2="2932.78" y2="4473.98"/><line class="cls-30" x1="2263.15" y1="3736.86" x2="2312.19" y2="3741.64"/><line class="cls-30" x1="2313.47" y1="3739.96" x2="2291.83" y2="3681.91"/><line class="cls-30" x1="2095.33" y1="4283.38" x2="2129.72" y2="4249.58"/><g class="cls-8"><circle class="cls-3" cx="1295.89" cy="2783.63" r="3"/><path class="cls-3" d="M1397.39,2829.63a2.5,2.5,0,1,1-2.5,2.5,2.5,2.5,0,0,1,2.5-2.5m0-1a3.5,3.5,0,1,0,3.5,3.5,3.5,3.5,0,0,0-3.5-3.5Z" transform="translate(-101.5 -48.5)"/></g><line class="cls-30" x1="1335.7" y1="2838.65" x2="1297.94" y2="2786.46"/><line class="cls-30" x1="1205.92" y1="2807.2" x2="1292.51" y2="2784.52"/><line class="cls-28" x1="1297.6" y1="2780.58" x2="1330.58" y2="2721.81"/><g class="cls-5"><circle class="cls-3" cx="3841.5" cy="3499.5" r="1.5"/><path class="cls-3" d="M3943,3547a1,1,0,1,1-1,1,1,1,0,0,1,1-1m0-1a2,2,0,1,0,2,2A2,2,0,0,0,3943,3546Z" transform="translate(-101.5 -48.5)"/></g><g class="cls-5"><circle class="cls-3" cx="3876.67" cy="3443.23" r="1.5"/><path class="cls-3" d="M3978.17,3490.73a1,1,0,1,1-1,1,1,1,0,0,1,1-1m0-1a2,2,0,1,0,2,2A2,2,0,0,0,3978.17,3489.73Z" transform="translate(-101.5 -48.5)"/></g><line class="cls-28" x1="3840.64" y1="3497.7" x2="3827" y2="3469.29"/><line class="cls-30" x1="3885.79" y1="3501" x2="3876.98" y2="3445.2"/><line class="cls-30" x1="3828.17" y1="3465.97" x2="3874.86" y2="3444.08"/><line class="cls-31" x1="3843.46" y1="3499.76" x2="3882.04" y2="3504.9"/><line class="cls-33" x1="1727.61" y1="835.36" x2="1915.67" y2="846.13"/><line class="cls-31" x1="2129.05" y1="887.37" x2="1920.59" y2="846.91"/><line class="cls-30" x1="1727.46" y1="834.18" x2="1928.2" y2="798.18"/><line class="cls-33" x1="2129.41" y1="886.46" x2="1932" y2="798.64"/><g class="cls-2"><circle class="cls-3" cx="2321.17" cy="1244.67" r="2"/><path class="cls-3" d="M2422.67,1291.67a1.5,1.5,0,1,1-1.5,1.5,1.5,1.5,0,0,1,1.5-1.5m0-1a2.5,2.5,0,1,0,2.5,2.5A2.5,2.5,0,0,0,2422.67,1290.67Z" transform="translate(-101.5 -48.5)"/></g><g class="cls-2"><circle class="cls-3" cx="2370.5" cy="1415.22" r="2"/><path class="cls-3" d="M2472,1462.22a1.5,1.5,0,1,1-1.5,1.5,1.5,1.5,0,0,1,1.5-1.5m0-1a2.5,2.5,0,1,0,2.5,2.5A2.5,2.5,0,0,0,2472,1461.22Z" transform="translate(-101.5 -48.5)"/></g><g class="cls-9"><circle class="cls-3" cx="986.5" cy="2153" r="4"/><path class="cls-3" d="M1088,2198a3.5,3.5,0,1,1-3.5,3.5,3.5,3.5,0,0,1,3.5-3.5h0m0-1a4.5,4.5,0,1,0,4.5,4.5,4.49,4.49,0,0,0-4.5-4.5Z" transform="translate(-101.5 -48.5)"/></g><g class="cls-35"><circle class="cls-3" cx="1000.33" cy="2224.5" r="1.5"/><path class="cls-3" d="M1101.83,2272a1,1,0,1,1-1,1,1,1,0,0,1,1-1m0-1a2,2,0,1,0,2,2A2,2,0,0,0,1101.83,2271Z" transform="translate(-101.5 -48.5)"/></g><g class="cls-5"><circle class="cls-3" cx="1062.33" cy="2227.5" r="1.5"/><path class="cls-3" d="M1163.83,2275a1,1,0,1,1-1,1,1,1,0,0,1,1-1m0-1a2,2,0,1,0,2,2A2,2,0,0,0,1163.83,2274Z" transform="translate(-101.5 -48.5)"/></g><line class="cls-31" x1="918.28" y1="2203.09" x2="983" y2="2155.57"/><line class="cls-27" x1="998.39" y1="2224.04" x2="918.71" y2="2205.13"/><line class="cls-28" x1="1002.33" y1="2224.5" x2="1060.33" y2="2227.5"/><g class="cls-5"><circle class="cls-3" cx="978.17" cy="2192.21" r="1.5"/><path class="cls-3" d="M1079.67,2239.71a1,1,0,1,1-1,1,1,1,0,0,1,1-1m0-1a2,2,0,1,0,2,2A2,2,0,0,0,1079.67,2238.71Z" transform="translate(-101.5 -48.5)"/></g><line class="cls-27" x1="978.58" y1="2190.25" x2="985.56" y2="2157.4"/><line class="cls-31" x1="999.2" y1="2222.85" x2="979.3" y2="2193.86"/><g class="cls-5"><circle class="cls-3" cx="1053.33" cy="2148.9" r="1.5"/><path class="cls-3" d="M1154.83,2196.4a1,1,0,0,1,0,2,1,1,0,0,1,0-2m0-1a2,2,0,1,0,2,2A2,2,0,0,0,1154.83,2195.4Z" transform="translate(-101.5 -48.5)"/></g><line class="cls-27" x1="991" y1="2152.73" x2="1051.33" y2="2149.02"/><line class="cls-36" x1="976.21" y1="2192.6" x2="918.73" y2="2204.07"/><g class="cls-8"><circle class="cls-3" cx="1225.5" cy="1322.29" r="3"/><path class="cls-3" d="M1327,1368.29a2.5,2.5,0,1,1-2.5,2.5,2.5,2.5,0,0,1,2.5-2.5m0-1a3.5,3.5,0,1,0,3.5,3.5,3.5,3.5,0,0,0-3.5-3.5Z" transform="translate(-101.5 -48.5)"/></g><g class="cls-8"><circle class="cls-3" cx="1363.17" cy="1368.47" r="3"/><path class="cls-3" d="M1464.67,1414.47a2.5,2.5,0,1,1-2.5,2.5,2.5,2.5,0,0,1,2.5-2.5m0-1a3.5,3.5,0,1,0,3.5,3.5,3.5,3.5,0,0,0-3.5-3.5Z" transform="translate(-101.5 -48.5)"/></g><line class="cls-37" x1="1228.91" y1="1321.65" x2="1347.1" y2="1299.45"/><line class="cls-27" x1="1228.82" y1="1323.4" x2="1359.85" y2="1367.36"/><line class="cls-36" x1="1352.25" y1="1302.94" x2="1362.67" y2="1365.01"/><g class="cls-2"><circle class="cls-3" cx="1184.56" cy="1331.74" r="2"/><path class="cls-3" d="M1286.06,1378.74a1.5,1.5,0,1,1-1.5,1.5,1.51,1.51,0,0,1,1.5-1.5m0-1a2.5,2.5,0,1,0,2.5,2.5A2.5,2.5,0,0,0,1286.06,1377.74Z" transform="translate(-101.5 -48.5)"/></g><line class="cls-36" x1="1222.09" y1="1323.08" x2="1186.99" y2="1331.18"/><path class="cls-38" d="M3219.61,1145.22a3.5,3.5,0,1,0,3.5,3.5,3.5,3.5,0,0,0-3.5-3.5Z" transform="translate(-101.5 -48.5)"/><path class="cls-39" d="M3371,1172.62a3.5,3.5,0,1,0,3.5,3.5,3.5,3.5,0,0,0-3.5-3.5Z" transform="translate(-101.5 -48.5)"/><line class="cls-28" x1="3115.69" y1="1097.7" x2="3087.28" y2="1068.08"/><line class="cls-40" x1="3222.24" y1="1065.62" x2="3121.43" y2="1099.12"/><line class="cls-41" x1="3267.47" y1="1124.78" x2="3226.11" y2="1066.83"/><line class="cls-36" x1="4032.05" y1="1993.73" x2="3988.86" y2="1927.27"/><g class="cls-2"><circle class="cls-3" cx="912.17" cy="3432.29" r="2"/><path class="cls-3" d="M1013.67,3479.29a1.5,1.5,0,1,1-1.5,1.5,1.5,1.5,0,0,1,1.5-1.5m0-1a2.5,2.5,0,1,0,2.5,2.5A2.5,2.5,0,0,0,1013.67,3478.29Z" transform="translate(-101.5 -48.5)"/></g><g class="cls-2"><circle class="cls-3" cx="827.17" cy="3460.03" r="2"/><path class="cls-3" d="M928.67,3507a1.5,1.5,0,1,1-1.5,1.5,1.5,1.5,0,0,1,1.5-1.5m0-1a2.5,2.5,0,1,0,2.5,2.5A2.5,2.5,0,0,0,928.67,3506Z" transform="translate(-101.5 -48.5)"/></g><g class="cls-2"><circle class="cls-3" cx="954.17" cy="3682.29" r="2"/><path class="cls-3" d="M1055.67,3729.29a1.5,1.5,0,1,1-1.5,1.5,1.5,1.5,0,0,1,1.5-1.5m0-1a2.5,2.5,0,1,0,2.5,2.5A2.5,2.5,0,0,0,1055.67,3728.29Z" transform="translate(-101.5 -48.5)"/></g><g class="cls-2"><circle class="cls-3" cx="624.44" cy="3067.3" r="2"/><path class="cls-3" d="M725.94,3114.3a1.5,1.5,0,1,1-1.5,1.5,1.5,1.5,0,0,1,1.5-1.5m0-1a2.5,2.5,0,1,0,2.5,2.5A2.5,2.5,0,0,0,725.94,3113.3Z" transform="translate(-101.5 -48.5)"/></g><g class="cls-2"><circle class="cls-3" cx="4255.17" cy="2408.67" r="2"/><path class="cls-3" d="M4356.67,2455.67a1.5,1.5,0,1,1-1.5,1.5,1.5,1.5,0,0,1,1.5-1.5m0-1a2.5,2.5,0,1,0,2.5,2.5A2.5,2.5,0,0,0,4356.67,2454.67Z" transform="translate(-101.5 -48.5)"/></g><line class="cls-36" x1="827.69" y1="3457.58" x2="851.31" y2="3346.86"/><line class="cls-41" x1="909.79" y1="3433.07" x2="829.54" y2="3459.25"/><g class="cls-2"><circle class="cls-3" cx="833.33" cy="3509.9" r="2"/><path class="cls-3" d="M934.83,3556.9a1.5,1.5,0,1,1-1.5,1.5,1.5,1.5,0,0,1,1.5-1.5m0-1a2.5,2.5,0,1,0,2.5,2.5A2.5,2.5,0,0,0,934.83,3555.9Z" transform="translate(-101.5 -48.5)"/></g><line class="cls-31" x1="833.02" y1="3507.4" x2="827.48" y2="3462.53"/><line class="cls-27" x1="820.01" y1="3573.38" x2="832.82" y2="3512.34"/><line class="cls-41" x1="910.75" y1="3430.23" x2="853.25" y2="3346.48"/><g class="cls-2"><circle class="cls-3" cx="3484.5" cy="1514" r="2"/><path class="cls-3" d="M3586,1561a1.5,1.5,0,1,1-1.5,1.5,1.5,1.5,0,0,1,1.5-1.5m0-1a2.5,2.5,0,1,0,2.5,2.5A2.5,2.5,0,0,0,3586,1560Z" transform="translate(-101.5 -48.5)"/></g><g class="cls-2"><circle class="cls-3" cx="3323.17" cy="506" r="2"/><path class="cls-3" d="M3424.67,553a1.5,1.5,0,1,1-1.5,1.5,1.5,1.5,0,0,1,1.5-1.5m0-1a2.5,2.5,0,1,0,2.5,2.5A2.5,2.5,0,0,0,3424.67,552Z" transform="translate(-101.5 -48.5)"/></g><g class="cls-2"><circle class="cls-3" cx="4234.06" cy="1454.83" r="2"/><path class="cls-3" d="M4335.56,1501.83a1.5,1.5,0,1,1-1.5,1.5,1.5,1.5,0,0,1,1.5-1.5m0-1a2.5,2.5,0,1,0,2.5,2.5A2.49,2.49,0,0,0,4335.56,1500.83Z" transform="translate(-101.5 -48.5)"/></g><g class="cls-2"><circle class="cls-3" cx="1009.17" cy="856" r="2"/><path class="cls-3" d="M1110.67,903a1.5,1.5,0,1,1-1.5,1.5,1.5,1.5,0,0,1,1.5-1.5m0-1a2.5,2.5,0,1,0,2.5,2.5A2.5,2.5,0,0,0,1110.67,902Z" transform="translate(-101.5 -48.5)"/></g><g class="cls-10"><circle class="cls-3" cx="2698.5" cy="2894.33" r="0.5"/><path class="cls-3" d="M2800,2941.83a1,1,0,1,0,1,1A1,1,0,0,0,2800,2941.83Z" transform="translate(-101.5 -48.5)"/></g><g class="cls-9"><circle class="cls-3" cx="2677.16" cy="2790.42" r="4"/><path class="cls-3" d="M2778.66,2835.42a3.5,3.5,0,1,1-3.5,3.5,3.49,3.49,0,0,1,3.5-3.5h0m0-1a4.5,4.5,0,1,0,4.5,4.5h0a4.48,4.48,0,0,0-4.48-4.5Z" transform="translate(-101.5 -48.5)"/></g><g class="cls-2"><circle class="cls-3" cx="2631.61" cy="2911.58" r="2"/><path class="cls-3" d="M2733.11,2958.58a1.5,1.5,0,1,1-1.5,1.5,1.52,1.52,0,0,1,1.5-1.5m0-1a2.5,2.5,0,1,0,2.5,2.5A2.5,2.5,0,0,0,2733.11,2957.58Z" transform="translate(-101.5 -48.5)"/></g><g class="cls-2"><circle class="cls-3" cx="4310.33" cy="2958.5" r="2"/><path class="cls-3" d="M4411.83,3005.5a1.5,1.5,0,1,1-1.5,1.5,1.5,1.5,0,0,1,1.5-1.5m0-1a2.5,2.5,0,1,0,2.5,2.5A2.5,2.5,0,0,0,4411.83,3004.5Z" transform="translate(-101.5 -48.5)"/></g><g class="cls-8"><circle class="cls-3" cx="4271.67" cy="2996.5" r="3"/><path class="cls-3" d="M4373.17,3042.5a2.5,2.5,0,1,1-2.5,2.5,2.5,2.5,0,0,1,2.5-2.5m0-1a3.5,3.5,0,1,0,3.5,3.5,3.5,3.5,0,0,0-3.5-3.5Z" transform="translate(-101.5 -48.5)"/></g><line class="cls-30" x1="4274.16" y1="2994.05" x2="4308.55" y2="2960.25"/><g class="cls-2"><ellipse class="cls-3" cx="1470.23" cy="1819.84" rx="1.77" ry="2.41"/><path class="cls-3" d="M1571.73,1866.54c.73,0,1.33.81,1.33,1.8s-.6,1.81-1.33,1.81-1.33-.81-1.33-1.81.59-1.8,1.33-1.8m0-1.21c-1.23,0-2.22,1.35-2.22,3s1,3,2.22,3,2.21-1.35,2.21-3S1573,1865.33,1571.73,1865.33Z" transform="translate(-101.5 -48.5)"/></g><g class="cls-8"><ellipse class="cls-3" cx="1435.94" cy="1865.62" rx="2.66" ry="3.61"/><path class="cls-3" d="M1537.44,1911.11c1.22,0,2.21,1.34,2.21,3s-1,3-2.21,3-2.22-1.35-2.22-3,1-3,2.22-3m0-1.21c-1.72,0-3.11,1.89-3.11,4.22s1.39,4.21,3.11,4.21,3.1-1.88,3.1-4.21-1.39-4.22-3.1-4.22Z" transform="translate(-101.5 -48.5)"/></g><line class="cls-30" x1="1438.15" y1="1862.66" x2="1468.65" y2="1821.95"/><g class="cls-2"><circle class="cls-3" cx="2826.33" cy="1481.22" r="2"/><path class="cls-3" d="M2927.83,1528.22a1.5,1.5,0,1,1-1.5,1.5,1.5,1.5,0,0,1,1.5-1.5m0-1a2.5,2.5,0,1,0,2.5,2.5A2.5,2.5,0,0,0,2927.83,1527.22Z" transform="translate(-101.5 -48.5)"/></g><g class="cls-8"><circle class="cls-3" cx="2787.67" cy="1519.22" r="3"/><path class="cls-3" d="M2889.17,1565.22a2.5,2.5,0,1,1-2.5,2.5,2.5,2.5,0,0,1,2.5-2.5m0-1a3.5,3.5,0,1,0,3.5,3.5,3.5,3.5,0,0,0-3.5-3.5Z" transform="translate(-101.5 -48.5)"/></g><line class="cls-30" x1="2790.16" y1="1516.77" x2="2824.55" y2="1482.97"/></g></svg>