<svg xmlns="http://www.w3.org/2000/svg" viewBox="0 0 3946 3747.83"><defs><style>.cls-1{fill:#fff;}.cls-1,.cls-2{stroke:#fff;stroke-miterlimit:10;opacity:0.26;}.cls-2{fill:#080035;}</style></defs><g id="Layer_2" data-name="Layer 2"><circle class="cls-1" cx="2290.33" cy="2536.67" r="2.5"/><circle class="cls-1" cx="1060.33" cy="2682" r="2.5"/><circle class="cls-1" cx="1900.33" cy="3213.17" r="2.5"/><circle class="cls-1" cx="873.67" cy="3178.67" r="2.5"/><circle class="cls-1" cx="2488.33" cy="3400.17" r="2.5"/><circle class="cls-1" cx="3317.67" cy="2555" r="2.5"/><circle class="cls-1" cx="3111" cy="1616" r="2.5"/><circle class="cls-1" cx="3715.67" cy="2025" r="2.5"/><circle class="cls-1" cx="2364.33" cy="1244.17" r="2.5"/><circle class="cls-1" cx="3173.22" cy="1017.33" r="2.5"/><circle class="cls-1" cx="2477.22" cy="453.78" r="2.5"/><circle class="cls-1" cx="1610.56" cy="705.89" r="2.5"/><circle class="cls-1" cx="1145.22" cy="907.5" r="2.5"/><circle class="cls-1" cx="545.33" cy="1431.17" r="2.5"/><circle class="cls-1" cx="1539" cy="1673.17" r="2.5"/><circle class="cls-1" cx="275.33" cy="2052.17" r="2.5"/><circle class="cls-1" cx="3" cy="3" r="2.5"/><circle class="cls-1" cx="3943" cy="141.33" r="2.5"/><circle class="cls-1" cx="3441.67" cy="3520" r="2.5"/><circle class="cls-1" cx="2036.33" cy="3624" r="2.5"/><circle class="cls-1" cx="1649" cy="2521" r="2.5"/><circle class="cls-1" cx="1619" cy="2025.83" r="2.5"/><circle class="cls-1" cx="941.33" cy="1549.17" r="1.5"/><circle class="cls-1" cx="2652.33" cy="1563.83" r="1.5"/><circle class="cls-1" cx="1956.33" cy="977.17" r="1.5"/><circle class="cls-1" cx="2647.33" cy="2956.17" r="1.5"/><circle class="cls-1" cx="3523" cy="3200.25" r="1.5"/><circle class="cls-1" cx="2005.67" cy="3130.25" r="1.5"/><circle class="cls-1" cx="859" cy="3745.83" r="1.5"/><circle class="cls-1" cx="95.89" cy="2472.11" r="1.5"/><circle class="cls-1" cx="3431" cy="2301.33" r="1.5"/><circle class="cls-1" cx="3056.33" cy="2383.17" r="1.5"/><circle class="cls-1" cx="1173.22" cy="1943.56" r="1.5"/><circle class="cls-1" cx="2847" cy="1942.33" r="1.5"/><circle class="cls-1" cx="2481" cy="2843.58" r="1.5"/><circle class="cls-1" cx="2960.33" cy="2160.17" r="1.5"/><circle class="cls-2" cx="765.67" cy="850.33" r="1.5"/></g></svg>