<svg xmlns="http://www.w3.org/2000/svg" viewBox="0 0 5000 5000"><defs><style>.cls-1{fill:#fff;}.cls-1,.cls-2{stroke:#fff;stroke-miterlimit:10;opacity:0.26;}.cls-2{fill:#080035;}</style></defs><g id="Layer_2" data-name="Layer 2"><circle class="cls-1" cx="2747" cy="3109" r="2.5"/><circle class="cls-1" cx="1517" cy="3254.33" r="2.5"/><circle class="cls-1" cx="2357" cy="3785.5" r="2.5"/><circle class="cls-1" cx="1330.33" cy="3751" r="2.5"/><circle class="cls-1" cx="2945" cy="3972.5" r="2.5"/><circle class="cls-1" cx="3774.33" cy="3127.33" r="2.5"/><circle class="cls-1" cx="3567.67" cy="2188.33" r="2.5"/><circle class="cls-1" cx="4172.33" cy="2597.33" r="2.5"/><circle class="cls-1" cx="2821" cy="1816.5" r="2.5"/><circle class="cls-1" cx="3629.89" cy="1589.67" r="2.5"/><circle class="cls-1" cx="2933.89" cy="1026.11" r="2.5"/><circle class="cls-1" cx="2067.22" cy="1278.22" r="2.5"/><circle class="cls-1" cx="1601.89" cy="1479.83" r="2.5"/><circle class="cls-1" cx="1002" cy="2003.5" r="2.5"/><circle class="cls-1" cx="1995.67" cy="2245.5" r="2.5"/><circle class="cls-1" cx="732" cy="2624.5" r="2.5"/><circle class="cls-1" cx="459.67" cy="575.33" r="2.5"/><circle class="cls-1" cx="4399.67" cy="713.67" r="2.5"/><circle class="cls-1" cx="3898.33" cy="4092.33" r="2.5"/><circle class="cls-1" cx="2493" cy="4196.33" r="2.5"/><circle class="cls-1" cx="2105.67" cy="3093.33" r="2.5"/><circle class="cls-1" cx="2075.67" cy="2598.17" r="2.5"/><circle class="cls-1" cx="1398" cy="2121.5" r="1.5"/><circle class="cls-1" cx="3109" cy="2136.17" r="1.5"/><circle class="cls-1" cx="2413" cy="1549.5" r="1.5"/><circle class="cls-1" cx="3104" cy="3528.5" r="1.5"/><circle class="cls-1" cx="3979.67" cy="3772.58" r="1.5"/><circle class="cls-1" cx="2462.33" cy="3702.58" r="1.5"/><circle class="cls-1" cx="1315.67" cy="4318.17" r="1.5"/><circle class="cls-1" cx="552.56" cy="3044.44" r="1.5"/><circle class="cls-1" cx="3887.67" cy="2873.67" r="1.5"/><circle class="cls-1" cx="3513" cy="2955.5" r="1.5"/><circle class="cls-1" cx="1629.89" cy="2515.89" r="1.5"/><circle class="cls-1" cx="3303.67" cy="2514.67" r="1.5"/><circle class="cls-1" cx="2937.67" cy="3415.92" r="1.5"/><circle class="cls-1" cx="3417" cy="2732.5" r="1.5"/><circle class="cls-2" cx="1222.33" cy="1422.67" r="1.5"/><circle class="cls-1" cx="1963" cy="3343" r="1.5"/><circle class="cls-1" cx="3635" cy="3972.33" r="1.5"/><circle class="cls-1" cx="3622" cy="1200" r="1.5"/><circle class="cls-1" cx="1151.89" cy="1886.56" r="1.5"/></g></svg>