<svg id="Layer_1" data-name="Layer 1" xmlns="http://www.w3.org/2000/svg" viewBox="0 0 5000 5000"><defs><style>.cls-1,.cls-2{fill:#fff;opacity:0.25;}.cls-1{stroke:#fff;stroke-miterlimit:10;}</style></defs><circle class="cls-1" cx="756" cy="1428" r="1.5"/><circle class="cls-2" cx="2317" cy="2164.33" r="1.5"/><circle class="cls-2" cx="2901.67" cy="2766.67" r="1.5"/><circle class="cls-2" cx="3623" cy="1898.5" r="1.5"/><circle class="cls-2" cx="4444" cy="2977.5" r="1.5"/><circle class="cls-2" cx="4829.89" cy="705.22" r="1.5"/><circle class="cls-2" cx="3680.56" cy="570.67" r="1.5"/><circle class="cls-2" cx="3645" cy="4289" r="1.5"/><circle class="cls-2" cx="842" cy="4101.5" r="1.5"/><circle class="cls-2" cx="1794.33" cy="3495.33" r="1.5"/><circle class="cls-2" cx="2095.67" cy="2606.17" r="1.5"/><circle class="cls-2" cx="2497.67" cy="1243.5" r="1.5"/><circle class="cls-2" cx="710.78" cy="1984.33" r="1.5"/><circle class="cls-2" cx="2931" cy="3792" r="1.5"/><circle class="cls-2" cx="3799.67" cy="961.33" r="1.5"/><circle class="cls-2" cx="2508.33" cy="1541.33" r="1.5"/><circle class="cls-2" cx="1202.33" cy="1591" r="1.5"/><circle class="cls-1" cx="2074" cy="3298" r="2.5"/><circle class="cls-1" cx="2868" cy="3226.5" r="2.5"/><circle class="cls-1" cx="2843" cy="2664.17" r="2.5"/><circle class="cls-1" cx="1083" cy="4300" r="2.5"/><circle class="cls-1" cx="2864" cy="4252.5" r="2.5"/><circle class="cls-1" cx="3863.67" cy="2519.11" r="2.5"/><circle class="cls-1" cx="1752" cy="1821.5" r="2.5"/><circle class="cls-1" cx="2840" cy="1045.5" r="2.5"/><circle class="cls-1" cx="1293" cy="1983" r="2.5"/><circle class="cls-2" cx="1758.78" cy="2538.67" r="1.5"/><circle class="cls-2" cx="3086.33" cy="3978.67" r="1.5"/><circle class="cls-2" cx="4213" cy="2699.5" r="1.5"/><circle class="cls-2" cx="3397" cy="1743" r="1.5"/><circle class="cls-2" cx="4100.33" cy="3876.67" r="1.5"/><circle class="cls-2" cx="3493.89" cy="3234.11" r="1.5"/><circle class="cls-2" cx="726.67" cy="903.13" r="1.5"/><circle class="cls-2" cx="1745" cy="1239.5" r="1.5"/></svg>